M48
;DRILL file {KiCad (2017-05-10 revision 747583606)-makepkg} date 05/29/17 23:21:58
;FORMAT={-:-/ absolute / metric / decimal}
FMAT,2
METRIC,TZ
T1C0.300
T2C0.400
T3C0.650
T4C0.700
T5C0.800
T6C0.900
T7C1.000
T8C1.200
T9C1.300
T10C2.500
%
G90
G05
M71
T1
X95.05Y-82.275
X95.65Y-84.475
X95.725Y-81.55
X96.275Y-83.675
X110.675Y-76.1
X113.946Y-84.254
X115.296Y-84.325
X125.7Y-61.5
X131.321Y-85.577
X132.3Y-85.6
X135.5Y-62.1
X143.423Y-89.777
X144.232Y-90.468
X145.081Y-87.498
X146.431Y-87.5
X147.8Y-92.4
X148.5Y-88.8
X148.7Y-92.4
X149.507Y-88.35
X152.Y-74.1
X152.5Y-78.8
X153.3Y-78.
X153.6Y-83.
X153.6Y-84.6
X161.5Y-83.9
X161.5Y-85.
X162.9Y-96.3
X163.25Y-95.1
X163.8Y-77.
X165.7Y-96.5
X165.875Y-95.2
X167.2Y-84.2
X167.2Y-85.1
X167.5Y-87.1
X168.8Y-75.6
X170.6Y-72.
X171.23Y-87.6
X171.8Y-84.6
X172.8Y-84.5
X174.7Y-81.3
X177.4Y-79.
X178.3Y-67.2
X179.1Y-69.6
X179.78Y-85.675
X181.7Y-75.4
X181.75Y-79.025
X183.904Y-76.341
X186.4Y-67.2
X188.4Y-67.9
X191.007Y-75.9
X191.2Y-74.3
T2
X97.1Y-102.
X97.866Y-95.466
X99.1Y-79.
X99.55Y-98.75
X99.6Y-95.7
X99.925Y-82.025
X100.9Y-89.5
X105.2Y-90.2
X107.4Y-93.3
X108.675Y-89.5
X112.Y-80.1
X115.3Y-61.2
X117.1Y-74.8
X121.8Y-61.1
X122.Y-64.8
X123.2Y-75.7
X124.3Y-77.6
X124.3Y-79.3
X125.2Y-85.5
X128.7Y-115.7
X129.Y-66.7
X130.7Y-80.
X131.2Y-76.
X131.3Y-71.1
X136.1Y-72.2
X136.6Y-94.6
X137.1Y-70.2
X144.3Y-85.
X145.5Y-83.8
X148.8Y-80.4
X153.051Y-89.029
X153.7Y-86.2
X153.7Y-87.8
X154.852Y-90.552
X156.135Y-80.521
X157.313Y-90.135
X163.5Y-78.35
X166.1Y-76.7
X167.2Y-107.6
X167.3Y-94.2
X171.35Y-79.8
X171.5Y-67.3
X171.6Y-65.
X172.1Y-77.1
X177.2Y-67.4
X177.6Y-63.1
X180.3Y-90.9
X180.8Y-77.7
X182.1Y-73.8
X183.Y-89.6
X184.171Y-75.198
X189.5Y-66.6
X191.8Y-79.7
T3
X128.42Y-65.22
X133.26Y-65.22
T5
X126.1Y-70.5
X135.8Y-75.8
X103.15Y-110.3
X112.45Y-77.5
X108.675Y-77.475
X132.2Y-88.2
X129.8Y-87.8
T6
X142.555Y-74.08
X143.825Y-71.54
X145.095Y-74.08
X146.365Y-71.54
X147.635Y-74.08
X148.905Y-71.54
X150.175Y-74.08
X151.445Y-71.54
X158.055Y-74.08
X159.325Y-71.54
X160.595Y-74.08
X161.865Y-71.54
X163.135Y-74.08
X164.405Y-71.54
X165.675Y-74.08
X166.945Y-71.54
X192.4Y-98.06
X192.4Y-100.6
X192.3Y-93.26
X192.3Y-95.8
T7
X193.96Y-76.42
X193.96Y-78.96
X193.96Y-81.5
X193.96Y-84.04
X193.96Y-86.58
X196.5Y-76.42
X196.5Y-78.96
X196.5Y-81.5
X196.5Y-84.04
X196.5Y-86.58
X174.5Y-66.5
X174.5Y-69.04
X194.5Y-105.1
X194.5Y-107.64
X165.25Y-113.
X169.75Y-113.
X198.Y-95.
X198.Y-97.54
X198.Y-100.08
X198.Y-102.62
X198.Y-105.16
X198.Y-107.7
T8
X113.225Y-112.
X117.035Y-112.
X120.845Y-112.
X124.655Y-112.
X128.465Y-112.
X132.275Y-112.
X176.075Y-111.997
X179.885Y-111.997
X153.845Y-112.
X157.655Y-112.
X142.845Y-112.
X146.655Y-112.
T9
X164.Y-110.5
X171.Y-110.5
T10
X107.75Y-70.5
X107.75Y-107.
X185.25Y-70.5
X185.25Y-107.
T4
X128.11Y-61.89G85X128.11Y-62.39
G05
X133.57Y-61.89G85X133.57Y-62.39
G05
T0
M30
