G04 #@! TF.GenerationSoftware,KiCad,Pcbnew,(2017-05-10 revision 747583606)-makepkg*
G04 #@! TF.CreationDate,2017-05-29T23:21:34+02:00*
G04 #@! TF.ProjectId,BMS-5s,424D532D35732E6B696361645F706362,rev?*
G04 #@! TF.FileFunction,Copper,L2,Bot,Signal*
G04 #@! TF.FilePolarity,Positive*
%FSLAX46Y46*%
G04 Gerber Fmt 4.6, Leading zero omitted, Abs format (unit mm)*
G04 Created by KiCad (PCBNEW (2017-05-10 revision 747583606)-makepkg) date 05/29/17 23:21:34*
%MOMM*%
%LPD*%
G01*
G04 APERTURE LIST*
%ADD10C,0.150000*%
%ADD11C,1.500000*%
%ADD12R,1.500000X1.500000*%
%ADD13C,3.650000*%
%ADD14C,1.700000*%
%ADD15R,1.700000X1.700000*%
%ADD16C,2.200000*%
%ADD17O,1.200000X1.700000*%
%ADD18C,1.100000*%
%ADD19O,1.700000X1.700000*%
%ADD20C,1.400000*%
%ADD21C,5.000000*%
%ADD22R,1.800000X1.800000*%
%ADD23C,1.800000*%
%ADD24C,0.800000*%
%ADD25C,0.700000*%
%ADD26C,0.400000*%
%ADD27C,0.250000*%
%ADD28C,0.300000*%
G04 APERTURE END LIST*
D10*
D11*
X158055000Y-74080000D03*
X159325000Y-71540000D03*
X160595000Y-74080000D03*
X161865000Y-71540000D03*
X163135000Y-74080000D03*
X164405000Y-71540000D03*
X165675000Y-74080000D03*
D12*
X166945000Y-71540000D03*
D13*
X168215000Y-65190000D03*
X156785000Y-65190000D03*
D11*
X142555000Y-74080000D03*
X143825000Y-71540000D03*
X145095000Y-74080000D03*
X146365000Y-71540000D03*
X147635000Y-74080000D03*
X148905000Y-71540000D03*
X150175000Y-74080000D03*
D12*
X151445000Y-71540000D03*
D13*
X152715000Y-65190000D03*
X141285000Y-65190000D03*
D14*
X196500000Y-86580000D03*
X193960000Y-86580000D03*
X196500000Y-84040000D03*
X193960000Y-84040000D03*
X196500000Y-81500000D03*
X193960000Y-81500000D03*
X196500000Y-78960000D03*
X193960000Y-78960000D03*
X196500000Y-76420000D03*
D15*
X193960000Y-76420000D03*
D16*
X179885001Y-111997500D03*
X176075001Y-111997500D03*
D17*
X128110000Y-62140000D03*
X133570000Y-62140000D03*
D18*
X128420000Y-65220000D03*
X133260000Y-65220000D03*
D16*
X142845000Y-112000000D03*
X146655000Y-112000000D03*
X157655000Y-112000000D03*
X153845000Y-112000000D03*
D19*
X198000000Y-107700000D03*
X198000000Y-105160000D03*
X198000000Y-102620000D03*
X198000000Y-100080000D03*
X198000000Y-97540000D03*
D15*
X198000000Y-95000000D03*
D16*
X132275000Y-112000000D03*
X128465000Y-112000000D03*
X124655000Y-112000000D03*
X120845000Y-112000000D03*
X117035000Y-112000000D03*
X113225000Y-112000000D03*
D20*
X135800000Y-75800000D03*
X129800000Y-87800000D03*
X132200000Y-88200000D03*
X108675000Y-77475000D03*
X103150000Y-110300000D03*
X112450000Y-77500000D03*
X126100000Y-70500000D03*
D15*
X174500000Y-69040000D03*
D19*
X174500000Y-66500000D03*
D16*
X164000000Y-110500000D03*
X171000000Y-110500000D03*
D14*
X165250000Y-113000000D03*
X169750000Y-113000000D03*
D21*
X185250000Y-107000000D03*
X185250000Y-70500000D03*
X107750000Y-70500000D03*
D22*
X192400000Y-100600000D03*
D23*
X192400000Y-98060000D03*
D22*
X192300000Y-95800000D03*
D23*
X192300000Y-93260000D03*
D15*
X194500000Y-105100000D03*
D19*
X194500000Y-107640000D03*
D21*
X107750000Y-107000000D03*
D24*
X137100000Y-70200000D03*
X136100000Y-72200000D03*
D25*
X95650000Y-84475000D03*
X95050000Y-82275000D03*
X110675000Y-76100000D03*
X96275000Y-83675000D03*
X95725000Y-81550000D03*
D24*
X145500000Y-83800000D03*
X144300000Y-85000000D03*
X182100000Y-73799998D03*
X184171157Y-75197642D03*
X171600000Y-65000000D03*
X171500000Y-67300000D03*
X191800000Y-79700000D03*
X180300000Y-90900000D03*
X183000000Y-89600000D03*
X154851771Y-90551684D03*
X153051236Y-89028758D03*
D25*
X177400000Y-79000000D03*
X174700000Y-81300000D03*
X135500000Y-62100000D03*
X181700000Y-75400000D03*
X183904230Y-76341218D03*
X168800000Y-75600000D03*
X163800000Y-77000000D03*
X191007119Y-75900012D03*
X191200000Y-74299994D03*
X125700000Y-61500000D03*
D24*
X128700000Y-115700000D03*
X99600000Y-95700000D03*
X99550000Y-98750000D03*
D25*
X170600000Y-72000000D03*
X179100000Y-69600000D03*
X178300000Y-67200000D03*
X167199969Y-84200000D03*
X172800000Y-84499998D03*
X167199987Y-85100000D03*
X171800000Y-84600006D03*
X167500000Y-87100004D03*
X171230182Y-87600044D03*
X152000002Y-74100000D03*
X146431051Y-87499994D03*
X144232166Y-90467834D03*
X145081040Y-87498257D03*
X143422695Y-89777305D03*
X152500000Y-78800000D03*
X161500000Y-85000000D03*
X153300000Y-78000000D03*
X161500000Y-83900000D03*
X165700000Y-96500000D03*
X162900000Y-96300000D03*
X163249997Y-95100000D03*
X165874857Y-95200000D03*
X188400000Y-67900000D03*
X186400000Y-67200000D03*
X179780132Y-85675119D03*
X181750000Y-79025000D03*
D24*
X171350000Y-79800000D03*
X163500000Y-78350002D03*
X156134736Y-80520929D03*
X125200000Y-85500000D03*
X112000000Y-80100000D03*
X177200000Y-67400000D03*
X189500000Y-66600000D03*
X180800000Y-77700000D03*
X166100000Y-76700000D03*
X172100000Y-77100000D03*
X148800000Y-80400000D03*
X157313274Y-90135256D03*
X129000000Y-66700000D03*
X122000000Y-64800000D03*
X131300000Y-71100000D03*
X167200000Y-107600000D03*
X108675000Y-89500000D03*
X177600000Y-63100000D03*
X99925000Y-82025000D03*
X99100000Y-79000000D03*
X100900000Y-89500000D03*
X97865693Y-95465693D03*
X97100002Y-101999998D03*
X167300000Y-94200000D03*
X153700000Y-86200000D03*
X153700000Y-87800000D03*
X121800000Y-61100000D03*
X115300000Y-61200000D03*
X131200000Y-76000000D03*
X130700000Y-80000000D03*
X117100000Y-74800000D03*
X124300000Y-79300000D03*
X124300000Y-77600000D03*
X123200000Y-75700000D03*
X105200000Y-90200000D03*
X107400000Y-93300000D03*
X136600000Y-94600000D03*
D25*
X153600000Y-84600000D03*
X153600000Y-83000000D03*
X149507459Y-88349924D03*
X148700000Y-92400000D03*
X147799987Y-92400000D03*
X148500008Y-88799933D03*
X115295522Y-84324967D03*
X113945510Y-84254490D03*
X132300000Y-85600000D03*
X131321278Y-85576845D03*
D26*
X139399994Y-75800000D02*
X139400000Y-75800006D01*
X137100000Y-71200000D02*
X137100000Y-70765685D01*
X136100000Y-72200000D02*
X137100000Y-71200000D01*
X137100000Y-70765685D02*
X137100000Y-70200000D01*
D27*
X95050000Y-82275000D02*
X95050000Y-83875000D01*
X95050000Y-83875000D02*
X95650000Y-84475000D01*
X108675000Y-77475000D02*
X110050000Y-76100000D01*
X110050000Y-76100000D02*
X110675000Y-76100000D01*
X95725000Y-81550000D02*
X95725000Y-83125000D01*
X95725000Y-83125000D02*
X96275000Y-83675000D01*
X144300000Y-85000000D02*
X145500000Y-83800000D01*
D26*
X182499999Y-74199997D02*
X182100000Y-73799998D01*
X183497644Y-75197642D02*
X182499999Y-74199997D01*
X184171157Y-75197642D02*
X183497644Y-75197642D01*
X171500000Y-67300000D02*
X171500000Y-65100000D01*
X171500000Y-65100000D02*
X171600000Y-65000000D01*
D27*
X193960000Y-76420000D02*
X192860000Y-76420000D01*
X192860000Y-76420000D02*
X191800000Y-77480000D01*
X191800000Y-77480000D02*
X191800000Y-79700000D01*
X183000000Y-89600000D02*
X181700000Y-90900000D01*
X181700000Y-90900000D02*
X180300000Y-90900000D01*
X154574162Y-90551684D02*
X154851771Y-90551684D01*
X153051236Y-89028758D02*
X154574162Y-90551684D01*
X177000000Y-79000000D02*
X177400000Y-79000000D01*
X174700000Y-81300000D02*
X177000000Y-79000000D01*
X135150001Y-62449999D02*
X135500000Y-62100000D01*
X134284990Y-63315010D02*
X135150001Y-62449999D01*
X127515010Y-63315010D02*
X134284990Y-63315010D01*
X125700000Y-61500000D02*
X127515010Y-63315010D01*
X182049999Y-75749999D02*
X181700000Y-75400000D01*
X182641218Y-76341218D02*
X182049999Y-75749999D01*
X183904230Y-76341218D02*
X182641218Y-76341218D01*
X163800000Y-77000000D02*
X165200000Y-75600000D01*
X165200000Y-75600000D02*
X168800000Y-75600000D01*
X191007119Y-75900012D02*
X191007119Y-74492875D01*
X191007119Y-74492875D02*
X191200000Y-74299994D01*
D26*
X128700000Y-115700000D02*
X128700000Y-112235000D01*
X128700000Y-112235000D02*
X128465000Y-112000000D01*
X99550000Y-98750000D02*
X99550000Y-95750000D01*
X99550000Y-95750000D02*
X99600000Y-95700000D01*
D27*
X170600000Y-72000000D02*
X168520000Y-74080000D01*
X168520000Y-74080000D02*
X165675000Y-74080000D01*
X178300000Y-67200000D02*
X179100000Y-68000000D01*
X179100000Y-68000000D02*
X179100000Y-69600000D01*
X167549968Y-83850001D02*
X167199969Y-84200000D01*
X172800000Y-84499998D02*
X172150003Y-83850001D01*
X172150003Y-83850001D02*
X167549968Y-83850001D01*
X171800000Y-84600006D02*
X171699994Y-84500000D01*
X171699994Y-84500000D02*
X168294961Y-84500000D01*
X168294961Y-84500000D02*
X167694961Y-85100000D01*
X167694961Y-85100000D02*
X167199987Y-85100000D01*
X171230182Y-87600044D02*
X171230138Y-87600000D01*
X171230138Y-87600000D02*
X168000000Y-87600000D01*
X168000000Y-87600000D02*
X167500004Y-87100004D01*
X167500004Y-87100004D02*
X167500000Y-87100004D01*
X148905000Y-71540000D02*
X147829999Y-70464999D01*
X147829999Y-70464999D02*
X144900001Y-70464999D01*
X144900001Y-70464999D02*
X144574999Y-70790001D01*
X144574999Y-70790001D02*
X143825000Y-71540000D01*
X159325000Y-71540000D02*
X158249999Y-70464999D01*
X158249999Y-70464999D02*
X149980001Y-70464999D01*
X149980001Y-70464999D02*
X149654999Y-70790001D01*
X149654999Y-70790001D02*
X148905000Y-71540000D01*
X164405000Y-71540000D02*
X163329999Y-70464999D01*
X163329999Y-70464999D02*
X160400001Y-70464999D01*
X160400001Y-70464999D02*
X160074999Y-70790001D01*
X160074999Y-70790001D02*
X159325000Y-71540000D01*
X152000002Y-74100000D02*
X152000002Y-74594974D01*
X152000002Y-74594974D02*
X151339975Y-75255001D01*
X151339975Y-75255001D02*
X146270001Y-75255001D01*
X146270001Y-75255001D02*
X145095000Y-74080000D01*
X158055000Y-74080000D02*
X158100000Y-74035000D01*
X158100000Y-74035000D02*
X158100000Y-73925000D01*
X158100000Y-73925000D02*
X157075000Y-72900000D01*
X157075000Y-72900000D02*
X143735000Y-72900000D01*
X143735000Y-72900000D02*
X142555000Y-74080000D01*
X144232166Y-90467834D02*
X144232166Y-89698879D01*
X144232166Y-89698879D02*
X146081052Y-87849993D01*
X146081052Y-87849993D02*
X146431051Y-87499994D01*
X143422695Y-89777305D02*
X143422695Y-89156602D01*
X144731041Y-87848256D02*
X145081040Y-87498257D01*
X143422695Y-89156602D02*
X144731041Y-87848256D01*
X156858549Y-80186107D02*
X155472442Y-78800000D01*
X156858549Y-80358549D02*
X156858549Y-80186107D01*
X152994974Y-78800000D02*
X152500000Y-78800000D01*
X155472442Y-78800000D02*
X152994974Y-78800000D01*
X161500000Y-85000000D02*
X156858549Y-80358549D01*
X161500000Y-83900000D02*
X155675001Y-78075001D01*
X155675001Y-78075001D02*
X153869975Y-78075001D01*
X153794974Y-78000000D02*
X153300000Y-78000000D01*
X153869975Y-78075001D02*
X153794974Y-78000000D01*
X162900000Y-96300000D02*
X165500000Y-96300000D01*
X165500000Y-96300000D02*
X165700000Y-96500000D01*
X163349997Y-95200000D02*
X163249997Y-95100000D01*
X165874857Y-95200000D02*
X163349997Y-95200000D01*
X187700000Y-67200000D02*
X188050001Y-67550001D01*
X186400000Y-67200000D02*
X187700000Y-67200000D01*
X188050001Y-67550001D02*
X188400000Y-67900000D01*
X181750000Y-83225660D02*
X179780132Y-85195528D01*
X181750000Y-79025000D02*
X181750000Y-83225660D01*
X179780132Y-85195528D02*
X179780132Y-85675119D01*
D26*
X123200000Y-75700000D02*
X123200000Y-76500000D01*
X123200000Y-76500000D02*
X124300000Y-77600000D01*
D27*
X149507459Y-91592541D02*
X149049999Y-92050001D01*
X149049999Y-92050001D02*
X148700000Y-92400000D01*
X149507459Y-88349924D02*
X149507459Y-91592541D01*
X148500008Y-88799933D02*
X148600000Y-88899925D01*
X148600000Y-88899925D02*
X148600000Y-91105013D01*
X148600000Y-91105013D02*
X147799987Y-91905026D01*
X147799987Y-91905026D02*
X147799987Y-92400000D01*
X113945510Y-84254490D02*
X115225045Y-84254490D01*
X115225045Y-84254490D02*
X115295522Y-84324967D01*
X132300000Y-86094974D02*
X132200000Y-86194974D01*
X132200000Y-86194974D02*
X132200000Y-88200000D01*
X132300000Y-86094974D02*
X132300000Y-85600000D01*
X131321278Y-86278722D02*
X131321278Y-86071819D01*
X129800000Y-87800000D02*
X131321278Y-86278722D01*
X131321278Y-86071819D02*
X131321278Y-85576845D01*
D28*
G36*
X192000000Y-64500000D02*
X192009607Y-64548298D01*
X192009607Y-64597545D01*
X192276029Y-65936937D01*
X192350687Y-66117177D01*
X193109391Y-67252659D01*
X193247341Y-67390609D01*
X194382820Y-68149311D01*
X194382822Y-68149313D01*
X194563063Y-68223971D01*
X195902454Y-68490393D01*
X195951702Y-68490393D01*
X196000000Y-68500000D01*
X200000000Y-68500000D01*
X200000000Y-109000000D01*
X198025469Y-109000000D01*
X198522957Y-108901043D01*
X198944708Y-108619239D01*
X199226512Y-108197488D01*
X199325469Y-107700000D01*
X199226512Y-107202512D01*
X198944708Y-106780761D01*
X198522957Y-106498957D01*
X198176288Y-106430000D01*
X198522957Y-106361043D01*
X198944708Y-106079239D01*
X199226512Y-105657488D01*
X199325469Y-105160000D01*
X199226512Y-104662512D01*
X198944708Y-104240761D01*
X198522957Y-103958957D01*
X198176288Y-103890000D01*
X198522957Y-103821043D01*
X198944708Y-103539239D01*
X199226512Y-103117488D01*
X199325469Y-102620000D01*
X199226512Y-102122512D01*
X198944708Y-101700761D01*
X198565506Y-101447387D01*
X198874730Y-101308387D01*
X199278228Y-100880137D01*
X199469619Y-100418061D01*
X199339469Y-100184000D01*
X198104000Y-100184000D01*
X198104000Y-100204000D01*
X197896000Y-100204000D01*
X197896000Y-100184000D01*
X196660531Y-100184000D01*
X196530381Y-100418061D01*
X196721772Y-100880137D01*
X197125270Y-101308387D01*
X197434494Y-101447387D01*
X197055292Y-101700761D01*
X196773488Y-102122512D01*
X196674531Y-102620000D01*
X196773488Y-103117488D01*
X197055292Y-103539239D01*
X197477043Y-103821043D01*
X197823712Y-103890000D01*
X197477043Y-103958957D01*
X197055292Y-104240761D01*
X196773488Y-104662512D01*
X196674531Y-105160000D01*
X196773488Y-105657488D01*
X197055292Y-106079239D01*
X197477043Y-106361043D01*
X197823712Y-106430000D01*
X197477043Y-106498957D01*
X197055292Y-106780761D01*
X196773488Y-107202512D01*
X196674531Y-107700000D01*
X196773488Y-108197488D01*
X197055292Y-108619239D01*
X197477043Y-108901043D01*
X197974531Y-109000000D01*
X196000000Y-109000000D01*
X195951702Y-109009607D01*
X195902454Y-109009607D01*
X194563063Y-109276029D01*
X194382822Y-109350687D01*
X194382820Y-109350689D01*
X193247341Y-110109391D01*
X193109391Y-110247341D01*
X192350688Y-111382822D01*
X192350687Y-111382823D01*
X192276029Y-111563063D01*
X192009607Y-112902455D01*
X192009607Y-112951702D01*
X192000000Y-113000000D01*
X192000000Y-117000000D01*
X101000000Y-117000000D01*
X101000000Y-113000000D01*
X100990393Y-112951702D01*
X100990393Y-112902454D01*
X100871942Y-112306961D01*
X111674732Y-112306961D01*
X111910208Y-112876857D01*
X112345849Y-113313260D01*
X112915333Y-113549730D01*
X113531961Y-113550268D01*
X114101857Y-113314792D01*
X114538260Y-112879151D01*
X114774730Y-112309667D01*
X114774732Y-112306961D01*
X115484732Y-112306961D01*
X115720208Y-112876857D01*
X116155849Y-113313260D01*
X116725333Y-113549730D01*
X117341961Y-113550268D01*
X117911857Y-113314792D01*
X118348260Y-112879151D01*
X118584730Y-112309667D01*
X118584732Y-112306961D01*
X119294732Y-112306961D01*
X119530208Y-112876857D01*
X119965849Y-113313260D01*
X120535333Y-113549730D01*
X121151961Y-113550268D01*
X121721857Y-113314792D01*
X122158260Y-112879151D01*
X122394730Y-112309667D01*
X122394732Y-112306961D01*
X123104732Y-112306961D01*
X123340208Y-112876857D01*
X123775849Y-113313260D01*
X124345333Y-113549730D01*
X124961961Y-113550268D01*
X125531857Y-113314792D01*
X125968260Y-112879151D01*
X126204730Y-112309667D01*
X126204732Y-112306961D01*
X126914732Y-112306961D01*
X127150208Y-112876857D01*
X127585849Y-113313260D01*
X128050000Y-113505992D01*
X128050000Y-115147833D01*
X127979826Y-115217885D01*
X127850148Y-115530183D01*
X127849853Y-115868334D01*
X127978985Y-116180857D01*
X128217885Y-116420174D01*
X128530183Y-116549852D01*
X128868334Y-116550147D01*
X129180857Y-116421015D01*
X129420174Y-116182115D01*
X129549852Y-115869817D01*
X129550147Y-115531666D01*
X129421015Y-115219143D01*
X129350000Y-115148004D01*
X129350000Y-113306663D01*
X129778260Y-112879151D01*
X130014730Y-112309667D01*
X130014732Y-112306961D01*
X130724732Y-112306961D01*
X130960208Y-112876857D01*
X131395849Y-113313260D01*
X131965333Y-113549730D01*
X132581961Y-113550268D01*
X133151857Y-113314792D01*
X133588260Y-112879151D01*
X133824730Y-112309667D01*
X133824732Y-112306961D01*
X141294732Y-112306961D01*
X141530208Y-112876857D01*
X141965849Y-113313260D01*
X142535333Y-113549730D01*
X143151961Y-113550268D01*
X143721857Y-113314792D01*
X143814494Y-113222316D01*
X145579762Y-113222316D01*
X145687343Y-113508802D01*
X146338395Y-113764258D01*
X147037647Y-113751121D01*
X147622657Y-113508802D01*
X147730238Y-113222316D01*
X146655000Y-112147078D01*
X145579762Y-113222316D01*
X143814494Y-113222316D01*
X144158260Y-112879151D01*
X144394730Y-112309667D01*
X144395268Y-111693039D01*
X144391284Y-111683395D01*
X144890742Y-111683395D01*
X144903879Y-112382647D01*
X145146198Y-112967657D01*
X145432684Y-113075238D01*
X146507922Y-112000000D01*
X146802078Y-112000000D01*
X147877316Y-113075238D01*
X148163802Y-112967657D01*
X148419258Y-112316605D01*
X148419077Y-112306961D01*
X152294732Y-112306961D01*
X152530208Y-112876857D01*
X152965849Y-113313260D01*
X153535333Y-113549730D01*
X154151961Y-113550268D01*
X154721857Y-113314792D01*
X154814494Y-113222316D01*
X156579762Y-113222316D01*
X156687343Y-113508802D01*
X157338395Y-113764258D01*
X158037647Y-113751121D01*
X158622657Y-113508802D01*
X158730238Y-113222316D01*
X157655000Y-112147078D01*
X156579762Y-113222316D01*
X154814494Y-113222316D01*
X155158260Y-112879151D01*
X155394730Y-112309667D01*
X155395268Y-111693039D01*
X155391284Y-111683395D01*
X155890742Y-111683395D01*
X155903879Y-112382647D01*
X156146198Y-112967657D01*
X156432684Y-113075238D01*
X157507922Y-112000000D01*
X157802078Y-112000000D01*
X158877316Y-113075238D01*
X159163802Y-112967657D01*
X159419258Y-112316605D01*
X159406121Y-111617353D01*
X159163802Y-111032343D01*
X158877316Y-110924762D01*
X157802078Y-112000000D01*
X157507922Y-112000000D01*
X156432684Y-110924762D01*
X156146198Y-111032343D01*
X155890742Y-111683395D01*
X155391284Y-111683395D01*
X155159792Y-111123143D01*
X154814937Y-110777684D01*
X156579762Y-110777684D01*
X157655000Y-111852922D01*
X158700961Y-110806961D01*
X162449732Y-110806961D01*
X162685208Y-111376857D01*
X163120849Y-111813260D01*
X163690333Y-112049730D01*
X164306961Y-112050268D01*
X164399687Y-112011954D01*
X164148556Y-112262647D01*
X163950226Y-112740279D01*
X163949774Y-113257452D01*
X164147271Y-113735429D01*
X164512647Y-114101444D01*
X164990279Y-114299774D01*
X165507452Y-114300226D01*
X165985429Y-114102729D01*
X166351444Y-113737353D01*
X166549774Y-113259721D01*
X166549775Y-113257452D01*
X168449774Y-113257452D01*
X168647271Y-113735429D01*
X169012647Y-114101444D01*
X169490279Y-114299774D01*
X170007452Y-114300226D01*
X170485429Y-114102729D01*
X170851444Y-113737353D01*
X171049774Y-113259721D01*
X171050226Y-112742548D01*
X170869212Y-112304461D01*
X174524733Y-112304461D01*
X174760209Y-112874357D01*
X175195850Y-113310760D01*
X175765334Y-113547230D01*
X176381962Y-113547768D01*
X176951858Y-113312292D01*
X177388261Y-112876651D01*
X177624731Y-112307167D01*
X177624733Y-112304461D01*
X178334733Y-112304461D01*
X178570209Y-112874357D01*
X179005850Y-113310760D01*
X179575334Y-113547230D01*
X180191962Y-113547768D01*
X180761858Y-113312292D01*
X181198261Y-112876651D01*
X181434731Y-112307167D01*
X181435269Y-111690539D01*
X181199793Y-111120643D01*
X180764152Y-110684240D01*
X180194668Y-110447770D01*
X179578040Y-110447232D01*
X179008144Y-110682708D01*
X178571741Y-111118349D01*
X178335271Y-111687833D01*
X178334733Y-112304461D01*
X177624733Y-112304461D01*
X177625269Y-111690539D01*
X177389793Y-111120643D01*
X176954152Y-110684240D01*
X176384668Y-110447770D01*
X175768040Y-110447232D01*
X175198144Y-110682708D01*
X174761741Y-111118349D01*
X174525271Y-111687833D01*
X174524733Y-112304461D01*
X170869212Y-112304461D01*
X170852729Y-112264571D01*
X170601399Y-112012801D01*
X170690333Y-112049730D01*
X171306961Y-112050268D01*
X171876857Y-111814792D01*
X172313260Y-111379151D01*
X172549730Y-110809667D01*
X172550268Y-110193039D01*
X172314792Y-109623143D01*
X171879151Y-109186740D01*
X171309667Y-108950270D01*
X170693039Y-108949732D01*
X170123143Y-109185208D01*
X169686740Y-109620849D01*
X169450270Y-110190333D01*
X169449732Y-110806961D01*
X169685208Y-111376857D01*
X170008011Y-111700225D01*
X169492548Y-111699774D01*
X169014571Y-111897271D01*
X168648556Y-112262647D01*
X168450226Y-112740279D01*
X168449774Y-113257452D01*
X166549775Y-113257452D01*
X166550226Y-112742548D01*
X166352729Y-112264571D01*
X165987353Y-111898556D01*
X165509721Y-111700226D01*
X164992548Y-111699774D01*
X164991743Y-111700107D01*
X165313260Y-111379151D01*
X165549730Y-110809667D01*
X165550268Y-110193039D01*
X165314792Y-109623143D01*
X164879151Y-109186740D01*
X164309667Y-108950270D01*
X163693039Y-108949732D01*
X163123143Y-109185208D01*
X162686740Y-109620849D01*
X162450270Y-110190333D01*
X162449732Y-110806961D01*
X158700961Y-110806961D01*
X158730238Y-110777684D01*
X158622657Y-110491198D01*
X157971605Y-110235742D01*
X157272353Y-110248879D01*
X156687343Y-110491198D01*
X156579762Y-110777684D01*
X154814937Y-110777684D01*
X154724151Y-110686740D01*
X154154667Y-110450270D01*
X153538039Y-110449732D01*
X152968143Y-110685208D01*
X152531740Y-111120849D01*
X152295270Y-111690333D01*
X152294732Y-112306961D01*
X148419077Y-112306961D01*
X148406121Y-111617353D01*
X148163802Y-111032343D01*
X147877316Y-110924762D01*
X146802078Y-112000000D01*
X146507922Y-112000000D01*
X145432684Y-110924762D01*
X145146198Y-111032343D01*
X144890742Y-111683395D01*
X144391284Y-111683395D01*
X144159792Y-111123143D01*
X143814937Y-110777684D01*
X145579762Y-110777684D01*
X146655000Y-111852922D01*
X147730238Y-110777684D01*
X147622657Y-110491198D01*
X146971605Y-110235742D01*
X146272353Y-110248879D01*
X145687343Y-110491198D01*
X145579762Y-110777684D01*
X143814937Y-110777684D01*
X143724151Y-110686740D01*
X143154667Y-110450270D01*
X142538039Y-110449732D01*
X141968143Y-110685208D01*
X141531740Y-111120849D01*
X141295270Y-111690333D01*
X141294732Y-112306961D01*
X133824732Y-112306961D01*
X133825268Y-111693039D01*
X133589792Y-111123143D01*
X133154151Y-110686740D01*
X132584667Y-110450270D01*
X131968039Y-110449732D01*
X131398143Y-110685208D01*
X130961740Y-111120849D01*
X130725270Y-111690333D01*
X130724732Y-112306961D01*
X130014732Y-112306961D01*
X130015268Y-111693039D01*
X129779792Y-111123143D01*
X129344151Y-110686740D01*
X128774667Y-110450270D01*
X128158039Y-110449732D01*
X127588143Y-110685208D01*
X127151740Y-111120849D01*
X126915270Y-111690333D01*
X126914732Y-112306961D01*
X126204732Y-112306961D01*
X126205268Y-111693039D01*
X125969792Y-111123143D01*
X125534151Y-110686740D01*
X124964667Y-110450270D01*
X124348039Y-110449732D01*
X123778143Y-110685208D01*
X123341740Y-111120849D01*
X123105270Y-111690333D01*
X123104732Y-112306961D01*
X122394732Y-112306961D01*
X122395268Y-111693039D01*
X122159792Y-111123143D01*
X121724151Y-110686740D01*
X121154667Y-110450270D01*
X120538039Y-110449732D01*
X119968143Y-110685208D01*
X119531740Y-111120849D01*
X119295270Y-111690333D01*
X119294732Y-112306961D01*
X118584732Y-112306961D01*
X118585268Y-111693039D01*
X118349792Y-111123143D01*
X117914151Y-110686740D01*
X117344667Y-110450270D01*
X116728039Y-110449732D01*
X116158143Y-110685208D01*
X115721740Y-111120849D01*
X115485270Y-111690333D01*
X115484732Y-112306961D01*
X114774732Y-112306961D01*
X114775268Y-111693039D01*
X114539792Y-111123143D01*
X114104151Y-110686740D01*
X113534667Y-110450270D01*
X112918039Y-110449732D01*
X112348143Y-110685208D01*
X111911740Y-111120849D01*
X111675270Y-111690333D01*
X111674732Y-112306961D01*
X100871942Y-112306961D01*
X100723971Y-111563063D01*
X100649313Y-111382822D01*
X100649311Y-111382820D01*
X100077970Y-110527746D01*
X101999801Y-110527746D01*
X102174509Y-110950572D01*
X102497727Y-111274354D01*
X102920247Y-111449800D01*
X103377746Y-111450199D01*
X103800572Y-111275491D01*
X104124354Y-110952273D01*
X104299800Y-110529753D01*
X104300199Y-110072254D01*
X104125491Y-109649428D01*
X103802273Y-109325646D01*
X103379753Y-109150200D01*
X102922254Y-109149801D01*
X102499428Y-109324509D01*
X102175646Y-109647727D01*
X102000200Y-110070247D01*
X101999801Y-110527746D01*
X100077970Y-110527746D01*
X99890609Y-110247341D01*
X99752659Y-110109391D01*
X98617177Y-109350687D01*
X98436937Y-109276029D01*
X97097545Y-109009607D01*
X97048298Y-109009607D01*
X97000000Y-109000000D01*
X93000000Y-109000000D01*
X93000000Y-107584217D01*
X104799489Y-107584217D01*
X105247653Y-108668858D01*
X106076777Y-109499430D01*
X107160634Y-109949487D01*
X108334217Y-109950511D01*
X109418858Y-109502347D01*
X110249430Y-108673223D01*
X110699487Y-107589366D01*
X110699491Y-107584217D01*
X182299489Y-107584217D01*
X182747653Y-108668858D01*
X183576777Y-109499430D01*
X184660634Y-109949487D01*
X185834217Y-109950511D01*
X186918858Y-109502347D01*
X187749430Y-108673223D01*
X188178461Y-107640000D01*
X193174531Y-107640000D01*
X193273488Y-108137488D01*
X193555292Y-108559239D01*
X193977043Y-108841043D01*
X194474531Y-108940000D01*
X194525469Y-108940000D01*
X195022957Y-108841043D01*
X195444708Y-108559239D01*
X195726512Y-108137488D01*
X195825469Y-107640000D01*
X195726512Y-107142512D01*
X195444708Y-106720761D01*
X195022957Y-106438957D01*
X194871429Y-106408816D01*
X195350000Y-106408816D01*
X195525581Y-106373891D01*
X195674432Y-106274432D01*
X195773891Y-106125581D01*
X195808816Y-105950000D01*
X195808816Y-104250000D01*
X195773891Y-104074419D01*
X195674432Y-103925568D01*
X195525581Y-103826109D01*
X195350000Y-103791184D01*
X193650000Y-103791184D01*
X193474419Y-103826109D01*
X193325568Y-103925568D01*
X193226109Y-104074419D01*
X193191184Y-104250000D01*
X193191184Y-105950000D01*
X193226109Y-106125581D01*
X193325568Y-106274432D01*
X193474419Y-106373891D01*
X193650000Y-106408816D01*
X194128571Y-106408816D01*
X193977043Y-106438957D01*
X193555292Y-106720761D01*
X193273488Y-107142512D01*
X193174531Y-107640000D01*
X188178461Y-107640000D01*
X188199487Y-107589366D01*
X188200511Y-106415783D01*
X187752347Y-105331142D01*
X186923223Y-104500570D01*
X185839366Y-104050513D01*
X184665783Y-104049489D01*
X183581142Y-104497653D01*
X182750570Y-105326777D01*
X182300513Y-106410634D01*
X182299489Y-107584217D01*
X110699491Y-107584217D01*
X110700511Y-106415783D01*
X110252347Y-105331142D01*
X109423223Y-104500570D01*
X108339366Y-104050513D01*
X107165783Y-104049489D01*
X106081142Y-104497653D01*
X105250570Y-105326777D01*
X104800513Y-106410634D01*
X104799489Y-107584217D01*
X93000000Y-107584217D01*
X93000000Y-100868500D01*
X190842000Y-100868500D01*
X190842000Y-101630884D01*
X190942174Y-101872727D01*
X191127273Y-102057825D01*
X191369115Y-102158000D01*
X192131500Y-102158000D01*
X192296000Y-101993500D01*
X192296000Y-100704000D01*
X192504000Y-100704000D01*
X192504000Y-101993500D01*
X192668500Y-102158000D01*
X193430885Y-102158000D01*
X193672727Y-102057825D01*
X193857826Y-101872727D01*
X193958000Y-101630884D01*
X193958000Y-100868500D01*
X193793500Y-100704000D01*
X192504000Y-100704000D01*
X192296000Y-100704000D01*
X191006500Y-100704000D01*
X190842000Y-100868500D01*
X93000000Y-100868500D01*
X93000000Y-98918334D01*
X98699853Y-98918334D01*
X98828985Y-99230857D01*
X99067885Y-99470174D01*
X99380183Y-99599852D01*
X99718334Y-99600147D01*
X100030857Y-99471015D01*
X100270174Y-99232115D01*
X100399852Y-98919817D01*
X100400147Y-98581666D01*
X100271015Y-98269143D01*
X100200000Y-98198004D01*
X100200000Y-96458432D01*
X162099861Y-96458432D01*
X162221397Y-96752572D01*
X162446245Y-96977812D01*
X162740172Y-97099861D01*
X163058432Y-97100139D01*
X163352572Y-96978603D01*
X163456356Y-96875000D01*
X164989345Y-96875000D01*
X165021397Y-96952572D01*
X165246245Y-97177812D01*
X165540172Y-97299861D01*
X165858432Y-97300139D01*
X166152572Y-97178603D01*
X166377812Y-96953755D01*
X166499861Y-96659828D01*
X166500139Y-96341568D01*
X166387310Y-96068500D01*
X190742000Y-96068500D01*
X190742000Y-96830884D01*
X190842174Y-97072727D01*
X191027273Y-97257825D01*
X191235516Y-97344083D01*
X191050235Y-97790290D01*
X191049766Y-98327353D01*
X191254858Y-98823715D01*
X191472763Y-99042000D01*
X191369115Y-99042000D01*
X191127273Y-99142175D01*
X190942174Y-99327273D01*
X190842000Y-99569116D01*
X190842000Y-100331500D01*
X191006500Y-100496000D01*
X192296000Y-100496000D01*
X192296000Y-100476000D01*
X192504000Y-100476000D01*
X192504000Y-100496000D01*
X193793500Y-100496000D01*
X193958000Y-100331500D01*
X193958000Y-99741939D01*
X196530381Y-99741939D01*
X196660531Y-99976000D01*
X197896000Y-99976000D01*
X197896000Y-99956000D01*
X198104000Y-99956000D01*
X198104000Y-99976000D01*
X199339469Y-99976000D01*
X199469619Y-99741939D01*
X199278228Y-99279863D01*
X198874730Y-98851613D01*
X198565506Y-98712613D01*
X198944708Y-98459239D01*
X199226512Y-98037488D01*
X199325469Y-97540000D01*
X199226512Y-97042512D01*
X198944708Y-96620761D01*
X198522957Y-96338957D01*
X198371429Y-96308816D01*
X198850000Y-96308816D01*
X199025581Y-96273891D01*
X199174432Y-96174432D01*
X199273891Y-96025581D01*
X199308816Y-95850000D01*
X199308816Y-94150000D01*
X199273891Y-93974419D01*
X199174432Y-93825568D01*
X199025581Y-93726109D01*
X198850000Y-93691184D01*
X197150000Y-93691184D01*
X196974419Y-93726109D01*
X196825568Y-93825568D01*
X196726109Y-93974419D01*
X196691184Y-94150000D01*
X196691184Y-95850000D01*
X196726109Y-96025581D01*
X196825568Y-96174432D01*
X196974419Y-96273891D01*
X197150000Y-96308816D01*
X197628571Y-96308816D01*
X197477043Y-96338957D01*
X197055292Y-96620761D01*
X196773488Y-97042512D01*
X196674531Y-97540000D01*
X196773488Y-98037488D01*
X197055292Y-98459239D01*
X197434494Y-98712613D01*
X197125270Y-98851613D01*
X196721772Y-99279863D01*
X196530381Y-99741939D01*
X193958000Y-99741939D01*
X193958000Y-99569116D01*
X193857826Y-99327273D01*
X193672727Y-99142175D01*
X193430885Y-99042000D01*
X193327142Y-99042000D01*
X193543807Y-98825712D01*
X193749765Y-98329710D01*
X193750234Y-97792647D01*
X193545142Y-97296285D01*
X193526050Y-97277159D01*
X193572727Y-97257825D01*
X193757826Y-97072727D01*
X193858000Y-96830884D01*
X193858000Y-96068500D01*
X193693500Y-95904000D01*
X192404000Y-95904000D01*
X192404000Y-95924000D01*
X192196000Y-95924000D01*
X192196000Y-95904000D01*
X190906500Y-95904000D01*
X190742000Y-96068500D01*
X166387310Y-96068500D01*
X166378603Y-96047428D01*
X166244343Y-95912934D01*
X166327429Y-95878603D01*
X166552669Y-95653755D01*
X166674718Y-95359828D01*
X166674996Y-95041568D01*
X166562422Y-94769116D01*
X190742000Y-94769116D01*
X190742000Y-95531500D01*
X190906500Y-95696000D01*
X192196000Y-95696000D01*
X192196000Y-95676000D01*
X192404000Y-95676000D01*
X192404000Y-95696000D01*
X193693500Y-95696000D01*
X193858000Y-95531500D01*
X193858000Y-94769116D01*
X193757826Y-94527273D01*
X193572727Y-94342175D01*
X193330885Y-94242000D01*
X193227142Y-94242000D01*
X193443807Y-94025712D01*
X193649765Y-93529710D01*
X193650234Y-92992647D01*
X193445142Y-92496285D01*
X193065712Y-92116193D01*
X192569710Y-91910235D01*
X192032647Y-91909766D01*
X191536285Y-92114858D01*
X191156193Y-92494288D01*
X190950235Y-92990290D01*
X190949766Y-93527353D01*
X191154858Y-94023715D01*
X191372763Y-94242000D01*
X191269115Y-94242000D01*
X191027273Y-94342175D01*
X190842174Y-94527273D01*
X190742000Y-94769116D01*
X166562422Y-94769116D01*
X166553460Y-94747428D01*
X166328612Y-94522188D01*
X166034685Y-94400139D01*
X165716425Y-94399861D01*
X165422285Y-94521397D01*
X165318501Y-94625000D01*
X163906211Y-94625000D01*
X163703752Y-94422188D01*
X163409825Y-94300139D01*
X163091565Y-94299861D01*
X162797425Y-94421397D01*
X162572185Y-94646245D01*
X162450136Y-94940172D01*
X162449858Y-95258432D01*
X162571394Y-95552572D01*
X162583835Y-95565035D01*
X162447428Y-95621397D01*
X162222188Y-95846245D01*
X162100139Y-96140172D01*
X162099861Y-96458432D01*
X100200000Y-96458432D01*
X100200000Y-96302080D01*
X100320174Y-96182115D01*
X100449852Y-95869817D01*
X100450147Y-95531666D01*
X100321015Y-95219143D01*
X100082115Y-94979826D01*
X99769817Y-94850148D01*
X99431666Y-94849853D01*
X99119143Y-94978985D01*
X98879826Y-95217885D01*
X98750148Y-95530183D01*
X98749853Y-95868334D01*
X98878985Y-96180857D01*
X98900000Y-96201909D01*
X98900000Y-98197833D01*
X98829826Y-98267885D01*
X98700148Y-98580183D01*
X98699853Y-98918334D01*
X93000000Y-98918334D01*
X93000000Y-92558432D01*
X146999848Y-92558432D01*
X147121384Y-92852572D01*
X147346232Y-93077812D01*
X147640159Y-93199861D01*
X147958419Y-93200139D01*
X148250349Y-93079516D01*
X148540172Y-93199861D01*
X148858432Y-93200139D01*
X149152572Y-93078603D01*
X149377812Y-92853755D01*
X149499861Y-92559828D01*
X149499989Y-92413183D01*
X149914045Y-91999127D01*
X150038690Y-91812584D01*
X150051168Y-91749852D01*
X150082459Y-91592541D01*
X150082459Y-89197092D01*
X152201089Y-89197092D01*
X152330221Y-89509615D01*
X152569121Y-89748932D01*
X152881419Y-89878610D01*
X153088096Y-89878790D01*
X154052534Y-90843229D01*
X154130756Y-91032541D01*
X154369656Y-91271858D01*
X154681954Y-91401536D01*
X155020105Y-91401831D01*
X155332628Y-91272699D01*
X155537349Y-91068334D01*
X179449853Y-91068334D01*
X179578985Y-91380857D01*
X179817885Y-91620174D01*
X180130183Y-91749852D01*
X180468334Y-91750147D01*
X180780857Y-91621015D01*
X180927127Y-91475000D01*
X181700000Y-91475000D01*
X181920043Y-91431231D01*
X182106586Y-91306586D01*
X182963205Y-90449968D01*
X183168334Y-90450147D01*
X183480857Y-90321015D01*
X183720174Y-90082115D01*
X183849852Y-89769817D01*
X183850147Y-89431666D01*
X183721015Y-89119143D01*
X183482115Y-88879826D01*
X183169817Y-88750148D01*
X182831666Y-88749853D01*
X182519143Y-88878985D01*
X182279826Y-89117885D01*
X182150148Y-89430183D01*
X182149968Y-89636860D01*
X181461828Y-90325000D01*
X180927036Y-90325000D01*
X180782115Y-90179826D01*
X180469817Y-90050148D01*
X180131666Y-90049853D01*
X179819143Y-90178985D01*
X179579826Y-90417885D01*
X179450148Y-90730183D01*
X179449853Y-91068334D01*
X155537349Y-91068334D01*
X155571945Y-91033799D01*
X155701623Y-90721501D01*
X155701918Y-90383350D01*
X155572786Y-90070827D01*
X155333886Y-89831510D01*
X155021588Y-89701832D01*
X154683437Y-89701537D01*
X154579948Y-89744298D01*
X153901204Y-89065554D01*
X153901383Y-88860424D01*
X153772251Y-88547901D01*
X153533351Y-88308584D01*
X153221053Y-88178906D01*
X152882902Y-88178611D01*
X152570379Y-88307743D01*
X152331062Y-88546643D01*
X152201384Y-88858941D01*
X152201089Y-89197092D01*
X150082459Y-89197092D01*
X150082459Y-88906312D01*
X150185271Y-88803679D01*
X150307320Y-88509752D01*
X150307598Y-88191492D01*
X150186062Y-87897352D01*
X149961214Y-87672112D01*
X149667287Y-87550063D01*
X149349027Y-87549785D01*
X149054887Y-87671321D01*
X148829647Y-87896169D01*
X148767875Y-88044934D01*
X148659836Y-88000072D01*
X148341576Y-87999794D01*
X148047436Y-88121330D01*
X147822196Y-88346178D01*
X147700147Y-88640105D01*
X147699869Y-88958365D01*
X147821405Y-89252505D01*
X148025000Y-89456455D01*
X148025000Y-90866840D01*
X147393401Y-91498440D01*
X147268756Y-91684983D01*
X147240230Y-91828396D01*
X147122175Y-91946245D01*
X147000126Y-92240172D01*
X146999848Y-92558432D01*
X93000000Y-92558432D01*
X93000000Y-89935737D01*
X142622556Y-89935737D01*
X142744092Y-90229877D01*
X142968940Y-90455117D01*
X143262867Y-90577166D01*
X143432070Y-90577314D01*
X143432027Y-90626266D01*
X143553563Y-90920406D01*
X143778411Y-91145646D01*
X144072338Y-91267695D01*
X144390598Y-91267973D01*
X144684738Y-91146437D01*
X144909978Y-90921589D01*
X145032027Y-90627662D01*
X145032305Y-90309402D01*
X144910769Y-90015262D01*
X144819941Y-89924276D01*
X146444212Y-88300006D01*
X146589483Y-88300133D01*
X146883623Y-88178597D01*
X147108863Y-87953749D01*
X147230912Y-87659822D01*
X147231190Y-87341562D01*
X147196844Y-87258436D01*
X166699861Y-87258436D01*
X166821397Y-87552576D01*
X167046245Y-87777816D01*
X167340172Y-87899865D01*
X167486821Y-87899993D01*
X167593414Y-88006586D01*
X167779957Y-88131231D01*
X168000000Y-88175000D01*
X170673750Y-88175000D01*
X170776427Y-88277856D01*
X171070354Y-88399905D01*
X171388614Y-88400183D01*
X171682754Y-88278647D01*
X171907994Y-88053799D01*
X172030043Y-87759872D01*
X172030321Y-87441612D01*
X171908785Y-87147472D01*
X171683937Y-86922232D01*
X171390010Y-86800183D01*
X171071750Y-86799905D01*
X170777610Y-86921441D01*
X170673870Y-87025000D01*
X168300066Y-87025000D01*
X168300139Y-86941572D01*
X168178603Y-86647432D01*
X167953755Y-86422192D01*
X167659828Y-86300143D01*
X167341568Y-86299865D01*
X167047428Y-86421401D01*
X166822188Y-86646249D01*
X166700139Y-86940176D01*
X166699861Y-87258436D01*
X147196844Y-87258436D01*
X147109654Y-87047422D01*
X146884806Y-86822182D01*
X146590879Y-86700133D01*
X146272619Y-86699855D01*
X145978479Y-86821391D01*
X145756724Y-87042760D01*
X145534795Y-86820445D01*
X145240868Y-86698396D01*
X144922608Y-86698118D01*
X144628468Y-86819654D01*
X144403228Y-87044502D01*
X144281179Y-87338429D01*
X144281051Y-87485073D01*
X143016109Y-88750016D01*
X142891464Y-88936559D01*
X142847695Y-89156602D01*
X142847695Y-89220917D01*
X142744883Y-89323550D01*
X142622834Y-89617477D01*
X142622556Y-89935737D01*
X93000000Y-89935737D01*
X93000000Y-88027746D01*
X128649801Y-88027746D01*
X128824509Y-88450572D01*
X129147727Y-88774354D01*
X129570247Y-88949800D01*
X130027746Y-88950199D01*
X130450572Y-88775491D01*
X130774354Y-88452273D01*
X130949800Y-88029753D01*
X130950199Y-87572254D01*
X130918247Y-87494925D01*
X131625000Y-86788172D01*
X131625000Y-87193283D01*
X131549428Y-87224509D01*
X131225646Y-87547727D01*
X131050200Y-87970247D01*
X131049801Y-88427746D01*
X131224509Y-88850572D01*
X131547727Y-89174354D01*
X131970247Y-89349800D01*
X132427746Y-89350199D01*
X132850572Y-89175491D01*
X133174354Y-88852273D01*
X133349800Y-88429753D01*
X133350199Y-87972254D01*
X133175491Y-87549428D01*
X132852273Y-87225646D01*
X132775000Y-87193559D01*
X132775000Y-86399172D01*
X132831231Y-86315017D01*
X132852846Y-86206350D01*
X132859757Y-86171604D01*
X132977812Y-86053755D01*
X133099861Y-85759828D01*
X133100139Y-85441568D01*
X132987242Y-85168334D01*
X143449853Y-85168334D01*
X143578985Y-85480857D01*
X143817885Y-85720174D01*
X144130183Y-85849852D01*
X144468334Y-85850147D01*
X144780857Y-85721015D01*
X145020174Y-85482115D01*
X145149852Y-85169817D01*
X145150032Y-84963140D01*
X145463205Y-84649968D01*
X145668334Y-84650147D01*
X145980857Y-84521015D01*
X146220174Y-84282115D01*
X146349852Y-83969817D01*
X146350147Y-83631666D01*
X146221015Y-83319143D01*
X145982115Y-83079826D01*
X145669817Y-82950148D01*
X145331666Y-82949853D01*
X145019143Y-83078985D01*
X144779826Y-83317885D01*
X144650148Y-83630183D01*
X144649968Y-83836860D01*
X144336796Y-84150032D01*
X144131666Y-84149853D01*
X143819143Y-84278985D01*
X143579826Y-84517885D01*
X143450148Y-84830183D01*
X143449853Y-85168334D01*
X132987242Y-85168334D01*
X132978603Y-85147428D01*
X132753755Y-84922188D01*
X132459828Y-84800139D01*
X132141568Y-84799861D01*
X131847428Y-84921397D01*
X131822349Y-84946432D01*
X131775033Y-84899033D01*
X131481106Y-84776984D01*
X131162846Y-84776706D01*
X130868706Y-84898242D01*
X130643466Y-85123090D01*
X130521417Y-85417017D01*
X130521139Y-85735277D01*
X130642675Y-86029417D01*
X130699993Y-86086835D01*
X130105270Y-86681558D01*
X130029753Y-86650200D01*
X129572254Y-86649801D01*
X129149428Y-86824509D01*
X128825646Y-87147727D01*
X128650200Y-87570247D01*
X128649801Y-88027746D01*
X93000000Y-88027746D01*
X93000000Y-82433432D01*
X94249861Y-82433432D01*
X94371397Y-82727572D01*
X94475000Y-82831356D01*
X94475000Y-83875000D01*
X94516092Y-84081586D01*
X94518769Y-84095043D01*
X94643414Y-84281586D01*
X94849988Y-84488160D01*
X94849861Y-84633432D01*
X94971397Y-84927572D01*
X95196245Y-85152812D01*
X95490172Y-85274861D01*
X95808432Y-85275139D01*
X96102572Y-85153603D01*
X96327812Y-84928755D01*
X96449861Y-84634828D01*
X96450006Y-84468291D01*
X96584009Y-84412922D01*
X113145371Y-84412922D01*
X113266907Y-84707062D01*
X113491755Y-84932302D01*
X113785682Y-85054351D01*
X114103942Y-85054629D01*
X114398082Y-84933093D01*
X114501866Y-84829490D01*
X114668780Y-84829490D01*
X114841767Y-85002779D01*
X115135694Y-85124828D01*
X115453954Y-85125106D01*
X115748094Y-85003570D01*
X115973334Y-84778722D01*
X116095383Y-84484795D01*
X116095661Y-84166535D01*
X115974125Y-83872395D01*
X115749277Y-83647155D01*
X115455350Y-83525106D01*
X115137090Y-83524828D01*
X114842950Y-83646364D01*
X114809766Y-83679490D01*
X114501898Y-83679490D01*
X114399265Y-83576678D01*
X114105338Y-83454629D01*
X113787078Y-83454351D01*
X113492938Y-83575887D01*
X113267698Y-83800735D01*
X113145649Y-84094662D01*
X113145371Y-84412922D01*
X96584009Y-84412922D01*
X96727572Y-84353603D01*
X96952812Y-84128755D01*
X97074861Y-83834828D01*
X97075139Y-83516568D01*
X96953603Y-83222428D01*
X96728755Y-82997188D01*
X96434828Y-82875139D01*
X96300000Y-82875021D01*
X96300000Y-82106388D01*
X96402812Y-82003755D01*
X96524861Y-81709828D01*
X96525139Y-81391568D01*
X96403603Y-81097428D01*
X96178755Y-80872188D01*
X95884828Y-80750139D01*
X95566568Y-80749861D01*
X95272428Y-80871397D01*
X95047188Y-81096245D01*
X94925139Y-81390172D01*
X94925065Y-81474890D01*
X94891568Y-81474861D01*
X94597428Y-81596397D01*
X94372188Y-81821245D01*
X94250139Y-82115172D01*
X94249861Y-82433432D01*
X93000000Y-82433432D01*
X93000000Y-78958432D01*
X151699861Y-78958432D01*
X151821397Y-79252572D01*
X152046245Y-79477812D01*
X152340172Y-79599861D01*
X152658432Y-79600139D01*
X152952572Y-79478603D01*
X153056356Y-79375000D01*
X155234270Y-79375000D01*
X156299870Y-80440601D01*
X156311658Y-80499861D01*
X156327318Y-80578592D01*
X156451963Y-80765135D01*
X160699988Y-85013160D01*
X160699861Y-85158432D01*
X160821397Y-85452572D01*
X161046245Y-85677812D01*
X161340172Y-85799861D01*
X161658432Y-85800139D01*
X161952572Y-85678603D01*
X162177812Y-85453755D01*
X162299861Y-85159828D01*
X162300139Y-84841568D01*
X162178603Y-84547428D01*
X162081372Y-84450027D01*
X162173126Y-84358432D01*
X166399830Y-84358432D01*
X166520459Y-84650377D01*
X166400126Y-84940172D01*
X166399848Y-85258432D01*
X166521384Y-85552572D01*
X166746232Y-85777812D01*
X167040159Y-85899861D01*
X167358419Y-85900139D01*
X167519574Y-85833551D01*
X178979993Y-85833551D01*
X179101529Y-86127691D01*
X179326377Y-86352931D01*
X179620304Y-86474980D01*
X179938564Y-86475258D01*
X180232704Y-86353722D01*
X180457944Y-86128874D01*
X180579993Y-85834947D01*
X180580271Y-85516687D01*
X180490181Y-85298651D01*
X182156586Y-83632246D01*
X182281231Y-83445703D01*
X182301253Y-83345043D01*
X182325000Y-83225660D01*
X182325000Y-79868334D01*
X190949853Y-79868334D01*
X191078985Y-80180857D01*
X191317885Y-80420174D01*
X191630183Y-80549852D01*
X191968334Y-80550147D01*
X192280857Y-80421015D01*
X192520174Y-80182115D01*
X192649852Y-79869817D01*
X192650147Y-79531666D01*
X192521015Y-79219143D01*
X192375000Y-79072873D01*
X192375000Y-77718172D01*
X192679719Y-77413454D01*
X192686109Y-77445581D01*
X192785568Y-77594432D01*
X192934419Y-77693891D01*
X193110000Y-77728816D01*
X193535454Y-77728816D01*
X193224571Y-77857271D01*
X192858556Y-78222647D01*
X192660226Y-78700279D01*
X192659774Y-79217452D01*
X192857271Y-79695429D01*
X193222647Y-80061444D01*
X193628985Y-80230170D01*
X193224571Y-80397271D01*
X192858556Y-80762647D01*
X192660226Y-81240279D01*
X192659774Y-81757452D01*
X192857271Y-82235429D01*
X193222647Y-82601444D01*
X193628985Y-82770170D01*
X193224571Y-82937271D01*
X192858556Y-83302647D01*
X192660226Y-83780279D01*
X192659774Y-84297452D01*
X192857271Y-84775429D01*
X193222647Y-85141444D01*
X193628985Y-85310170D01*
X193224571Y-85477271D01*
X192858556Y-85842647D01*
X192660226Y-86320279D01*
X192659774Y-86837452D01*
X192857271Y-87315429D01*
X193222647Y-87681444D01*
X193700279Y-87879774D01*
X194217452Y-87880226D01*
X194695429Y-87682729D01*
X195061444Y-87317353D01*
X195230170Y-86911015D01*
X195397271Y-87315429D01*
X195762647Y-87681444D01*
X196240279Y-87879774D01*
X196757452Y-87880226D01*
X197235429Y-87682729D01*
X197601444Y-87317353D01*
X197799774Y-86839721D01*
X197800226Y-86322548D01*
X197602729Y-85844571D01*
X197237353Y-85478556D01*
X196831015Y-85309830D01*
X197235429Y-85142729D01*
X197601444Y-84777353D01*
X197799774Y-84299721D01*
X197800226Y-83782548D01*
X197602729Y-83304571D01*
X197237353Y-82938556D01*
X196831015Y-82769830D01*
X197235429Y-82602729D01*
X197601444Y-82237353D01*
X197799774Y-81759721D01*
X197800226Y-81242548D01*
X197602729Y-80764571D01*
X197237353Y-80398556D01*
X196831015Y-80229830D01*
X197235429Y-80062729D01*
X197601444Y-79697353D01*
X197799774Y-79219721D01*
X197800226Y-78702548D01*
X197602729Y-78224571D01*
X197237353Y-77858556D01*
X197112977Y-77806911D01*
X197317538Y-77722179D01*
X197394560Y-77461638D01*
X196500000Y-76567078D01*
X195605440Y-77461638D01*
X195682462Y-77722179D01*
X195895201Y-77803295D01*
X195764571Y-77857271D01*
X195398556Y-78222647D01*
X195229830Y-78628985D01*
X195062729Y-78224571D01*
X194697353Y-77858556D01*
X194384904Y-77728816D01*
X194810000Y-77728816D01*
X194985581Y-77693891D01*
X195134432Y-77594432D01*
X195233891Y-77445581D01*
X195268816Y-77270000D01*
X195268816Y-77258526D01*
X195458362Y-77314560D01*
X196352922Y-76420000D01*
X196647078Y-76420000D01*
X197541638Y-77314560D01*
X197802179Y-77237538D01*
X198015915Y-76676985D01*
X197998866Y-76077307D01*
X197802179Y-75602462D01*
X197541638Y-75525440D01*
X196647078Y-76420000D01*
X196352922Y-76420000D01*
X195458362Y-75525440D01*
X195268816Y-75581474D01*
X195268816Y-75570000D01*
X195233891Y-75394419D01*
X195223163Y-75378362D01*
X195605440Y-75378362D01*
X196500000Y-76272922D01*
X197394560Y-75378362D01*
X197317538Y-75117821D01*
X196756985Y-74904085D01*
X196157307Y-74921134D01*
X195682462Y-75117821D01*
X195605440Y-75378362D01*
X195223163Y-75378362D01*
X195134432Y-75245568D01*
X194985581Y-75146109D01*
X194810000Y-75111184D01*
X193110000Y-75111184D01*
X192934419Y-75146109D01*
X192785568Y-75245568D01*
X192686109Y-75394419D01*
X192651184Y-75570000D01*
X192651184Y-75886536D01*
X192646523Y-75887463D01*
X192639957Y-75888769D01*
X192453413Y-76013414D01*
X191393414Y-77073414D01*
X191268769Y-77259957D01*
X191225000Y-77480000D01*
X191225000Y-79072964D01*
X191079826Y-79217885D01*
X190950148Y-79530183D01*
X190949853Y-79868334D01*
X182325000Y-79868334D01*
X182325000Y-79581388D01*
X182427812Y-79478755D01*
X182549861Y-79184828D01*
X182550139Y-78866568D01*
X182428603Y-78572428D01*
X182203755Y-78347188D01*
X181909828Y-78225139D01*
X181591568Y-78224861D01*
X181297428Y-78346397D01*
X181072188Y-78571245D01*
X180950139Y-78865172D01*
X180949861Y-79183432D01*
X181071397Y-79477572D01*
X181175000Y-79581356D01*
X181175000Y-82987488D01*
X179373546Y-84788942D01*
X179248901Y-84975485D01*
X179224193Y-85099704D01*
X179102320Y-85221364D01*
X178980271Y-85515291D01*
X178979993Y-85833551D01*
X167519574Y-85833551D01*
X167652559Y-85778603D01*
X167771617Y-85659752D01*
X167915004Y-85631231D01*
X168101547Y-85506586D01*
X168533133Y-85075000D01*
X171143780Y-85075000D01*
X171346245Y-85277818D01*
X171640172Y-85399867D01*
X171958432Y-85400145D01*
X172252572Y-85278609D01*
X172351402Y-85179951D01*
X172640172Y-85299859D01*
X172958432Y-85300137D01*
X173252572Y-85178601D01*
X173477812Y-84953753D01*
X173599861Y-84659826D01*
X173600139Y-84341566D01*
X173478603Y-84047426D01*
X173253755Y-83822186D01*
X172959828Y-83700137D01*
X172813183Y-83700009D01*
X172556589Y-83443415D01*
X172370046Y-83318770D01*
X172365597Y-83317885D01*
X172150003Y-83275001D01*
X167549968Y-83275001D01*
X167334374Y-83317885D01*
X167329925Y-83318770D01*
X167208346Y-83400007D01*
X167041537Y-83399861D01*
X166747397Y-83521397D01*
X166522157Y-83746245D01*
X166400108Y-84040172D01*
X166399830Y-84358432D01*
X162173126Y-84358432D01*
X162177812Y-84353755D01*
X162299861Y-84059828D01*
X162300139Y-83741568D01*
X162178603Y-83447428D01*
X161953755Y-83222188D01*
X161659828Y-83100139D01*
X161513184Y-83100011D01*
X159871605Y-81458432D01*
X173899861Y-81458432D01*
X174021397Y-81752572D01*
X174246245Y-81977812D01*
X174540172Y-82099861D01*
X174858432Y-82100139D01*
X175152572Y-81978603D01*
X175377812Y-81753755D01*
X175499861Y-81459828D01*
X175499989Y-81313183D01*
X177079874Y-79733299D01*
X177240172Y-79799861D01*
X177558432Y-79800139D01*
X177852572Y-79678603D01*
X178077812Y-79453755D01*
X178199861Y-79159828D01*
X178200139Y-78841568D01*
X178078603Y-78547428D01*
X177853755Y-78322188D01*
X177559828Y-78200139D01*
X177241568Y-78199861D01*
X176947428Y-78321397D01*
X176804737Y-78463840D01*
X176779957Y-78468769D01*
X176593413Y-78593414D01*
X174686840Y-80499988D01*
X174541568Y-80499861D01*
X174247428Y-80621397D01*
X174022188Y-80846245D01*
X173900139Y-81140172D01*
X173899861Y-81458432D01*
X159871605Y-81458432D01*
X156081587Y-77668415D01*
X155895044Y-77543770D01*
X155675001Y-77500001D01*
X154061759Y-77500001D01*
X154015017Y-77468769D01*
X153871604Y-77440243D01*
X153753755Y-77322188D01*
X153459828Y-77200139D01*
X153141568Y-77199861D01*
X152847428Y-77321397D01*
X152622188Y-77546245D01*
X152500139Y-77840172D01*
X152499999Y-77999999D01*
X152341568Y-77999861D01*
X152047428Y-78121397D01*
X151822188Y-78346245D01*
X151700139Y-78640172D01*
X151699861Y-78958432D01*
X93000000Y-78958432D01*
X93000000Y-77702746D01*
X107524801Y-77702746D01*
X107699509Y-78125572D01*
X108022727Y-78449354D01*
X108445247Y-78624800D01*
X108902746Y-78625199D01*
X109325572Y-78450491D01*
X109649354Y-78127273D01*
X109815252Y-77727746D01*
X111299801Y-77727746D01*
X111474509Y-78150572D01*
X111797727Y-78474354D01*
X112220247Y-78649800D01*
X112677746Y-78650199D01*
X113100572Y-78475491D01*
X113424354Y-78152273D01*
X113599800Y-77729753D01*
X113600199Y-77272254D01*
X113553169Y-77158432D01*
X162999861Y-77158432D01*
X163121397Y-77452572D01*
X163346245Y-77677812D01*
X163640172Y-77799861D01*
X163958432Y-77800139D01*
X164252572Y-77678603D01*
X164477812Y-77453755D01*
X164599861Y-77159828D01*
X164599989Y-77013183D01*
X165438172Y-76175000D01*
X168243612Y-76175000D01*
X168346245Y-76277812D01*
X168640172Y-76399861D01*
X168958432Y-76400139D01*
X169252572Y-76278603D01*
X169477812Y-76053755D01*
X169599861Y-75759828D01*
X169600036Y-75558432D01*
X180899861Y-75558432D01*
X181021397Y-75852572D01*
X181246245Y-76077812D01*
X181540172Y-76199861D01*
X181686817Y-76199989D01*
X182234632Y-76747804D01*
X182421175Y-76872449D01*
X182641218Y-76916218D01*
X183347842Y-76916218D01*
X183450475Y-77019030D01*
X183744402Y-77141079D01*
X184062662Y-77141357D01*
X184356802Y-77019821D01*
X184582042Y-76794973D01*
X184704091Y-76501046D01*
X184704369Y-76182786D01*
X184652993Y-76058444D01*
X190206980Y-76058444D01*
X190328516Y-76352584D01*
X190553364Y-76577824D01*
X190847291Y-76699873D01*
X191165551Y-76700151D01*
X191459691Y-76578615D01*
X191684931Y-76353767D01*
X191806980Y-76059840D01*
X191807258Y-75741580D01*
X191685722Y-75447440D01*
X191582119Y-75343656D01*
X191582119Y-75007708D01*
X191652572Y-74978597D01*
X191877812Y-74753749D01*
X191999861Y-74459822D01*
X192000139Y-74141562D01*
X191878603Y-73847422D01*
X191653755Y-73622182D01*
X191359828Y-73500133D01*
X191041568Y-73499855D01*
X190747428Y-73621391D01*
X190522188Y-73846239D01*
X190400139Y-74140166D01*
X190399861Y-74458426D01*
X190432119Y-74536496D01*
X190432119Y-75343624D01*
X190329307Y-75446257D01*
X190207258Y-75740184D01*
X190206980Y-76058444D01*
X184652993Y-76058444D01*
X184603514Y-75938697D01*
X184652014Y-75918657D01*
X184891331Y-75679757D01*
X185021009Y-75367459D01*
X185021304Y-75029308D01*
X184892172Y-74716785D01*
X184653272Y-74477468D01*
X184340974Y-74347790D01*
X184002823Y-74347495D01*
X183694239Y-74474999D01*
X182950060Y-73730820D01*
X182950147Y-73631664D01*
X182821015Y-73319141D01*
X182582115Y-73079824D01*
X182269817Y-72950146D01*
X181931666Y-72949851D01*
X181619143Y-73078983D01*
X181379826Y-73317883D01*
X181250148Y-73630181D01*
X181249853Y-73968332D01*
X181378985Y-74280855D01*
X181617885Y-74520172D01*
X181810362Y-74600096D01*
X181541568Y-74599861D01*
X181247428Y-74721397D01*
X181022188Y-74946245D01*
X180900139Y-75240172D01*
X180899861Y-75558432D01*
X169600036Y-75558432D01*
X169600139Y-75441568D01*
X169478603Y-75147428D01*
X169253755Y-74922188D01*
X168959828Y-74800139D01*
X168641568Y-74799861D01*
X168347428Y-74921397D01*
X168243644Y-75025000D01*
X166426888Y-75025000D01*
X166691717Y-74760633D01*
X166735580Y-74655000D01*
X168520000Y-74655000D01*
X168740043Y-74611231D01*
X168926586Y-74486586D01*
X170613161Y-72800012D01*
X170758432Y-72800139D01*
X171052572Y-72678603D01*
X171277812Y-72453755D01*
X171399861Y-72159828D01*
X171400139Y-71841568D01*
X171278603Y-71547428D01*
X171053755Y-71322188D01*
X170759828Y-71200139D01*
X170441568Y-71199861D01*
X170147428Y-71321397D01*
X169922188Y-71546245D01*
X169800139Y-71840172D01*
X169800011Y-71986816D01*
X168281828Y-73505000D01*
X166735816Y-73505000D01*
X166692903Y-73401143D01*
X166355633Y-73063283D01*
X165914742Y-72880209D01*
X165437353Y-72879793D01*
X164996143Y-73062097D01*
X164658283Y-73399367D01*
X164475209Y-73840258D01*
X164474793Y-74317647D01*
X164657097Y-74758857D01*
X164971865Y-75074176D01*
X164793414Y-75193414D01*
X163786840Y-76199988D01*
X163641568Y-76199861D01*
X163347428Y-76321397D01*
X163122188Y-76546245D01*
X163000139Y-76840172D01*
X162999861Y-77158432D01*
X113553169Y-77158432D01*
X113425491Y-76849428D01*
X113102273Y-76525646D01*
X112679753Y-76350200D01*
X112222254Y-76349801D01*
X111799428Y-76524509D01*
X111475646Y-76847727D01*
X111300200Y-77270247D01*
X111299801Y-77727746D01*
X109815252Y-77727746D01*
X109824800Y-77704753D01*
X109825199Y-77247254D01*
X109793247Y-77169925D01*
X110203319Y-76759854D01*
X110221245Y-76777812D01*
X110515172Y-76899861D01*
X110833432Y-76900139D01*
X111127572Y-76778603D01*
X111352812Y-76553755D01*
X111474861Y-76259828D01*
X111475063Y-76027746D01*
X134649801Y-76027746D01*
X134824509Y-76450572D01*
X135147727Y-76774354D01*
X135570247Y-76949800D01*
X136027746Y-76950199D01*
X136450572Y-76775491D01*
X136774354Y-76452273D01*
X136949800Y-76029753D01*
X136950000Y-75800000D01*
X138749995Y-75800000D01*
X138799472Y-76048745D01*
X138940375Y-76259619D01*
X138940380Y-76259625D01*
X139151255Y-76400527D01*
X139400000Y-76450005D01*
X139648744Y-76400527D01*
X139859619Y-76259625D01*
X140000521Y-76048750D01*
X140049999Y-75800006D01*
X140000521Y-75551261D01*
X139859619Y-75340386D01*
X139859613Y-75340381D01*
X139648739Y-75199478D01*
X139399994Y-75150001D01*
X139151249Y-75199478D01*
X138940375Y-75340381D01*
X138799472Y-75551255D01*
X138749995Y-75800000D01*
X136950000Y-75800000D01*
X136950199Y-75572254D01*
X136775491Y-75149428D01*
X136452273Y-74825646D01*
X136029753Y-74650200D01*
X135572254Y-74649801D01*
X135149428Y-74824509D01*
X134825646Y-75147727D01*
X134650200Y-75570247D01*
X134649801Y-76027746D01*
X111475063Y-76027746D01*
X111475139Y-75941568D01*
X111353603Y-75647428D01*
X111128755Y-75422188D01*
X110834828Y-75300139D01*
X110516568Y-75299861D01*
X110222428Y-75421397D01*
X110118644Y-75525000D01*
X110050000Y-75525000D01*
X109829957Y-75568769D01*
X109643414Y-75693413D01*
X108980270Y-76356557D01*
X108904753Y-76325200D01*
X108447254Y-76324801D01*
X108024428Y-76499509D01*
X107700646Y-76822727D01*
X107525200Y-77245247D01*
X107524801Y-77702746D01*
X93000000Y-77702746D01*
X93000000Y-74317647D01*
X141354793Y-74317647D01*
X141537097Y-74758857D01*
X141874367Y-75096717D01*
X142315258Y-75279791D01*
X142792647Y-75280207D01*
X143233857Y-75097903D01*
X143571717Y-74760633D01*
X143754791Y-74319742D01*
X143755207Y-73842353D01*
X143711529Y-73736643D01*
X143973172Y-73475000D01*
X144046877Y-73475000D01*
X143895209Y-73840258D01*
X143894793Y-74317647D01*
X144077097Y-74758857D01*
X144414367Y-75096717D01*
X144855258Y-75279791D01*
X145332647Y-75280207D01*
X145438356Y-75236529D01*
X145863414Y-75661587D01*
X146010442Y-75759828D01*
X146049958Y-75786232D01*
X146270001Y-75830001D01*
X151339975Y-75830001D01*
X151560018Y-75786232D01*
X151746561Y-75661587D01*
X152406588Y-75001560D01*
X152531233Y-74815017D01*
X152538633Y-74777812D01*
X152559759Y-74671604D01*
X152677814Y-74553755D01*
X152799863Y-74259828D01*
X152800141Y-73941568D01*
X152678605Y-73647428D01*
X152506477Y-73475000D01*
X156836828Y-73475000D01*
X156956984Y-73595156D01*
X156855209Y-73840258D01*
X156854793Y-74317647D01*
X157037097Y-74758857D01*
X157374367Y-75096717D01*
X157815258Y-75279791D01*
X158292647Y-75280207D01*
X158733857Y-75097903D01*
X159071717Y-74760633D01*
X159254791Y-74319742D01*
X159254792Y-74317647D01*
X159394793Y-74317647D01*
X159577097Y-74758857D01*
X159914367Y-75096717D01*
X160355258Y-75279791D01*
X160832647Y-75280207D01*
X161273857Y-75097903D01*
X161611717Y-74760633D01*
X161794791Y-74319742D01*
X161794792Y-74317647D01*
X161934793Y-74317647D01*
X162117097Y-74758857D01*
X162454367Y-75096717D01*
X162895258Y-75279791D01*
X163372647Y-75280207D01*
X163813857Y-75097903D01*
X164151717Y-74760633D01*
X164334791Y-74319742D01*
X164335207Y-73842353D01*
X164152903Y-73401143D01*
X163815633Y-73063283D01*
X163374742Y-72880209D01*
X162897353Y-72879793D01*
X162456143Y-73062097D01*
X162118283Y-73399367D01*
X161935209Y-73840258D01*
X161934793Y-74317647D01*
X161794792Y-74317647D01*
X161795207Y-73842353D01*
X161612903Y-73401143D01*
X161275633Y-73063283D01*
X160834742Y-72880209D01*
X160357353Y-72879793D01*
X159916143Y-73062097D01*
X159578283Y-73399367D01*
X159395209Y-73840258D01*
X159394793Y-74317647D01*
X159254792Y-74317647D01*
X159255207Y-73842353D01*
X159072903Y-73401143D01*
X158735633Y-73063283D01*
X158294742Y-72880209D01*
X157868009Y-72879837D01*
X157481586Y-72493414D01*
X157295043Y-72368769D01*
X157292856Y-72368334D01*
X157075000Y-72325000D01*
X152646854Y-72325000D01*
X152653816Y-72290000D01*
X152653816Y-71039999D01*
X158011827Y-71039999D01*
X158168303Y-71196475D01*
X158125209Y-71300258D01*
X158124793Y-71777647D01*
X158307097Y-72218857D01*
X158644367Y-72556717D01*
X159085258Y-72739791D01*
X159562647Y-72740207D01*
X160003857Y-72557903D01*
X160341717Y-72220633D01*
X160524791Y-71779742D01*
X160525207Y-71302353D01*
X160481529Y-71196644D01*
X160481586Y-71196587D01*
X160481588Y-71196584D01*
X160638173Y-71039999D01*
X160773278Y-71039999D01*
X160665209Y-71300258D01*
X160664793Y-71777647D01*
X160847097Y-72218857D01*
X161184367Y-72556717D01*
X161625258Y-72739791D01*
X162102647Y-72740207D01*
X162543857Y-72557903D01*
X162881717Y-72220633D01*
X163064791Y-71779742D01*
X163065207Y-71302353D01*
X162956805Y-71039999D01*
X163091827Y-71039999D01*
X163248303Y-71196475D01*
X163205209Y-71300258D01*
X163204793Y-71777647D01*
X163387097Y-72218857D01*
X163724367Y-72556717D01*
X164165258Y-72739791D01*
X164642647Y-72740207D01*
X165083857Y-72557903D01*
X165421717Y-72220633D01*
X165604791Y-71779742D01*
X165605207Y-71302353D01*
X165422903Y-70861143D01*
X165351885Y-70790000D01*
X165736184Y-70790000D01*
X165736184Y-72290000D01*
X165771109Y-72465581D01*
X165870568Y-72614432D01*
X166019419Y-72713891D01*
X166195000Y-72748816D01*
X167695000Y-72748816D01*
X167870581Y-72713891D01*
X168019432Y-72614432D01*
X168118891Y-72465581D01*
X168153816Y-72290000D01*
X168153816Y-71084217D01*
X182299489Y-71084217D01*
X182747653Y-72168858D01*
X183576777Y-72999430D01*
X184660634Y-73449487D01*
X185834217Y-73450511D01*
X186918858Y-73002347D01*
X187749430Y-72173223D01*
X188199487Y-71089366D01*
X188200511Y-69915783D01*
X187752347Y-68831142D01*
X186923223Y-68000570D01*
X186740758Y-67924804D01*
X186852572Y-67878603D01*
X186956356Y-67775000D01*
X187461828Y-67775000D01*
X187599988Y-67913161D01*
X187599861Y-68058432D01*
X187721397Y-68352572D01*
X187946245Y-68577812D01*
X188240172Y-68699861D01*
X188558432Y-68700139D01*
X188852572Y-68578603D01*
X189077812Y-68353755D01*
X189199861Y-68059828D01*
X189200139Y-67741568D01*
X189078603Y-67447428D01*
X188853755Y-67222188D01*
X188559828Y-67100139D01*
X188413184Y-67100011D01*
X188106586Y-66793414D01*
X187920043Y-66668769D01*
X187700000Y-66625000D01*
X186956388Y-66625000D01*
X186853755Y-66522188D01*
X186559828Y-66400139D01*
X186241568Y-66399861D01*
X185947428Y-66521397D01*
X185722188Y-66746245D01*
X185600139Y-67040172D01*
X185599861Y-67358432D01*
X185679169Y-67550373D01*
X184665783Y-67549489D01*
X183581142Y-67997653D01*
X182750570Y-68826777D01*
X182300513Y-69910634D01*
X182299489Y-71084217D01*
X168153816Y-71084217D01*
X168153816Y-70790000D01*
X168118891Y-70614419D01*
X168019432Y-70465568D01*
X167870581Y-70366109D01*
X167695000Y-70331184D01*
X166195000Y-70331184D01*
X166019419Y-70366109D01*
X165870568Y-70465568D01*
X165771109Y-70614419D01*
X165736184Y-70790000D01*
X165351885Y-70790000D01*
X165085633Y-70523283D01*
X164644742Y-70340209D01*
X164167353Y-70339793D01*
X164061643Y-70383471D01*
X163736585Y-70058413D01*
X163550042Y-69933768D01*
X163329999Y-69889999D01*
X160400001Y-69889999D01*
X160179958Y-69933768D01*
X159993414Y-70058413D01*
X159668525Y-70383303D01*
X159564742Y-70340209D01*
X159087353Y-70339793D01*
X158981643Y-70383471D01*
X158656585Y-70058413D01*
X158470042Y-69933768D01*
X158249999Y-69889999D01*
X149980001Y-69889999D01*
X149759958Y-69933768D01*
X149573414Y-70058413D01*
X149248525Y-70383303D01*
X149144742Y-70340209D01*
X148667353Y-70339793D01*
X148561643Y-70383471D01*
X148236585Y-70058413D01*
X148050042Y-69933768D01*
X147829999Y-69889999D01*
X144900001Y-69889999D01*
X144679958Y-69933768D01*
X144493414Y-70058413D01*
X144168525Y-70383303D01*
X144064742Y-70340209D01*
X143587353Y-70339793D01*
X143146143Y-70522097D01*
X142808283Y-70859367D01*
X142625209Y-71300258D01*
X142624793Y-71777647D01*
X142807097Y-72218857D01*
X143144367Y-72556717D01*
X143229684Y-72592144D01*
X142898525Y-72923303D01*
X142794742Y-72880209D01*
X142317353Y-72879793D01*
X141876143Y-73062097D01*
X141538283Y-73399367D01*
X141355209Y-73840258D01*
X141354793Y-74317647D01*
X93000000Y-74317647D01*
X93000000Y-71084217D01*
X104799489Y-71084217D01*
X105247653Y-72168858D01*
X106076777Y-72999430D01*
X107160634Y-73449487D01*
X108334217Y-73450511D01*
X109418858Y-73002347D01*
X110053978Y-72368334D01*
X135249853Y-72368334D01*
X135378985Y-72680857D01*
X135617885Y-72920174D01*
X135930183Y-73049852D01*
X136268334Y-73050147D01*
X136580857Y-72921015D01*
X136820174Y-72682115D01*
X136949852Y-72369817D01*
X136949940Y-72269299D01*
X137559620Y-71659619D01*
X137700522Y-71448744D01*
X137750000Y-71200000D01*
X137750000Y-70752167D01*
X137820174Y-70682115D01*
X137949852Y-70369817D01*
X137950147Y-70031666D01*
X137821015Y-69719143D01*
X137582115Y-69479826D01*
X137269817Y-69350148D01*
X136931666Y-69349853D01*
X136619143Y-69478985D01*
X136379826Y-69717885D01*
X136250148Y-70030183D01*
X136249853Y-70368334D01*
X136378985Y-70680857D01*
X136450000Y-70751996D01*
X136450000Y-70930761D01*
X136030822Y-71349940D01*
X135931666Y-71349853D01*
X135619143Y-71478985D01*
X135379826Y-71717885D01*
X135250148Y-72030183D01*
X135249853Y-72368334D01*
X110053978Y-72368334D01*
X110249430Y-72173223D01*
X110699487Y-71089366D01*
X110699802Y-70727746D01*
X124949801Y-70727746D01*
X125124509Y-71150572D01*
X125447727Y-71474354D01*
X125870247Y-71649800D01*
X126327746Y-71650199D01*
X126750572Y-71475491D01*
X127074354Y-71152273D01*
X127249800Y-70729753D01*
X127250199Y-70272254D01*
X127075491Y-69849428D01*
X126752273Y-69525646D01*
X126329753Y-69350200D01*
X125872254Y-69349801D01*
X125449428Y-69524509D01*
X125125646Y-69847727D01*
X124950200Y-70270247D01*
X124949801Y-70727746D01*
X110699802Y-70727746D01*
X110700511Y-69915783D01*
X110252347Y-68831142D01*
X109612323Y-68190000D01*
X173191184Y-68190000D01*
X173191184Y-69890000D01*
X173226109Y-70065581D01*
X173325568Y-70214432D01*
X173474419Y-70313891D01*
X173650000Y-70348816D01*
X175350000Y-70348816D01*
X175525581Y-70313891D01*
X175674432Y-70214432D01*
X175773891Y-70065581D01*
X175808816Y-69890000D01*
X175808816Y-68190000D01*
X175773891Y-68014419D01*
X175674432Y-67865568D01*
X175525581Y-67766109D01*
X175350000Y-67731184D01*
X174974000Y-67731184D01*
X174997488Y-67726512D01*
X175419239Y-67444708D01*
X175476886Y-67358432D01*
X177499861Y-67358432D01*
X177621397Y-67652572D01*
X177846245Y-67877812D01*
X178140172Y-67999861D01*
X178286817Y-67999989D01*
X178525000Y-68238173D01*
X178525000Y-69043612D01*
X178422188Y-69146245D01*
X178300139Y-69440172D01*
X178299861Y-69758432D01*
X178421397Y-70052572D01*
X178646245Y-70277812D01*
X178940172Y-70399861D01*
X179258432Y-70400139D01*
X179552572Y-70278603D01*
X179777812Y-70053755D01*
X179899861Y-69759828D01*
X179900139Y-69441568D01*
X179778603Y-69147428D01*
X179675000Y-69043644D01*
X179675000Y-68000000D01*
X179631231Y-67779957D01*
X179621978Y-67766109D01*
X179506587Y-67593414D01*
X179100012Y-67186840D01*
X179100139Y-67041568D01*
X178978603Y-66747428D01*
X178753755Y-66522188D01*
X178459828Y-66400139D01*
X178141568Y-66399861D01*
X177847428Y-66521397D01*
X177622188Y-66746245D01*
X177500139Y-67040172D01*
X177499861Y-67358432D01*
X175476886Y-67358432D01*
X175701043Y-67022957D01*
X175800000Y-66525469D01*
X175800000Y-66474531D01*
X175701043Y-65977043D01*
X175419239Y-65555292D01*
X174997488Y-65273488D01*
X174500000Y-65174531D01*
X174002512Y-65273488D01*
X173580761Y-65555292D01*
X173298957Y-65977043D01*
X173200000Y-66474531D01*
X173200000Y-66525469D01*
X173298957Y-67022957D01*
X173580761Y-67444708D01*
X174002512Y-67726512D01*
X174026000Y-67731184D01*
X173650000Y-67731184D01*
X173474419Y-67766109D01*
X173325568Y-67865568D01*
X173226109Y-68014419D01*
X173191184Y-68190000D01*
X109612323Y-68190000D01*
X109423223Y-68000570D01*
X108339366Y-67550513D01*
X107165783Y-67549489D01*
X106081142Y-67997653D01*
X105250570Y-68826777D01*
X104800513Y-69910634D01*
X104799489Y-71084217D01*
X93000000Y-71084217D01*
X93000000Y-68500000D01*
X97000000Y-68500000D01*
X97048298Y-68490393D01*
X97097545Y-68490393D01*
X98436937Y-68223971D01*
X98617177Y-68149313D01*
X99636335Y-67468334D01*
X170649853Y-67468334D01*
X170778985Y-67780857D01*
X171017885Y-68020174D01*
X171330183Y-68149852D01*
X171668334Y-68150147D01*
X171980857Y-68021015D01*
X172220174Y-67782115D01*
X172349852Y-67469817D01*
X172350147Y-67131666D01*
X172221015Y-66819143D01*
X172150000Y-66748004D01*
X172150000Y-65651992D01*
X172320174Y-65482115D01*
X172449852Y-65169817D01*
X172450147Y-64831666D01*
X172321015Y-64519143D01*
X172082115Y-64279826D01*
X171769817Y-64150148D01*
X171431666Y-64149853D01*
X171119143Y-64278985D01*
X170879826Y-64517885D01*
X170750148Y-64830183D01*
X170749853Y-65168334D01*
X170850000Y-65410708D01*
X170850000Y-66747833D01*
X170779826Y-66817885D01*
X170650148Y-67130183D01*
X170649853Y-67468334D01*
X99636335Y-67468334D01*
X99752659Y-67390609D01*
X99890609Y-67252659D01*
X100649311Y-66117180D01*
X100649313Y-66117178D01*
X100723971Y-65936937D01*
X100827186Y-65418040D01*
X127419827Y-65418040D01*
X127571747Y-65785714D01*
X127852806Y-66067264D01*
X128220215Y-66219826D01*
X128618040Y-66220173D01*
X128985714Y-66068253D01*
X129267264Y-65787194D01*
X129419826Y-65419785D01*
X129419827Y-65418040D01*
X132259827Y-65418040D01*
X132411747Y-65785714D01*
X132692806Y-66067264D01*
X133060215Y-66219826D01*
X133458040Y-66220173D01*
X133825714Y-66068253D01*
X134107264Y-65787194D01*
X134168160Y-65640540D01*
X139009606Y-65640540D01*
X139355224Y-66477000D01*
X139994633Y-67117527D01*
X140830489Y-67464604D01*
X141735540Y-67465394D01*
X142572000Y-67119776D01*
X143212527Y-66480367D01*
X143559604Y-65644511D01*
X143559607Y-65640540D01*
X150439606Y-65640540D01*
X150785224Y-66477000D01*
X151424633Y-67117527D01*
X152260489Y-67464604D01*
X153165540Y-67465394D01*
X154002000Y-67119776D01*
X154642527Y-66480367D01*
X154749835Y-66221940D01*
X154855224Y-66477000D01*
X155494633Y-67117527D01*
X156330489Y-67464604D01*
X157235540Y-67465394D01*
X158072000Y-67119776D01*
X158712527Y-66480367D01*
X159059604Y-65644511D01*
X159059607Y-65640540D01*
X165939606Y-65640540D01*
X166285224Y-66477000D01*
X166924633Y-67117527D01*
X167760489Y-67464604D01*
X168665540Y-67465394D01*
X169502000Y-67119776D01*
X170142527Y-66480367D01*
X170489604Y-65644511D01*
X170490394Y-64739460D01*
X170144776Y-63903000D01*
X169505367Y-63262473D01*
X168669511Y-62915396D01*
X167764460Y-62914606D01*
X166928000Y-63260224D01*
X166287473Y-63899633D01*
X165940396Y-64735489D01*
X165939606Y-65640540D01*
X159059607Y-65640540D01*
X159060394Y-64739460D01*
X158714776Y-63903000D01*
X158075367Y-63262473D01*
X157239511Y-62915396D01*
X156334460Y-62914606D01*
X155498000Y-63260224D01*
X154857473Y-63899633D01*
X154750165Y-64158060D01*
X154644776Y-63903000D01*
X154005367Y-63262473D01*
X153169511Y-62915396D01*
X152264460Y-62914606D01*
X151428000Y-63260224D01*
X150787473Y-63899633D01*
X150440396Y-64735489D01*
X150439606Y-65640540D01*
X143559607Y-65640540D01*
X143560394Y-64739460D01*
X143214776Y-63903000D01*
X142575367Y-63262473D01*
X141739511Y-62915396D01*
X140834460Y-62914606D01*
X139998000Y-63260224D01*
X139357473Y-63899633D01*
X139010396Y-64735489D01*
X139009606Y-65640540D01*
X134168160Y-65640540D01*
X134259826Y-65419785D01*
X134260173Y-65021960D01*
X134108253Y-64654286D01*
X133827194Y-64372736D01*
X133459785Y-64220174D01*
X133061960Y-64219827D01*
X132694286Y-64371747D01*
X132412736Y-64652806D01*
X132260174Y-65020215D01*
X132259827Y-65418040D01*
X129419827Y-65418040D01*
X129420173Y-65021960D01*
X129268253Y-64654286D01*
X128987194Y-64372736D01*
X128619785Y-64220174D01*
X128221960Y-64219827D01*
X127854286Y-64371747D01*
X127572736Y-64652806D01*
X127420174Y-65020215D01*
X127419827Y-65418040D01*
X100827186Y-65418040D01*
X100990393Y-64597546D01*
X100990393Y-64548298D01*
X101000000Y-64500000D01*
X101000000Y-61658432D01*
X124899861Y-61658432D01*
X125021397Y-61952572D01*
X125246245Y-62177812D01*
X125540172Y-62299861D01*
X125686817Y-62299989D01*
X127108424Y-63721597D01*
X127294967Y-63846241D01*
X127515010Y-63890010D01*
X134284990Y-63890010D01*
X134505033Y-63846241D01*
X134691576Y-63721596D01*
X135513161Y-62900012D01*
X135658432Y-62900139D01*
X135952572Y-62778603D01*
X136177812Y-62553755D01*
X136299861Y-62259828D01*
X136300139Y-61941568D01*
X136178603Y-61647428D01*
X135953755Y-61422188D01*
X135659828Y-61300139D01*
X135341568Y-61299861D01*
X135047428Y-61421397D01*
X134822188Y-61646245D01*
X134700139Y-61940172D01*
X134700011Y-62086816D01*
X134620000Y-62166827D01*
X134620000Y-61864531D01*
X134540074Y-61462713D01*
X134312462Y-61122069D01*
X133971818Y-60894457D01*
X133570000Y-60814531D01*
X133168182Y-60894457D01*
X132827538Y-61122069D01*
X132599926Y-61462713D01*
X132520000Y-61864531D01*
X132520000Y-62415469D01*
X132584555Y-62740010D01*
X129095445Y-62740010D01*
X129160000Y-62415469D01*
X129160000Y-61864531D01*
X129080074Y-61462713D01*
X128852462Y-61122069D01*
X128511818Y-60894457D01*
X128110000Y-60814531D01*
X127708182Y-60894457D01*
X127367538Y-61122069D01*
X127139926Y-61462713D01*
X127060000Y-61864531D01*
X127060000Y-62046827D01*
X126500012Y-61486840D01*
X126500139Y-61341568D01*
X126378603Y-61047428D01*
X126153755Y-60822188D01*
X125859828Y-60700139D01*
X125541568Y-60699861D01*
X125247428Y-60821397D01*
X125022188Y-61046245D01*
X124900139Y-61340172D01*
X124899861Y-61658432D01*
X101000000Y-61658432D01*
X101000000Y-60500000D01*
X192000000Y-60500000D01*
X192000000Y-64500000D01*
X192000000Y-64500000D01*
G37*
X192000000Y-64500000D02*
X192009607Y-64548298D01*
X192009607Y-64597545D01*
X192276029Y-65936937D01*
X192350687Y-66117177D01*
X193109391Y-67252659D01*
X193247341Y-67390609D01*
X194382820Y-68149311D01*
X194382822Y-68149313D01*
X194563063Y-68223971D01*
X195902454Y-68490393D01*
X195951702Y-68490393D01*
X196000000Y-68500000D01*
X200000000Y-68500000D01*
X200000000Y-109000000D01*
X198025469Y-109000000D01*
X198522957Y-108901043D01*
X198944708Y-108619239D01*
X199226512Y-108197488D01*
X199325469Y-107700000D01*
X199226512Y-107202512D01*
X198944708Y-106780761D01*
X198522957Y-106498957D01*
X198176288Y-106430000D01*
X198522957Y-106361043D01*
X198944708Y-106079239D01*
X199226512Y-105657488D01*
X199325469Y-105160000D01*
X199226512Y-104662512D01*
X198944708Y-104240761D01*
X198522957Y-103958957D01*
X198176288Y-103890000D01*
X198522957Y-103821043D01*
X198944708Y-103539239D01*
X199226512Y-103117488D01*
X199325469Y-102620000D01*
X199226512Y-102122512D01*
X198944708Y-101700761D01*
X198565506Y-101447387D01*
X198874730Y-101308387D01*
X199278228Y-100880137D01*
X199469619Y-100418061D01*
X199339469Y-100184000D01*
X198104000Y-100184000D01*
X198104000Y-100204000D01*
X197896000Y-100204000D01*
X197896000Y-100184000D01*
X196660531Y-100184000D01*
X196530381Y-100418061D01*
X196721772Y-100880137D01*
X197125270Y-101308387D01*
X197434494Y-101447387D01*
X197055292Y-101700761D01*
X196773488Y-102122512D01*
X196674531Y-102620000D01*
X196773488Y-103117488D01*
X197055292Y-103539239D01*
X197477043Y-103821043D01*
X197823712Y-103890000D01*
X197477043Y-103958957D01*
X197055292Y-104240761D01*
X196773488Y-104662512D01*
X196674531Y-105160000D01*
X196773488Y-105657488D01*
X197055292Y-106079239D01*
X197477043Y-106361043D01*
X197823712Y-106430000D01*
X197477043Y-106498957D01*
X197055292Y-106780761D01*
X196773488Y-107202512D01*
X196674531Y-107700000D01*
X196773488Y-108197488D01*
X197055292Y-108619239D01*
X197477043Y-108901043D01*
X197974531Y-109000000D01*
X196000000Y-109000000D01*
X195951702Y-109009607D01*
X195902454Y-109009607D01*
X194563063Y-109276029D01*
X194382822Y-109350687D01*
X194382820Y-109350689D01*
X193247341Y-110109391D01*
X193109391Y-110247341D01*
X192350688Y-111382822D01*
X192350687Y-111382823D01*
X192276029Y-111563063D01*
X192009607Y-112902455D01*
X192009607Y-112951702D01*
X192000000Y-113000000D01*
X192000000Y-117000000D01*
X101000000Y-117000000D01*
X101000000Y-113000000D01*
X100990393Y-112951702D01*
X100990393Y-112902454D01*
X100871942Y-112306961D01*
X111674732Y-112306961D01*
X111910208Y-112876857D01*
X112345849Y-113313260D01*
X112915333Y-113549730D01*
X113531961Y-113550268D01*
X114101857Y-113314792D01*
X114538260Y-112879151D01*
X114774730Y-112309667D01*
X114774732Y-112306961D01*
X115484732Y-112306961D01*
X115720208Y-112876857D01*
X116155849Y-113313260D01*
X116725333Y-113549730D01*
X117341961Y-113550268D01*
X117911857Y-113314792D01*
X118348260Y-112879151D01*
X118584730Y-112309667D01*
X118584732Y-112306961D01*
X119294732Y-112306961D01*
X119530208Y-112876857D01*
X119965849Y-113313260D01*
X120535333Y-113549730D01*
X121151961Y-113550268D01*
X121721857Y-113314792D01*
X122158260Y-112879151D01*
X122394730Y-112309667D01*
X122394732Y-112306961D01*
X123104732Y-112306961D01*
X123340208Y-112876857D01*
X123775849Y-113313260D01*
X124345333Y-113549730D01*
X124961961Y-113550268D01*
X125531857Y-113314792D01*
X125968260Y-112879151D01*
X126204730Y-112309667D01*
X126204732Y-112306961D01*
X126914732Y-112306961D01*
X127150208Y-112876857D01*
X127585849Y-113313260D01*
X128050000Y-113505992D01*
X128050000Y-115147833D01*
X127979826Y-115217885D01*
X127850148Y-115530183D01*
X127849853Y-115868334D01*
X127978985Y-116180857D01*
X128217885Y-116420174D01*
X128530183Y-116549852D01*
X128868334Y-116550147D01*
X129180857Y-116421015D01*
X129420174Y-116182115D01*
X129549852Y-115869817D01*
X129550147Y-115531666D01*
X129421015Y-115219143D01*
X129350000Y-115148004D01*
X129350000Y-113306663D01*
X129778260Y-112879151D01*
X130014730Y-112309667D01*
X130014732Y-112306961D01*
X130724732Y-112306961D01*
X130960208Y-112876857D01*
X131395849Y-113313260D01*
X131965333Y-113549730D01*
X132581961Y-113550268D01*
X133151857Y-113314792D01*
X133588260Y-112879151D01*
X133824730Y-112309667D01*
X133824732Y-112306961D01*
X141294732Y-112306961D01*
X141530208Y-112876857D01*
X141965849Y-113313260D01*
X142535333Y-113549730D01*
X143151961Y-113550268D01*
X143721857Y-113314792D01*
X143814494Y-113222316D01*
X145579762Y-113222316D01*
X145687343Y-113508802D01*
X146338395Y-113764258D01*
X147037647Y-113751121D01*
X147622657Y-113508802D01*
X147730238Y-113222316D01*
X146655000Y-112147078D01*
X145579762Y-113222316D01*
X143814494Y-113222316D01*
X144158260Y-112879151D01*
X144394730Y-112309667D01*
X144395268Y-111693039D01*
X144391284Y-111683395D01*
X144890742Y-111683395D01*
X144903879Y-112382647D01*
X145146198Y-112967657D01*
X145432684Y-113075238D01*
X146507922Y-112000000D01*
X146802078Y-112000000D01*
X147877316Y-113075238D01*
X148163802Y-112967657D01*
X148419258Y-112316605D01*
X148419077Y-112306961D01*
X152294732Y-112306961D01*
X152530208Y-112876857D01*
X152965849Y-113313260D01*
X153535333Y-113549730D01*
X154151961Y-113550268D01*
X154721857Y-113314792D01*
X154814494Y-113222316D01*
X156579762Y-113222316D01*
X156687343Y-113508802D01*
X157338395Y-113764258D01*
X158037647Y-113751121D01*
X158622657Y-113508802D01*
X158730238Y-113222316D01*
X157655000Y-112147078D01*
X156579762Y-113222316D01*
X154814494Y-113222316D01*
X155158260Y-112879151D01*
X155394730Y-112309667D01*
X155395268Y-111693039D01*
X155391284Y-111683395D01*
X155890742Y-111683395D01*
X155903879Y-112382647D01*
X156146198Y-112967657D01*
X156432684Y-113075238D01*
X157507922Y-112000000D01*
X157802078Y-112000000D01*
X158877316Y-113075238D01*
X159163802Y-112967657D01*
X159419258Y-112316605D01*
X159406121Y-111617353D01*
X159163802Y-111032343D01*
X158877316Y-110924762D01*
X157802078Y-112000000D01*
X157507922Y-112000000D01*
X156432684Y-110924762D01*
X156146198Y-111032343D01*
X155890742Y-111683395D01*
X155391284Y-111683395D01*
X155159792Y-111123143D01*
X154814937Y-110777684D01*
X156579762Y-110777684D01*
X157655000Y-111852922D01*
X158700961Y-110806961D01*
X162449732Y-110806961D01*
X162685208Y-111376857D01*
X163120849Y-111813260D01*
X163690333Y-112049730D01*
X164306961Y-112050268D01*
X164399687Y-112011954D01*
X164148556Y-112262647D01*
X163950226Y-112740279D01*
X163949774Y-113257452D01*
X164147271Y-113735429D01*
X164512647Y-114101444D01*
X164990279Y-114299774D01*
X165507452Y-114300226D01*
X165985429Y-114102729D01*
X166351444Y-113737353D01*
X166549774Y-113259721D01*
X166549775Y-113257452D01*
X168449774Y-113257452D01*
X168647271Y-113735429D01*
X169012647Y-114101444D01*
X169490279Y-114299774D01*
X170007452Y-114300226D01*
X170485429Y-114102729D01*
X170851444Y-113737353D01*
X171049774Y-113259721D01*
X171050226Y-112742548D01*
X170869212Y-112304461D01*
X174524733Y-112304461D01*
X174760209Y-112874357D01*
X175195850Y-113310760D01*
X175765334Y-113547230D01*
X176381962Y-113547768D01*
X176951858Y-113312292D01*
X177388261Y-112876651D01*
X177624731Y-112307167D01*
X177624733Y-112304461D01*
X178334733Y-112304461D01*
X178570209Y-112874357D01*
X179005850Y-113310760D01*
X179575334Y-113547230D01*
X180191962Y-113547768D01*
X180761858Y-113312292D01*
X181198261Y-112876651D01*
X181434731Y-112307167D01*
X181435269Y-111690539D01*
X181199793Y-111120643D01*
X180764152Y-110684240D01*
X180194668Y-110447770D01*
X179578040Y-110447232D01*
X179008144Y-110682708D01*
X178571741Y-111118349D01*
X178335271Y-111687833D01*
X178334733Y-112304461D01*
X177624733Y-112304461D01*
X177625269Y-111690539D01*
X177389793Y-111120643D01*
X176954152Y-110684240D01*
X176384668Y-110447770D01*
X175768040Y-110447232D01*
X175198144Y-110682708D01*
X174761741Y-111118349D01*
X174525271Y-111687833D01*
X174524733Y-112304461D01*
X170869212Y-112304461D01*
X170852729Y-112264571D01*
X170601399Y-112012801D01*
X170690333Y-112049730D01*
X171306961Y-112050268D01*
X171876857Y-111814792D01*
X172313260Y-111379151D01*
X172549730Y-110809667D01*
X172550268Y-110193039D01*
X172314792Y-109623143D01*
X171879151Y-109186740D01*
X171309667Y-108950270D01*
X170693039Y-108949732D01*
X170123143Y-109185208D01*
X169686740Y-109620849D01*
X169450270Y-110190333D01*
X169449732Y-110806961D01*
X169685208Y-111376857D01*
X170008011Y-111700225D01*
X169492548Y-111699774D01*
X169014571Y-111897271D01*
X168648556Y-112262647D01*
X168450226Y-112740279D01*
X168449774Y-113257452D01*
X166549775Y-113257452D01*
X166550226Y-112742548D01*
X166352729Y-112264571D01*
X165987353Y-111898556D01*
X165509721Y-111700226D01*
X164992548Y-111699774D01*
X164991743Y-111700107D01*
X165313260Y-111379151D01*
X165549730Y-110809667D01*
X165550268Y-110193039D01*
X165314792Y-109623143D01*
X164879151Y-109186740D01*
X164309667Y-108950270D01*
X163693039Y-108949732D01*
X163123143Y-109185208D01*
X162686740Y-109620849D01*
X162450270Y-110190333D01*
X162449732Y-110806961D01*
X158700961Y-110806961D01*
X158730238Y-110777684D01*
X158622657Y-110491198D01*
X157971605Y-110235742D01*
X157272353Y-110248879D01*
X156687343Y-110491198D01*
X156579762Y-110777684D01*
X154814937Y-110777684D01*
X154724151Y-110686740D01*
X154154667Y-110450270D01*
X153538039Y-110449732D01*
X152968143Y-110685208D01*
X152531740Y-111120849D01*
X152295270Y-111690333D01*
X152294732Y-112306961D01*
X148419077Y-112306961D01*
X148406121Y-111617353D01*
X148163802Y-111032343D01*
X147877316Y-110924762D01*
X146802078Y-112000000D01*
X146507922Y-112000000D01*
X145432684Y-110924762D01*
X145146198Y-111032343D01*
X144890742Y-111683395D01*
X144391284Y-111683395D01*
X144159792Y-111123143D01*
X143814937Y-110777684D01*
X145579762Y-110777684D01*
X146655000Y-111852922D01*
X147730238Y-110777684D01*
X147622657Y-110491198D01*
X146971605Y-110235742D01*
X146272353Y-110248879D01*
X145687343Y-110491198D01*
X145579762Y-110777684D01*
X143814937Y-110777684D01*
X143724151Y-110686740D01*
X143154667Y-110450270D01*
X142538039Y-110449732D01*
X141968143Y-110685208D01*
X141531740Y-111120849D01*
X141295270Y-111690333D01*
X141294732Y-112306961D01*
X133824732Y-112306961D01*
X133825268Y-111693039D01*
X133589792Y-111123143D01*
X133154151Y-110686740D01*
X132584667Y-110450270D01*
X131968039Y-110449732D01*
X131398143Y-110685208D01*
X130961740Y-111120849D01*
X130725270Y-111690333D01*
X130724732Y-112306961D01*
X130014732Y-112306961D01*
X130015268Y-111693039D01*
X129779792Y-111123143D01*
X129344151Y-110686740D01*
X128774667Y-110450270D01*
X128158039Y-110449732D01*
X127588143Y-110685208D01*
X127151740Y-111120849D01*
X126915270Y-111690333D01*
X126914732Y-112306961D01*
X126204732Y-112306961D01*
X126205268Y-111693039D01*
X125969792Y-111123143D01*
X125534151Y-110686740D01*
X124964667Y-110450270D01*
X124348039Y-110449732D01*
X123778143Y-110685208D01*
X123341740Y-111120849D01*
X123105270Y-111690333D01*
X123104732Y-112306961D01*
X122394732Y-112306961D01*
X122395268Y-111693039D01*
X122159792Y-111123143D01*
X121724151Y-110686740D01*
X121154667Y-110450270D01*
X120538039Y-110449732D01*
X119968143Y-110685208D01*
X119531740Y-111120849D01*
X119295270Y-111690333D01*
X119294732Y-112306961D01*
X118584732Y-112306961D01*
X118585268Y-111693039D01*
X118349792Y-111123143D01*
X117914151Y-110686740D01*
X117344667Y-110450270D01*
X116728039Y-110449732D01*
X116158143Y-110685208D01*
X115721740Y-111120849D01*
X115485270Y-111690333D01*
X115484732Y-112306961D01*
X114774732Y-112306961D01*
X114775268Y-111693039D01*
X114539792Y-111123143D01*
X114104151Y-110686740D01*
X113534667Y-110450270D01*
X112918039Y-110449732D01*
X112348143Y-110685208D01*
X111911740Y-111120849D01*
X111675270Y-111690333D01*
X111674732Y-112306961D01*
X100871942Y-112306961D01*
X100723971Y-111563063D01*
X100649313Y-111382822D01*
X100649311Y-111382820D01*
X100077970Y-110527746D01*
X101999801Y-110527746D01*
X102174509Y-110950572D01*
X102497727Y-111274354D01*
X102920247Y-111449800D01*
X103377746Y-111450199D01*
X103800572Y-111275491D01*
X104124354Y-110952273D01*
X104299800Y-110529753D01*
X104300199Y-110072254D01*
X104125491Y-109649428D01*
X103802273Y-109325646D01*
X103379753Y-109150200D01*
X102922254Y-109149801D01*
X102499428Y-109324509D01*
X102175646Y-109647727D01*
X102000200Y-110070247D01*
X101999801Y-110527746D01*
X100077970Y-110527746D01*
X99890609Y-110247341D01*
X99752659Y-110109391D01*
X98617177Y-109350687D01*
X98436937Y-109276029D01*
X97097545Y-109009607D01*
X97048298Y-109009607D01*
X97000000Y-109000000D01*
X93000000Y-109000000D01*
X93000000Y-107584217D01*
X104799489Y-107584217D01*
X105247653Y-108668858D01*
X106076777Y-109499430D01*
X107160634Y-109949487D01*
X108334217Y-109950511D01*
X109418858Y-109502347D01*
X110249430Y-108673223D01*
X110699487Y-107589366D01*
X110699491Y-107584217D01*
X182299489Y-107584217D01*
X182747653Y-108668858D01*
X183576777Y-109499430D01*
X184660634Y-109949487D01*
X185834217Y-109950511D01*
X186918858Y-109502347D01*
X187749430Y-108673223D01*
X188178461Y-107640000D01*
X193174531Y-107640000D01*
X193273488Y-108137488D01*
X193555292Y-108559239D01*
X193977043Y-108841043D01*
X194474531Y-108940000D01*
X194525469Y-108940000D01*
X195022957Y-108841043D01*
X195444708Y-108559239D01*
X195726512Y-108137488D01*
X195825469Y-107640000D01*
X195726512Y-107142512D01*
X195444708Y-106720761D01*
X195022957Y-106438957D01*
X194871429Y-106408816D01*
X195350000Y-106408816D01*
X195525581Y-106373891D01*
X195674432Y-106274432D01*
X195773891Y-106125581D01*
X195808816Y-105950000D01*
X195808816Y-104250000D01*
X195773891Y-104074419D01*
X195674432Y-103925568D01*
X195525581Y-103826109D01*
X195350000Y-103791184D01*
X193650000Y-103791184D01*
X193474419Y-103826109D01*
X193325568Y-103925568D01*
X193226109Y-104074419D01*
X193191184Y-104250000D01*
X193191184Y-105950000D01*
X193226109Y-106125581D01*
X193325568Y-106274432D01*
X193474419Y-106373891D01*
X193650000Y-106408816D01*
X194128571Y-106408816D01*
X193977043Y-106438957D01*
X193555292Y-106720761D01*
X193273488Y-107142512D01*
X193174531Y-107640000D01*
X188178461Y-107640000D01*
X188199487Y-107589366D01*
X188200511Y-106415783D01*
X187752347Y-105331142D01*
X186923223Y-104500570D01*
X185839366Y-104050513D01*
X184665783Y-104049489D01*
X183581142Y-104497653D01*
X182750570Y-105326777D01*
X182300513Y-106410634D01*
X182299489Y-107584217D01*
X110699491Y-107584217D01*
X110700511Y-106415783D01*
X110252347Y-105331142D01*
X109423223Y-104500570D01*
X108339366Y-104050513D01*
X107165783Y-104049489D01*
X106081142Y-104497653D01*
X105250570Y-105326777D01*
X104800513Y-106410634D01*
X104799489Y-107584217D01*
X93000000Y-107584217D01*
X93000000Y-100868500D01*
X190842000Y-100868500D01*
X190842000Y-101630884D01*
X190942174Y-101872727D01*
X191127273Y-102057825D01*
X191369115Y-102158000D01*
X192131500Y-102158000D01*
X192296000Y-101993500D01*
X192296000Y-100704000D01*
X192504000Y-100704000D01*
X192504000Y-101993500D01*
X192668500Y-102158000D01*
X193430885Y-102158000D01*
X193672727Y-102057825D01*
X193857826Y-101872727D01*
X193958000Y-101630884D01*
X193958000Y-100868500D01*
X193793500Y-100704000D01*
X192504000Y-100704000D01*
X192296000Y-100704000D01*
X191006500Y-100704000D01*
X190842000Y-100868500D01*
X93000000Y-100868500D01*
X93000000Y-98918334D01*
X98699853Y-98918334D01*
X98828985Y-99230857D01*
X99067885Y-99470174D01*
X99380183Y-99599852D01*
X99718334Y-99600147D01*
X100030857Y-99471015D01*
X100270174Y-99232115D01*
X100399852Y-98919817D01*
X100400147Y-98581666D01*
X100271015Y-98269143D01*
X100200000Y-98198004D01*
X100200000Y-96458432D01*
X162099861Y-96458432D01*
X162221397Y-96752572D01*
X162446245Y-96977812D01*
X162740172Y-97099861D01*
X163058432Y-97100139D01*
X163352572Y-96978603D01*
X163456356Y-96875000D01*
X164989345Y-96875000D01*
X165021397Y-96952572D01*
X165246245Y-97177812D01*
X165540172Y-97299861D01*
X165858432Y-97300139D01*
X166152572Y-97178603D01*
X166377812Y-96953755D01*
X166499861Y-96659828D01*
X166500139Y-96341568D01*
X166387310Y-96068500D01*
X190742000Y-96068500D01*
X190742000Y-96830884D01*
X190842174Y-97072727D01*
X191027273Y-97257825D01*
X191235516Y-97344083D01*
X191050235Y-97790290D01*
X191049766Y-98327353D01*
X191254858Y-98823715D01*
X191472763Y-99042000D01*
X191369115Y-99042000D01*
X191127273Y-99142175D01*
X190942174Y-99327273D01*
X190842000Y-99569116D01*
X190842000Y-100331500D01*
X191006500Y-100496000D01*
X192296000Y-100496000D01*
X192296000Y-100476000D01*
X192504000Y-100476000D01*
X192504000Y-100496000D01*
X193793500Y-100496000D01*
X193958000Y-100331500D01*
X193958000Y-99741939D01*
X196530381Y-99741939D01*
X196660531Y-99976000D01*
X197896000Y-99976000D01*
X197896000Y-99956000D01*
X198104000Y-99956000D01*
X198104000Y-99976000D01*
X199339469Y-99976000D01*
X199469619Y-99741939D01*
X199278228Y-99279863D01*
X198874730Y-98851613D01*
X198565506Y-98712613D01*
X198944708Y-98459239D01*
X199226512Y-98037488D01*
X199325469Y-97540000D01*
X199226512Y-97042512D01*
X198944708Y-96620761D01*
X198522957Y-96338957D01*
X198371429Y-96308816D01*
X198850000Y-96308816D01*
X199025581Y-96273891D01*
X199174432Y-96174432D01*
X199273891Y-96025581D01*
X199308816Y-95850000D01*
X199308816Y-94150000D01*
X199273891Y-93974419D01*
X199174432Y-93825568D01*
X199025581Y-93726109D01*
X198850000Y-93691184D01*
X197150000Y-93691184D01*
X196974419Y-93726109D01*
X196825568Y-93825568D01*
X196726109Y-93974419D01*
X196691184Y-94150000D01*
X196691184Y-95850000D01*
X196726109Y-96025581D01*
X196825568Y-96174432D01*
X196974419Y-96273891D01*
X197150000Y-96308816D01*
X197628571Y-96308816D01*
X197477043Y-96338957D01*
X197055292Y-96620761D01*
X196773488Y-97042512D01*
X196674531Y-97540000D01*
X196773488Y-98037488D01*
X197055292Y-98459239D01*
X197434494Y-98712613D01*
X197125270Y-98851613D01*
X196721772Y-99279863D01*
X196530381Y-99741939D01*
X193958000Y-99741939D01*
X193958000Y-99569116D01*
X193857826Y-99327273D01*
X193672727Y-99142175D01*
X193430885Y-99042000D01*
X193327142Y-99042000D01*
X193543807Y-98825712D01*
X193749765Y-98329710D01*
X193750234Y-97792647D01*
X193545142Y-97296285D01*
X193526050Y-97277159D01*
X193572727Y-97257825D01*
X193757826Y-97072727D01*
X193858000Y-96830884D01*
X193858000Y-96068500D01*
X193693500Y-95904000D01*
X192404000Y-95904000D01*
X192404000Y-95924000D01*
X192196000Y-95924000D01*
X192196000Y-95904000D01*
X190906500Y-95904000D01*
X190742000Y-96068500D01*
X166387310Y-96068500D01*
X166378603Y-96047428D01*
X166244343Y-95912934D01*
X166327429Y-95878603D01*
X166552669Y-95653755D01*
X166674718Y-95359828D01*
X166674996Y-95041568D01*
X166562422Y-94769116D01*
X190742000Y-94769116D01*
X190742000Y-95531500D01*
X190906500Y-95696000D01*
X192196000Y-95696000D01*
X192196000Y-95676000D01*
X192404000Y-95676000D01*
X192404000Y-95696000D01*
X193693500Y-95696000D01*
X193858000Y-95531500D01*
X193858000Y-94769116D01*
X193757826Y-94527273D01*
X193572727Y-94342175D01*
X193330885Y-94242000D01*
X193227142Y-94242000D01*
X193443807Y-94025712D01*
X193649765Y-93529710D01*
X193650234Y-92992647D01*
X193445142Y-92496285D01*
X193065712Y-92116193D01*
X192569710Y-91910235D01*
X192032647Y-91909766D01*
X191536285Y-92114858D01*
X191156193Y-92494288D01*
X190950235Y-92990290D01*
X190949766Y-93527353D01*
X191154858Y-94023715D01*
X191372763Y-94242000D01*
X191269115Y-94242000D01*
X191027273Y-94342175D01*
X190842174Y-94527273D01*
X190742000Y-94769116D01*
X166562422Y-94769116D01*
X166553460Y-94747428D01*
X166328612Y-94522188D01*
X166034685Y-94400139D01*
X165716425Y-94399861D01*
X165422285Y-94521397D01*
X165318501Y-94625000D01*
X163906211Y-94625000D01*
X163703752Y-94422188D01*
X163409825Y-94300139D01*
X163091565Y-94299861D01*
X162797425Y-94421397D01*
X162572185Y-94646245D01*
X162450136Y-94940172D01*
X162449858Y-95258432D01*
X162571394Y-95552572D01*
X162583835Y-95565035D01*
X162447428Y-95621397D01*
X162222188Y-95846245D01*
X162100139Y-96140172D01*
X162099861Y-96458432D01*
X100200000Y-96458432D01*
X100200000Y-96302080D01*
X100320174Y-96182115D01*
X100449852Y-95869817D01*
X100450147Y-95531666D01*
X100321015Y-95219143D01*
X100082115Y-94979826D01*
X99769817Y-94850148D01*
X99431666Y-94849853D01*
X99119143Y-94978985D01*
X98879826Y-95217885D01*
X98750148Y-95530183D01*
X98749853Y-95868334D01*
X98878985Y-96180857D01*
X98900000Y-96201909D01*
X98900000Y-98197833D01*
X98829826Y-98267885D01*
X98700148Y-98580183D01*
X98699853Y-98918334D01*
X93000000Y-98918334D01*
X93000000Y-92558432D01*
X146999848Y-92558432D01*
X147121384Y-92852572D01*
X147346232Y-93077812D01*
X147640159Y-93199861D01*
X147958419Y-93200139D01*
X148250349Y-93079516D01*
X148540172Y-93199861D01*
X148858432Y-93200139D01*
X149152572Y-93078603D01*
X149377812Y-92853755D01*
X149499861Y-92559828D01*
X149499989Y-92413183D01*
X149914045Y-91999127D01*
X150038690Y-91812584D01*
X150051168Y-91749852D01*
X150082459Y-91592541D01*
X150082459Y-89197092D01*
X152201089Y-89197092D01*
X152330221Y-89509615D01*
X152569121Y-89748932D01*
X152881419Y-89878610D01*
X153088096Y-89878790D01*
X154052534Y-90843229D01*
X154130756Y-91032541D01*
X154369656Y-91271858D01*
X154681954Y-91401536D01*
X155020105Y-91401831D01*
X155332628Y-91272699D01*
X155537349Y-91068334D01*
X179449853Y-91068334D01*
X179578985Y-91380857D01*
X179817885Y-91620174D01*
X180130183Y-91749852D01*
X180468334Y-91750147D01*
X180780857Y-91621015D01*
X180927127Y-91475000D01*
X181700000Y-91475000D01*
X181920043Y-91431231D01*
X182106586Y-91306586D01*
X182963205Y-90449968D01*
X183168334Y-90450147D01*
X183480857Y-90321015D01*
X183720174Y-90082115D01*
X183849852Y-89769817D01*
X183850147Y-89431666D01*
X183721015Y-89119143D01*
X183482115Y-88879826D01*
X183169817Y-88750148D01*
X182831666Y-88749853D01*
X182519143Y-88878985D01*
X182279826Y-89117885D01*
X182150148Y-89430183D01*
X182149968Y-89636860D01*
X181461828Y-90325000D01*
X180927036Y-90325000D01*
X180782115Y-90179826D01*
X180469817Y-90050148D01*
X180131666Y-90049853D01*
X179819143Y-90178985D01*
X179579826Y-90417885D01*
X179450148Y-90730183D01*
X179449853Y-91068334D01*
X155537349Y-91068334D01*
X155571945Y-91033799D01*
X155701623Y-90721501D01*
X155701918Y-90383350D01*
X155572786Y-90070827D01*
X155333886Y-89831510D01*
X155021588Y-89701832D01*
X154683437Y-89701537D01*
X154579948Y-89744298D01*
X153901204Y-89065554D01*
X153901383Y-88860424D01*
X153772251Y-88547901D01*
X153533351Y-88308584D01*
X153221053Y-88178906D01*
X152882902Y-88178611D01*
X152570379Y-88307743D01*
X152331062Y-88546643D01*
X152201384Y-88858941D01*
X152201089Y-89197092D01*
X150082459Y-89197092D01*
X150082459Y-88906312D01*
X150185271Y-88803679D01*
X150307320Y-88509752D01*
X150307598Y-88191492D01*
X150186062Y-87897352D01*
X149961214Y-87672112D01*
X149667287Y-87550063D01*
X149349027Y-87549785D01*
X149054887Y-87671321D01*
X148829647Y-87896169D01*
X148767875Y-88044934D01*
X148659836Y-88000072D01*
X148341576Y-87999794D01*
X148047436Y-88121330D01*
X147822196Y-88346178D01*
X147700147Y-88640105D01*
X147699869Y-88958365D01*
X147821405Y-89252505D01*
X148025000Y-89456455D01*
X148025000Y-90866840D01*
X147393401Y-91498440D01*
X147268756Y-91684983D01*
X147240230Y-91828396D01*
X147122175Y-91946245D01*
X147000126Y-92240172D01*
X146999848Y-92558432D01*
X93000000Y-92558432D01*
X93000000Y-89935737D01*
X142622556Y-89935737D01*
X142744092Y-90229877D01*
X142968940Y-90455117D01*
X143262867Y-90577166D01*
X143432070Y-90577314D01*
X143432027Y-90626266D01*
X143553563Y-90920406D01*
X143778411Y-91145646D01*
X144072338Y-91267695D01*
X144390598Y-91267973D01*
X144684738Y-91146437D01*
X144909978Y-90921589D01*
X145032027Y-90627662D01*
X145032305Y-90309402D01*
X144910769Y-90015262D01*
X144819941Y-89924276D01*
X146444212Y-88300006D01*
X146589483Y-88300133D01*
X146883623Y-88178597D01*
X147108863Y-87953749D01*
X147230912Y-87659822D01*
X147231190Y-87341562D01*
X147196844Y-87258436D01*
X166699861Y-87258436D01*
X166821397Y-87552576D01*
X167046245Y-87777816D01*
X167340172Y-87899865D01*
X167486821Y-87899993D01*
X167593414Y-88006586D01*
X167779957Y-88131231D01*
X168000000Y-88175000D01*
X170673750Y-88175000D01*
X170776427Y-88277856D01*
X171070354Y-88399905D01*
X171388614Y-88400183D01*
X171682754Y-88278647D01*
X171907994Y-88053799D01*
X172030043Y-87759872D01*
X172030321Y-87441612D01*
X171908785Y-87147472D01*
X171683937Y-86922232D01*
X171390010Y-86800183D01*
X171071750Y-86799905D01*
X170777610Y-86921441D01*
X170673870Y-87025000D01*
X168300066Y-87025000D01*
X168300139Y-86941572D01*
X168178603Y-86647432D01*
X167953755Y-86422192D01*
X167659828Y-86300143D01*
X167341568Y-86299865D01*
X167047428Y-86421401D01*
X166822188Y-86646249D01*
X166700139Y-86940176D01*
X166699861Y-87258436D01*
X147196844Y-87258436D01*
X147109654Y-87047422D01*
X146884806Y-86822182D01*
X146590879Y-86700133D01*
X146272619Y-86699855D01*
X145978479Y-86821391D01*
X145756724Y-87042760D01*
X145534795Y-86820445D01*
X145240868Y-86698396D01*
X144922608Y-86698118D01*
X144628468Y-86819654D01*
X144403228Y-87044502D01*
X144281179Y-87338429D01*
X144281051Y-87485073D01*
X143016109Y-88750016D01*
X142891464Y-88936559D01*
X142847695Y-89156602D01*
X142847695Y-89220917D01*
X142744883Y-89323550D01*
X142622834Y-89617477D01*
X142622556Y-89935737D01*
X93000000Y-89935737D01*
X93000000Y-88027746D01*
X128649801Y-88027746D01*
X128824509Y-88450572D01*
X129147727Y-88774354D01*
X129570247Y-88949800D01*
X130027746Y-88950199D01*
X130450572Y-88775491D01*
X130774354Y-88452273D01*
X130949800Y-88029753D01*
X130950199Y-87572254D01*
X130918247Y-87494925D01*
X131625000Y-86788172D01*
X131625000Y-87193283D01*
X131549428Y-87224509D01*
X131225646Y-87547727D01*
X131050200Y-87970247D01*
X131049801Y-88427746D01*
X131224509Y-88850572D01*
X131547727Y-89174354D01*
X131970247Y-89349800D01*
X132427746Y-89350199D01*
X132850572Y-89175491D01*
X133174354Y-88852273D01*
X133349800Y-88429753D01*
X133350199Y-87972254D01*
X133175491Y-87549428D01*
X132852273Y-87225646D01*
X132775000Y-87193559D01*
X132775000Y-86399172D01*
X132831231Y-86315017D01*
X132852846Y-86206350D01*
X132859757Y-86171604D01*
X132977812Y-86053755D01*
X133099861Y-85759828D01*
X133100139Y-85441568D01*
X132987242Y-85168334D01*
X143449853Y-85168334D01*
X143578985Y-85480857D01*
X143817885Y-85720174D01*
X144130183Y-85849852D01*
X144468334Y-85850147D01*
X144780857Y-85721015D01*
X145020174Y-85482115D01*
X145149852Y-85169817D01*
X145150032Y-84963140D01*
X145463205Y-84649968D01*
X145668334Y-84650147D01*
X145980857Y-84521015D01*
X146220174Y-84282115D01*
X146349852Y-83969817D01*
X146350147Y-83631666D01*
X146221015Y-83319143D01*
X145982115Y-83079826D01*
X145669817Y-82950148D01*
X145331666Y-82949853D01*
X145019143Y-83078985D01*
X144779826Y-83317885D01*
X144650148Y-83630183D01*
X144649968Y-83836860D01*
X144336796Y-84150032D01*
X144131666Y-84149853D01*
X143819143Y-84278985D01*
X143579826Y-84517885D01*
X143450148Y-84830183D01*
X143449853Y-85168334D01*
X132987242Y-85168334D01*
X132978603Y-85147428D01*
X132753755Y-84922188D01*
X132459828Y-84800139D01*
X132141568Y-84799861D01*
X131847428Y-84921397D01*
X131822349Y-84946432D01*
X131775033Y-84899033D01*
X131481106Y-84776984D01*
X131162846Y-84776706D01*
X130868706Y-84898242D01*
X130643466Y-85123090D01*
X130521417Y-85417017D01*
X130521139Y-85735277D01*
X130642675Y-86029417D01*
X130699993Y-86086835D01*
X130105270Y-86681558D01*
X130029753Y-86650200D01*
X129572254Y-86649801D01*
X129149428Y-86824509D01*
X128825646Y-87147727D01*
X128650200Y-87570247D01*
X128649801Y-88027746D01*
X93000000Y-88027746D01*
X93000000Y-82433432D01*
X94249861Y-82433432D01*
X94371397Y-82727572D01*
X94475000Y-82831356D01*
X94475000Y-83875000D01*
X94516092Y-84081586D01*
X94518769Y-84095043D01*
X94643414Y-84281586D01*
X94849988Y-84488160D01*
X94849861Y-84633432D01*
X94971397Y-84927572D01*
X95196245Y-85152812D01*
X95490172Y-85274861D01*
X95808432Y-85275139D01*
X96102572Y-85153603D01*
X96327812Y-84928755D01*
X96449861Y-84634828D01*
X96450006Y-84468291D01*
X96584009Y-84412922D01*
X113145371Y-84412922D01*
X113266907Y-84707062D01*
X113491755Y-84932302D01*
X113785682Y-85054351D01*
X114103942Y-85054629D01*
X114398082Y-84933093D01*
X114501866Y-84829490D01*
X114668780Y-84829490D01*
X114841767Y-85002779D01*
X115135694Y-85124828D01*
X115453954Y-85125106D01*
X115748094Y-85003570D01*
X115973334Y-84778722D01*
X116095383Y-84484795D01*
X116095661Y-84166535D01*
X115974125Y-83872395D01*
X115749277Y-83647155D01*
X115455350Y-83525106D01*
X115137090Y-83524828D01*
X114842950Y-83646364D01*
X114809766Y-83679490D01*
X114501898Y-83679490D01*
X114399265Y-83576678D01*
X114105338Y-83454629D01*
X113787078Y-83454351D01*
X113492938Y-83575887D01*
X113267698Y-83800735D01*
X113145649Y-84094662D01*
X113145371Y-84412922D01*
X96584009Y-84412922D01*
X96727572Y-84353603D01*
X96952812Y-84128755D01*
X97074861Y-83834828D01*
X97075139Y-83516568D01*
X96953603Y-83222428D01*
X96728755Y-82997188D01*
X96434828Y-82875139D01*
X96300000Y-82875021D01*
X96300000Y-82106388D01*
X96402812Y-82003755D01*
X96524861Y-81709828D01*
X96525139Y-81391568D01*
X96403603Y-81097428D01*
X96178755Y-80872188D01*
X95884828Y-80750139D01*
X95566568Y-80749861D01*
X95272428Y-80871397D01*
X95047188Y-81096245D01*
X94925139Y-81390172D01*
X94925065Y-81474890D01*
X94891568Y-81474861D01*
X94597428Y-81596397D01*
X94372188Y-81821245D01*
X94250139Y-82115172D01*
X94249861Y-82433432D01*
X93000000Y-82433432D01*
X93000000Y-78958432D01*
X151699861Y-78958432D01*
X151821397Y-79252572D01*
X152046245Y-79477812D01*
X152340172Y-79599861D01*
X152658432Y-79600139D01*
X152952572Y-79478603D01*
X153056356Y-79375000D01*
X155234270Y-79375000D01*
X156299870Y-80440601D01*
X156311658Y-80499861D01*
X156327318Y-80578592D01*
X156451963Y-80765135D01*
X160699988Y-85013160D01*
X160699861Y-85158432D01*
X160821397Y-85452572D01*
X161046245Y-85677812D01*
X161340172Y-85799861D01*
X161658432Y-85800139D01*
X161952572Y-85678603D01*
X162177812Y-85453755D01*
X162299861Y-85159828D01*
X162300139Y-84841568D01*
X162178603Y-84547428D01*
X162081372Y-84450027D01*
X162173126Y-84358432D01*
X166399830Y-84358432D01*
X166520459Y-84650377D01*
X166400126Y-84940172D01*
X166399848Y-85258432D01*
X166521384Y-85552572D01*
X166746232Y-85777812D01*
X167040159Y-85899861D01*
X167358419Y-85900139D01*
X167519574Y-85833551D01*
X178979993Y-85833551D01*
X179101529Y-86127691D01*
X179326377Y-86352931D01*
X179620304Y-86474980D01*
X179938564Y-86475258D01*
X180232704Y-86353722D01*
X180457944Y-86128874D01*
X180579993Y-85834947D01*
X180580271Y-85516687D01*
X180490181Y-85298651D01*
X182156586Y-83632246D01*
X182281231Y-83445703D01*
X182301253Y-83345043D01*
X182325000Y-83225660D01*
X182325000Y-79868334D01*
X190949853Y-79868334D01*
X191078985Y-80180857D01*
X191317885Y-80420174D01*
X191630183Y-80549852D01*
X191968334Y-80550147D01*
X192280857Y-80421015D01*
X192520174Y-80182115D01*
X192649852Y-79869817D01*
X192650147Y-79531666D01*
X192521015Y-79219143D01*
X192375000Y-79072873D01*
X192375000Y-77718172D01*
X192679719Y-77413454D01*
X192686109Y-77445581D01*
X192785568Y-77594432D01*
X192934419Y-77693891D01*
X193110000Y-77728816D01*
X193535454Y-77728816D01*
X193224571Y-77857271D01*
X192858556Y-78222647D01*
X192660226Y-78700279D01*
X192659774Y-79217452D01*
X192857271Y-79695429D01*
X193222647Y-80061444D01*
X193628985Y-80230170D01*
X193224571Y-80397271D01*
X192858556Y-80762647D01*
X192660226Y-81240279D01*
X192659774Y-81757452D01*
X192857271Y-82235429D01*
X193222647Y-82601444D01*
X193628985Y-82770170D01*
X193224571Y-82937271D01*
X192858556Y-83302647D01*
X192660226Y-83780279D01*
X192659774Y-84297452D01*
X192857271Y-84775429D01*
X193222647Y-85141444D01*
X193628985Y-85310170D01*
X193224571Y-85477271D01*
X192858556Y-85842647D01*
X192660226Y-86320279D01*
X192659774Y-86837452D01*
X192857271Y-87315429D01*
X193222647Y-87681444D01*
X193700279Y-87879774D01*
X194217452Y-87880226D01*
X194695429Y-87682729D01*
X195061444Y-87317353D01*
X195230170Y-86911015D01*
X195397271Y-87315429D01*
X195762647Y-87681444D01*
X196240279Y-87879774D01*
X196757452Y-87880226D01*
X197235429Y-87682729D01*
X197601444Y-87317353D01*
X197799774Y-86839721D01*
X197800226Y-86322548D01*
X197602729Y-85844571D01*
X197237353Y-85478556D01*
X196831015Y-85309830D01*
X197235429Y-85142729D01*
X197601444Y-84777353D01*
X197799774Y-84299721D01*
X197800226Y-83782548D01*
X197602729Y-83304571D01*
X197237353Y-82938556D01*
X196831015Y-82769830D01*
X197235429Y-82602729D01*
X197601444Y-82237353D01*
X197799774Y-81759721D01*
X197800226Y-81242548D01*
X197602729Y-80764571D01*
X197237353Y-80398556D01*
X196831015Y-80229830D01*
X197235429Y-80062729D01*
X197601444Y-79697353D01*
X197799774Y-79219721D01*
X197800226Y-78702548D01*
X197602729Y-78224571D01*
X197237353Y-77858556D01*
X197112977Y-77806911D01*
X197317538Y-77722179D01*
X197394560Y-77461638D01*
X196500000Y-76567078D01*
X195605440Y-77461638D01*
X195682462Y-77722179D01*
X195895201Y-77803295D01*
X195764571Y-77857271D01*
X195398556Y-78222647D01*
X195229830Y-78628985D01*
X195062729Y-78224571D01*
X194697353Y-77858556D01*
X194384904Y-77728816D01*
X194810000Y-77728816D01*
X194985581Y-77693891D01*
X195134432Y-77594432D01*
X195233891Y-77445581D01*
X195268816Y-77270000D01*
X195268816Y-77258526D01*
X195458362Y-77314560D01*
X196352922Y-76420000D01*
X196647078Y-76420000D01*
X197541638Y-77314560D01*
X197802179Y-77237538D01*
X198015915Y-76676985D01*
X197998866Y-76077307D01*
X197802179Y-75602462D01*
X197541638Y-75525440D01*
X196647078Y-76420000D01*
X196352922Y-76420000D01*
X195458362Y-75525440D01*
X195268816Y-75581474D01*
X195268816Y-75570000D01*
X195233891Y-75394419D01*
X195223163Y-75378362D01*
X195605440Y-75378362D01*
X196500000Y-76272922D01*
X197394560Y-75378362D01*
X197317538Y-75117821D01*
X196756985Y-74904085D01*
X196157307Y-74921134D01*
X195682462Y-75117821D01*
X195605440Y-75378362D01*
X195223163Y-75378362D01*
X195134432Y-75245568D01*
X194985581Y-75146109D01*
X194810000Y-75111184D01*
X193110000Y-75111184D01*
X192934419Y-75146109D01*
X192785568Y-75245568D01*
X192686109Y-75394419D01*
X192651184Y-75570000D01*
X192651184Y-75886536D01*
X192646523Y-75887463D01*
X192639957Y-75888769D01*
X192453413Y-76013414D01*
X191393414Y-77073414D01*
X191268769Y-77259957D01*
X191225000Y-77480000D01*
X191225000Y-79072964D01*
X191079826Y-79217885D01*
X190950148Y-79530183D01*
X190949853Y-79868334D01*
X182325000Y-79868334D01*
X182325000Y-79581388D01*
X182427812Y-79478755D01*
X182549861Y-79184828D01*
X182550139Y-78866568D01*
X182428603Y-78572428D01*
X182203755Y-78347188D01*
X181909828Y-78225139D01*
X181591568Y-78224861D01*
X181297428Y-78346397D01*
X181072188Y-78571245D01*
X180950139Y-78865172D01*
X180949861Y-79183432D01*
X181071397Y-79477572D01*
X181175000Y-79581356D01*
X181175000Y-82987488D01*
X179373546Y-84788942D01*
X179248901Y-84975485D01*
X179224193Y-85099704D01*
X179102320Y-85221364D01*
X178980271Y-85515291D01*
X178979993Y-85833551D01*
X167519574Y-85833551D01*
X167652559Y-85778603D01*
X167771617Y-85659752D01*
X167915004Y-85631231D01*
X168101547Y-85506586D01*
X168533133Y-85075000D01*
X171143780Y-85075000D01*
X171346245Y-85277818D01*
X171640172Y-85399867D01*
X171958432Y-85400145D01*
X172252572Y-85278609D01*
X172351402Y-85179951D01*
X172640172Y-85299859D01*
X172958432Y-85300137D01*
X173252572Y-85178601D01*
X173477812Y-84953753D01*
X173599861Y-84659826D01*
X173600139Y-84341566D01*
X173478603Y-84047426D01*
X173253755Y-83822186D01*
X172959828Y-83700137D01*
X172813183Y-83700009D01*
X172556589Y-83443415D01*
X172370046Y-83318770D01*
X172365597Y-83317885D01*
X172150003Y-83275001D01*
X167549968Y-83275001D01*
X167334374Y-83317885D01*
X167329925Y-83318770D01*
X167208346Y-83400007D01*
X167041537Y-83399861D01*
X166747397Y-83521397D01*
X166522157Y-83746245D01*
X166400108Y-84040172D01*
X166399830Y-84358432D01*
X162173126Y-84358432D01*
X162177812Y-84353755D01*
X162299861Y-84059828D01*
X162300139Y-83741568D01*
X162178603Y-83447428D01*
X161953755Y-83222188D01*
X161659828Y-83100139D01*
X161513184Y-83100011D01*
X159871605Y-81458432D01*
X173899861Y-81458432D01*
X174021397Y-81752572D01*
X174246245Y-81977812D01*
X174540172Y-82099861D01*
X174858432Y-82100139D01*
X175152572Y-81978603D01*
X175377812Y-81753755D01*
X175499861Y-81459828D01*
X175499989Y-81313183D01*
X177079874Y-79733299D01*
X177240172Y-79799861D01*
X177558432Y-79800139D01*
X177852572Y-79678603D01*
X178077812Y-79453755D01*
X178199861Y-79159828D01*
X178200139Y-78841568D01*
X178078603Y-78547428D01*
X177853755Y-78322188D01*
X177559828Y-78200139D01*
X177241568Y-78199861D01*
X176947428Y-78321397D01*
X176804737Y-78463840D01*
X176779957Y-78468769D01*
X176593413Y-78593414D01*
X174686840Y-80499988D01*
X174541568Y-80499861D01*
X174247428Y-80621397D01*
X174022188Y-80846245D01*
X173900139Y-81140172D01*
X173899861Y-81458432D01*
X159871605Y-81458432D01*
X156081587Y-77668415D01*
X155895044Y-77543770D01*
X155675001Y-77500001D01*
X154061759Y-77500001D01*
X154015017Y-77468769D01*
X153871604Y-77440243D01*
X153753755Y-77322188D01*
X153459828Y-77200139D01*
X153141568Y-77199861D01*
X152847428Y-77321397D01*
X152622188Y-77546245D01*
X152500139Y-77840172D01*
X152499999Y-77999999D01*
X152341568Y-77999861D01*
X152047428Y-78121397D01*
X151822188Y-78346245D01*
X151700139Y-78640172D01*
X151699861Y-78958432D01*
X93000000Y-78958432D01*
X93000000Y-77702746D01*
X107524801Y-77702746D01*
X107699509Y-78125572D01*
X108022727Y-78449354D01*
X108445247Y-78624800D01*
X108902746Y-78625199D01*
X109325572Y-78450491D01*
X109649354Y-78127273D01*
X109815252Y-77727746D01*
X111299801Y-77727746D01*
X111474509Y-78150572D01*
X111797727Y-78474354D01*
X112220247Y-78649800D01*
X112677746Y-78650199D01*
X113100572Y-78475491D01*
X113424354Y-78152273D01*
X113599800Y-77729753D01*
X113600199Y-77272254D01*
X113553169Y-77158432D01*
X162999861Y-77158432D01*
X163121397Y-77452572D01*
X163346245Y-77677812D01*
X163640172Y-77799861D01*
X163958432Y-77800139D01*
X164252572Y-77678603D01*
X164477812Y-77453755D01*
X164599861Y-77159828D01*
X164599989Y-77013183D01*
X165438172Y-76175000D01*
X168243612Y-76175000D01*
X168346245Y-76277812D01*
X168640172Y-76399861D01*
X168958432Y-76400139D01*
X169252572Y-76278603D01*
X169477812Y-76053755D01*
X169599861Y-75759828D01*
X169600036Y-75558432D01*
X180899861Y-75558432D01*
X181021397Y-75852572D01*
X181246245Y-76077812D01*
X181540172Y-76199861D01*
X181686817Y-76199989D01*
X182234632Y-76747804D01*
X182421175Y-76872449D01*
X182641218Y-76916218D01*
X183347842Y-76916218D01*
X183450475Y-77019030D01*
X183744402Y-77141079D01*
X184062662Y-77141357D01*
X184356802Y-77019821D01*
X184582042Y-76794973D01*
X184704091Y-76501046D01*
X184704369Y-76182786D01*
X184652993Y-76058444D01*
X190206980Y-76058444D01*
X190328516Y-76352584D01*
X190553364Y-76577824D01*
X190847291Y-76699873D01*
X191165551Y-76700151D01*
X191459691Y-76578615D01*
X191684931Y-76353767D01*
X191806980Y-76059840D01*
X191807258Y-75741580D01*
X191685722Y-75447440D01*
X191582119Y-75343656D01*
X191582119Y-75007708D01*
X191652572Y-74978597D01*
X191877812Y-74753749D01*
X191999861Y-74459822D01*
X192000139Y-74141562D01*
X191878603Y-73847422D01*
X191653755Y-73622182D01*
X191359828Y-73500133D01*
X191041568Y-73499855D01*
X190747428Y-73621391D01*
X190522188Y-73846239D01*
X190400139Y-74140166D01*
X190399861Y-74458426D01*
X190432119Y-74536496D01*
X190432119Y-75343624D01*
X190329307Y-75446257D01*
X190207258Y-75740184D01*
X190206980Y-76058444D01*
X184652993Y-76058444D01*
X184603514Y-75938697D01*
X184652014Y-75918657D01*
X184891331Y-75679757D01*
X185021009Y-75367459D01*
X185021304Y-75029308D01*
X184892172Y-74716785D01*
X184653272Y-74477468D01*
X184340974Y-74347790D01*
X184002823Y-74347495D01*
X183694239Y-74474999D01*
X182950060Y-73730820D01*
X182950147Y-73631664D01*
X182821015Y-73319141D01*
X182582115Y-73079824D01*
X182269817Y-72950146D01*
X181931666Y-72949851D01*
X181619143Y-73078983D01*
X181379826Y-73317883D01*
X181250148Y-73630181D01*
X181249853Y-73968332D01*
X181378985Y-74280855D01*
X181617885Y-74520172D01*
X181810362Y-74600096D01*
X181541568Y-74599861D01*
X181247428Y-74721397D01*
X181022188Y-74946245D01*
X180900139Y-75240172D01*
X180899861Y-75558432D01*
X169600036Y-75558432D01*
X169600139Y-75441568D01*
X169478603Y-75147428D01*
X169253755Y-74922188D01*
X168959828Y-74800139D01*
X168641568Y-74799861D01*
X168347428Y-74921397D01*
X168243644Y-75025000D01*
X166426888Y-75025000D01*
X166691717Y-74760633D01*
X166735580Y-74655000D01*
X168520000Y-74655000D01*
X168740043Y-74611231D01*
X168926586Y-74486586D01*
X170613161Y-72800012D01*
X170758432Y-72800139D01*
X171052572Y-72678603D01*
X171277812Y-72453755D01*
X171399861Y-72159828D01*
X171400139Y-71841568D01*
X171278603Y-71547428D01*
X171053755Y-71322188D01*
X170759828Y-71200139D01*
X170441568Y-71199861D01*
X170147428Y-71321397D01*
X169922188Y-71546245D01*
X169800139Y-71840172D01*
X169800011Y-71986816D01*
X168281828Y-73505000D01*
X166735816Y-73505000D01*
X166692903Y-73401143D01*
X166355633Y-73063283D01*
X165914742Y-72880209D01*
X165437353Y-72879793D01*
X164996143Y-73062097D01*
X164658283Y-73399367D01*
X164475209Y-73840258D01*
X164474793Y-74317647D01*
X164657097Y-74758857D01*
X164971865Y-75074176D01*
X164793414Y-75193414D01*
X163786840Y-76199988D01*
X163641568Y-76199861D01*
X163347428Y-76321397D01*
X163122188Y-76546245D01*
X163000139Y-76840172D01*
X162999861Y-77158432D01*
X113553169Y-77158432D01*
X113425491Y-76849428D01*
X113102273Y-76525646D01*
X112679753Y-76350200D01*
X112222254Y-76349801D01*
X111799428Y-76524509D01*
X111475646Y-76847727D01*
X111300200Y-77270247D01*
X111299801Y-77727746D01*
X109815252Y-77727746D01*
X109824800Y-77704753D01*
X109825199Y-77247254D01*
X109793247Y-77169925D01*
X110203319Y-76759854D01*
X110221245Y-76777812D01*
X110515172Y-76899861D01*
X110833432Y-76900139D01*
X111127572Y-76778603D01*
X111352812Y-76553755D01*
X111474861Y-76259828D01*
X111475063Y-76027746D01*
X134649801Y-76027746D01*
X134824509Y-76450572D01*
X135147727Y-76774354D01*
X135570247Y-76949800D01*
X136027746Y-76950199D01*
X136450572Y-76775491D01*
X136774354Y-76452273D01*
X136949800Y-76029753D01*
X136950000Y-75800000D01*
X138749995Y-75800000D01*
X138799472Y-76048745D01*
X138940375Y-76259619D01*
X138940380Y-76259625D01*
X139151255Y-76400527D01*
X139400000Y-76450005D01*
X139648744Y-76400527D01*
X139859619Y-76259625D01*
X140000521Y-76048750D01*
X140049999Y-75800006D01*
X140000521Y-75551261D01*
X139859619Y-75340386D01*
X139859613Y-75340381D01*
X139648739Y-75199478D01*
X139399994Y-75150001D01*
X139151249Y-75199478D01*
X138940375Y-75340381D01*
X138799472Y-75551255D01*
X138749995Y-75800000D01*
X136950000Y-75800000D01*
X136950199Y-75572254D01*
X136775491Y-75149428D01*
X136452273Y-74825646D01*
X136029753Y-74650200D01*
X135572254Y-74649801D01*
X135149428Y-74824509D01*
X134825646Y-75147727D01*
X134650200Y-75570247D01*
X134649801Y-76027746D01*
X111475063Y-76027746D01*
X111475139Y-75941568D01*
X111353603Y-75647428D01*
X111128755Y-75422188D01*
X110834828Y-75300139D01*
X110516568Y-75299861D01*
X110222428Y-75421397D01*
X110118644Y-75525000D01*
X110050000Y-75525000D01*
X109829957Y-75568769D01*
X109643414Y-75693413D01*
X108980270Y-76356557D01*
X108904753Y-76325200D01*
X108447254Y-76324801D01*
X108024428Y-76499509D01*
X107700646Y-76822727D01*
X107525200Y-77245247D01*
X107524801Y-77702746D01*
X93000000Y-77702746D01*
X93000000Y-74317647D01*
X141354793Y-74317647D01*
X141537097Y-74758857D01*
X141874367Y-75096717D01*
X142315258Y-75279791D01*
X142792647Y-75280207D01*
X143233857Y-75097903D01*
X143571717Y-74760633D01*
X143754791Y-74319742D01*
X143755207Y-73842353D01*
X143711529Y-73736643D01*
X143973172Y-73475000D01*
X144046877Y-73475000D01*
X143895209Y-73840258D01*
X143894793Y-74317647D01*
X144077097Y-74758857D01*
X144414367Y-75096717D01*
X144855258Y-75279791D01*
X145332647Y-75280207D01*
X145438356Y-75236529D01*
X145863414Y-75661587D01*
X146010442Y-75759828D01*
X146049958Y-75786232D01*
X146270001Y-75830001D01*
X151339975Y-75830001D01*
X151560018Y-75786232D01*
X151746561Y-75661587D01*
X152406588Y-75001560D01*
X152531233Y-74815017D01*
X152538633Y-74777812D01*
X152559759Y-74671604D01*
X152677814Y-74553755D01*
X152799863Y-74259828D01*
X152800141Y-73941568D01*
X152678605Y-73647428D01*
X152506477Y-73475000D01*
X156836828Y-73475000D01*
X156956984Y-73595156D01*
X156855209Y-73840258D01*
X156854793Y-74317647D01*
X157037097Y-74758857D01*
X157374367Y-75096717D01*
X157815258Y-75279791D01*
X158292647Y-75280207D01*
X158733857Y-75097903D01*
X159071717Y-74760633D01*
X159254791Y-74319742D01*
X159254792Y-74317647D01*
X159394793Y-74317647D01*
X159577097Y-74758857D01*
X159914367Y-75096717D01*
X160355258Y-75279791D01*
X160832647Y-75280207D01*
X161273857Y-75097903D01*
X161611717Y-74760633D01*
X161794791Y-74319742D01*
X161794792Y-74317647D01*
X161934793Y-74317647D01*
X162117097Y-74758857D01*
X162454367Y-75096717D01*
X162895258Y-75279791D01*
X163372647Y-75280207D01*
X163813857Y-75097903D01*
X164151717Y-74760633D01*
X164334791Y-74319742D01*
X164335207Y-73842353D01*
X164152903Y-73401143D01*
X163815633Y-73063283D01*
X163374742Y-72880209D01*
X162897353Y-72879793D01*
X162456143Y-73062097D01*
X162118283Y-73399367D01*
X161935209Y-73840258D01*
X161934793Y-74317647D01*
X161794792Y-74317647D01*
X161795207Y-73842353D01*
X161612903Y-73401143D01*
X161275633Y-73063283D01*
X160834742Y-72880209D01*
X160357353Y-72879793D01*
X159916143Y-73062097D01*
X159578283Y-73399367D01*
X159395209Y-73840258D01*
X159394793Y-74317647D01*
X159254792Y-74317647D01*
X159255207Y-73842353D01*
X159072903Y-73401143D01*
X158735633Y-73063283D01*
X158294742Y-72880209D01*
X157868009Y-72879837D01*
X157481586Y-72493414D01*
X157295043Y-72368769D01*
X157292856Y-72368334D01*
X157075000Y-72325000D01*
X152646854Y-72325000D01*
X152653816Y-72290000D01*
X152653816Y-71039999D01*
X158011827Y-71039999D01*
X158168303Y-71196475D01*
X158125209Y-71300258D01*
X158124793Y-71777647D01*
X158307097Y-72218857D01*
X158644367Y-72556717D01*
X159085258Y-72739791D01*
X159562647Y-72740207D01*
X160003857Y-72557903D01*
X160341717Y-72220633D01*
X160524791Y-71779742D01*
X160525207Y-71302353D01*
X160481529Y-71196644D01*
X160481586Y-71196587D01*
X160481588Y-71196584D01*
X160638173Y-71039999D01*
X160773278Y-71039999D01*
X160665209Y-71300258D01*
X160664793Y-71777647D01*
X160847097Y-72218857D01*
X161184367Y-72556717D01*
X161625258Y-72739791D01*
X162102647Y-72740207D01*
X162543857Y-72557903D01*
X162881717Y-72220633D01*
X163064791Y-71779742D01*
X163065207Y-71302353D01*
X162956805Y-71039999D01*
X163091827Y-71039999D01*
X163248303Y-71196475D01*
X163205209Y-71300258D01*
X163204793Y-71777647D01*
X163387097Y-72218857D01*
X163724367Y-72556717D01*
X164165258Y-72739791D01*
X164642647Y-72740207D01*
X165083857Y-72557903D01*
X165421717Y-72220633D01*
X165604791Y-71779742D01*
X165605207Y-71302353D01*
X165422903Y-70861143D01*
X165351885Y-70790000D01*
X165736184Y-70790000D01*
X165736184Y-72290000D01*
X165771109Y-72465581D01*
X165870568Y-72614432D01*
X166019419Y-72713891D01*
X166195000Y-72748816D01*
X167695000Y-72748816D01*
X167870581Y-72713891D01*
X168019432Y-72614432D01*
X168118891Y-72465581D01*
X168153816Y-72290000D01*
X168153816Y-71084217D01*
X182299489Y-71084217D01*
X182747653Y-72168858D01*
X183576777Y-72999430D01*
X184660634Y-73449487D01*
X185834217Y-73450511D01*
X186918858Y-73002347D01*
X187749430Y-72173223D01*
X188199487Y-71089366D01*
X188200511Y-69915783D01*
X187752347Y-68831142D01*
X186923223Y-68000570D01*
X186740758Y-67924804D01*
X186852572Y-67878603D01*
X186956356Y-67775000D01*
X187461828Y-67775000D01*
X187599988Y-67913161D01*
X187599861Y-68058432D01*
X187721397Y-68352572D01*
X187946245Y-68577812D01*
X188240172Y-68699861D01*
X188558432Y-68700139D01*
X188852572Y-68578603D01*
X189077812Y-68353755D01*
X189199861Y-68059828D01*
X189200139Y-67741568D01*
X189078603Y-67447428D01*
X188853755Y-67222188D01*
X188559828Y-67100139D01*
X188413184Y-67100011D01*
X188106586Y-66793414D01*
X187920043Y-66668769D01*
X187700000Y-66625000D01*
X186956388Y-66625000D01*
X186853755Y-66522188D01*
X186559828Y-66400139D01*
X186241568Y-66399861D01*
X185947428Y-66521397D01*
X185722188Y-66746245D01*
X185600139Y-67040172D01*
X185599861Y-67358432D01*
X185679169Y-67550373D01*
X184665783Y-67549489D01*
X183581142Y-67997653D01*
X182750570Y-68826777D01*
X182300513Y-69910634D01*
X182299489Y-71084217D01*
X168153816Y-71084217D01*
X168153816Y-70790000D01*
X168118891Y-70614419D01*
X168019432Y-70465568D01*
X167870581Y-70366109D01*
X167695000Y-70331184D01*
X166195000Y-70331184D01*
X166019419Y-70366109D01*
X165870568Y-70465568D01*
X165771109Y-70614419D01*
X165736184Y-70790000D01*
X165351885Y-70790000D01*
X165085633Y-70523283D01*
X164644742Y-70340209D01*
X164167353Y-70339793D01*
X164061643Y-70383471D01*
X163736585Y-70058413D01*
X163550042Y-69933768D01*
X163329999Y-69889999D01*
X160400001Y-69889999D01*
X160179958Y-69933768D01*
X159993414Y-70058413D01*
X159668525Y-70383303D01*
X159564742Y-70340209D01*
X159087353Y-70339793D01*
X158981643Y-70383471D01*
X158656585Y-70058413D01*
X158470042Y-69933768D01*
X158249999Y-69889999D01*
X149980001Y-69889999D01*
X149759958Y-69933768D01*
X149573414Y-70058413D01*
X149248525Y-70383303D01*
X149144742Y-70340209D01*
X148667353Y-70339793D01*
X148561643Y-70383471D01*
X148236585Y-70058413D01*
X148050042Y-69933768D01*
X147829999Y-69889999D01*
X144900001Y-69889999D01*
X144679958Y-69933768D01*
X144493414Y-70058413D01*
X144168525Y-70383303D01*
X144064742Y-70340209D01*
X143587353Y-70339793D01*
X143146143Y-70522097D01*
X142808283Y-70859367D01*
X142625209Y-71300258D01*
X142624793Y-71777647D01*
X142807097Y-72218857D01*
X143144367Y-72556717D01*
X143229684Y-72592144D01*
X142898525Y-72923303D01*
X142794742Y-72880209D01*
X142317353Y-72879793D01*
X141876143Y-73062097D01*
X141538283Y-73399367D01*
X141355209Y-73840258D01*
X141354793Y-74317647D01*
X93000000Y-74317647D01*
X93000000Y-71084217D01*
X104799489Y-71084217D01*
X105247653Y-72168858D01*
X106076777Y-72999430D01*
X107160634Y-73449487D01*
X108334217Y-73450511D01*
X109418858Y-73002347D01*
X110053978Y-72368334D01*
X135249853Y-72368334D01*
X135378985Y-72680857D01*
X135617885Y-72920174D01*
X135930183Y-73049852D01*
X136268334Y-73050147D01*
X136580857Y-72921015D01*
X136820174Y-72682115D01*
X136949852Y-72369817D01*
X136949940Y-72269299D01*
X137559620Y-71659619D01*
X137700522Y-71448744D01*
X137750000Y-71200000D01*
X137750000Y-70752167D01*
X137820174Y-70682115D01*
X137949852Y-70369817D01*
X137950147Y-70031666D01*
X137821015Y-69719143D01*
X137582115Y-69479826D01*
X137269817Y-69350148D01*
X136931666Y-69349853D01*
X136619143Y-69478985D01*
X136379826Y-69717885D01*
X136250148Y-70030183D01*
X136249853Y-70368334D01*
X136378985Y-70680857D01*
X136450000Y-70751996D01*
X136450000Y-70930761D01*
X136030822Y-71349940D01*
X135931666Y-71349853D01*
X135619143Y-71478985D01*
X135379826Y-71717885D01*
X135250148Y-72030183D01*
X135249853Y-72368334D01*
X110053978Y-72368334D01*
X110249430Y-72173223D01*
X110699487Y-71089366D01*
X110699802Y-70727746D01*
X124949801Y-70727746D01*
X125124509Y-71150572D01*
X125447727Y-71474354D01*
X125870247Y-71649800D01*
X126327746Y-71650199D01*
X126750572Y-71475491D01*
X127074354Y-71152273D01*
X127249800Y-70729753D01*
X127250199Y-70272254D01*
X127075491Y-69849428D01*
X126752273Y-69525646D01*
X126329753Y-69350200D01*
X125872254Y-69349801D01*
X125449428Y-69524509D01*
X125125646Y-69847727D01*
X124950200Y-70270247D01*
X124949801Y-70727746D01*
X110699802Y-70727746D01*
X110700511Y-69915783D01*
X110252347Y-68831142D01*
X109612323Y-68190000D01*
X173191184Y-68190000D01*
X173191184Y-69890000D01*
X173226109Y-70065581D01*
X173325568Y-70214432D01*
X173474419Y-70313891D01*
X173650000Y-70348816D01*
X175350000Y-70348816D01*
X175525581Y-70313891D01*
X175674432Y-70214432D01*
X175773891Y-70065581D01*
X175808816Y-69890000D01*
X175808816Y-68190000D01*
X175773891Y-68014419D01*
X175674432Y-67865568D01*
X175525581Y-67766109D01*
X175350000Y-67731184D01*
X174974000Y-67731184D01*
X174997488Y-67726512D01*
X175419239Y-67444708D01*
X175476886Y-67358432D01*
X177499861Y-67358432D01*
X177621397Y-67652572D01*
X177846245Y-67877812D01*
X178140172Y-67999861D01*
X178286817Y-67999989D01*
X178525000Y-68238173D01*
X178525000Y-69043612D01*
X178422188Y-69146245D01*
X178300139Y-69440172D01*
X178299861Y-69758432D01*
X178421397Y-70052572D01*
X178646245Y-70277812D01*
X178940172Y-70399861D01*
X179258432Y-70400139D01*
X179552572Y-70278603D01*
X179777812Y-70053755D01*
X179899861Y-69759828D01*
X179900139Y-69441568D01*
X179778603Y-69147428D01*
X179675000Y-69043644D01*
X179675000Y-68000000D01*
X179631231Y-67779957D01*
X179621978Y-67766109D01*
X179506587Y-67593414D01*
X179100012Y-67186840D01*
X179100139Y-67041568D01*
X178978603Y-66747428D01*
X178753755Y-66522188D01*
X178459828Y-66400139D01*
X178141568Y-66399861D01*
X177847428Y-66521397D01*
X177622188Y-66746245D01*
X177500139Y-67040172D01*
X177499861Y-67358432D01*
X175476886Y-67358432D01*
X175701043Y-67022957D01*
X175800000Y-66525469D01*
X175800000Y-66474531D01*
X175701043Y-65977043D01*
X175419239Y-65555292D01*
X174997488Y-65273488D01*
X174500000Y-65174531D01*
X174002512Y-65273488D01*
X173580761Y-65555292D01*
X173298957Y-65977043D01*
X173200000Y-66474531D01*
X173200000Y-66525469D01*
X173298957Y-67022957D01*
X173580761Y-67444708D01*
X174002512Y-67726512D01*
X174026000Y-67731184D01*
X173650000Y-67731184D01*
X173474419Y-67766109D01*
X173325568Y-67865568D01*
X173226109Y-68014419D01*
X173191184Y-68190000D01*
X109612323Y-68190000D01*
X109423223Y-68000570D01*
X108339366Y-67550513D01*
X107165783Y-67549489D01*
X106081142Y-67997653D01*
X105250570Y-68826777D01*
X104800513Y-69910634D01*
X104799489Y-71084217D01*
X93000000Y-71084217D01*
X93000000Y-68500000D01*
X97000000Y-68500000D01*
X97048298Y-68490393D01*
X97097545Y-68490393D01*
X98436937Y-68223971D01*
X98617177Y-68149313D01*
X99636335Y-67468334D01*
X170649853Y-67468334D01*
X170778985Y-67780857D01*
X171017885Y-68020174D01*
X171330183Y-68149852D01*
X171668334Y-68150147D01*
X171980857Y-68021015D01*
X172220174Y-67782115D01*
X172349852Y-67469817D01*
X172350147Y-67131666D01*
X172221015Y-66819143D01*
X172150000Y-66748004D01*
X172150000Y-65651992D01*
X172320174Y-65482115D01*
X172449852Y-65169817D01*
X172450147Y-64831666D01*
X172321015Y-64519143D01*
X172082115Y-64279826D01*
X171769817Y-64150148D01*
X171431666Y-64149853D01*
X171119143Y-64278985D01*
X170879826Y-64517885D01*
X170750148Y-64830183D01*
X170749853Y-65168334D01*
X170850000Y-65410708D01*
X170850000Y-66747833D01*
X170779826Y-66817885D01*
X170650148Y-67130183D01*
X170649853Y-67468334D01*
X99636335Y-67468334D01*
X99752659Y-67390609D01*
X99890609Y-67252659D01*
X100649311Y-66117180D01*
X100649313Y-66117178D01*
X100723971Y-65936937D01*
X100827186Y-65418040D01*
X127419827Y-65418040D01*
X127571747Y-65785714D01*
X127852806Y-66067264D01*
X128220215Y-66219826D01*
X128618040Y-66220173D01*
X128985714Y-66068253D01*
X129267264Y-65787194D01*
X129419826Y-65419785D01*
X129419827Y-65418040D01*
X132259827Y-65418040D01*
X132411747Y-65785714D01*
X132692806Y-66067264D01*
X133060215Y-66219826D01*
X133458040Y-66220173D01*
X133825714Y-66068253D01*
X134107264Y-65787194D01*
X134168160Y-65640540D01*
X139009606Y-65640540D01*
X139355224Y-66477000D01*
X139994633Y-67117527D01*
X140830489Y-67464604D01*
X141735540Y-67465394D01*
X142572000Y-67119776D01*
X143212527Y-66480367D01*
X143559604Y-65644511D01*
X143559607Y-65640540D01*
X150439606Y-65640540D01*
X150785224Y-66477000D01*
X151424633Y-67117527D01*
X152260489Y-67464604D01*
X153165540Y-67465394D01*
X154002000Y-67119776D01*
X154642527Y-66480367D01*
X154749835Y-66221940D01*
X154855224Y-66477000D01*
X155494633Y-67117527D01*
X156330489Y-67464604D01*
X157235540Y-67465394D01*
X158072000Y-67119776D01*
X158712527Y-66480367D01*
X159059604Y-65644511D01*
X159059607Y-65640540D01*
X165939606Y-65640540D01*
X166285224Y-66477000D01*
X166924633Y-67117527D01*
X167760489Y-67464604D01*
X168665540Y-67465394D01*
X169502000Y-67119776D01*
X170142527Y-66480367D01*
X170489604Y-65644511D01*
X170490394Y-64739460D01*
X170144776Y-63903000D01*
X169505367Y-63262473D01*
X168669511Y-62915396D01*
X167764460Y-62914606D01*
X166928000Y-63260224D01*
X166287473Y-63899633D01*
X165940396Y-64735489D01*
X165939606Y-65640540D01*
X159059607Y-65640540D01*
X159060394Y-64739460D01*
X158714776Y-63903000D01*
X158075367Y-63262473D01*
X157239511Y-62915396D01*
X156334460Y-62914606D01*
X155498000Y-63260224D01*
X154857473Y-63899633D01*
X154750165Y-64158060D01*
X154644776Y-63903000D01*
X154005367Y-63262473D01*
X153169511Y-62915396D01*
X152264460Y-62914606D01*
X151428000Y-63260224D01*
X150787473Y-63899633D01*
X150440396Y-64735489D01*
X150439606Y-65640540D01*
X143559607Y-65640540D01*
X143560394Y-64739460D01*
X143214776Y-63903000D01*
X142575367Y-63262473D01*
X141739511Y-62915396D01*
X140834460Y-62914606D01*
X139998000Y-63260224D01*
X139357473Y-63899633D01*
X139010396Y-64735489D01*
X139009606Y-65640540D01*
X134168160Y-65640540D01*
X134259826Y-65419785D01*
X134260173Y-65021960D01*
X134108253Y-64654286D01*
X133827194Y-64372736D01*
X133459785Y-64220174D01*
X133061960Y-64219827D01*
X132694286Y-64371747D01*
X132412736Y-64652806D01*
X132260174Y-65020215D01*
X132259827Y-65418040D01*
X129419827Y-65418040D01*
X129420173Y-65021960D01*
X129268253Y-64654286D01*
X128987194Y-64372736D01*
X128619785Y-64220174D01*
X128221960Y-64219827D01*
X127854286Y-64371747D01*
X127572736Y-64652806D01*
X127420174Y-65020215D01*
X127419827Y-65418040D01*
X100827186Y-65418040D01*
X100990393Y-64597546D01*
X100990393Y-64548298D01*
X101000000Y-64500000D01*
X101000000Y-61658432D01*
X124899861Y-61658432D01*
X125021397Y-61952572D01*
X125246245Y-62177812D01*
X125540172Y-62299861D01*
X125686817Y-62299989D01*
X127108424Y-63721597D01*
X127294967Y-63846241D01*
X127515010Y-63890010D01*
X134284990Y-63890010D01*
X134505033Y-63846241D01*
X134691576Y-63721596D01*
X135513161Y-62900012D01*
X135658432Y-62900139D01*
X135952572Y-62778603D01*
X136177812Y-62553755D01*
X136299861Y-62259828D01*
X136300139Y-61941568D01*
X136178603Y-61647428D01*
X135953755Y-61422188D01*
X135659828Y-61300139D01*
X135341568Y-61299861D01*
X135047428Y-61421397D01*
X134822188Y-61646245D01*
X134700139Y-61940172D01*
X134700011Y-62086816D01*
X134620000Y-62166827D01*
X134620000Y-61864531D01*
X134540074Y-61462713D01*
X134312462Y-61122069D01*
X133971818Y-60894457D01*
X133570000Y-60814531D01*
X133168182Y-60894457D01*
X132827538Y-61122069D01*
X132599926Y-61462713D01*
X132520000Y-61864531D01*
X132520000Y-62415469D01*
X132584555Y-62740010D01*
X129095445Y-62740010D01*
X129160000Y-62415469D01*
X129160000Y-61864531D01*
X129080074Y-61462713D01*
X128852462Y-61122069D01*
X128511818Y-60894457D01*
X128110000Y-60814531D01*
X127708182Y-60894457D01*
X127367538Y-61122069D01*
X127139926Y-61462713D01*
X127060000Y-61864531D01*
X127060000Y-62046827D01*
X126500012Y-61486840D01*
X126500139Y-61341568D01*
X126378603Y-61047428D01*
X126153755Y-60822188D01*
X125859828Y-60700139D01*
X125541568Y-60699861D01*
X125247428Y-60821397D01*
X125022188Y-61046245D01*
X124900139Y-61340172D01*
X124899861Y-61658432D01*
X101000000Y-61658432D01*
X101000000Y-60500000D01*
X192000000Y-60500000D01*
X192000000Y-64500000D01*
M02*
