G04 #@! TF.GenerationSoftware,KiCad,Pcbnew,(2017-05-10 revision 747583606)-makepkg*
G04 #@! TF.CreationDate,2017-05-29T23:11:27+02:00*
G04 #@! TF.ProjectId,Switch-N-Sense,5377697463682D4E2D53656E73652E6B,rev?*
G04 #@! TF.FileFunction,Soldermask,Top*
G04 #@! TF.FilePolarity,Negative*
%FSLAX46Y46*%
G04 Gerber Fmt 4.6, Leading zero omitted, Abs format (unit mm)*
G04 Created by KiCad (PCBNEW (2017-05-10 revision 747583606)-makepkg) date 05/29/17 23:11:27*
%MOMM*%
%LPD*%
G01*
G04 APERTURE LIST*
%ADD10C,0.100000*%
%ADD11R,0.450000X1.500000*%
%ADD12C,0.600000*%
%ADD13C,1.800000*%
%ADD14C,0.800000*%
%ADD15C,2.500000*%
%ADD16C,1.200000*%
%ADD17C,0.900000*%
%ADD18C,3.200000*%
%ADD19R,0.850000X1.300000*%
%ADD20R,4.350000X3.250000*%
%ADD21R,4.850000X1.700000*%
%ADD22C,5.000000*%
%ADD23R,4.000000X3.100000*%
G04 APERTURE END LIST*
D10*
D11*
X99525000Y-75750000D03*
X100175000Y-75750000D03*
X100825000Y-75750000D03*
X101475000Y-75750000D03*
X102125000Y-75750000D03*
X102775000Y-75750000D03*
X103425000Y-75750000D03*
X104075000Y-75750000D03*
X104075000Y-69850000D03*
X103425000Y-69850000D03*
X102775000Y-69850000D03*
X102125000Y-69850000D03*
X101475000Y-69850000D03*
X100825000Y-69850000D03*
X100175000Y-69850000D03*
X99525000Y-69850000D03*
D10*
G36*
X104364703Y-92700722D02*
X104379264Y-92702882D01*
X104393543Y-92706459D01*
X104407403Y-92711418D01*
X104420710Y-92717712D01*
X104433336Y-92725280D01*
X104445159Y-92734048D01*
X104456066Y-92743934D01*
X104465952Y-92754841D01*
X104474720Y-92766664D01*
X104482288Y-92779290D01*
X104488582Y-92792597D01*
X104493541Y-92806457D01*
X104497118Y-92820736D01*
X104499278Y-92835297D01*
X104500000Y-92850000D01*
X104500000Y-93150000D01*
X104499278Y-93164703D01*
X104497118Y-93179264D01*
X104493541Y-93193543D01*
X104488582Y-93207403D01*
X104482288Y-93220710D01*
X104474720Y-93233336D01*
X104465952Y-93245159D01*
X104456066Y-93256066D01*
X104445159Y-93265952D01*
X104433336Y-93274720D01*
X104420710Y-93282288D01*
X104407403Y-93288582D01*
X104393543Y-93293541D01*
X104379264Y-93297118D01*
X104364703Y-93299278D01*
X104350000Y-93300000D01*
X103350000Y-93300000D01*
X103335297Y-93299278D01*
X103320736Y-93297118D01*
X103306457Y-93293541D01*
X103292597Y-93288582D01*
X103279290Y-93282288D01*
X103266664Y-93274720D01*
X103254841Y-93265952D01*
X103243934Y-93256066D01*
X103234048Y-93245159D01*
X103225280Y-93233336D01*
X103217712Y-93220710D01*
X103211418Y-93207403D01*
X103206459Y-93193543D01*
X103202882Y-93179264D01*
X103200722Y-93164703D01*
X103200000Y-93150000D01*
X103200000Y-92850000D01*
X103200722Y-92835297D01*
X103202882Y-92820736D01*
X103206459Y-92806457D01*
X103211418Y-92792597D01*
X103217712Y-92779290D01*
X103225280Y-92766664D01*
X103234048Y-92754841D01*
X103243934Y-92743934D01*
X103254841Y-92734048D01*
X103266664Y-92725280D01*
X103279290Y-92717712D01*
X103292597Y-92711418D01*
X103306457Y-92706459D01*
X103320736Y-92702882D01*
X103335297Y-92700722D01*
X103350000Y-92700000D01*
X104350000Y-92700000D01*
X104364703Y-92700722D01*
X104364703Y-92700722D01*
G37*
D12*
X103850000Y-93000000D03*
D10*
G36*
X104364703Y-93700722D02*
X104379264Y-93702882D01*
X104393543Y-93706459D01*
X104407403Y-93711418D01*
X104420710Y-93717712D01*
X104433336Y-93725280D01*
X104445159Y-93734048D01*
X104456066Y-93743934D01*
X104465952Y-93754841D01*
X104474720Y-93766664D01*
X104482288Y-93779290D01*
X104488582Y-93792597D01*
X104493541Y-93806457D01*
X104497118Y-93820736D01*
X104499278Y-93835297D01*
X104500000Y-93850000D01*
X104500000Y-94150000D01*
X104499278Y-94164703D01*
X104497118Y-94179264D01*
X104493541Y-94193543D01*
X104488582Y-94207403D01*
X104482288Y-94220710D01*
X104474720Y-94233336D01*
X104465952Y-94245159D01*
X104456066Y-94256066D01*
X104445159Y-94265952D01*
X104433336Y-94274720D01*
X104420710Y-94282288D01*
X104407403Y-94288582D01*
X104393543Y-94293541D01*
X104379264Y-94297118D01*
X104364703Y-94299278D01*
X104350000Y-94300000D01*
X103350000Y-94300000D01*
X103335297Y-94299278D01*
X103320736Y-94297118D01*
X103306457Y-94293541D01*
X103292597Y-94288582D01*
X103279290Y-94282288D01*
X103266664Y-94274720D01*
X103254841Y-94265952D01*
X103243934Y-94256066D01*
X103234048Y-94245159D01*
X103225280Y-94233336D01*
X103217712Y-94220710D01*
X103211418Y-94207403D01*
X103206459Y-94193543D01*
X103202882Y-94179264D01*
X103200722Y-94164703D01*
X103200000Y-94150000D01*
X103200000Y-93850000D01*
X103200722Y-93835297D01*
X103202882Y-93820736D01*
X103206459Y-93806457D01*
X103211418Y-93792597D01*
X103217712Y-93779290D01*
X103225280Y-93766664D01*
X103234048Y-93754841D01*
X103243934Y-93743934D01*
X103254841Y-93734048D01*
X103266664Y-93725280D01*
X103279290Y-93717712D01*
X103292597Y-93711418D01*
X103306457Y-93706459D01*
X103320736Y-93702882D01*
X103335297Y-93700722D01*
X103350000Y-93700000D01*
X104350000Y-93700000D01*
X104364703Y-93700722D01*
X104364703Y-93700722D01*
G37*
D12*
X103850000Y-94000000D03*
D10*
G36*
X104364703Y-94700722D02*
X104379264Y-94702882D01*
X104393543Y-94706459D01*
X104407403Y-94711418D01*
X104420710Y-94717712D01*
X104433336Y-94725280D01*
X104445159Y-94734048D01*
X104456066Y-94743934D01*
X104465952Y-94754841D01*
X104474720Y-94766664D01*
X104482288Y-94779290D01*
X104488582Y-94792597D01*
X104493541Y-94806457D01*
X104497118Y-94820736D01*
X104499278Y-94835297D01*
X104500000Y-94850000D01*
X104500000Y-95150000D01*
X104499278Y-95164703D01*
X104497118Y-95179264D01*
X104493541Y-95193543D01*
X104488582Y-95207403D01*
X104482288Y-95220710D01*
X104474720Y-95233336D01*
X104465952Y-95245159D01*
X104456066Y-95256066D01*
X104445159Y-95265952D01*
X104433336Y-95274720D01*
X104420710Y-95282288D01*
X104407403Y-95288582D01*
X104393543Y-95293541D01*
X104379264Y-95297118D01*
X104364703Y-95299278D01*
X104350000Y-95300000D01*
X103350000Y-95300000D01*
X103335297Y-95299278D01*
X103320736Y-95297118D01*
X103306457Y-95293541D01*
X103292597Y-95288582D01*
X103279290Y-95282288D01*
X103266664Y-95274720D01*
X103254841Y-95265952D01*
X103243934Y-95256066D01*
X103234048Y-95245159D01*
X103225280Y-95233336D01*
X103217712Y-95220710D01*
X103211418Y-95207403D01*
X103206459Y-95193543D01*
X103202882Y-95179264D01*
X103200722Y-95164703D01*
X103200000Y-95150000D01*
X103200000Y-94850000D01*
X103200722Y-94835297D01*
X103202882Y-94820736D01*
X103206459Y-94806457D01*
X103211418Y-94792597D01*
X103217712Y-94779290D01*
X103225280Y-94766664D01*
X103234048Y-94754841D01*
X103243934Y-94743934D01*
X103254841Y-94734048D01*
X103266664Y-94725280D01*
X103279290Y-94717712D01*
X103292597Y-94711418D01*
X103306457Y-94706459D01*
X103320736Y-94702882D01*
X103335297Y-94700722D01*
X103350000Y-94700000D01*
X104350000Y-94700000D01*
X104364703Y-94700722D01*
X104364703Y-94700722D01*
G37*
D12*
X103850000Y-95000000D03*
D10*
G36*
X104364703Y-95700722D02*
X104379264Y-95702882D01*
X104393543Y-95706459D01*
X104407403Y-95711418D01*
X104420710Y-95717712D01*
X104433336Y-95725280D01*
X104445159Y-95734048D01*
X104456066Y-95743934D01*
X104465952Y-95754841D01*
X104474720Y-95766664D01*
X104482288Y-95779290D01*
X104488582Y-95792597D01*
X104493541Y-95806457D01*
X104497118Y-95820736D01*
X104499278Y-95835297D01*
X104500000Y-95850000D01*
X104500000Y-96150000D01*
X104499278Y-96164703D01*
X104497118Y-96179264D01*
X104493541Y-96193543D01*
X104488582Y-96207403D01*
X104482288Y-96220710D01*
X104474720Y-96233336D01*
X104465952Y-96245159D01*
X104456066Y-96256066D01*
X104445159Y-96265952D01*
X104433336Y-96274720D01*
X104420710Y-96282288D01*
X104407403Y-96288582D01*
X104393543Y-96293541D01*
X104379264Y-96297118D01*
X104364703Y-96299278D01*
X104350000Y-96300000D01*
X103350000Y-96300000D01*
X103335297Y-96299278D01*
X103320736Y-96297118D01*
X103306457Y-96293541D01*
X103292597Y-96288582D01*
X103279290Y-96282288D01*
X103266664Y-96274720D01*
X103254841Y-96265952D01*
X103243934Y-96256066D01*
X103234048Y-96245159D01*
X103225280Y-96233336D01*
X103217712Y-96220710D01*
X103211418Y-96207403D01*
X103206459Y-96193543D01*
X103202882Y-96179264D01*
X103200722Y-96164703D01*
X103200000Y-96150000D01*
X103200000Y-95850000D01*
X103200722Y-95835297D01*
X103202882Y-95820736D01*
X103206459Y-95806457D01*
X103211418Y-95792597D01*
X103217712Y-95779290D01*
X103225280Y-95766664D01*
X103234048Y-95754841D01*
X103243934Y-95743934D01*
X103254841Y-95734048D01*
X103266664Y-95725280D01*
X103279290Y-95717712D01*
X103292597Y-95711418D01*
X103306457Y-95706459D01*
X103320736Y-95702882D01*
X103335297Y-95700722D01*
X103350000Y-95700000D01*
X104350000Y-95700000D01*
X104364703Y-95700722D01*
X104364703Y-95700722D01*
G37*
D12*
X103850000Y-96000000D03*
D10*
G36*
X104364703Y-96700722D02*
X104379264Y-96702882D01*
X104393543Y-96706459D01*
X104407403Y-96711418D01*
X104420710Y-96717712D01*
X104433336Y-96725280D01*
X104445159Y-96734048D01*
X104456066Y-96743934D01*
X104465952Y-96754841D01*
X104474720Y-96766664D01*
X104482288Y-96779290D01*
X104488582Y-96792597D01*
X104493541Y-96806457D01*
X104497118Y-96820736D01*
X104499278Y-96835297D01*
X104500000Y-96850000D01*
X104500000Y-97150000D01*
X104499278Y-97164703D01*
X104497118Y-97179264D01*
X104493541Y-97193543D01*
X104488582Y-97207403D01*
X104482288Y-97220710D01*
X104474720Y-97233336D01*
X104465952Y-97245159D01*
X104456066Y-97256066D01*
X104445159Y-97265952D01*
X104433336Y-97274720D01*
X104420710Y-97282288D01*
X104407403Y-97288582D01*
X104393543Y-97293541D01*
X104379264Y-97297118D01*
X104364703Y-97299278D01*
X104350000Y-97300000D01*
X103350000Y-97300000D01*
X103335297Y-97299278D01*
X103320736Y-97297118D01*
X103306457Y-97293541D01*
X103292597Y-97288582D01*
X103279290Y-97282288D01*
X103266664Y-97274720D01*
X103254841Y-97265952D01*
X103243934Y-97256066D01*
X103234048Y-97245159D01*
X103225280Y-97233336D01*
X103217712Y-97220710D01*
X103211418Y-97207403D01*
X103206459Y-97193543D01*
X103202882Y-97179264D01*
X103200722Y-97164703D01*
X103200000Y-97150000D01*
X103200000Y-96850000D01*
X103200722Y-96835297D01*
X103202882Y-96820736D01*
X103206459Y-96806457D01*
X103211418Y-96792597D01*
X103217712Y-96779290D01*
X103225280Y-96766664D01*
X103234048Y-96754841D01*
X103243934Y-96743934D01*
X103254841Y-96734048D01*
X103266664Y-96725280D01*
X103279290Y-96717712D01*
X103292597Y-96711418D01*
X103306457Y-96706459D01*
X103320736Y-96702882D01*
X103335297Y-96700722D01*
X103350000Y-96700000D01*
X104350000Y-96700000D01*
X104364703Y-96700722D01*
X104364703Y-96700722D01*
G37*
D12*
X103850000Y-97000000D03*
D10*
G36*
X104364703Y-97700722D02*
X104379264Y-97702882D01*
X104393543Y-97706459D01*
X104407403Y-97711418D01*
X104420710Y-97717712D01*
X104433336Y-97725280D01*
X104445159Y-97734048D01*
X104456066Y-97743934D01*
X104465952Y-97754841D01*
X104474720Y-97766664D01*
X104482288Y-97779290D01*
X104488582Y-97792597D01*
X104493541Y-97806457D01*
X104497118Y-97820736D01*
X104499278Y-97835297D01*
X104500000Y-97850000D01*
X104500000Y-98150000D01*
X104499278Y-98164703D01*
X104497118Y-98179264D01*
X104493541Y-98193543D01*
X104488582Y-98207403D01*
X104482288Y-98220710D01*
X104474720Y-98233336D01*
X104465952Y-98245159D01*
X104456066Y-98256066D01*
X104445159Y-98265952D01*
X104433336Y-98274720D01*
X104420710Y-98282288D01*
X104407403Y-98288582D01*
X104393543Y-98293541D01*
X104379264Y-98297118D01*
X104364703Y-98299278D01*
X104350000Y-98300000D01*
X103350000Y-98300000D01*
X103335297Y-98299278D01*
X103320736Y-98297118D01*
X103306457Y-98293541D01*
X103292597Y-98288582D01*
X103279290Y-98282288D01*
X103266664Y-98274720D01*
X103254841Y-98265952D01*
X103243934Y-98256066D01*
X103234048Y-98245159D01*
X103225280Y-98233336D01*
X103217712Y-98220710D01*
X103211418Y-98207403D01*
X103206459Y-98193543D01*
X103202882Y-98179264D01*
X103200722Y-98164703D01*
X103200000Y-98150000D01*
X103200000Y-97850000D01*
X103200722Y-97835297D01*
X103202882Y-97820736D01*
X103206459Y-97806457D01*
X103211418Y-97792597D01*
X103217712Y-97779290D01*
X103225280Y-97766664D01*
X103234048Y-97754841D01*
X103243934Y-97743934D01*
X103254841Y-97734048D01*
X103266664Y-97725280D01*
X103279290Y-97717712D01*
X103292597Y-97711418D01*
X103306457Y-97706459D01*
X103320736Y-97702882D01*
X103335297Y-97700722D01*
X103350000Y-97700000D01*
X104350000Y-97700000D01*
X104364703Y-97700722D01*
X104364703Y-97700722D01*
G37*
D12*
X103850000Y-98000000D03*
D10*
G36*
X104364703Y-98700722D02*
X104379264Y-98702882D01*
X104393543Y-98706459D01*
X104407403Y-98711418D01*
X104420710Y-98717712D01*
X104433336Y-98725280D01*
X104445159Y-98734048D01*
X104456066Y-98743934D01*
X104465952Y-98754841D01*
X104474720Y-98766664D01*
X104482288Y-98779290D01*
X104488582Y-98792597D01*
X104493541Y-98806457D01*
X104497118Y-98820736D01*
X104499278Y-98835297D01*
X104500000Y-98850000D01*
X104500000Y-99150000D01*
X104499278Y-99164703D01*
X104497118Y-99179264D01*
X104493541Y-99193543D01*
X104488582Y-99207403D01*
X104482288Y-99220710D01*
X104474720Y-99233336D01*
X104465952Y-99245159D01*
X104456066Y-99256066D01*
X104445159Y-99265952D01*
X104433336Y-99274720D01*
X104420710Y-99282288D01*
X104407403Y-99288582D01*
X104393543Y-99293541D01*
X104379264Y-99297118D01*
X104364703Y-99299278D01*
X104350000Y-99300000D01*
X103350000Y-99300000D01*
X103335297Y-99299278D01*
X103320736Y-99297118D01*
X103306457Y-99293541D01*
X103292597Y-99288582D01*
X103279290Y-99282288D01*
X103266664Y-99274720D01*
X103254841Y-99265952D01*
X103243934Y-99256066D01*
X103234048Y-99245159D01*
X103225280Y-99233336D01*
X103217712Y-99220710D01*
X103211418Y-99207403D01*
X103206459Y-99193543D01*
X103202882Y-99179264D01*
X103200722Y-99164703D01*
X103200000Y-99150000D01*
X103200000Y-98850000D01*
X103200722Y-98835297D01*
X103202882Y-98820736D01*
X103206459Y-98806457D01*
X103211418Y-98792597D01*
X103217712Y-98779290D01*
X103225280Y-98766664D01*
X103234048Y-98754841D01*
X103243934Y-98743934D01*
X103254841Y-98734048D01*
X103266664Y-98725280D01*
X103279290Y-98717712D01*
X103292597Y-98711418D01*
X103306457Y-98706459D01*
X103320736Y-98702882D01*
X103335297Y-98700722D01*
X103350000Y-98700000D01*
X104350000Y-98700000D01*
X104364703Y-98700722D01*
X104364703Y-98700722D01*
G37*
D12*
X103850000Y-99000000D03*
D10*
G36*
X104364703Y-99700722D02*
X104379264Y-99702882D01*
X104393543Y-99706459D01*
X104407403Y-99711418D01*
X104420710Y-99717712D01*
X104433336Y-99725280D01*
X104445159Y-99734048D01*
X104456066Y-99743934D01*
X104465952Y-99754841D01*
X104474720Y-99766664D01*
X104482288Y-99779290D01*
X104488582Y-99792597D01*
X104493541Y-99806457D01*
X104497118Y-99820736D01*
X104499278Y-99835297D01*
X104500000Y-99850000D01*
X104500000Y-100150000D01*
X104499278Y-100164703D01*
X104497118Y-100179264D01*
X104493541Y-100193543D01*
X104488582Y-100207403D01*
X104482288Y-100220710D01*
X104474720Y-100233336D01*
X104465952Y-100245159D01*
X104456066Y-100256066D01*
X104445159Y-100265952D01*
X104433336Y-100274720D01*
X104420710Y-100282288D01*
X104407403Y-100288582D01*
X104393543Y-100293541D01*
X104379264Y-100297118D01*
X104364703Y-100299278D01*
X104350000Y-100300000D01*
X103350000Y-100300000D01*
X103335297Y-100299278D01*
X103320736Y-100297118D01*
X103306457Y-100293541D01*
X103292597Y-100288582D01*
X103279290Y-100282288D01*
X103266664Y-100274720D01*
X103254841Y-100265952D01*
X103243934Y-100256066D01*
X103234048Y-100245159D01*
X103225280Y-100233336D01*
X103217712Y-100220710D01*
X103211418Y-100207403D01*
X103206459Y-100193543D01*
X103202882Y-100179264D01*
X103200722Y-100164703D01*
X103200000Y-100150000D01*
X103200000Y-99850000D01*
X103200722Y-99835297D01*
X103202882Y-99820736D01*
X103206459Y-99806457D01*
X103211418Y-99792597D01*
X103217712Y-99779290D01*
X103225280Y-99766664D01*
X103234048Y-99754841D01*
X103243934Y-99743934D01*
X103254841Y-99734048D01*
X103266664Y-99725280D01*
X103279290Y-99717712D01*
X103292597Y-99711418D01*
X103306457Y-99706459D01*
X103320736Y-99702882D01*
X103335297Y-99700722D01*
X103350000Y-99700000D01*
X104350000Y-99700000D01*
X104364703Y-99700722D01*
X104364703Y-99700722D01*
G37*
D12*
X103850000Y-100000000D03*
D10*
G36*
X104364703Y-100700722D02*
X104379264Y-100702882D01*
X104393543Y-100706459D01*
X104407403Y-100711418D01*
X104420710Y-100717712D01*
X104433336Y-100725280D01*
X104445159Y-100734048D01*
X104456066Y-100743934D01*
X104465952Y-100754841D01*
X104474720Y-100766664D01*
X104482288Y-100779290D01*
X104488582Y-100792597D01*
X104493541Y-100806457D01*
X104497118Y-100820736D01*
X104499278Y-100835297D01*
X104500000Y-100850000D01*
X104500000Y-101150000D01*
X104499278Y-101164703D01*
X104497118Y-101179264D01*
X104493541Y-101193543D01*
X104488582Y-101207403D01*
X104482288Y-101220710D01*
X104474720Y-101233336D01*
X104465952Y-101245159D01*
X104456066Y-101256066D01*
X104445159Y-101265952D01*
X104433336Y-101274720D01*
X104420710Y-101282288D01*
X104407403Y-101288582D01*
X104393543Y-101293541D01*
X104379264Y-101297118D01*
X104364703Y-101299278D01*
X104350000Y-101300000D01*
X103350000Y-101300000D01*
X103335297Y-101299278D01*
X103320736Y-101297118D01*
X103306457Y-101293541D01*
X103292597Y-101288582D01*
X103279290Y-101282288D01*
X103266664Y-101274720D01*
X103254841Y-101265952D01*
X103243934Y-101256066D01*
X103234048Y-101245159D01*
X103225280Y-101233336D01*
X103217712Y-101220710D01*
X103211418Y-101207403D01*
X103206459Y-101193543D01*
X103202882Y-101179264D01*
X103200722Y-101164703D01*
X103200000Y-101150000D01*
X103200000Y-100850000D01*
X103200722Y-100835297D01*
X103202882Y-100820736D01*
X103206459Y-100806457D01*
X103211418Y-100792597D01*
X103217712Y-100779290D01*
X103225280Y-100766664D01*
X103234048Y-100754841D01*
X103243934Y-100743934D01*
X103254841Y-100734048D01*
X103266664Y-100725280D01*
X103279290Y-100717712D01*
X103292597Y-100711418D01*
X103306457Y-100706459D01*
X103320736Y-100702882D01*
X103335297Y-100700722D01*
X103350000Y-100700000D01*
X104350000Y-100700000D01*
X104364703Y-100700722D01*
X104364703Y-100700722D01*
G37*
D12*
X103850000Y-101000000D03*
D10*
G36*
X104364703Y-101700722D02*
X104379264Y-101702882D01*
X104393543Y-101706459D01*
X104407403Y-101711418D01*
X104420710Y-101717712D01*
X104433336Y-101725280D01*
X104445159Y-101734048D01*
X104456066Y-101743934D01*
X104465952Y-101754841D01*
X104474720Y-101766664D01*
X104482288Y-101779290D01*
X104488582Y-101792597D01*
X104493541Y-101806457D01*
X104497118Y-101820736D01*
X104499278Y-101835297D01*
X104500000Y-101850000D01*
X104500000Y-102150000D01*
X104499278Y-102164703D01*
X104497118Y-102179264D01*
X104493541Y-102193543D01*
X104488582Y-102207403D01*
X104482288Y-102220710D01*
X104474720Y-102233336D01*
X104465952Y-102245159D01*
X104456066Y-102256066D01*
X104445159Y-102265952D01*
X104433336Y-102274720D01*
X104420710Y-102282288D01*
X104407403Y-102288582D01*
X104393543Y-102293541D01*
X104379264Y-102297118D01*
X104364703Y-102299278D01*
X104350000Y-102300000D01*
X103350000Y-102300000D01*
X103335297Y-102299278D01*
X103320736Y-102297118D01*
X103306457Y-102293541D01*
X103292597Y-102288582D01*
X103279290Y-102282288D01*
X103266664Y-102274720D01*
X103254841Y-102265952D01*
X103243934Y-102256066D01*
X103234048Y-102245159D01*
X103225280Y-102233336D01*
X103217712Y-102220710D01*
X103211418Y-102207403D01*
X103206459Y-102193543D01*
X103202882Y-102179264D01*
X103200722Y-102164703D01*
X103200000Y-102150000D01*
X103200000Y-101850000D01*
X103200722Y-101835297D01*
X103202882Y-101820736D01*
X103206459Y-101806457D01*
X103211418Y-101792597D01*
X103217712Y-101779290D01*
X103225280Y-101766664D01*
X103234048Y-101754841D01*
X103243934Y-101743934D01*
X103254841Y-101734048D01*
X103266664Y-101725280D01*
X103279290Y-101717712D01*
X103292597Y-101711418D01*
X103306457Y-101706459D01*
X103320736Y-101702882D01*
X103335297Y-101700722D01*
X103350000Y-101700000D01*
X104350000Y-101700000D01*
X104364703Y-101700722D01*
X104364703Y-101700722D01*
G37*
D12*
X103850000Y-102000000D03*
D10*
G36*
X104364703Y-102700722D02*
X104379264Y-102702882D01*
X104393543Y-102706459D01*
X104407403Y-102711418D01*
X104420710Y-102717712D01*
X104433336Y-102725280D01*
X104445159Y-102734048D01*
X104456066Y-102743934D01*
X104465952Y-102754841D01*
X104474720Y-102766664D01*
X104482288Y-102779290D01*
X104488582Y-102792597D01*
X104493541Y-102806457D01*
X104497118Y-102820736D01*
X104499278Y-102835297D01*
X104500000Y-102850000D01*
X104500000Y-103150000D01*
X104499278Y-103164703D01*
X104497118Y-103179264D01*
X104493541Y-103193543D01*
X104488582Y-103207403D01*
X104482288Y-103220710D01*
X104474720Y-103233336D01*
X104465952Y-103245159D01*
X104456066Y-103256066D01*
X104445159Y-103265952D01*
X104433336Y-103274720D01*
X104420710Y-103282288D01*
X104407403Y-103288582D01*
X104393543Y-103293541D01*
X104379264Y-103297118D01*
X104364703Y-103299278D01*
X104350000Y-103300000D01*
X103350000Y-103300000D01*
X103335297Y-103299278D01*
X103320736Y-103297118D01*
X103306457Y-103293541D01*
X103292597Y-103288582D01*
X103279290Y-103282288D01*
X103266664Y-103274720D01*
X103254841Y-103265952D01*
X103243934Y-103256066D01*
X103234048Y-103245159D01*
X103225280Y-103233336D01*
X103217712Y-103220710D01*
X103211418Y-103207403D01*
X103206459Y-103193543D01*
X103202882Y-103179264D01*
X103200722Y-103164703D01*
X103200000Y-103150000D01*
X103200000Y-102850000D01*
X103200722Y-102835297D01*
X103202882Y-102820736D01*
X103206459Y-102806457D01*
X103211418Y-102792597D01*
X103217712Y-102779290D01*
X103225280Y-102766664D01*
X103234048Y-102754841D01*
X103243934Y-102743934D01*
X103254841Y-102734048D01*
X103266664Y-102725280D01*
X103279290Y-102717712D01*
X103292597Y-102711418D01*
X103306457Y-102706459D01*
X103320736Y-102702882D01*
X103335297Y-102700722D01*
X103350000Y-102700000D01*
X104350000Y-102700000D01*
X104364703Y-102700722D01*
X104364703Y-102700722D01*
G37*
D12*
X103850000Y-103000000D03*
D10*
G36*
X104364703Y-103700722D02*
X104379264Y-103702882D01*
X104393543Y-103706459D01*
X104407403Y-103711418D01*
X104420710Y-103717712D01*
X104433336Y-103725280D01*
X104445159Y-103734048D01*
X104456066Y-103743934D01*
X104465952Y-103754841D01*
X104474720Y-103766664D01*
X104482288Y-103779290D01*
X104488582Y-103792597D01*
X104493541Y-103806457D01*
X104497118Y-103820736D01*
X104499278Y-103835297D01*
X104500000Y-103850000D01*
X104500000Y-104150000D01*
X104499278Y-104164703D01*
X104497118Y-104179264D01*
X104493541Y-104193543D01*
X104488582Y-104207403D01*
X104482288Y-104220710D01*
X104474720Y-104233336D01*
X104465952Y-104245159D01*
X104456066Y-104256066D01*
X104445159Y-104265952D01*
X104433336Y-104274720D01*
X104420710Y-104282288D01*
X104407403Y-104288582D01*
X104393543Y-104293541D01*
X104379264Y-104297118D01*
X104364703Y-104299278D01*
X104350000Y-104300000D01*
X103350000Y-104300000D01*
X103335297Y-104299278D01*
X103320736Y-104297118D01*
X103306457Y-104293541D01*
X103292597Y-104288582D01*
X103279290Y-104282288D01*
X103266664Y-104274720D01*
X103254841Y-104265952D01*
X103243934Y-104256066D01*
X103234048Y-104245159D01*
X103225280Y-104233336D01*
X103217712Y-104220710D01*
X103211418Y-104207403D01*
X103206459Y-104193543D01*
X103202882Y-104179264D01*
X103200722Y-104164703D01*
X103200000Y-104150000D01*
X103200000Y-103850000D01*
X103200722Y-103835297D01*
X103202882Y-103820736D01*
X103206459Y-103806457D01*
X103211418Y-103792597D01*
X103217712Y-103779290D01*
X103225280Y-103766664D01*
X103234048Y-103754841D01*
X103243934Y-103743934D01*
X103254841Y-103734048D01*
X103266664Y-103725280D01*
X103279290Y-103717712D01*
X103292597Y-103711418D01*
X103306457Y-103706459D01*
X103320736Y-103702882D01*
X103335297Y-103700722D01*
X103350000Y-103700000D01*
X104350000Y-103700000D01*
X104364703Y-103700722D01*
X104364703Y-103700722D01*
G37*
D12*
X103850000Y-104000000D03*
D10*
G36*
X101594108Y-89702167D02*
X101637791Y-89708647D01*
X101680628Y-89719377D01*
X101722208Y-89734254D01*
X101762129Y-89753135D01*
X101800007Y-89775839D01*
X101835477Y-89802145D01*
X101868198Y-89831802D01*
X101897855Y-89864523D01*
X101924161Y-89899993D01*
X101946865Y-89937871D01*
X101965746Y-89977792D01*
X101980623Y-90019372D01*
X101991353Y-90062209D01*
X101997833Y-90105892D01*
X102000000Y-90150000D01*
X102000000Y-91250000D01*
X101997833Y-91294108D01*
X101991353Y-91337791D01*
X101980623Y-91380628D01*
X101965746Y-91422208D01*
X101946865Y-91462129D01*
X101924161Y-91500007D01*
X101897855Y-91535477D01*
X101868198Y-91568198D01*
X101835477Y-91597855D01*
X101800007Y-91624161D01*
X101762129Y-91646865D01*
X101722208Y-91665746D01*
X101680628Y-91680623D01*
X101637791Y-91691353D01*
X101594108Y-91697833D01*
X101550000Y-91700000D01*
X100650000Y-91700000D01*
X100605892Y-91697833D01*
X100562209Y-91691353D01*
X100519372Y-91680623D01*
X100477792Y-91665746D01*
X100437871Y-91646865D01*
X100399993Y-91624161D01*
X100364523Y-91597855D01*
X100331802Y-91568198D01*
X100302145Y-91535477D01*
X100275839Y-91500007D01*
X100253135Y-91462129D01*
X100234254Y-91422208D01*
X100219377Y-91380628D01*
X100208647Y-91337791D01*
X100202167Y-91294108D01*
X100200000Y-91250000D01*
X100200000Y-90150000D01*
X100202167Y-90105892D01*
X100208647Y-90062209D01*
X100219377Y-90019372D01*
X100234254Y-89977792D01*
X100253135Y-89937871D01*
X100275839Y-89899993D01*
X100302145Y-89864523D01*
X100331802Y-89831802D01*
X100364523Y-89802145D01*
X100399993Y-89775839D01*
X100437871Y-89753135D01*
X100477792Y-89734254D01*
X100519372Y-89719377D01*
X100562209Y-89708647D01*
X100605892Y-89702167D01*
X100650000Y-89700000D01*
X101550000Y-89700000D01*
X101594108Y-89702167D01*
X101594108Y-89702167D01*
G37*
D13*
X101100000Y-90700000D03*
D10*
G36*
X101594108Y-105302167D02*
X101637791Y-105308647D01*
X101680628Y-105319377D01*
X101722208Y-105334254D01*
X101762129Y-105353135D01*
X101800007Y-105375839D01*
X101835477Y-105402145D01*
X101868198Y-105431802D01*
X101897855Y-105464523D01*
X101924161Y-105499993D01*
X101946865Y-105537871D01*
X101965746Y-105577792D01*
X101980623Y-105619372D01*
X101991353Y-105662209D01*
X101997833Y-105705892D01*
X102000000Y-105750000D01*
X102000000Y-106850000D01*
X101997833Y-106894108D01*
X101991353Y-106937791D01*
X101980623Y-106980628D01*
X101965746Y-107022208D01*
X101946865Y-107062129D01*
X101924161Y-107100007D01*
X101897855Y-107135477D01*
X101868198Y-107168198D01*
X101835477Y-107197855D01*
X101800007Y-107224161D01*
X101762129Y-107246865D01*
X101722208Y-107265746D01*
X101680628Y-107280623D01*
X101637791Y-107291353D01*
X101594108Y-107297833D01*
X101550000Y-107300000D01*
X100650000Y-107300000D01*
X100605892Y-107297833D01*
X100562209Y-107291353D01*
X100519372Y-107280623D01*
X100477792Y-107265746D01*
X100437871Y-107246865D01*
X100399993Y-107224161D01*
X100364523Y-107197855D01*
X100331802Y-107168198D01*
X100302145Y-107135477D01*
X100275839Y-107100007D01*
X100253135Y-107062129D01*
X100234254Y-107022208D01*
X100219377Y-106980628D01*
X100208647Y-106937791D01*
X100202167Y-106894108D01*
X100200000Y-106850000D01*
X100200000Y-105750000D01*
X100202167Y-105705892D01*
X100208647Y-105662209D01*
X100219377Y-105619372D01*
X100234254Y-105577792D01*
X100253135Y-105537871D01*
X100275839Y-105499993D01*
X100302145Y-105464523D01*
X100331802Y-105431802D01*
X100364523Y-105402145D01*
X100399993Y-105375839D01*
X100437871Y-105353135D01*
X100477792Y-105334254D01*
X100519372Y-105319377D01*
X100562209Y-105308647D01*
X100605892Y-105302167D01*
X100650000Y-105300000D01*
X101550000Y-105300000D01*
X101594108Y-105302167D01*
X101594108Y-105302167D01*
G37*
D13*
X101100000Y-106300000D03*
D10*
G36*
X154055683Y-61550770D02*
X154071214Y-61553074D01*
X154086446Y-61556890D01*
X154101229Y-61562179D01*
X154115423Y-61568893D01*
X154128891Y-61576965D01*
X154141503Y-61586318D01*
X154153137Y-61596863D01*
X154163682Y-61608497D01*
X154173035Y-61621109D01*
X154181107Y-61634577D01*
X154187821Y-61648771D01*
X154193110Y-61663554D01*
X154196926Y-61678786D01*
X154199230Y-61694317D01*
X154200000Y-61710000D01*
X154200000Y-62290000D01*
X154199230Y-62305683D01*
X154196926Y-62321214D01*
X154193110Y-62336446D01*
X154187821Y-62351229D01*
X154181107Y-62365423D01*
X154173035Y-62378891D01*
X154163682Y-62391503D01*
X154153137Y-62403137D01*
X154141503Y-62413682D01*
X154128891Y-62423035D01*
X154115423Y-62431107D01*
X154101229Y-62437821D01*
X154086446Y-62443110D01*
X154071214Y-62446926D01*
X154055683Y-62449230D01*
X154040000Y-62450000D01*
X153560000Y-62450000D01*
X153544317Y-62449230D01*
X153528786Y-62446926D01*
X153513554Y-62443110D01*
X153498771Y-62437821D01*
X153484577Y-62431107D01*
X153471109Y-62423035D01*
X153458497Y-62413682D01*
X153446863Y-62403137D01*
X153436318Y-62391503D01*
X153426965Y-62378891D01*
X153418893Y-62365423D01*
X153412179Y-62351229D01*
X153406890Y-62336446D01*
X153403074Y-62321214D01*
X153400770Y-62305683D01*
X153400000Y-62290000D01*
X153400000Y-61710000D01*
X153400770Y-61694317D01*
X153403074Y-61678786D01*
X153406890Y-61663554D01*
X153412179Y-61648771D01*
X153418893Y-61634577D01*
X153426965Y-61621109D01*
X153436318Y-61608497D01*
X153446863Y-61596863D01*
X153458497Y-61586318D01*
X153471109Y-61576965D01*
X153484577Y-61568893D01*
X153498771Y-61562179D01*
X153513554Y-61556890D01*
X153528786Y-61553074D01*
X153544317Y-61550770D01*
X153560000Y-61550000D01*
X154040000Y-61550000D01*
X154055683Y-61550770D01*
X154055683Y-61550770D01*
G37*
D14*
X153800000Y-62000000D03*
D10*
G36*
X152455683Y-61550770D02*
X152471214Y-61553074D01*
X152486446Y-61556890D01*
X152501229Y-61562179D01*
X152515423Y-61568893D01*
X152528891Y-61576965D01*
X152541503Y-61586318D01*
X152553137Y-61596863D01*
X152563682Y-61608497D01*
X152573035Y-61621109D01*
X152581107Y-61634577D01*
X152587821Y-61648771D01*
X152593110Y-61663554D01*
X152596926Y-61678786D01*
X152599230Y-61694317D01*
X152600000Y-61710000D01*
X152600000Y-62290000D01*
X152599230Y-62305683D01*
X152596926Y-62321214D01*
X152593110Y-62336446D01*
X152587821Y-62351229D01*
X152581107Y-62365423D01*
X152573035Y-62378891D01*
X152563682Y-62391503D01*
X152553137Y-62403137D01*
X152541503Y-62413682D01*
X152528891Y-62423035D01*
X152515423Y-62431107D01*
X152501229Y-62437821D01*
X152486446Y-62443110D01*
X152471214Y-62446926D01*
X152455683Y-62449230D01*
X152440000Y-62450000D01*
X151960000Y-62450000D01*
X151944317Y-62449230D01*
X151928786Y-62446926D01*
X151913554Y-62443110D01*
X151898771Y-62437821D01*
X151884577Y-62431107D01*
X151871109Y-62423035D01*
X151858497Y-62413682D01*
X151846863Y-62403137D01*
X151836318Y-62391503D01*
X151826965Y-62378891D01*
X151818893Y-62365423D01*
X151812179Y-62351229D01*
X151806890Y-62336446D01*
X151803074Y-62321214D01*
X151800770Y-62305683D01*
X151800000Y-62290000D01*
X151800000Y-61710000D01*
X151800770Y-61694317D01*
X151803074Y-61678786D01*
X151806890Y-61663554D01*
X151812179Y-61648771D01*
X151818893Y-61634577D01*
X151826965Y-61621109D01*
X151836318Y-61608497D01*
X151846863Y-61596863D01*
X151858497Y-61586318D01*
X151871109Y-61576965D01*
X151884577Y-61568893D01*
X151898771Y-61562179D01*
X151913554Y-61556890D01*
X151928786Y-61553074D01*
X151944317Y-61550770D01*
X151960000Y-61550000D01*
X152440000Y-61550000D01*
X152455683Y-61550770D01*
X152455683Y-61550770D01*
G37*
D14*
X152200000Y-62000000D03*
D10*
G36*
X98655683Y-79250770D02*
X98671214Y-79253074D01*
X98686446Y-79256890D01*
X98701229Y-79262179D01*
X98715423Y-79268893D01*
X98728891Y-79276965D01*
X98741503Y-79286318D01*
X98753137Y-79296863D01*
X98763682Y-79308497D01*
X98773035Y-79321109D01*
X98781107Y-79334577D01*
X98787821Y-79348771D01*
X98793110Y-79363554D01*
X98796926Y-79378786D01*
X98799230Y-79394317D01*
X98800000Y-79410000D01*
X98800000Y-79990000D01*
X98799230Y-80005683D01*
X98796926Y-80021214D01*
X98793110Y-80036446D01*
X98787821Y-80051229D01*
X98781107Y-80065423D01*
X98773035Y-80078891D01*
X98763682Y-80091503D01*
X98753137Y-80103137D01*
X98741503Y-80113682D01*
X98728891Y-80123035D01*
X98715423Y-80131107D01*
X98701229Y-80137821D01*
X98686446Y-80143110D01*
X98671214Y-80146926D01*
X98655683Y-80149230D01*
X98640000Y-80150000D01*
X98160000Y-80150000D01*
X98144317Y-80149230D01*
X98128786Y-80146926D01*
X98113554Y-80143110D01*
X98098771Y-80137821D01*
X98084577Y-80131107D01*
X98071109Y-80123035D01*
X98058497Y-80113682D01*
X98046863Y-80103137D01*
X98036318Y-80091503D01*
X98026965Y-80078891D01*
X98018893Y-80065423D01*
X98012179Y-80051229D01*
X98006890Y-80036446D01*
X98003074Y-80021214D01*
X98000770Y-80005683D01*
X98000000Y-79990000D01*
X98000000Y-79410000D01*
X98000770Y-79394317D01*
X98003074Y-79378786D01*
X98006890Y-79363554D01*
X98012179Y-79348771D01*
X98018893Y-79334577D01*
X98026965Y-79321109D01*
X98036318Y-79308497D01*
X98046863Y-79296863D01*
X98058497Y-79286318D01*
X98071109Y-79276965D01*
X98084577Y-79268893D01*
X98098771Y-79262179D01*
X98113554Y-79256890D01*
X98128786Y-79253074D01*
X98144317Y-79250770D01*
X98160000Y-79250000D01*
X98640000Y-79250000D01*
X98655683Y-79250770D01*
X98655683Y-79250770D01*
G37*
D14*
X98400000Y-79700000D03*
D10*
G36*
X100255683Y-79250770D02*
X100271214Y-79253074D01*
X100286446Y-79256890D01*
X100301229Y-79262179D01*
X100315423Y-79268893D01*
X100328891Y-79276965D01*
X100341503Y-79286318D01*
X100353137Y-79296863D01*
X100363682Y-79308497D01*
X100373035Y-79321109D01*
X100381107Y-79334577D01*
X100387821Y-79348771D01*
X100393110Y-79363554D01*
X100396926Y-79378786D01*
X100399230Y-79394317D01*
X100400000Y-79410000D01*
X100400000Y-79990000D01*
X100399230Y-80005683D01*
X100396926Y-80021214D01*
X100393110Y-80036446D01*
X100387821Y-80051229D01*
X100381107Y-80065423D01*
X100373035Y-80078891D01*
X100363682Y-80091503D01*
X100353137Y-80103137D01*
X100341503Y-80113682D01*
X100328891Y-80123035D01*
X100315423Y-80131107D01*
X100301229Y-80137821D01*
X100286446Y-80143110D01*
X100271214Y-80146926D01*
X100255683Y-80149230D01*
X100240000Y-80150000D01*
X99760000Y-80150000D01*
X99744317Y-80149230D01*
X99728786Y-80146926D01*
X99713554Y-80143110D01*
X99698771Y-80137821D01*
X99684577Y-80131107D01*
X99671109Y-80123035D01*
X99658497Y-80113682D01*
X99646863Y-80103137D01*
X99636318Y-80091503D01*
X99626965Y-80078891D01*
X99618893Y-80065423D01*
X99612179Y-80051229D01*
X99606890Y-80036446D01*
X99603074Y-80021214D01*
X99600770Y-80005683D01*
X99600000Y-79990000D01*
X99600000Y-79410000D01*
X99600770Y-79394317D01*
X99603074Y-79378786D01*
X99606890Y-79363554D01*
X99612179Y-79348771D01*
X99618893Y-79334577D01*
X99626965Y-79321109D01*
X99636318Y-79308497D01*
X99646863Y-79296863D01*
X99658497Y-79286318D01*
X99671109Y-79276965D01*
X99684577Y-79268893D01*
X99698771Y-79262179D01*
X99713554Y-79256890D01*
X99728786Y-79253074D01*
X99744317Y-79250770D01*
X99760000Y-79250000D01*
X100240000Y-79250000D01*
X100255683Y-79250770D01*
X100255683Y-79250770D01*
G37*
D14*
X100000000Y-79700000D03*
D10*
G36*
X154305683Y-71300770D02*
X154321214Y-71303074D01*
X154336446Y-71306890D01*
X154351229Y-71312179D01*
X154365423Y-71318893D01*
X154378891Y-71326965D01*
X154391503Y-71336318D01*
X154403137Y-71346863D01*
X154413682Y-71358497D01*
X154423035Y-71371109D01*
X154431107Y-71384577D01*
X154437821Y-71398771D01*
X154443110Y-71413554D01*
X154446926Y-71428786D01*
X154449230Y-71444317D01*
X154450000Y-71460000D01*
X154450000Y-71940000D01*
X154449230Y-71955683D01*
X154446926Y-71971214D01*
X154443110Y-71986446D01*
X154437821Y-72001229D01*
X154431107Y-72015423D01*
X154423035Y-72028891D01*
X154413682Y-72041503D01*
X154403137Y-72053137D01*
X154391503Y-72063682D01*
X154378891Y-72073035D01*
X154365423Y-72081107D01*
X154351229Y-72087821D01*
X154336446Y-72093110D01*
X154321214Y-72096926D01*
X154305683Y-72099230D01*
X154290000Y-72100000D01*
X153710000Y-72100000D01*
X153694317Y-72099230D01*
X153678786Y-72096926D01*
X153663554Y-72093110D01*
X153648771Y-72087821D01*
X153634577Y-72081107D01*
X153621109Y-72073035D01*
X153608497Y-72063682D01*
X153596863Y-72053137D01*
X153586318Y-72041503D01*
X153576965Y-72028891D01*
X153568893Y-72015423D01*
X153562179Y-72001229D01*
X153556890Y-71986446D01*
X153553074Y-71971214D01*
X153550770Y-71955683D01*
X153550000Y-71940000D01*
X153550000Y-71460000D01*
X153550770Y-71444317D01*
X153553074Y-71428786D01*
X153556890Y-71413554D01*
X153562179Y-71398771D01*
X153568893Y-71384577D01*
X153576965Y-71371109D01*
X153586318Y-71358497D01*
X153596863Y-71346863D01*
X153608497Y-71336318D01*
X153621109Y-71326965D01*
X153634577Y-71318893D01*
X153648771Y-71312179D01*
X153663554Y-71306890D01*
X153678786Y-71303074D01*
X153694317Y-71300770D01*
X153710000Y-71300000D01*
X154290000Y-71300000D01*
X154305683Y-71300770D01*
X154305683Y-71300770D01*
G37*
D14*
X154000000Y-71700000D03*
D10*
G36*
X154305683Y-72900770D02*
X154321214Y-72903074D01*
X154336446Y-72906890D01*
X154351229Y-72912179D01*
X154365423Y-72918893D01*
X154378891Y-72926965D01*
X154391503Y-72936318D01*
X154403137Y-72946863D01*
X154413682Y-72958497D01*
X154423035Y-72971109D01*
X154431107Y-72984577D01*
X154437821Y-72998771D01*
X154443110Y-73013554D01*
X154446926Y-73028786D01*
X154449230Y-73044317D01*
X154450000Y-73060000D01*
X154450000Y-73540000D01*
X154449230Y-73555683D01*
X154446926Y-73571214D01*
X154443110Y-73586446D01*
X154437821Y-73601229D01*
X154431107Y-73615423D01*
X154423035Y-73628891D01*
X154413682Y-73641503D01*
X154403137Y-73653137D01*
X154391503Y-73663682D01*
X154378891Y-73673035D01*
X154365423Y-73681107D01*
X154351229Y-73687821D01*
X154336446Y-73693110D01*
X154321214Y-73696926D01*
X154305683Y-73699230D01*
X154290000Y-73700000D01*
X153710000Y-73700000D01*
X153694317Y-73699230D01*
X153678786Y-73696926D01*
X153663554Y-73693110D01*
X153648771Y-73687821D01*
X153634577Y-73681107D01*
X153621109Y-73673035D01*
X153608497Y-73663682D01*
X153596863Y-73653137D01*
X153586318Y-73641503D01*
X153576965Y-73628891D01*
X153568893Y-73615423D01*
X153562179Y-73601229D01*
X153556890Y-73586446D01*
X153553074Y-73571214D01*
X153550770Y-73555683D01*
X153550000Y-73540000D01*
X153550000Y-73060000D01*
X153550770Y-73044317D01*
X153553074Y-73028786D01*
X153556890Y-73013554D01*
X153562179Y-72998771D01*
X153568893Y-72984577D01*
X153576965Y-72971109D01*
X153586318Y-72958497D01*
X153596863Y-72946863D01*
X153608497Y-72936318D01*
X153621109Y-72926965D01*
X153634577Y-72918893D01*
X153648771Y-72912179D01*
X153663554Y-72906890D01*
X153678786Y-72903074D01*
X153694317Y-72900770D01*
X153710000Y-72900000D01*
X154290000Y-72900000D01*
X154305683Y-72900770D01*
X154305683Y-72900770D01*
G37*
D14*
X154000000Y-73300000D03*
D10*
G36*
X104055683Y-67150770D02*
X104071214Y-67153074D01*
X104086446Y-67156890D01*
X104101229Y-67162179D01*
X104115423Y-67168893D01*
X104128891Y-67176965D01*
X104141503Y-67186318D01*
X104153137Y-67196863D01*
X104163682Y-67208497D01*
X104173035Y-67221109D01*
X104181107Y-67234577D01*
X104187821Y-67248771D01*
X104193110Y-67263554D01*
X104196926Y-67278786D01*
X104199230Y-67294317D01*
X104200000Y-67310000D01*
X104200000Y-67890000D01*
X104199230Y-67905683D01*
X104196926Y-67921214D01*
X104193110Y-67936446D01*
X104187821Y-67951229D01*
X104181107Y-67965423D01*
X104173035Y-67978891D01*
X104163682Y-67991503D01*
X104153137Y-68003137D01*
X104141503Y-68013682D01*
X104128891Y-68023035D01*
X104115423Y-68031107D01*
X104101229Y-68037821D01*
X104086446Y-68043110D01*
X104071214Y-68046926D01*
X104055683Y-68049230D01*
X104040000Y-68050000D01*
X103560000Y-68050000D01*
X103544317Y-68049230D01*
X103528786Y-68046926D01*
X103513554Y-68043110D01*
X103498771Y-68037821D01*
X103484577Y-68031107D01*
X103471109Y-68023035D01*
X103458497Y-68013682D01*
X103446863Y-68003137D01*
X103436318Y-67991503D01*
X103426965Y-67978891D01*
X103418893Y-67965423D01*
X103412179Y-67951229D01*
X103406890Y-67936446D01*
X103403074Y-67921214D01*
X103400770Y-67905683D01*
X103400000Y-67890000D01*
X103400000Y-67310000D01*
X103400770Y-67294317D01*
X103403074Y-67278786D01*
X103406890Y-67263554D01*
X103412179Y-67248771D01*
X103418893Y-67234577D01*
X103426965Y-67221109D01*
X103436318Y-67208497D01*
X103446863Y-67196863D01*
X103458497Y-67186318D01*
X103471109Y-67176965D01*
X103484577Y-67168893D01*
X103498771Y-67162179D01*
X103513554Y-67156890D01*
X103528786Y-67153074D01*
X103544317Y-67150770D01*
X103560000Y-67150000D01*
X104040000Y-67150000D01*
X104055683Y-67150770D01*
X104055683Y-67150770D01*
G37*
D14*
X103800000Y-67600000D03*
D10*
G36*
X102455683Y-67150770D02*
X102471214Y-67153074D01*
X102486446Y-67156890D01*
X102501229Y-67162179D01*
X102515423Y-67168893D01*
X102528891Y-67176965D01*
X102541503Y-67186318D01*
X102553137Y-67196863D01*
X102563682Y-67208497D01*
X102573035Y-67221109D01*
X102581107Y-67234577D01*
X102587821Y-67248771D01*
X102593110Y-67263554D01*
X102596926Y-67278786D01*
X102599230Y-67294317D01*
X102600000Y-67310000D01*
X102600000Y-67890000D01*
X102599230Y-67905683D01*
X102596926Y-67921214D01*
X102593110Y-67936446D01*
X102587821Y-67951229D01*
X102581107Y-67965423D01*
X102573035Y-67978891D01*
X102563682Y-67991503D01*
X102553137Y-68003137D01*
X102541503Y-68013682D01*
X102528891Y-68023035D01*
X102515423Y-68031107D01*
X102501229Y-68037821D01*
X102486446Y-68043110D01*
X102471214Y-68046926D01*
X102455683Y-68049230D01*
X102440000Y-68050000D01*
X101960000Y-68050000D01*
X101944317Y-68049230D01*
X101928786Y-68046926D01*
X101913554Y-68043110D01*
X101898771Y-68037821D01*
X101884577Y-68031107D01*
X101871109Y-68023035D01*
X101858497Y-68013682D01*
X101846863Y-68003137D01*
X101836318Y-67991503D01*
X101826965Y-67978891D01*
X101818893Y-67965423D01*
X101812179Y-67951229D01*
X101806890Y-67936446D01*
X101803074Y-67921214D01*
X101800770Y-67905683D01*
X101800000Y-67890000D01*
X101800000Y-67310000D01*
X101800770Y-67294317D01*
X101803074Y-67278786D01*
X101806890Y-67263554D01*
X101812179Y-67248771D01*
X101818893Y-67234577D01*
X101826965Y-67221109D01*
X101836318Y-67208497D01*
X101846863Y-67196863D01*
X101858497Y-67186318D01*
X101871109Y-67176965D01*
X101884577Y-67168893D01*
X101898771Y-67162179D01*
X101913554Y-67156890D01*
X101928786Y-67153074D01*
X101944317Y-67150770D01*
X101960000Y-67150000D01*
X102440000Y-67150000D01*
X102455683Y-67150770D01*
X102455683Y-67150770D01*
G37*
D14*
X102200000Y-67600000D03*
D10*
G36*
X157555683Y-61550770D02*
X157571214Y-61553074D01*
X157586446Y-61556890D01*
X157601229Y-61562179D01*
X157615423Y-61568893D01*
X157628891Y-61576965D01*
X157641503Y-61586318D01*
X157653137Y-61596863D01*
X157663682Y-61608497D01*
X157673035Y-61621109D01*
X157681107Y-61634577D01*
X157687821Y-61648771D01*
X157693110Y-61663554D01*
X157696926Y-61678786D01*
X157699230Y-61694317D01*
X157700000Y-61710000D01*
X157700000Y-62290000D01*
X157699230Y-62305683D01*
X157696926Y-62321214D01*
X157693110Y-62336446D01*
X157687821Y-62351229D01*
X157681107Y-62365423D01*
X157673035Y-62378891D01*
X157663682Y-62391503D01*
X157653137Y-62403137D01*
X157641503Y-62413682D01*
X157628891Y-62423035D01*
X157615423Y-62431107D01*
X157601229Y-62437821D01*
X157586446Y-62443110D01*
X157571214Y-62446926D01*
X157555683Y-62449230D01*
X157540000Y-62450000D01*
X157060000Y-62450000D01*
X157044317Y-62449230D01*
X157028786Y-62446926D01*
X157013554Y-62443110D01*
X156998771Y-62437821D01*
X156984577Y-62431107D01*
X156971109Y-62423035D01*
X156958497Y-62413682D01*
X156946863Y-62403137D01*
X156936318Y-62391503D01*
X156926965Y-62378891D01*
X156918893Y-62365423D01*
X156912179Y-62351229D01*
X156906890Y-62336446D01*
X156903074Y-62321214D01*
X156900770Y-62305683D01*
X156900000Y-62290000D01*
X156900000Y-61710000D01*
X156900770Y-61694317D01*
X156903074Y-61678786D01*
X156906890Y-61663554D01*
X156912179Y-61648771D01*
X156918893Y-61634577D01*
X156926965Y-61621109D01*
X156936318Y-61608497D01*
X156946863Y-61596863D01*
X156958497Y-61586318D01*
X156971109Y-61576965D01*
X156984577Y-61568893D01*
X156998771Y-61562179D01*
X157013554Y-61556890D01*
X157028786Y-61553074D01*
X157044317Y-61550770D01*
X157060000Y-61550000D01*
X157540000Y-61550000D01*
X157555683Y-61550770D01*
X157555683Y-61550770D01*
G37*
D14*
X157300000Y-62000000D03*
D10*
G36*
X155955683Y-61550770D02*
X155971214Y-61553074D01*
X155986446Y-61556890D01*
X156001229Y-61562179D01*
X156015423Y-61568893D01*
X156028891Y-61576965D01*
X156041503Y-61586318D01*
X156053137Y-61596863D01*
X156063682Y-61608497D01*
X156073035Y-61621109D01*
X156081107Y-61634577D01*
X156087821Y-61648771D01*
X156093110Y-61663554D01*
X156096926Y-61678786D01*
X156099230Y-61694317D01*
X156100000Y-61710000D01*
X156100000Y-62290000D01*
X156099230Y-62305683D01*
X156096926Y-62321214D01*
X156093110Y-62336446D01*
X156087821Y-62351229D01*
X156081107Y-62365423D01*
X156073035Y-62378891D01*
X156063682Y-62391503D01*
X156053137Y-62403137D01*
X156041503Y-62413682D01*
X156028891Y-62423035D01*
X156015423Y-62431107D01*
X156001229Y-62437821D01*
X155986446Y-62443110D01*
X155971214Y-62446926D01*
X155955683Y-62449230D01*
X155940000Y-62450000D01*
X155460000Y-62450000D01*
X155444317Y-62449230D01*
X155428786Y-62446926D01*
X155413554Y-62443110D01*
X155398771Y-62437821D01*
X155384577Y-62431107D01*
X155371109Y-62423035D01*
X155358497Y-62413682D01*
X155346863Y-62403137D01*
X155336318Y-62391503D01*
X155326965Y-62378891D01*
X155318893Y-62365423D01*
X155312179Y-62351229D01*
X155306890Y-62336446D01*
X155303074Y-62321214D01*
X155300770Y-62305683D01*
X155300000Y-62290000D01*
X155300000Y-61710000D01*
X155300770Y-61694317D01*
X155303074Y-61678786D01*
X155306890Y-61663554D01*
X155312179Y-61648771D01*
X155318893Y-61634577D01*
X155326965Y-61621109D01*
X155336318Y-61608497D01*
X155346863Y-61596863D01*
X155358497Y-61586318D01*
X155371109Y-61576965D01*
X155384577Y-61568893D01*
X155398771Y-61562179D01*
X155413554Y-61556890D01*
X155428786Y-61553074D01*
X155444317Y-61550770D01*
X155460000Y-61550000D01*
X155940000Y-61550000D01*
X155955683Y-61550770D01*
X155955683Y-61550770D01*
G37*
D14*
X155700000Y-62000000D03*
D10*
G36*
X98655683Y-77550770D02*
X98671214Y-77553074D01*
X98686446Y-77556890D01*
X98701229Y-77562179D01*
X98715423Y-77568893D01*
X98728891Y-77576965D01*
X98741503Y-77586318D01*
X98753137Y-77596863D01*
X98763682Y-77608497D01*
X98773035Y-77621109D01*
X98781107Y-77634577D01*
X98787821Y-77648771D01*
X98793110Y-77663554D01*
X98796926Y-77678786D01*
X98799230Y-77694317D01*
X98800000Y-77710000D01*
X98800000Y-78290000D01*
X98799230Y-78305683D01*
X98796926Y-78321214D01*
X98793110Y-78336446D01*
X98787821Y-78351229D01*
X98781107Y-78365423D01*
X98773035Y-78378891D01*
X98763682Y-78391503D01*
X98753137Y-78403137D01*
X98741503Y-78413682D01*
X98728891Y-78423035D01*
X98715423Y-78431107D01*
X98701229Y-78437821D01*
X98686446Y-78443110D01*
X98671214Y-78446926D01*
X98655683Y-78449230D01*
X98640000Y-78450000D01*
X98160000Y-78450000D01*
X98144317Y-78449230D01*
X98128786Y-78446926D01*
X98113554Y-78443110D01*
X98098771Y-78437821D01*
X98084577Y-78431107D01*
X98071109Y-78423035D01*
X98058497Y-78413682D01*
X98046863Y-78403137D01*
X98036318Y-78391503D01*
X98026965Y-78378891D01*
X98018893Y-78365423D01*
X98012179Y-78351229D01*
X98006890Y-78336446D01*
X98003074Y-78321214D01*
X98000770Y-78305683D01*
X98000000Y-78290000D01*
X98000000Y-77710000D01*
X98000770Y-77694317D01*
X98003074Y-77678786D01*
X98006890Y-77663554D01*
X98012179Y-77648771D01*
X98018893Y-77634577D01*
X98026965Y-77621109D01*
X98036318Y-77608497D01*
X98046863Y-77596863D01*
X98058497Y-77586318D01*
X98071109Y-77576965D01*
X98084577Y-77568893D01*
X98098771Y-77562179D01*
X98113554Y-77556890D01*
X98128786Y-77553074D01*
X98144317Y-77550770D01*
X98160000Y-77550000D01*
X98640000Y-77550000D01*
X98655683Y-77550770D01*
X98655683Y-77550770D01*
G37*
D14*
X98400000Y-78000000D03*
D10*
G36*
X100255683Y-77550770D02*
X100271214Y-77553074D01*
X100286446Y-77556890D01*
X100301229Y-77562179D01*
X100315423Y-77568893D01*
X100328891Y-77576965D01*
X100341503Y-77586318D01*
X100353137Y-77596863D01*
X100363682Y-77608497D01*
X100373035Y-77621109D01*
X100381107Y-77634577D01*
X100387821Y-77648771D01*
X100393110Y-77663554D01*
X100396926Y-77678786D01*
X100399230Y-77694317D01*
X100400000Y-77710000D01*
X100400000Y-78290000D01*
X100399230Y-78305683D01*
X100396926Y-78321214D01*
X100393110Y-78336446D01*
X100387821Y-78351229D01*
X100381107Y-78365423D01*
X100373035Y-78378891D01*
X100363682Y-78391503D01*
X100353137Y-78403137D01*
X100341503Y-78413682D01*
X100328891Y-78423035D01*
X100315423Y-78431107D01*
X100301229Y-78437821D01*
X100286446Y-78443110D01*
X100271214Y-78446926D01*
X100255683Y-78449230D01*
X100240000Y-78450000D01*
X99760000Y-78450000D01*
X99744317Y-78449230D01*
X99728786Y-78446926D01*
X99713554Y-78443110D01*
X99698771Y-78437821D01*
X99684577Y-78431107D01*
X99671109Y-78423035D01*
X99658497Y-78413682D01*
X99646863Y-78403137D01*
X99636318Y-78391503D01*
X99626965Y-78378891D01*
X99618893Y-78365423D01*
X99612179Y-78351229D01*
X99606890Y-78336446D01*
X99603074Y-78321214D01*
X99600770Y-78305683D01*
X99600000Y-78290000D01*
X99600000Y-77710000D01*
X99600770Y-77694317D01*
X99603074Y-77678786D01*
X99606890Y-77663554D01*
X99612179Y-77648771D01*
X99618893Y-77634577D01*
X99626965Y-77621109D01*
X99636318Y-77608497D01*
X99646863Y-77596863D01*
X99658497Y-77586318D01*
X99671109Y-77576965D01*
X99684577Y-77568893D01*
X99698771Y-77562179D01*
X99713554Y-77556890D01*
X99728786Y-77553074D01*
X99744317Y-77550770D01*
X99760000Y-77550000D01*
X100240000Y-77550000D01*
X100255683Y-77550770D01*
X100255683Y-77550770D01*
G37*
D14*
X100000000Y-78000000D03*
D10*
G36*
X154305683Y-74800770D02*
X154321214Y-74803074D01*
X154336446Y-74806890D01*
X154351229Y-74812179D01*
X154365423Y-74818893D01*
X154378891Y-74826965D01*
X154391503Y-74836318D01*
X154403137Y-74846863D01*
X154413682Y-74858497D01*
X154423035Y-74871109D01*
X154431107Y-74884577D01*
X154437821Y-74898771D01*
X154443110Y-74913554D01*
X154446926Y-74928786D01*
X154449230Y-74944317D01*
X154450000Y-74960000D01*
X154450000Y-75440000D01*
X154449230Y-75455683D01*
X154446926Y-75471214D01*
X154443110Y-75486446D01*
X154437821Y-75501229D01*
X154431107Y-75515423D01*
X154423035Y-75528891D01*
X154413682Y-75541503D01*
X154403137Y-75553137D01*
X154391503Y-75563682D01*
X154378891Y-75573035D01*
X154365423Y-75581107D01*
X154351229Y-75587821D01*
X154336446Y-75593110D01*
X154321214Y-75596926D01*
X154305683Y-75599230D01*
X154290000Y-75600000D01*
X153710000Y-75600000D01*
X153694317Y-75599230D01*
X153678786Y-75596926D01*
X153663554Y-75593110D01*
X153648771Y-75587821D01*
X153634577Y-75581107D01*
X153621109Y-75573035D01*
X153608497Y-75563682D01*
X153596863Y-75553137D01*
X153586318Y-75541503D01*
X153576965Y-75528891D01*
X153568893Y-75515423D01*
X153562179Y-75501229D01*
X153556890Y-75486446D01*
X153553074Y-75471214D01*
X153550770Y-75455683D01*
X153550000Y-75440000D01*
X153550000Y-74960000D01*
X153550770Y-74944317D01*
X153553074Y-74928786D01*
X153556890Y-74913554D01*
X153562179Y-74898771D01*
X153568893Y-74884577D01*
X153576965Y-74871109D01*
X153586318Y-74858497D01*
X153596863Y-74846863D01*
X153608497Y-74836318D01*
X153621109Y-74826965D01*
X153634577Y-74818893D01*
X153648771Y-74812179D01*
X153663554Y-74806890D01*
X153678786Y-74803074D01*
X153694317Y-74800770D01*
X153710000Y-74800000D01*
X154290000Y-74800000D01*
X154305683Y-74800770D01*
X154305683Y-74800770D01*
G37*
D14*
X154000000Y-75200000D03*
D10*
G36*
X154305683Y-76400770D02*
X154321214Y-76403074D01*
X154336446Y-76406890D01*
X154351229Y-76412179D01*
X154365423Y-76418893D01*
X154378891Y-76426965D01*
X154391503Y-76436318D01*
X154403137Y-76446863D01*
X154413682Y-76458497D01*
X154423035Y-76471109D01*
X154431107Y-76484577D01*
X154437821Y-76498771D01*
X154443110Y-76513554D01*
X154446926Y-76528786D01*
X154449230Y-76544317D01*
X154450000Y-76560000D01*
X154450000Y-77040000D01*
X154449230Y-77055683D01*
X154446926Y-77071214D01*
X154443110Y-77086446D01*
X154437821Y-77101229D01*
X154431107Y-77115423D01*
X154423035Y-77128891D01*
X154413682Y-77141503D01*
X154403137Y-77153137D01*
X154391503Y-77163682D01*
X154378891Y-77173035D01*
X154365423Y-77181107D01*
X154351229Y-77187821D01*
X154336446Y-77193110D01*
X154321214Y-77196926D01*
X154305683Y-77199230D01*
X154290000Y-77200000D01*
X153710000Y-77200000D01*
X153694317Y-77199230D01*
X153678786Y-77196926D01*
X153663554Y-77193110D01*
X153648771Y-77187821D01*
X153634577Y-77181107D01*
X153621109Y-77173035D01*
X153608497Y-77163682D01*
X153596863Y-77153137D01*
X153586318Y-77141503D01*
X153576965Y-77128891D01*
X153568893Y-77115423D01*
X153562179Y-77101229D01*
X153556890Y-77086446D01*
X153553074Y-77071214D01*
X153550770Y-77055683D01*
X153550000Y-77040000D01*
X153550000Y-76560000D01*
X153550770Y-76544317D01*
X153553074Y-76528786D01*
X153556890Y-76513554D01*
X153562179Y-76498771D01*
X153568893Y-76484577D01*
X153576965Y-76471109D01*
X153586318Y-76458497D01*
X153596863Y-76446863D01*
X153608497Y-76436318D01*
X153621109Y-76426965D01*
X153634577Y-76418893D01*
X153648771Y-76412179D01*
X153663554Y-76406890D01*
X153678786Y-76403074D01*
X153694317Y-76400770D01*
X153710000Y-76400000D01*
X154290000Y-76400000D01*
X154305683Y-76400770D01*
X154305683Y-76400770D01*
G37*
D14*
X154000000Y-76800000D03*
D10*
G36*
X158199009Y-111352408D02*
X158247545Y-111359607D01*
X158295142Y-111371530D01*
X158341342Y-111388060D01*
X158385698Y-111409039D01*
X158427785Y-111434265D01*
X158467197Y-111463495D01*
X158503553Y-111496447D01*
X158536505Y-111532803D01*
X158565735Y-111572215D01*
X158590961Y-111614302D01*
X158611940Y-111658658D01*
X158628470Y-111704858D01*
X158640393Y-111752455D01*
X158647592Y-111800991D01*
X158650000Y-111850000D01*
X158650000Y-114150000D01*
X158647592Y-114199009D01*
X158640393Y-114247545D01*
X158628470Y-114295142D01*
X158611940Y-114341342D01*
X158590961Y-114385698D01*
X158565735Y-114427785D01*
X158536505Y-114467197D01*
X158503553Y-114503553D01*
X158467197Y-114536505D01*
X158427785Y-114565735D01*
X158385698Y-114590961D01*
X158341342Y-114611940D01*
X158295142Y-114628470D01*
X158247545Y-114640393D01*
X158199009Y-114647592D01*
X158150000Y-114650000D01*
X156650000Y-114650000D01*
X156600991Y-114647592D01*
X156552455Y-114640393D01*
X156504858Y-114628470D01*
X156458658Y-114611940D01*
X156414302Y-114590961D01*
X156372215Y-114565735D01*
X156332803Y-114536505D01*
X156296447Y-114503553D01*
X156263495Y-114467197D01*
X156234265Y-114427785D01*
X156209039Y-114385698D01*
X156188060Y-114341342D01*
X156171530Y-114295142D01*
X156159607Y-114247545D01*
X156152408Y-114199009D01*
X156150000Y-114150000D01*
X156150000Y-111850000D01*
X156152408Y-111800991D01*
X156159607Y-111752455D01*
X156171530Y-111704858D01*
X156188060Y-111658658D01*
X156209039Y-111614302D01*
X156234265Y-111572215D01*
X156263495Y-111532803D01*
X156296447Y-111496447D01*
X156332803Y-111463495D01*
X156372215Y-111434265D01*
X156414302Y-111409039D01*
X156458658Y-111388060D01*
X156504858Y-111371530D01*
X156552455Y-111359607D01*
X156600991Y-111352408D01*
X156650000Y-111350000D01*
X158150000Y-111350000D01*
X158199009Y-111352408D01*
X158199009Y-111352408D01*
G37*
D15*
X157400000Y-113000000D03*
D10*
G36*
X151399009Y-111352408D02*
X151447545Y-111359607D01*
X151495142Y-111371530D01*
X151541342Y-111388060D01*
X151585698Y-111409039D01*
X151627785Y-111434265D01*
X151667197Y-111463495D01*
X151703553Y-111496447D01*
X151736505Y-111532803D01*
X151765735Y-111572215D01*
X151790961Y-111614302D01*
X151811940Y-111658658D01*
X151828470Y-111704858D01*
X151840393Y-111752455D01*
X151847592Y-111800991D01*
X151850000Y-111850000D01*
X151850000Y-114150000D01*
X151847592Y-114199009D01*
X151840393Y-114247545D01*
X151828470Y-114295142D01*
X151811940Y-114341342D01*
X151790961Y-114385698D01*
X151765735Y-114427785D01*
X151736505Y-114467197D01*
X151703553Y-114503553D01*
X151667197Y-114536505D01*
X151627785Y-114565735D01*
X151585698Y-114590961D01*
X151541342Y-114611940D01*
X151495142Y-114628470D01*
X151447545Y-114640393D01*
X151399009Y-114647592D01*
X151350000Y-114650000D01*
X149850000Y-114650000D01*
X149800991Y-114647592D01*
X149752455Y-114640393D01*
X149704858Y-114628470D01*
X149658658Y-114611940D01*
X149614302Y-114590961D01*
X149572215Y-114565735D01*
X149532803Y-114536505D01*
X149496447Y-114503553D01*
X149463495Y-114467197D01*
X149434265Y-114427785D01*
X149409039Y-114385698D01*
X149388060Y-114341342D01*
X149371530Y-114295142D01*
X149359607Y-114247545D01*
X149352408Y-114199009D01*
X149350000Y-114150000D01*
X149350000Y-111850000D01*
X149352408Y-111800991D01*
X149359607Y-111752455D01*
X149371530Y-111704858D01*
X149388060Y-111658658D01*
X149409039Y-111614302D01*
X149434265Y-111572215D01*
X149463495Y-111532803D01*
X149496447Y-111496447D01*
X149532803Y-111463495D01*
X149572215Y-111434265D01*
X149614302Y-111409039D01*
X149658658Y-111388060D01*
X149704858Y-111371530D01*
X149752455Y-111359607D01*
X149800991Y-111352408D01*
X149850000Y-111350000D01*
X151350000Y-111350000D01*
X151399009Y-111352408D01*
X151399009Y-111352408D01*
G37*
D15*
X150600000Y-113000000D03*
D10*
G36*
X152399009Y-65352408D02*
X152447545Y-65359607D01*
X152495142Y-65371530D01*
X152541342Y-65388060D01*
X152585698Y-65409039D01*
X152627785Y-65434265D01*
X152667197Y-65463495D01*
X152703553Y-65496447D01*
X152736505Y-65532803D01*
X152765735Y-65572215D01*
X152790961Y-65614302D01*
X152811940Y-65658658D01*
X152828470Y-65704858D01*
X152840393Y-65752455D01*
X152847592Y-65800991D01*
X152850000Y-65850000D01*
X152850000Y-68150000D01*
X152847592Y-68199009D01*
X152840393Y-68247545D01*
X152828470Y-68295142D01*
X152811940Y-68341342D01*
X152790961Y-68385698D01*
X152765735Y-68427785D01*
X152736505Y-68467197D01*
X152703553Y-68503553D01*
X152667197Y-68536505D01*
X152627785Y-68565735D01*
X152585698Y-68590961D01*
X152541342Y-68611940D01*
X152495142Y-68628470D01*
X152447545Y-68640393D01*
X152399009Y-68647592D01*
X152350000Y-68650000D01*
X150850000Y-68650000D01*
X150800991Y-68647592D01*
X150752455Y-68640393D01*
X150704858Y-68628470D01*
X150658658Y-68611940D01*
X150614302Y-68590961D01*
X150572215Y-68565735D01*
X150532803Y-68536505D01*
X150496447Y-68503553D01*
X150463495Y-68467197D01*
X150434265Y-68427785D01*
X150409039Y-68385698D01*
X150388060Y-68341342D01*
X150371530Y-68295142D01*
X150359607Y-68247545D01*
X150352408Y-68199009D01*
X150350000Y-68150000D01*
X150350000Y-65850000D01*
X150352408Y-65800991D01*
X150359607Y-65752455D01*
X150371530Y-65704858D01*
X150388060Y-65658658D01*
X150409039Y-65614302D01*
X150434265Y-65572215D01*
X150463495Y-65532803D01*
X150496447Y-65496447D01*
X150532803Y-65463495D01*
X150572215Y-65434265D01*
X150614302Y-65409039D01*
X150658658Y-65388060D01*
X150704858Y-65371530D01*
X150752455Y-65359607D01*
X150800991Y-65352408D01*
X150850000Y-65350000D01*
X152350000Y-65350000D01*
X152399009Y-65352408D01*
X152399009Y-65352408D01*
G37*
D15*
X151600000Y-67000000D03*
D10*
G36*
X159199009Y-65352408D02*
X159247545Y-65359607D01*
X159295142Y-65371530D01*
X159341342Y-65388060D01*
X159385698Y-65409039D01*
X159427785Y-65434265D01*
X159467197Y-65463495D01*
X159503553Y-65496447D01*
X159536505Y-65532803D01*
X159565735Y-65572215D01*
X159590961Y-65614302D01*
X159611940Y-65658658D01*
X159628470Y-65704858D01*
X159640393Y-65752455D01*
X159647592Y-65800991D01*
X159650000Y-65850000D01*
X159650000Y-68150000D01*
X159647592Y-68199009D01*
X159640393Y-68247545D01*
X159628470Y-68295142D01*
X159611940Y-68341342D01*
X159590961Y-68385698D01*
X159565735Y-68427785D01*
X159536505Y-68467197D01*
X159503553Y-68503553D01*
X159467197Y-68536505D01*
X159427785Y-68565735D01*
X159385698Y-68590961D01*
X159341342Y-68611940D01*
X159295142Y-68628470D01*
X159247545Y-68640393D01*
X159199009Y-68647592D01*
X159150000Y-68650000D01*
X157650000Y-68650000D01*
X157600991Y-68647592D01*
X157552455Y-68640393D01*
X157504858Y-68628470D01*
X157458658Y-68611940D01*
X157414302Y-68590961D01*
X157372215Y-68565735D01*
X157332803Y-68536505D01*
X157296447Y-68503553D01*
X157263495Y-68467197D01*
X157234265Y-68427785D01*
X157209039Y-68385698D01*
X157188060Y-68341342D01*
X157171530Y-68295142D01*
X157159607Y-68247545D01*
X157152408Y-68199009D01*
X157150000Y-68150000D01*
X157150000Y-65850000D01*
X157152408Y-65800991D01*
X157159607Y-65752455D01*
X157171530Y-65704858D01*
X157188060Y-65658658D01*
X157209039Y-65614302D01*
X157234265Y-65572215D01*
X157263495Y-65532803D01*
X157296447Y-65496447D01*
X157332803Y-65463495D01*
X157372215Y-65434265D01*
X157414302Y-65409039D01*
X157458658Y-65388060D01*
X157504858Y-65371530D01*
X157552455Y-65359607D01*
X157600991Y-65352408D01*
X157650000Y-65350000D01*
X159150000Y-65350000D01*
X159199009Y-65352408D01*
X159199009Y-65352408D01*
G37*
D15*
X158400000Y-67000000D03*
D10*
G36*
X104055683Y-65550770D02*
X104071214Y-65553074D01*
X104086446Y-65556890D01*
X104101229Y-65562179D01*
X104115423Y-65568893D01*
X104128891Y-65576965D01*
X104141503Y-65586318D01*
X104153137Y-65596863D01*
X104163682Y-65608497D01*
X104173035Y-65621109D01*
X104181107Y-65634577D01*
X104187821Y-65648771D01*
X104193110Y-65663554D01*
X104196926Y-65678786D01*
X104199230Y-65694317D01*
X104200000Y-65710000D01*
X104200000Y-66290000D01*
X104199230Y-66305683D01*
X104196926Y-66321214D01*
X104193110Y-66336446D01*
X104187821Y-66351229D01*
X104181107Y-66365423D01*
X104173035Y-66378891D01*
X104163682Y-66391503D01*
X104153137Y-66403137D01*
X104141503Y-66413682D01*
X104128891Y-66423035D01*
X104115423Y-66431107D01*
X104101229Y-66437821D01*
X104086446Y-66443110D01*
X104071214Y-66446926D01*
X104055683Y-66449230D01*
X104040000Y-66450000D01*
X103560000Y-66450000D01*
X103544317Y-66449230D01*
X103528786Y-66446926D01*
X103513554Y-66443110D01*
X103498771Y-66437821D01*
X103484577Y-66431107D01*
X103471109Y-66423035D01*
X103458497Y-66413682D01*
X103446863Y-66403137D01*
X103436318Y-66391503D01*
X103426965Y-66378891D01*
X103418893Y-66365423D01*
X103412179Y-66351229D01*
X103406890Y-66336446D01*
X103403074Y-66321214D01*
X103400770Y-66305683D01*
X103400000Y-66290000D01*
X103400000Y-65710000D01*
X103400770Y-65694317D01*
X103403074Y-65678786D01*
X103406890Y-65663554D01*
X103412179Y-65648771D01*
X103418893Y-65634577D01*
X103426965Y-65621109D01*
X103436318Y-65608497D01*
X103446863Y-65596863D01*
X103458497Y-65586318D01*
X103471109Y-65576965D01*
X103484577Y-65568893D01*
X103498771Y-65562179D01*
X103513554Y-65556890D01*
X103528786Y-65553074D01*
X103544317Y-65550770D01*
X103560000Y-65550000D01*
X104040000Y-65550000D01*
X104055683Y-65550770D01*
X104055683Y-65550770D01*
G37*
D14*
X103800000Y-66000000D03*
D10*
G36*
X102455683Y-65550770D02*
X102471214Y-65553074D01*
X102486446Y-65556890D01*
X102501229Y-65562179D01*
X102515423Y-65568893D01*
X102528891Y-65576965D01*
X102541503Y-65586318D01*
X102553137Y-65596863D01*
X102563682Y-65608497D01*
X102573035Y-65621109D01*
X102581107Y-65634577D01*
X102587821Y-65648771D01*
X102593110Y-65663554D01*
X102596926Y-65678786D01*
X102599230Y-65694317D01*
X102600000Y-65710000D01*
X102600000Y-66290000D01*
X102599230Y-66305683D01*
X102596926Y-66321214D01*
X102593110Y-66336446D01*
X102587821Y-66351229D01*
X102581107Y-66365423D01*
X102573035Y-66378891D01*
X102563682Y-66391503D01*
X102553137Y-66403137D01*
X102541503Y-66413682D01*
X102528891Y-66423035D01*
X102515423Y-66431107D01*
X102501229Y-66437821D01*
X102486446Y-66443110D01*
X102471214Y-66446926D01*
X102455683Y-66449230D01*
X102440000Y-66450000D01*
X101960000Y-66450000D01*
X101944317Y-66449230D01*
X101928786Y-66446926D01*
X101913554Y-66443110D01*
X101898771Y-66437821D01*
X101884577Y-66431107D01*
X101871109Y-66423035D01*
X101858497Y-66413682D01*
X101846863Y-66403137D01*
X101836318Y-66391503D01*
X101826965Y-66378891D01*
X101818893Y-66365423D01*
X101812179Y-66351229D01*
X101806890Y-66336446D01*
X101803074Y-66321214D01*
X101800770Y-66305683D01*
X101800000Y-66290000D01*
X101800000Y-65710000D01*
X101800770Y-65694317D01*
X101803074Y-65678786D01*
X101806890Y-65663554D01*
X101812179Y-65648771D01*
X101818893Y-65634577D01*
X101826965Y-65621109D01*
X101836318Y-65608497D01*
X101846863Y-65596863D01*
X101858497Y-65586318D01*
X101871109Y-65576965D01*
X101884577Y-65568893D01*
X101898771Y-65562179D01*
X101913554Y-65556890D01*
X101928786Y-65553074D01*
X101944317Y-65550770D01*
X101960000Y-65550000D01*
X102440000Y-65550000D01*
X102455683Y-65550770D01*
X102455683Y-65550770D01*
G37*
D14*
X102200000Y-66000000D03*
D10*
G36*
X118055683Y-97650770D02*
X118071214Y-97653074D01*
X118086446Y-97656890D01*
X118101229Y-97662179D01*
X118115423Y-97668893D01*
X118128891Y-97676965D01*
X118141503Y-97686318D01*
X118153137Y-97696863D01*
X118163682Y-97708497D01*
X118173035Y-97721109D01*
X118181107Y-97734577D01*
X118187821Y-97748771D01*
X118193110Y-97763554D01*
X118196926Y-97778786D01*
X118199230Y-97794317D01*
X118200000Y-97810000D01*
X118200000Y-98390000D01*
X118199230Y-98405683D01*
X118196926Y-98421214D01*
X118193110Y-98436446D01*
X118187821Y-98451229D01*
X118181107Y-98465423D01*
X118173035Y-98478891D01*
X118163682Y-98491503D01*
X118153137Y-98503137D01*
X118141503Y-98513682D01*
X118128891Y-98523035D01*
X118115423Y-98531107D01*
X118101229Y-98537821D01*
X118086446Y-98543110D01*
X118071214Y-98546926D01*
X118055683Y-98549230D01*
X118040000Y-98550000D01*
X117560000Y-98550000D01*
X117544317Y-98549230D01*
X117528786Y-98546926D01*
X117513554Y-98543110D01*
X117498771Y-98537821D01*
X117484577Y-98531107D01*
X117471109Y-98523035D01*
X117458497Y-98513682D01*
X117446863Y-98503137D01*
X117436318Y-98491503D01*
X117426965Y-98478891D01*
X117418893Y-98465423D01*
X117412179Y-98451229D01*
X117406890Y-98436446D01*
X117403074Y-98421214D01*
X117400770Y-98405683D01*
X117400000Y-98390000D01*
X117400000Y-97810000D01*
X117400770Y-97794317D01*
X117403074Y-97778786D01*
X117406890Y-97763554D01*
X117412179Y-97748771D01*
X117418893Y-97734577D01*
X117426965Y-97721109D01*
X117436318Y-97708497D01*
X117446863Y-97696863D01*
X117458497Y-97686318D01*
X117471109Y-97676965D01*
X117484577Y-97668893D01*
X117498771Y-97662179D01*
X117513554Y-97656890D01*
X117528786Y-97653074D01*
X117544317Y-97650770D01*
X117560000Y-97650000D01*
X118040000Y-97650000D01*
X118055683Y-97650770D01*
X118055683Y-97650770D01*
G37*
D14*
X117800000Y-98100000D03*
D10*
G36*
X116455683Y-97650770D02*
X116471214Y-97653074D01*
X116486446Y-97656890D01*
X116501229Y-97662179D01*
X116515423Y-97668893D01*
X116528891Y-97676965D01*
X116541503Y-97686318D01*
X116553137Y-97696863D01*
X116563682Y-97708497D01*
X116573035Y-97721109D01*
X116581107Y-97734577D01*
X116587821Y-97748771D01*
X116593110Y-97763554D01*
X116596926Y-97778786D01*
X116599230Y-97794317D01*
X116600000Y-97810000D01*
X116600000Y-98390000D01*
X116599230Y-98405683D01*
X116596926Y-98421214D01*
X116593110Y-98436446D01*
X116587821Y-98451229D01*
X116581107Y-98465423D01*
X116573035Y-98478891D01*
X116563682Y-98491503D01*
X116553137Y-98503137D01*
X116541503Y-98513682D01*
X116528891Y-98523035D01*
X116515423Y-98531107D01*
X116501229Y-98537821D01*
X116486446Y-98543110D01*
X116471214Y-98546926D01*
X116455683Y-98549230D01*
X116440000Y-98550000D01*
X115960000Y-98550000D01*
X115944317Y-98549230D01*
X115928786Y-98546926D01*
X115913554Y-98543110D01*
X115898771Y-98537821D01*
X115884577Y-98531107D01*
X115871109Y-98523035D01*
X115858497Y-98513682D01*
X115846863Y-98503137D01*
X115836318Y-98491503D01*
X115826965Y-98478891D01*
X115818893Y-98465423D01*
X115812179Y-98451229D01*
X115806890Y-98436446D01*
X115803074Y-98421214D01*
X115800770Y-98405683D01*
X115800000Y-98390000D01*
X115800000Y-97810000D01*
X115800770Y-97794317D01*
X115803074Y-97778786D01*
X115806890Y-97763554D01*
X115812179Y-97748771D01*
X115818893Y-97734577D01*
X115826965Y-97721109D01*
X115836318Y-97708497D01*
X115846863Y-97696863D01*
X115858497Y-97686318D01*
X115871109Y-97676965D01*
X115884577Y-97668893D01*
X115898771Y-97662179D01*
X115913554Y-97656890D01*
X115928786Y-97653074D01*
X115944317Y-97650770D01*
X115960000Y-97650000D01*
X116440000Y-97650000D01*
X116455683Y-97650770D01*
X116455683Y-97650770D01*
G37*
D14*
X116200000Y-98100000D03*
D10*
G36*
X102405683Y-84300770D02*
X102421214Y-84303074D01*
X102436446Y-84306890D01*
X102451229Y-84312179D01*
X102465423Y-84318893D01*
X102478891Y-84326965D01*
X102491503Y-84336318D01*
X102503137Y-84346863D01*
X102513682Y-84358497D01*
X102523035Y-84371109D01*
X102531107Y-84384577D01*
X102537821Y-84398771D01*
X102543110Y-84413554D01*
X102546926Y-84428786D01*
X102549230Y-84444317D01*
X102550000Y-84460000D01*
X102550000Y-84940000D01*
X102549230Y-84955683D01*
X102546926Y-84971214D01*
X102543110Y-84986446D01*
X102537821Y-85001229D01*
X102531107Y-85015423D01*
X102523035Y-85028891D01*
X102513682Y-85041503D01*
X102503137Y-85053137D01*
X102491503Y-85063682D01*
X102478891Y-85073035D01*
X102465423Y-85081107D01*
X102451229Y-85087821D01*
X102436446Y-85093110D01*
X102421214Y-85096926D01*
X102405683Y-85099230D01*
X102390000Y-85100000D01*
X101810000Y-85100000D01*
X101794317Y-85099230D01*
X101778786Y-85096926D01*
X101763554Y-85093110D01*
X101748771Y-85087821D01*
X101734577Y-85081107D01*
X101721109Y-85073035D01*
X101708497Y-85063682D01*
X101696863Y-85053137D01*
X101686318Y-85041503D01*
X101676965Y-85028891D01*
X101668893Y-85015423D01*
X101662179Y-85001229D01*
X101656890Y-84986446D01*
X101653074Y-84971214D01*
X101650770Y-84955683D01*
X101650000Y-84940000D01*
X101650000Y-84460000D01*
X101650770Y-84444317D01*
X101653074Y-84428786D01*
X101656890Y-84413554D01*
X101662179Y-84398771D01*
X101668893Y-84384577D01*
X101676965Y-84371109D01*
X101686318Y-84358497D01*
X101696863Y-84346863D01*
X101708497Y-84336318D01*
X101721109Y-84326965D01*
X101734577Y-84318893D01*
X101748771Y-84312179D01*
X101763554Y-84306890D01*
X101778786Y-84303074D01*
X101794317Y-84300770D01*
X101810000Y-84300000D01*
X102390000Y-84300000D01*
X102405683Y-84300770D01*
X102405683Y-84300770D01*
G37*
D14*
X102100000Y-84700000D03*
D10*
G36*
X102405683Y-85900770D02*
X102421214Y-85903074D01*
X102436446Y-85906890D01*
X102451229Y-85912179D01*
X102465423Y-85918893D01*
X102478891Y-85926965D01*
X102491503Y-85936318D01*
X102503137Y-85946863D01*
X102513682Y-85958497D01*
X102523035Y-85971109D01*
X102531107Y-85984577D01*
X102537821Y-85998771D01*
X102543110Y-86013554D01*
X102546926Y-86028786D01*
X102549230Y-86044317D01*
X102550000Y-86060000D01*
X102550000Y-86540000D01*
X102549230Y-86555683D01*
X102546926Y-86571214D01*
X102543110Y-86586446D01*
X102537821Y-86601229D01*
X102531107Y-86615423D01*
X102523035Y-86628891D01*
X102513682Y-86641503D01*
X102503137Y-86653137D01*
X102491503Y-86663682D01*
X102478891Y-86673035D01*
X102465423Y-86681107D01*
X102451229Y-86687821D01*
X102436446Y-86693110D01*
X102421214Y-86696926D01*
X102405683Y-86699230D01*
X102390000Y-86700000D01*
X101810000Y-86700000D01*
X101794317Y-86699230D01*
X101778786Y-86696926D01*
X101763554Y-86693110D01*
X101748771Y-86687821D01*
X101734577Y-86681107D01*
X101721109Y-86673035D01*
X101708497Y-86663682D01*
X101696863Y-86653137D01*
X101686318Y-86641503D01*
X101676965Y-86628891D01*
X101668893Y-86615423D01*
X101662179Y-86601229D01*
X101656890Y-86586446D01*
X101653074Y-86571214D01*
X101650770Y-86555683D01*
X101650000Y-86540000D01*
X101650000Y-86060000D01*
X101650770Y-86044317D01*
X101653074Y-86028786D01*
X101656890Y-86013554D01*
X101662179Y-85998771D01*
X101668893Y-85984577D01*
X101676965Y-85971109D01*
X101686318Y-85958497D01*
X101696863Y-85946863D01*
X101708497Y-85936318D01*
X101721109Y-85926965D01*
X101734577Y-85918893D01*
X101748771Y-85912179D01*
X101763554Y-85906890D01*
X101778786Y-85903074D01*
X101794317Y-85900770D01*
X101810000Y-85900000D01*
X102390000Y-85900000D01*
X102405683Y-85900770D01*
X102405683Y-85900770D01*
G37*
D14*
X102100000Y-86300000D03*
D10*
G36*
X103905683Y-85900770D02*
X103921214Y-85903074D01*
X103936446Y-85906890D01*
X103951229Y-85912179D01*
X103965423Y-85918893D01*
X103978891Y-85926965D01*
X103991503Y-85936318D01*
X104003137Y-85946863D01*
X104013682Y-85958497D01*
X104023035Y-85971109D01*
X104031107Y-85984577D01*
X104037821Y-85998771D01*
X104043110Y-86013554D01*
X104046926Y-86028786D01*
X104049230Y-86044317D01*
X104050000Y-86060000D01*
X104050000Y-86540000D01*
X104049230Y-86555683D01*
X104046926Y-86571214D01*
X104043110Y-86586446D01*
X104037821Y-86601229D01*
X104031107Y-86615423D01*
X104023035Y-86628891D01*
X104013682Y-86641503D01*
X104003137Y-86653137D01*
X103991503Y-86663682D01*
X103978891Y-86673035D01*
X103965423Y-86681107D01*
X103951229Y-86687821D01*
X103936446Y-86693110D01*
X103921214Y-86696926D01*
X103905683Y-86699230D01*
X103890000Y-86700000D01*
X103310000Y-86700000D01*
X103294317Y-86699230D01*
X103278786Y-86696926D01*
X103263554Y-86693110D01*
X103248771Y-86687821D01*
X103234577Y-86681107D01*
X103221109Y-86673035D01*
X103208497Y-86663682D01*
X103196863Y-86653137D01*
X103186318Y-86641503D01*
X103176965Y-86628891D01*
X103168893Y-86615423D01*
X103162179Y-86601229D01*
X103156890Y-86586446D01*
X103153074Y-86571214D01*
X103150770Y-86555683D01*
X103150000Y-86540000D01*
X103150000Y-86060000D01*
X103150770Y-86044317D01*
X103153074Y-86028786D01*
X103156890Y-86013554D01*
X103162179Y-85998771D01*
X103168893Y-85984577D01*
X103176965Y-85971109D01*
X103186318Y-85958497D01*
X103196863Y-85946863D01*
X103208497Y-85936318D01*
X103221109Y-85926965D01*
X103234577Y-85918893D01*
X103248771Y-85912179D01*
X103263554Y-85906890D01*
X103278786Y-85903074D01*
X103294317Y-85900770D01*
X103310000Y-85900000D01*
X103890000Y-85900000D01*
X103905683Y-85900770D01*
X103905683Y-85900770D01*
G37*
D14*
X103600000Y-86300000D03*
D10*
G36*
X103905683Y-84300770D02*
X103921214Y-84303074D01*
X103936446Y-84306890D01*
X103951229Y-84312179D01*
X103965423Y-84318893D01*
X103978891Y-84326965D01*
X103991503Y-84336318D01*
X104003137Y-84346863D01*
X104013682Y-84358497D01*
X104023035Y-84371109D01*
X104031107Y-84384577D01*
X104037821Y-84398771D01*
X104043110Y-84413554D01*
X104046926Y-84428786D01*
X104049230Y-84444317D01*
X104050000Y-84460000D01*
X104050000Y-84940000D01*
X104049230Y-84955683D01*
X104046926Y-84971214D01*
X104043110Y-84986446D01*
X104037821Y-85001229D01*
X104031107Y-85015423D01*
X104023035Y-85028891D01*
X104013682Y-85041503D01*
X104003137Y-85053137D01*
X103991503Y-85063682D01*
X103978891Y-85073035D01*
X103965423Y-85081107D01*
X103951229Y-85087821D01*
X103936446Y-85093110D01*
X103921214Y-85096926D01*
X103905683Y-85099230D01*
X103890000Y-85100000D01*
X103310000Y-85100000D01*
X103294317Y-85099230D01*
X103278786Y-85096926D01*
X103263554Y-85093110D01*
X103248771Y-85087821D01*
X103234577Y-85081107D01*
X103221109Y-85073035D01*
X103208497Y-85063682D01*
X103196863Y-85053137D01*
X103186318Y-85041503D01*
X103176965Y-85028891D01*
X103168893Y-85015423D01*
X103162179Y-85001229D01*
X103156890Y-84986446D01*
X103153074Y-84971214D01*
X103150770Y-84955683D01*
X103150000Y-84940000D01*
X103150000Y-84460000D01*
X103150770Y-84444317D01*
X103153074Y-84428786D01*
X103156890Y-84413554D01*
X103162179Y-84398771D01*
X103168893Y-84384577D01*
X103176965Y-84371109D01*
X103186318Y-84358497D01*
X103196863Y-84346863D01*
X103208497Y-84336318D01*
X103221109Y-84326965D01*
X103234577Y-84318893D01*
X103248771Y-84312179D01*
X103263554Y-84306890D01*
X103278786Y-84303074D01*
X103294317Y-84300770D01*
X103310000Y-84300000D01*
X103890000Y-84300000D01*
X103905683Y-84300770D01*
X103905683Y-84300770D01*
G37*
D14*
X103600000Y-84700000D03*
D10*
G36*
X100905683Y-84300770D02*
X100921214Y-84303074D01*
X100936446Y-84306890D01*
X100951229Y-84312179D01*
X100965423Y-84318893D01*
X100978891Y-84326965D01*
X100991503Y-84336318D01*
X101003137Y-84346863D01*
X101013682Y-84358497D01*
X101023035Y-84371109D01*
X101031107Y-84384577D01*
X101037821Y-84398771D01*
X101043110Y-84413554D01*
X101046926Y-84428786D01*
X101049230Y-84444317D01*
X101050000Y-84460000D01*
X101050000Y-84940000D01*
X101049230Y-84955683D01*
X101046926Y-84971214D01*
X101043110Y-84986446D01*
X101037821Y-85001229D01*
X101031107Y-85015423D01*
X101023035Y-85028891D01*
X101013682Y-85041503D01*
X101003137Y-85053137D01*
X100991503Y-85063682D01*
X100978891Y-85073035D01*
X100965423Y-85081107D01*
X100951229Y-85087821D01*
X100936446Y-85093110D01*
X100921214Y-85096926D01*
X100905683Y-85099230D01*
X100890000Y-85100000D01*
X100310000Y-85100000D01*
X100294317Y-85099230D01*
X100278786Y-85096926D01*
X100263554Y-85093110D01*
X100248771Y-85087821D01*
X100234577Y-85081107D01*
X100221109Y-85073035D01*
X100208497Y-85063682D01*
X100196863Y-85053137D01*
X100186318Y-85041503D01*
X100176965Y-85028891D01*
X100168893Y-85015423D01*
X100162179Y-85001229D01*
X100156890Y-84986446D01*
X100153074Y-84971214D01*
X100150770Y-84955683D01*
X100150000Y-84940000D01*
X100150000Y-84460000D01*
X100150770Y-84444317D01*
X100153074Y-84428786D01*
X100156890Y-84413554D01*
X100162179Y-84398771D01*
X100168893Y-84384577D01*
X100176965Y-84371109D01*
X100186318Y-84358497D01*
X100196863Y-84346863D01*
X100208497Y-84336318D01*
X100221109Y-84326965D01*
X100234577Y-84318893D01*
X100248771Y-84312179D01*
X100263554Y-84306890D01*
X100278786Y-84303074D01*
X100294317Y-84300770D01*
X100310000Y-84300000D01*
X100890000Y-84300000D01*
X100905683Y-84300770D01*
X100905683Y-84300770D01*
G37*
D14*
X100600000Y-84700000D03*
D10*
G36*
X100905683Y-85900770D02*
X100921214Y-85903074D01*
X100936446Y-85906890D01*
X100951229Y-85912179D01*
X100965423Y-85918893D01*
X100978891Y-85926965D01*
X100991503Y-85936318D01*
X101003137Y-85946863D01*
X101013682Y-85958497D01*
X101023035Y-85971109D01*
X101031107Y-85984577D01*
X101037821Y-85998771D01*
X101043110Y-86013554D01*
X101046926Y-86028786D01*
X101049230Y-86044317D01*
X101050000Y-86060000D01*
X101050000Y-86540000D01*
X101049230Y-86555683D01*
X101046926Y-86571214D01*
X101043110Y-86586446D01*
X101037821Y-86601229D01*
X101031107Y-86615423D01*
X101023035Y-86628891D01*
X101013682Y-86641503D01*
X101003137Y-86653137D01*
X100991503Y-86663682D01*
X100978891Y-86673035D01*
X100965423Y-86681107D01*
X100951229Y-86687821D01*
X100936446Y-86693110D01*
X100921214Y-86696926D01*
X100905683Y-86699230D01*
X100890000Y-86700000D01*
X100310000Y-86700000D01*
X100294317Y-86699230D01*
X100278786Y-86696926D01*
X100263554Y-86693110D01*
X100248771Y-86687821D01*
X100234577Y-86681107D01*
X100221109Y-86673035D01*
X100208497Y-86663682D01*
X100196863Y-86653137D01*
X100186318Y-86641503D01*
X100176965Y-86628891D01*
X100168893Y-86615423D01*
X100162179Y-86601229D01*
X100156890Y-86586446D01*
X100153074Y-86571214D01*
X100150770Y-86555683D01*
X100150000Y-86540000D01*
X100150000Y-86060000D01*
X100150770Y-86044317D01*
X100153074Y-86028786D01*
X100156890Y-86013554D01*
X100162179Y-85998771D01*
X100168893Y-85984577D01*
X100176965Y-85971109D01*
X100186318Y-85958497D01*
X100196863Y-85946863D01*
X100208497Y-85936318D01*
X100221109Y-85926965D01*
X100234577Y-85918893D01*
X100248771Y-85912179D01*
X100263554Y-85906890D01*
X100278786Y-85903074D01*
X100294317Y-85900770D01*
X100310000Y-85900000D01*
X100890000Y-85900000D01*
X100905683Y-85900770D01*
X100905683Y-85900770D01*
G37*
D14*
X100600000Y-86300000D03*
D10*
G36*
X140305683Y-77400770D02*
X140321214Y-77403074D01*
X140336446Y-77406890D01*
X140351229Y-77412179D01*
X140365423Y-77418893D01*
X140378891Y-77426965D01*
X140391503Y-77436318D01*
X140403137Y-77446863D01*
X140413682Y-77458497D01*
X140423035Y-77471109D01*
X140431107Y-77484577D01*
X140437821Y-77498771D01*
X140443110Y-77513554D01*
X140446926Y-77528786D01*
X140449230Y-77544317D01*
X140450000Y-77560000D01*
X140450000Y-78040000D01*
X140449230Y-78055683D01*
X140446926Y-78071214D01*
X140443110Y-78086446D01*
X140437821Y-78101229D01*
X140431107Y-78115423D01*
X140423035Y-78128891D01*
X140413682Y-78141503D01*
X140403137Y-78153137D01*
X140391503Y-78163682D01*
X140378891Y-78173035D01*
X140365423Y-78181107D01*
X140351229Y-78187821D01*
X140336446Y-78193110D01*
X140321214Y-78196926D01*
X140305683Y-78199230D01*
X140290000Y-78200000D01*
X139710000Y-78200000D01*
X139694317Y-78199230D01*
X139678786Y-78196926D01*
X139663554Y-78193110D01*
X139648771Y-78187821D01*
X139634577Y-78181107D01*
X139621109Y-78173035D01*
X139608497Y-78163682D01*
X139596863Y-78153137D01*
X139586318Y-78141503D01*
X139576965Y-78128891D01*
X139568893Y-78115423D01*
X139562179Y-78101229D01*
X139556890Y-78086446D01*
X139553074Y-78071214D01*
X139550770Y-78055683D01*
X139550000Y-78040000D01*
X139550000Y-77560000D01*
X139550770Y-77544317D01*
X139553074Y-77528786D01*
X139556890Y-77513554D01*
X139562179Y-77498771D01*
X139568893Y-77484577D01*
X139576965Y-77471109D01*
X139586318Y-77458497D01*
X139596863Y-77446863D01*
X139608497Y-77436318D01*
X139621109Y-77426965D01*
X139634577Y-77418893D01*
X139648771Y-77412179D01*
X139663554Y-77406890D01*
X139678786Y-77403074D01*
X139694317Y-77400770D01*
X139710000Y-77400000D01*
X140290000Y-77400000D01*
X140305683Y-77400770D01*
X140305683Y-77400770D01*
G37*
D14*
X140000000Y-77800000D03*
D10*
G36*
X140305683Y-75800770D02*
X140321214Y-75803074D01*
X140336446Y-75806890D01*
X140351229Y-75812179D01*
X140365423Y-75818893D01*
X140378891Y-75826965D01*
X140391503Y-75836318D01*
X140403137Y-75846863D01*
X140413682Y-75858497D01*
X140423035Y-75871109D01*
X140431107Y-75884577D01*
X140437821Y-75898771D01*
X140443110Y-75913554D01*
X140446926Y-75928786D01*
X140449230Y-75944317D01*
X140450000Y-75960000D01*
X140450000Y-76440000D01*
X140449230Y-76455683D01*
X140446926Y-76471214D01*
X140443110Y-76486446D01*
X140437821Y-76501229D01*
X140431107Y-76515423D01*
X140423035Y-76528891D01*
X140413682Y-76541503D01*
X140403137Y-76553137D01*
X140391503Y-76563682D01*
X140378891Y-76573035D01*
X140365423Y-76581107D01*
X140351229Y-76587821D01*
X140336446Y-76593110D01*
X140321214Y-76596926D01*
X140305683Y-76599230D01*
X140290000Y-76600000D01*
X139710000Y-76600000D01*
X139694317Y-76599230D01*
X139678786Y-76596926D01*
X139663554Y-76593110D01*
X139648771Y-76587821D01*
X139634577Y-76581107D01*
X139621109Y-76573035D01*
X139608497Y-76563682D01*
X139596863Y-76553137D01*
X139586318Y-76541503D01*
X139576965Y-76528891D01*
X139568893Y-76515423D01*
X139562179Y-76501229D01*
X139556890Y-76486446D01*
X139553074Y-76471214D01*
X139550770Y-76455683D01*
X139550000Y-76440000D01*
X139550000Y-75960000D01*
X139550770Y-75944317D01*
X139553074Y-75928786D01*
X139556890Y-75913554D01*
X139562179Y-75898771D01*
X139568893Y-75884577D01*
X139576965Y-75871109D01*
X139586318Y-75858497D01*
X139596863Y-75846863D01*
X139608497Y-75836318D01*
X139621109Y-75826965D01*
X139634577Y-75818893D01*
X139648771Y-75812179D01*
X139663554Y-75806890D01*
X139678786Y-75803074D01*
X139694317Y-75800770D01*
X139710000Y-75800000D01*
X140290000Y-75800000D01*
X140305683Y-75800770D01*
X140305683Y-75800770D01*
G37*
D14*
X140000000Y-76200000D03*
D10*
G36*
X140305683Y-100046709D02*
X140321214Y-100049013D01*
X140336446Y-100052829D01*
X140351229Y-100058118D01*
X140365423Y-100064832D01*
X140378891Y-100072904D01*
X140391503Y-100082257D01*
X140403137Y-100092802D01*
X140413682Y-100104436D01*
X140423035Y-100117048D01*
X140431107Y-100130516D01*
X140437821Y-100144710D01*
X140443110Y-100159493D01*
X140446926Y-100174725D01*
X140449230Y-100190256D01*
X140450000Y-100205939D01*
X140450000Y-100685939D01*
X140449230Y-100701622D01*
X140446926Y-100717153D01*
X140443110Y-100732385D01*
X140437821Y-100747168D01*
X140431107Y-100761362D01*
X140423035Y-100774830D01*
X140413682Y-100787442D01*
X140403137Y-100799076D01*
X140391503Y-100809621D01*
X140378891Y-100818974D01*
X140365423Y-100827046D01*
X140351229Y-100833760D01*
X140336446Y-100839049D01*
X140321214Y-100842865D01*
X140305683Y-100845169D01*
X140290000Y-100845939D01*
X139710000Y-100845939D01*
X139694317Y-100845169D01*
X139678786Y-100842865D01*
X139663554Y-100839049D01*
X139648771Y-100833760D01*
X139634577Y-100827046D01*
X139621109Y-100818974D01*
X139608497Y-100809621D01*
X139596863Y-100799076D01*
X139586318Y-100787442D01*
X139576965Y-100774830D01*
X139568893Y-100761362D01*
X139562179Y-100747168D01*
X139556890Y-100732385D01*
X139553074Y-100717153D01*
X139550770Y-100701622D01*
X139550000Y-100685939D01*
X139550000Y-100205939D01*
X139550770Y-100190256D01*
X139553074Y-100174725D01*
X139556890Y-100159493D01*
X139562179Y-100144710D01*
X139568893Y-100130516D01*
X139576965Y-100117048D01*
X139586318Y-100104436D01*
X139596863Y-100092802D01*
X139608497Y-100082257D01*
X139621109Y-100072904D01*
X139634577Y-100064832D01*
X139648771Y-100058118D01*
X139663554Y-100052829D01*
X139678786Y-100049013D01*
X139694317Y-100046709D01*
X139710000Y-100045939D01*
X140290000Y-100045939D01*
X140305683Y-100046709D01*
X140305683Y-100046709D01*
G37*
D14*
X140000000Y-100445939D03*
D10*
G36*
X140305683Y-98446709D02*
X140321214Y-98449013D01*
X140336446Y-98452829D01*
X140351229Y-98458118D01*
X140365423Y-98464832D01*
X140378891Y-98472904D01*
X140391503Y-98482257D01*
X140403137Y-98492802D01*
X140413682Y-98504436D01*
X140423035Y-98517048D01*
X140431107Y-98530516D01*
X140437821Y-98544710D01*
X140443110Y-98559493D01*
X140446926Y-98574725D01*
X140449230Y-98590256D01*
X140450000Y-98605939D01*
X140450000Y-99085939D01*
X140449230Y-99101622D01*
X140446926Y-99117153D01*
X140443110Y-99132385D01*
X140437821Y-99147168D01*
X140431107Y-99161362D01*
X140423035Y-99174830D01*
X140413682Y-99187442D01*
X140403137Y-99199076D01*
X140391503Y-99209621D01*
X140378891Y-99218974D01*
X140365423Y-99227046D01*
X140351229Y-99233760D01*
X140336446Y-99239049D01*
X140321214Y-99242865D01*
X140305683Y-99245169D01*
X140290000Y-99245939D01*
X139710000Y-99245939D01*
X139694317Y-99245169D01*
X139678786Y-99242865D01*
X139663554Y-99239049D01*
X139648771Y-99233760D01*
X139634577Y-99227046D01*
X139621109Y-99218974D01*
X139608497Y-99209621D01*
X139596863Y-99199076D01*
X139586318Y-99187442D01*
X139576965Y-99174830D01*
X139568893Y-99161362D01*
X139562179Y-99147168D01*
X139556890Y-99132385D01*
X139553074Y-99117153D01*
X139550770Y-99101622D01*
X139550000Y-99085939D01*
X139550000Y-98605939D01*
X139550770Y-98590256D01*
X139553074Y-98574725D01*
X139556890Y-98559493D01*
X139562179Y-98544710D01*
X139568893Y-98530516D01*
X139576965Y-98517048D01*
X139586318Y-98504436D01*
X139596863Y-98492802D01*
X139608497Y-98482257D01*
X139621109Y-98472904D01*
X139634577Y-98464832D01*
X139648771Y-98458118D01*
X139663554Y-98452829D01*
X139678786Y-98449013D01*
X139694317Y-98446709D01*
X139710000Y-98445939D01*
X140290000Y-98445939D01*
X140305683Y-98446709D01*
X140305683Y-98446709D01*
G37*
D14*
X140000000Y-98845939D03*
D10*
G36*
X116555683Y-99550770D02*
X116571214Y-99553074D01*
X116586446Y-99556890D01*
X116601229Y-99562179D01*
X116615423Y-99568893D01*
X116628891Y-99576965D01*
X116641503Y-99586318D01*
X116653137Y-99596863D01*
X116663682Y-99608497D01*
X116673035Y-99621109D01*
X116681107Y-99634577D01*
X116687821Y-99648771D01*
X116693110Y-99663554D01*
X116696926Y-99678786D01*
X116699230Y-99694317D01*
X116700000Y-99710000D01*
X116700000Y-100290000D01*
X116699230Y-100305683D01*
X116696926Y-100321214D01*
X116693110Y-100336446D01*
X116687821Y-100351229D01*
X116681107Y-100365423D01*
X116673035Y-100378891D01*
X116663682Y-100391503D01*
X116653137Y-100403137D01*
X116641503Y-100413682D01*
X116628891Y-100423035D01*
X116615423Y-100431107D01*
X116601229Y-100437821D01*
X116586446Y-100443110D01*
X116571214Y-100446926D01*
X116555683Y-100449230D01*
X116540000Y-100450000D01*
X116060000Y-100450000D01*
X116044317Y-100449230D01*
X116028786Y-100446926D01*
X116013554Y-100443110D01*
X115998771Y-100437821D01*
X115984577Y-100431107D01*
X115971109Y-100423035D01*
X115958497Y-100413682D01*
X115946863Y-100403137D01*
X115936318Y-100391503D01*
X115926965Y-100378891D01*
X115918893Y-100365423D01*
X115912179Y-100351229D01*
X115906890Y-100336446D01*
X115903074Y-100321214D01*
X115900770Y-100305683D01*
X115900000Y-100290000D01*
X115900000Y-99710000D01*
X115900770Y-99694317D01*
X115903074Y-99678786D01*
X115906890Y-99663554D01*
X115912179Y-99648771D01*
X115918893Y-99634577D01*
X115926965Y-99621109D01*
X115936318Y-99608497D01*
X115946863Y-99596863D01*
X115958497Y-99586318D01*
X115971109Y-99576965D01*
X115984577Y-99568893D01*
X115998771Y-99562179D01*
X116013554Y-99556890D01*
X116028786Y-99553074D01*
X116044317Y-99550770D01*
X116060000Y-99550000D01*
X116540000Y-99550000D01*
X116555683Y-99550770D01*
X116555683Y-99550770D01*
G37*
D14*
X116300000Y-100000000D03*
D10*
G36*
X114955683Y-99550770D02*
X114971214Y-99553074D01*
X114986446Y-99556890D01*
X115001229Y-99562179D01*
X115015423Y-99568893D01*
X115028891Y-99576965D01*
X115041503Y-99586318D01*
X115053137Y-99596863D01*
X115063682Y-99608497D01*
X115073035Y-99621109D01*
X115081107Y-99634577D01*
X115087821Y-99648771D01*
X115093110Y-99663554D01*
X115096926Y-99678786D01*
X115099230Y-99694317D01*
X115100000Y-99710000D01*
X115100000Y-100290000D01*
X115099230Y-100305683D01*
X115096926Y-100321214D01*
X115093110Y-100336446D01*
X115087821Y-100351229D01*
X115081107Y-100365423D01*
X115073035Y-100378891D01*
X115063682Y-100391503D01*
X115053137Y-100403137D01*
X115041503Y-100413682D01*
X115028891Y-100423035D01*
X115015423Y-100431107D01*
X115001229Y-100437821D01*
X114986446Y-100443110D01*
X114971214Y-100446926D01*
X114955683Y-100449230D01*
X114940000Y-100450000D01*
X114460000Y-100450000D01*
X114444317Y-100449230D01*
X114428786Y-100446926D01*
X114413554Y-100443110D01*
X114398771Y-100437821D01*
X114384577Y-100431107D01*
X114371109Y-100423035D01*
X114358497Y-100413682D01*
X114346863Y-100403137D01*
X114336318Y-100391503D01*
X114326965Y-100378891D01*
X114318893Y-100365423D01*
X114312179Y-100351229D01*
X114306890Y-100336446D01*
X114303074Y-100321214D01*
X114300770Y-100305683D01*
X114300000Y-100290000D01*
X114300000Y-99710000D01*
X114300770Y-99694317D01*
X114303074Y-99678786D01*
X114306890Y-99663554D01*
X114312179Y-99648771D01*
X114318893Y-99634577D01*
X114326965Y-99621109D01*
X114336318Y-99608497D01*
X114346863Y-99596863D01*
X114358497Y-99586318D01*
X114371109Y-99576965D01*
X114384577Y-99568893D01*
X114398771Y-99562179D01*
X114413554Y-99556890D01*
X114428786Y-99553074D01*
X114444317Y-99550770D01*
X114460000Y-99550000D01*
X114940000Y-99550000D01*
X114955683Y-99550770D01*
X114955683Y-99550770D01*
G37*
D14*
X114700000Y-100000000D03*
D10*
G36*
X98805683Y-82700770D02*
X98821214Y-82703074D01*
X98836446Y-82706890D01*
X98851229Y-82712179D01*
X98865423Y-82718893D01*
X98878891Y-82726965D01*
X98891503Y-82736318D01*
X98903137Y-82746863D01*
X98913682Y-82758497D01*
X98923035Y-82771109D01*
X98931107Y-82784577D01*
X98937821Y-82798771D01*
X98943110Y-82813554D01*
X98946926Y-82828786D01*
X98949230Y-82844317D01*
X98950000Y-82860000D01*
X98950000Y-83340000D01*
X98949230Y-83355683D01*
X98946926Y-83371214D01*
X98943110Y-83386446D01*
X98937821Y-83401229D01*
X98931107Y-83415423D01*
X98923035Y-83428891D01*
X98913682Y-83441503D01*
X98903137Y-83453137D01*
X98891503Y-83463682D01*
X98878891Y-83473035D01*
X98865423Y-83481107D01*
X98851229Y-83487821D01*
X98836446Y-83493110D01*
X98821214Y-83496926D01*
X98805683Y-83499230D01*
X98790000Y-83500000D01*
X98210000Y-83500000D01*
X98194317Y-83499230D01*
X98178786Y-83496926D01*
X98163554Y-83493110D01*
X98148771Y-83487821D01*
X98134577Y-83481107D01*
X98121109Y-83473035D01*
X98108497Y-83463682D01*
X98096863Y-83453137D01*
X98086318Y-83441503D01*
X98076965Y-83428891D01*
X98068893Y-83415423D01*
X98062179Y-83401229D01*
X98056890Y-83386446D01*
X98053074Y-83371214D01*
X98050770Y-83355683D01*
X98050000Y-83340000D01*
X98050000Y-82860000D01*
X98050770Y-82844317D01*
X98053074Y-82828786D01*
X98056890Y-82813554D01*
X98062179Y-82798771D01*
X98068893Y-82784577D01*
X98076965Y-82771109D01*
X98086318Y-82758497D01*
X98096863Y-82746863D01*
X98108497Y-82736318D01*
X98121109Y-82726965D01*
X98134577Y-82718893D01*
X98148771Y-82712179D01*
X98163554Y-82706890D01*
X98178786Y-82703074D01*
X98194317Y-82700770D01*
X98210000Y-82700000D01*
X98790000Y-82700000D01*
X98805683Y-82700770D01*
X98805683Y-82700770D01*
G37*
D14*
X98500000Y-83100000D03*
D10*
G36*
X98805683Y-81100770D02*
X98821214Y-81103074D01*
X98836446Y-81106890D01*
X98851229Y-81112179D01*
X98865423Y-81118893D01*
X98878891Y-81126965D01*
X98891503Y-81136318D01*
X98903137Y-81146863D01*
X98913682Y-81158497D01*
X98923035Y-81171109D01*
X98931107Y-81184577D01*
X98937821Y-81198771D01*
X98943110Y-81213554D01*
X98946926Y-81228786D01*
X98949230Y-81244317D01*
X98950000Y-81260000D01*
X98950000Y-81740000D01*
X98949230Y-81755683D01*
X98946926Y-81771214D01*
X98943110Y-81786446D01*
X98937821Y-81801229D01*
X98931107Y-81815423D01*
X98923035Y-81828891D01*
X98913682Y-81841503D01*
X98903137Y-81853137D01*
X98891503Y-81863682D01*
X98878891Y-81873035D01*
X98865423Y-81881107D01*
X98851229Y-81887821D01*
X98836446Y-81893110D01*
X98821214Y-81896926D01*
X98805683Y-81899230D01*
X98790000Y-81900000D01*
X98210000Y-81900000D01*
X98194317Y-81899230D01*
X98178786Y-81896926D01*
X98163554Y-81893110D01*
X98148771Y-81887821D01*
X98134577Y-81881107D01*
X98121109Y-81873035D01*
X98108497Y-81863682D01*
X98096863Y-81853137D01*
X98086318Y-81841503D01*
X98076965Y-81828891D01*
X98068893Y-81815423D01*
X98062179Y-81801229D01*
X98056890Y-81786446D01*
X98053074Y-81771214D01*
X98050770Y-81755683D01*
X98050000Y-81740000D01*
X98050000Y-81260000D01*
X98050770Y-81244317D01*
X98053074Y-81228786D01*
X98056890Y-81213554D01*
X98062179Y-81198771D01*
X98068893Y-81184577D01*
X98076965Y-81171109D01*
X98086318Y-81158497D01*
X98096863Y-81146863D01*
X98108497Y-81136318D01*
X98121109Y-81126965D01*
X98134577Y-81118893D01*
X98148771Y-81112179D01*
X98163554Y-81106890D01*
X98178786Y-81103074D01*
X98194317Y-81100770D01*
X98210000Y-81100000D01*
X98790000Y-81100000D01*
X98805683Y-81100770D01*
X98805683Y-81100770D01*
G37*
D14*
X98500000Y-81500000D03*
D10*
G36*
X117855683Y-76150770D02*
X117871214Y-76153074D01*
X117886446Y-76156890D01*
X117901229Y-76162179D01*
X117915423Y-76168893D01*
X117928891Y-76176965D01*
X117941503Y-76186318D01*
X117953137Y-76196863D01*
X117963682Y-76208497D01*
X117973035Y-76221109D01*
X117981107Y-76234577D01*
X117987821Y-76248771D01*
X117993110Y-76263554D01*
X117996926Y-76278786D01*
X117999230Y-76294317D01*
X118000000Y-76310000D01*
X118000000Y-76890000D01*
X117999230Y-76905683D01*
X117996926Y-76921214D01*
X117993110Y-76936446D01*
X117987821Y-76951229D01*
X117981107Y-76965423D01*
X117973035Y-76978891D01*
X117963682Y-76991503D01*
X117953137Y-77003137D01*
X117941503Y-77013682D01*
X117928891Y-77023035D01*
X117915423Y-77031107D01*
X117901229Y-77037821D01*
X117886446Y-77043110D01*
X117871214Y-77046926D01*
X117855683Y-77049230D01*
X117840000Y-77050000D01*
X117360000Y-77050000D01*
X117344317Y-77049230D01*
X117328786Y-77046926D01*
X117313554Y-77043110D01*
X117298771Y-77037821D01*
X117284577Y-77031107D01*
X117271109Y-77023035D01*
X117258497Y-77013682D01*
X117246863Y-77003137D01*
X117236318Y-76991503D01*
X117226965Y-76978891D01*
X117218893Y-76965423D01*
X117212179Y-76951229D01*
X117206890Y-76936446D01*
X117203074Y-76921214D01*
X117200770Y-76905683D01*
X117200000Y-76890000D01*
X117200000Y-76310000D01*
X117200770Y-76294317D01*
X117203074Y-76278786D01*
X117206890Y-76263554D01*
X117212179Y-76248771D01*
X117218893Y-76234577D01*
X117226965Y-76221109D01*
X117236318Y-76208497D01*
X117246863Y-76196863D01*
X117258497Y-76186318D01*
X117271109Y-76176965D01*
X117284577Y-76168893D01*
X117298771Y-76162179D01*
X117313554Y-76156890D01*
X117328786Y-76153074D01*
X117344317Y-76150770D01*
X117360000Y-76150000D01*
X117840000Y-76150000D01*
X117855683Y-76150770D01*
X117855683Y-76150770D01*
G37*
D14*
X117600000Y-76600000D03*
D10*
G36*
X116255683Y-76150770D02*
X116271214Y-76153074D01*
X116286446Y-76156890D01*
X116301229Y-76162179D01*
X116315423Y-76168893D01*
X116328891Y-76176965D01*
X116341503Y-76186318D01*
X116353137Y-76196863D01*
X116363682Y-76208497D01*
X116373035Y-76221109D01*
X116381107Y-76234577D01*
X116387821Y-76248771D01*
X116393110Y-76263554D01*
X116396926Y-76278786D01*
X116399230Y-76294317D01*
X116400000Y-76310000D01*
X116400000Y-76890000D01*
X116399230Y-76905683D01*
X116396926Y-76921214D01*
X116393110Y-76936446D01*
X116387821Y-76951229D01*
X116381107Y-76965423D01*
X116373035Y-76978891D01*
X116363682Y-76991503D01*
X116353137Y-77003137D01*
X116341503Y-77013682D01*
X116328891Y-77023035D01*
X116315423Y-77031107D01*
X116301229Y-77037821D01*
X116286446Y-77043110D01*
X116271214Y-77046926D01*
X116255683Y-77049230D01*
X116240000Y-77050000D01*
X115760000Y-77050000D01*
X115744317Y-77049230D01*
X115728786Y-77046926D01*
X115713554Y-77043110D01*
X115698771Y-77037821D01*
X115684577Y-77031107D01*
X115671109Y-77023035D01*
X115658497Y-77013682D01*
X115646863Y-77003137D01*
X115636318Y-76991503D01*
X115626965Y-76978891D01*
X115618893Y-76965423D01*
X115612179Y-76951229D01*
X115606890Y-76936446D01*
X115603074Y-76921214D01*
X115600770Y-76905683D01*
X115600000Y-76890000D01*
X115600000Y-76310000D01*
X115600770Y-76294317D01*
X115603074Y-76278786D01*
X115606890Y-76263554D01*
X115612179Y-76248771D01*
X115618893Y-76234577D01*
X115626965Y-76221109D01*
X115636318Y-76208497D01*
X115646863Y-76196863D01*
X115658497Y-76186318D01*
X115671109Y-76176965D01*
X115684577Y-76168893D01*
X115698771Y-76162179D01*
X115713554Y-76156890D01*
X115728786Y-76153074D01*
X115744317Y-76150770D01*
X115760000Y-76150000D01*
X116240000Y-76150000D01*
X116255683Y-76150770D01*
X116255683Y-76150770D01*
G37*
D14*
X116000000Y-76600000D03*
D10*
G36*
X111883524Y-89601156D02*
X111906822Y-89604612D01*
X111929668Y-89610334D01*
X111951844Y-89618269D01*
X111973135Y-89628339D01*
X111993337Y-89640447D01*
X112012254Y-89654477D01*
X112029706Y-89670294D01*
X112045523Y-89687746D01*
X112059553Y-89706663D01*
X112071661Y-89726865D01*
X112081731Y-89748156D01*
X112089666Y-89770332D01*
X112095388Y-89793178D01*
X112098844Y-89816476D01*
X112100000Y-89840000D01*
X112100000Y-92160000D01*
X112098844Y-92183524D01*
X112095388Y-92206822D01*
X112089666Y-92229668D01*
X112081731Y-92251844D01*
X112071661Y-92273135D01*
X112059553Y-92293337D01*
X112045523Y-92312254D01*
X112029706Y-92329706D01*
X112012254Y-92345523D01*
X111993337Y-92359553D01*
X111973135Y-92371661D01*
X111951844Y-92381731D01*
X111929668Y-92389666D01*
X111906822Y-92395388D01*
X111883524Y-92398844D01*
X111860000Y-92400000D01*
X111140000Y-92400000D01*
X111116476Y-92398844D01*
X111093178Y-92395388D01*
X111070332Y-92389666D01*
X111048156Y-92381731D01*
X111026865Y-92371661D01*
X111006663Y-92359553D01*
X110987746Y-92345523D01*
X110970294Y-92329706D01*
X110954477Y-92312254D01*
X110940447Y-92293337D01*
X110928339Y-92273135D01*
X110918269Y-92251844D01*
X110910334Y-92229668D01*
X110904612Y-92206822D01*
X110901156Y-92183524D01*
X110900000Y-92160000D01*
X110900000Y-89840000D01*
X110901156Y-89816476D01*
X110904612Y-89793178D01*
X110910334Y-89770332D01*
X110918269Y-89748156D01*
X110928339Y-89726865D01*
X110940447Y-89706663D01*
X110954477Y-89687746D01*
X110970294Y-89670294D01*
X110987746Y-89654477D01*
X111006663Y-89640447D01*
X111026865Y-89628339D01*
X111048156Y-89618269D01*
X111070332Y-89610334D01*
X111093178Y-89604612D01*
X111116476Y-89601156D01*
X111140000Y-89600000D01*
X111860000Y-89600000D01*
X111883524Y-89601156D01*
X111883524Y-89601156D01*
G37*
D16*
X111500000Y-91000000D03*
D10*
G36*
X106883524Y-89601156D02*
X106906822Y-89604612D01*
X106929668Y-89610334D01*
X106951844Y-89618269D01*
X106973135Y-89628339D01*
X106993337Y-89640447D01*
X107012254Y-89654477D01*
X107029706Y-89670294D01*
X107045523Y-89687746D01*
X107059553Y-89706663D01*
X107071661Y-89726865D01*
X107081731Y-89748156D01*
X107089666Y-89770332D01*
X107095388Y-89793178D01*
X107098844Y-89816476D01*
X107100000Y-89840000D01*
X107100000Y-92160000D01*
X107098844Y-92183524D01*
X107095388Y-92206822D01*
X107089666Y-92229668D01*
X107081731Y-92251844D01*
X107071661Y-92273135D01*
X107059553Y-92293337D01*
X107045523Y-92312254D01*
X107029706Y-92329706D01*
X107012254Y-92345523D01*
X106993337Y-92359553D01*
X106973135Y-92371661D01*
X106951844Y-92381731D01*
X106929668Y-92389666D01*
X106906822Y-92395388D01*
X106883524Y-92398844D01*
X106860000Y-92400000D01*
X106140000Y-92400000D01*
X106116476Y-92398844D01*
X106093178Y-92395388D01*
X106070332Y-92389666D01*
X106048156Y-92381731D01*
X106026865Y-92371661D01*
X106006663Y-92359553D01*
X105987746Y-92345523D01*
X105970294Y-92329706D01*
X105954477Y-92312254D01*
X105940447Y-92293337D01*
X105928339Y-92273135D01*
X105918269Y-92251844D01*
X105910334Y-92229668D01*
X105904612Y-92206822D01*
X105901156Y-92183524D01*
X105900000Y-92160000D01*
X105900000Y-89840000D01*
X105901156Y-89816476D01*
X105904612Y-89793178D01*
X105910334Y-89770332D01*
X105918269Y-89748156D01*
X105928339Y-89726865D01*
X105940447Y-89706663D01*
X105954477Y-89687746D01*
X105970294Y-89670294D01*
X105987746Y-89654477D01*
X106006663Y-89640447D01*
X106026865Y-89628339D01*
X106048156Y-89618269D01*
X106070332Y-89610334D01*
X106093178Y-89604612D01*
X106116476Y-89601156D01*
X106140000Y-89600000D01*
X106860000Y-89600000D01*
X106883524Y-89601156D01*
X106883524Y-89601156D01*
G37*
D16*
X106500000Y-91000000D03*
D10*
G36*
X106883524Y-81601156D02*
X106906822Y-81604612D01*
X106929668Y-81610334D01*
X106951844Y-81618269D01*
X106973135Y-81628339D01*
X106993337Y-81640447D01*
X107012254Y-81654477D01*
X107029706Y-81670294D01*
X107045523Y-81687746D01*
X107059553Y-81706663D01*
X107071661Y-81726865D01*
X107081731Y-81748156D01*
X107089666Y-81770332D01*
X107095388Y-81793178D01*
X107098844Y-81816476D01*
X107100000Y-81840000D01*
X107100000Y-84160000D01*
X107098844Y-84183524D01*
X107095388Y-84206822D01*
X107089666Y-84229668D01*
X107081731Y-84251844D01*
X107071661Y-84273135D01*
X107059553Y-84293337D01*
X107045523Y-84312254D01*
X107029706Y-84329706D01*
X107012254Y-84345523D01*
X106993337Y-84359553D01*
X106973135Y-84371661D01*
X106951844Y-84381731D01*
X106929668Y-84389666D01*
X106906822Y-84395388D01*
X106883524Y-84398844D01*
X106860000Y-84400000D01*
X106140000Y-84400000D01*
X106116476Y-84398844D01*
X106093178Y-84395388D01*
X106070332Y-84389666D01*
X106048156Y-84381731D01*
X106026865Y-84371661D01*
X106006663Y-84359553D01*
X105987746Y-84345523D01*
X105970294Y-84329706D01*
X105954477Y-84312254D01*
X105940447Y-84293337D01*
X105928339Y-84273135D01*
X105918269Y-84251844D01*
X105910334Y-84229668D01*
X105904612Y-84206822D01*
X105901156Y-84183524D01*
X105900000Y-84160000D01*
X105900000Y-81840000D01*
X105901156Y-81816476D01*
X105904612Y-81793178D01*
X105910334Y-81770332D01*
X105918269Y-81748156D01*
X105928339Y-81726865D01*
X105940447Y-81706663D01*
X105954477Y-81687746D01*
X105970294Y-81670294D01*
X105987746Y-81654477D01*
X106006663Y-81640447D01*
X106026865Y-81628339D01*
X106048156Y-81618269D01*
X106070332Y-81610334D01*
X106093178Y-81604612D01*
X106116476Y-81601156D01*
X106140000Y-81600000D01*
X106860000Y-81600000D01*
X106883524Y-81601156D01*
X106883524Y-81601156D01*
G37*
D16*
X106500000Y-83000000D03*
D10*
G36*
X111883524Y-81601156D02*
X111906822Y-81604612D01*
X111929668Y-81610334D01*
X111951844Y-81618269D01*
X111973135Y-81628339D01*
X111993337Y-81640447D01*
X112012254Y-81654477D01*
X112029706Y-81670294D01*
X112045523Y-81687746D01*
X112059553Y-81706663D01*
X112071661Y-81726865D01*
X112081731Y-81748156D01*
X112089666Y-81770332D01*
X112095388Y-81793178D01*
X112098844Y-81816476D01*
X112100000Y-81840000D01*
X112100000Y-84160000D01*
X112098844Y-84183524D01*
X112095388Y-84206822D01*
X112089666Y-84229668D01*
X112081731Y-84251844D01*
X112071661Y-84273135D01*
X112059553Y-84293337D01*
X112045523Y-84312254D01*
X112029706Y-84329706D01*
X112012254Y-84345523D01*
X111993337Y-84359553D01*
X111973135Y-84371661D01*
X111951844Y-84381731D01*
X111929668Y-84389666D01*
X111906822Y-84395388D01*
X111883524Y-84398844D01*
X111860000Y-84400000D01*
X111140000Y-84400000D01*
X111116476Y-84398844D01*
X111093178Y-84395388D01*
X111070332Y-84389666D01*
X111048156Y-84381731D01*
X111026865Y-84371661D01*
X111006663Y-84359553D01*
X110987746Y-84345523D01*
X110970294Y-84329706D01*
X110954477Y-84312254D01*
X110940447Y-84293337D01*
X110928339Y-84273135D01*
X110918269Y-84251844D01*
X110910334Y-84229668D01*
X110904612Y-84206822D01*
X110901156Y-84183524D01*
X110900000Y-84160000D01*
X110900000Y-81840000D01*
X110901156Y-81816476D01*
X110904612Y-81793178D01*
X110910334Y-81770332D01*
X110918269Y-81748156D01*
X110928339Y-81726865D01*
X110940447Y-81706663D01*
X110954477Y-81687746D01*
X110970294Y-81670294D01*
X110987746Y-81654477D01*
X111006663Y-81640447D01*
X111026865Y-81628339D01*
X111048156Y-81618269D01*
X111070332Y-81610334D01*
X111093178Y-81604612D01*
X111116476Y-81601156D01*
X111140000Y-81600000D01*
X111860000Y-81600000D01*
X111883524Y-81601156D01*
X111883524Y-81601156D01*
G37*
D16*
X111500000Y-83000000D03*
D10*
G36*
X111883524Y-85601156D02*
X111906822Y-85604612D01*
X111929668Y-85610334D01*
X111951844Y-85618269D01*
X111973135Y-85628339D01*
X111993337Y-85640447D01*
X112012254Y-85654477D01*
X112029706Y-85670294D01*
X112045523Y-85687746D01*
X112059553Y-85706663D01*
X112071661Y-85726865D01*
X112081731Y-85748156D01*
X112089666Y-85770332D01*
X112095388Y-85793178D01*
X112098844Y-85816476D01*
X112100000Y-85840000D01*
X112100000Y-88160000D01*
X112098844Y-88183524D01*
X112095388Y-88206822D01*
X112089666Y-88229668D01*
X112081731Y-88251844D01*
X112071661Y-88273135D01*
X112059553Y-88293337D01*
X112045523Y-88312254D01*
X112029706Y-88329706D01*
X112012254Y-88345523D01*
X111993337Y-88359553D01*
X111973135Y-88371661D01*
X111951844Y-88381731D01*
X111929668Y-88389666D01*
X111906822Y-88395388D01*
X111883524Y-88398844D01*
X111860000Y-88400000D01*
X111140000Y-88400000D01*
X111116476Y-88398844D01*
X111093178Y-88395388D01*
X111070332Y-88389666D01*
X111048156Y-88381731D01*
X111026865Y-88371661D01*
X111006663Y-88359553D01*
X110987746Y-88345523D01*
X110970294Y-88329706D01*
X110954477Y-88312254D01*
X110940447Y-88293337D01*
X110928339Y-88273135D01*
X110918269Y-88251844D01*
X110910334Y-88229668D01*
X110904612Y-88206822D01*
X110901156Y-88183524D01*
X110900000Y-88160000D01*
X110900000Y-85840000D01*
X110901156Y-85816476D01*
X110904612Y-85793178D01*
X110910334Y-85770332D01*
X110918269Y-85748156D01*
X110928339Y-85726865D01*
X110940447Y-85706663D01*
X110954477Y-85687746D01*
X110970294Y-85670294D01*
X110987746Y-85654477D01*
X111006663Y-85640447D01*
X111026865Y-85628339D01*
X111048156Y-85618269D01*
X111070332Y-85610334D01*
X111093178Y-85604612D01*
X111116476Y-85601156D01*
X111140000Y-85600000D01*
X111860000Y-85600000D01*
X111883524Y-85601156D01*
X111883524Y-85601156D01*
G37*
D16*
X111500000Y-87000000D03*
D10*
G36*
X106883524Y-85601156D02*
X106906822Y-85604612D01*
X106929668Y-85610334D01*
X106951844Y-85618269D01*
X106973135Y-85628339D01*
X106993337Y-85640447D01*
X107012254Y-85654477D01*
X107029706Y-85670294D01*
X107045523Y-85687746D01*
X107059553Y-85706663D01*
X107071661Y-85726865D01*
X107081731Y-85748156D01*
X107089666Y-85770332D01*
X107095388Y-85793178D01*
X107098844Y-85816476D01*
X107100000Y-85840000D01*
X107100000Y-88160000D01*
X107098844Y-88183524D01*
X107095388Y-88206822D01*
X107089666Y-88229668D01*
X107081731Y-88251844D01*
X107071661Y-88273135D01*
X107059553Y-88293337D01*
X107045523Y-88312254D01*
X107029706Y-88329706D01*
X107012254Y-88345523D01*
X106993337Y-88359553D01*
X106973135Y-88371661D01*
X106951844Y-88381731D01*
X106929668Y-88389666D01*
X106906822Y-88395388D01*
X106883524Y-88398844D01*
X106860000Y-88400000D01*
X106140000Y-88400000D01*
X106116476Y-88398844D01*
X106093178Y-88395388D01*
X106070332Y-88389666D01*
X106048156Y-88381731D01*
X106026865Y-88371661D01*
X106006663Y-88359553D01*
X105987746Y-88345523D01*
X105970294Y-88329706D01*
X105954477Y-88312254D01*
X105940447Y-88293337D01*
X105928339Y-88273135D01*
X105918269Y-88251844D01*
X105910334Y-88229668D01*
X105904612Y-88206822D01*
X105901156Y-88183524D01*
X105900000Y-88160000D01*
X105900000Y-85840000D01*
X105901156Y-85816476D01*
X105904612Y-85793178D01*
X105910334Y-85770332D01*
X105918269Y-85748156D01*
X105928339Y-85726865D01*
X105940447Y-85706663D01*
X105954477Y-85687746D01*
X105970294Y-85670294D01*
X105987746Y-85654477D01*
X106006663Y-85640447D01*
X106026865Y-85628339D01*
X106048156Y-85618269D01*
X106070332Y-85610334D01*
X106093178Y-85604612D01*
X106116476Y-85601156D01*
X106140000Y-85600000D01*
X106860000Y-85600000D01*
X106883524Y-85601156D01*
X106883524Y-85601156D01*
G37*
D16*
X106500000Y-87000000D03*
D10*
G36*
X104887643Y-78200867D02*
X104905116Y-78203459D01*
X104922251Y-78207751D01*
X104938883Y-78213702D01*
X104954851Y-78221254D01*
X104970003Y-78230335D01*
X104984191Y-78240858D01*
X104997279Y-78252721D01*
X105009142Y-78265809D01*
X105019665Y-78279997D01*
X105028746Y-78295149D01*
X105036298Y-78311117D01*
X105042249Y-78327749D01*
X105046541Y-78344884D01*
X105049133Y-78362357D01*
X105050000Y-78380000D01*
X105050000Y-78920000D01*
X105049133Y-78937643D01*
X105046541Y-78955116D01*
X105042249Y-78972251D01*
X105036298Y-78988883D01*
X105028746Y-79004851D01*
X105019665Y-79020003D01*
X105009142Y-79034191D01*
X104997279Y-79047279D01*
X104984191Y-79059142D01*
X104970003Y-79069665D01*
X104954851Y-79078746D01*
X104938883Y-79086298D01*
X104922251Y-79092249D01*
X104905116Y-79096541D01*
X104887643Y-79099133D01*
X104870000Y-79100000D01*
X104230000Y-79100000D01*
X104212357Y-79099133D01*
X104194884Y-79096541D01*
X104177749Y-79092249D01*
X104161117Y-79086298D01*
X104145149Y-79078746D01*
X104129997Y-79069665D01*
X104115809Y-79059142D01*
X104102721Y-79047279D01*
X104090858Y-79034191D01*
X104080335Y-79020003D01*
X104071254Y-79004851D01*
X104063702Y-78988883D01*
X104057751Y-78972251D01*
X104053459Y-78955116D01*
X104050867Y-78937643D01*
X104050000Y-78920000D01*
X104050000Y-78380000D01*
X104050867Y-78362357D01*
X104053459Y-78344884D01*
X104057751Y-78327749D01*
X104063702Y-78311117D01*
X104071254Y-78295149D01*
X104080335Y-78279997D01*
X104090858Y-78265809D01*
X104102721Y-78252721D01*
X104115809Y-78240858D01*
X104129997Y-78230335D01*
X104145149Y-78221254D01*
X104161117Y-78213702D01*
X104177749Y-78207751D01*
X104194884Y-78203459D01*
X104212357Y-78200867D01*
X104230000Y-78200000D01*
X104870000Y-78200000D01*
X104887643Y-78200867D01*
X104887643Y-78200867D01*
G37*
D17*
X104550000Y-78650000D03*
D10*
G36*
X104887643Y-80100867D02*
X104905116Y-80103459D01*
X104922251Y-80107751D01*
X104938883Y-80113702D01*
X104954851Y-80121254D01*
X104970003Y-80130335D01*
X104984191Y-80140858D01*
X104997279Y-80152721D01*
X105009142Y-80165809D01*
X105019665Y-80179997D01*
X105028746Y-80195149D01*
X105036298Y-80211117D01*
X105042249Y-80227749D01*
X105046541Y-80244884D01*
X105049133Y-80262357D01*
X105050000Y-80280000D01*
X105050000Y-80820000D01*
X105049133Y-80837643D01*
X105046541Y-80855116D01*
X105042249Y-80872251D01*
X105036298Y-80888883D01*
X105028746Y-80904851D01*
X105019665Y-80920003D01*
X105009142Y-80934191D01*
X104997279Y-80947279D01*
X104984191Y-80959142D01*
X104970003Y-80969665D01*
X104954851Y-80978746D01*
X104938883Y-80986298D01*
X104922251Y-80992249D01*
X104905116Y-80996541D01*
X104887643Y-80999133D01*
X104870000Y-81000000D01*
X104230000Y-81000000D01*
X104212357Y-80999133D01*
X104194884Y-80996541D01*
X104177749Y-80992249D01*
X104161117Y-80986298D01*
X104145149Y-80978746D01*
X104129997Y-80969665D01*
X104115809Y-80959142D01*
X104102721Y-80947279D01*
X104090858Y-80934191D01*
X104080335Y-80920003D01*
X104071254Y-80904851D01*
X104063702Y-80888883D01*
X104057751Y-80872251D01*
X104053459Y-80855116D01*
X104050867Y-80837643D01*
X104050000Y-80820000D01*
X104050000Y-80280000D01*
X104050867Y-80262357D01*
X104053459Y-80244884D01*
X104057751Y-80227749D01*
X104063702Y-80211117D01*
X104071254Y-80195149D01*
X104080335Y-80179997D01*
X104090858Y-80165809D01*
X104102721Y-80152721D01*
X104115809Y-80140858D01*
X104129997Y-80130335D01*
X104145149Y-80121254D01*
X104161117Y-80113702D01*
X104177749Y-80107751D01*
X104194884Y-80103459D01*
X104212357Y-80100867D01*
X104230000Y-80100000D01*
X104870000Y-80100000D01*
X104887643Y-80100867D01*
X104887643Y-80100867D01*
G37*
D17*
X104550000Y-80550000D03*
D10*
G36*
X106987643Y-79150867D02*
X107005116Y-79153459D01*
X107022251Y-79157751D01*
X107038883Y-79163702D01*
X107054851Y-79171254D01*
X107070003Y-79180335D01*
X107084191Y-79190858D01*
X107097279Y-79202721D01*
X107109142Y-79215809D01*
X107119665Y-79229997D01*
X107128746Y-79245149D01*
X107136298Y-79261117D01*
X107142249Y-79277749D01*
X107146541Y-79294884D01*
X107149133Y-79312357D01*
X107150000Y-79330000D01*
X107150000Y-79870000D01*
X107149133Y-79887643D01*
X107146541Y-79905116D01*
X107142249Y-79922251D01*
X107136298Y-79938883D01*
X107128746Y-79954851D01*
X107119665Y-79970003D01*
X107109142Y-79984191D01*
X107097279Y-79997279D01*
X107084191Y-80009142D01*
X107070003Y-80019665D01*
X107054851Y-80028746D01*
X107038883Y-80036298D01*
X107022251Y-80042249D01*
X107005116Y-80046541D01*
X106987643Y-80049133D01*
X106970000Y-80050000D01*
X106330000Y-80050000D01*
X106312357Y-80049133D01*
X106294884Y-80046541D01*
X106277749Y-80042249D01*
X106261117Y-80036298D01*
X106245149Y-80028746D01*
X106229997Y-80019665D01*
X106215809Y-80009142D01*
X106202721Y-79997279D01*
X106190858Y-79984191D01*
X106180335Y-79970003D01*
X106171254Y-79954851D01*
X106163702Y-79938883D01*
X106157751Y-79922251D01*
X106153459Y-79905116D01*
X106150867Y-79887643D01*
X106150000Y-79870000D01*
X106150000Y-79330000D01*
X106150867Y-79312357D01*
X106153459Y-79294884D01*
X106157751Y-79277749D01*
X106163702Y-79261117D01*
X106171254Y-79245149D01*
X106180335Y-79229997D01*
X106190858Y-79215809D01*
X106202721Y-79202721D01*
X106215809Y-79190858D01*
X106229997Y-79180335D01*
X106245149Y-79171254D01*
X106261117Y-79163702D01*
X106277749Y-79157751D01*
X106294884Y-79153459D01*
X106312357Y-79150867D01*
X106330000Y-79150000D01*
X106970000Y-79150000D01*
X106987643Y-79150867D01*
X106987643Y-79150867D01*
G37*
D17*
X106650000Y-79600000D03*
D18*
X165565000Y-103565000D03*
X170000000Y-103565000D03*
X174435000Y-103565000D03*
X174435000Y-108000000D03*
X170000000Y-108000000D03*
X165565000Y-108000000D03*
X165565000Y-112435000D03*
X170000000Y-112435000D03*
X174435000Y-112435000D03*
X175435000Y-74435000D03*
X171000000Y-74435000D03*
X166565000Y-74435000D03*
X166565000Y-70000000D03*
X171000000Y-70000000D03*
X175435000Y-70000000D03*
X175435000Y-65565000D03*
X171000000Y-65565000D03*
X166565000Y-65565000D03*
X128065000Y-84315000D03*
X132500000Y-84315000D03*
X136935000Y-84315000D03*
X136935000Y-88750000D03*
X132500000Y-88750000D03*
X128065000Y-88750000D03*
X128065000Y-93185000D03*
X132500000Y-93185000D03*
X136935000Y-93185000D03*
X136935000Y-111935000D03*
X132500000Y-111935000D03*
X128065000Y-111935000D03*
X128065000Y-107500000D03*
X132500000Y-107500000D03*
X136935000Y-107500000D03*
X136935000Y-103065000D03*
X132500000Y-103065000D03*
X128065000Y-103065000D03*
X128065000Y-65565000D03*
X132500000Y-65565000D03*
X136935000Y-65565000D03*
X136935000Y-70000000D03*
X132500000Y-70000000D03*
X128065000Y-70000000D03*
X128065000Y-74435000D03*
X132500000Y-74435000D03*
X136935000Y-74435000D03*
D19*
X120095000Y-76125000D03*
D20*
X122000000Y-79300000D03*
D21*
X122000000Y-81600000D03*
D19*
X121365000Y-76125000D03*
X123905000Y-76125000D03*
X122635000Y-76125000D03*
X121365000Y-100575000D03*
X120095000Y-100575000D03*
X122635000Y-100575000D03*
D21*
X122000000Y-95100000D03*
D20*
X122000000Y-97400000D03*
D19*
X123905000Y-100575000D03*
X142095000Y-76125000D03*
D20*
X144000000Y-79300000D03*
D21*
X144000000Y-81600000D03*
D19*
X143365000Y-76125000D03*
X145905000Y-76125000D03*
X144635000Y-76125000D03*
X145905000Y-100575000D03*
D20*
X144000000Y-97400000D03*
D21*
X144000000Y-95100000D03*
D19*
X144635000Y-100575000D03*
X142095000Y-100575000D03*
X143365000Y-100575000D03*
D22*
X185250000Y-70500000D03*
X185250000Y-107000000D03*
X107750000Y-107000000D03*
D23*
X169000000Y-90950000D03*
X169000000Y-86550000D03*
X163000000Y-90950000D03*
X163000000Y-86550000D03*
X175000000Y-90950000D03*
X175000000Y-86550000D03*
X181000000Y-90950000D03*
X181000000Y-86550000D03*
D22*
X107750000Y-70500000D03*
M02*
