G04 #@! TF.GenerationSoftware,KiCad,Pcbnew,(2017-05-10 revision 747583606)-makepkg*
G04 #@! TF.CreationDate,2017-05-29T23:11:27+02:00*
G04 #@! TF.ProjectId,Switch-N-Sense,5377697463682D4E2D53656E73652E6B,rev?*
G04 #@! TF.FileFunction,Legend,Top*
G04 #@! TF.FilePolarity,Positive*
%FSLAX46Y46*%
G04 Gerber Fmt 4.6, Leading zero omitted, Abs format (unit mm)*
G04 Created by KiCad (PCBNEW (2017-05-10 revision 747583606)-makepkg) date 05/29/17 23:11:27*
%MOMM*%
%LPD*%
G01*
G04 APERTURE LIST*
%ADD10C,0.100000*%
%ADD11C,0.150000*%
%ADD12C,0.200000*%
%ADD13C,0.300000*%
%ADD14C,0.120000*%
%ADD15C,0.010000*%
G04 APERTURE END LIST*
D10*
D11*
X188452380Y-99142857D02*
X187452380Y-99142857D01*
X188166666Y-98809523D01*
X187452380Y-98476190D01*
X188452380Y-98476190D01*
X188452380Y-97571428D02*
X187928571Y-97571428D01*
X187833333Y-97619047D01*
X187785714Y-97714285D01*
X187785714Y-97904761D01*
X187833333Y-98000000D01*
X188404761Y-97571428D02*
X188452380Y-97666666D01*
X188452380Y-97904761D01*
X188404761Y-98000000D01*
X188309523Y-98047619D01*
X188214285Y-98047619D01*
X188119047Y-98000000D01*
X188071428Y-97904761D01*
X188071428Y-97666666D01*
X188023809Y-97571428D01*
X188452380Y-96666666D02*
X187452380Y-96666666D01*
X188404761Y-96666666D02*
X188452380Y-96761904D01*
X188452380Y-96952380D01*
X188404761Y-97047619D01*
X188357142Y-97095238D01*
X188261904Y-97142857D01*
X187976190Y-97142857D01*
X187880952Y-97095238D01*
X187833333Y-97047619D01*
X187785714Y-96952380D01*
X187785714Y-96761904D01*
X187833333Y-96666666D01*
X188404761Y-95809523D02*
X188452380Y-95904761D01*
X188452380Y-96095238D01*
X188404761Y-96190476D01*
X188309523Y-96238095D01*
X187928571Y-96238095D01*
X187833333Y-96190476D01*
X187785714Y-96095238D01*
X187785714Y-95904761D01*
X187833333Y-95809523D01*
X187928571Y-95761904D01*
X188023809Y-95761904D01*
X188119047Y-96238095D01*
X188452380Y-94571428D02*
X187785714Y-94571428D01*
X187452380Y-94571428D02*
X187500000Y-94619047D01*
X187547619Y-94571428D01*
X187500000Y-94523809D01*
X187452380Y-94571428D01*
X187547619Y-94571428D01*
X187785714Y-94095238D02*
X188452380Y-94095238D01*
X187880952Y-94095238D02*
X187833333Y-94047619D01*
X187785714Y-93952380D01*
X187785714Y-93809523D01*
X187833333Y-93714285D01*
X187928571Y-93666666D01*
X188452380Y-93666666D01*
X187928571Y-92095238D02*
X187928571Y-92428571D01*
X188452380Y-92428571D02*
X187452380Y-92428571D01*
X187452380Y-91952380D01*
X188452380Y-91142857D02*
X187928571Y-91142857D01*
X187833333Y-91190476D01*
X187785714Y-91285714D01*
X187785714Y-91476190D01*
X187833333Y-91571428D01*
X188404761Y-91142857D02*
X188452380Y-91238095D01*
X188452380Y-91476190D01*
X188404761Y-91571428D01*
X188309523Y-91619047D01*
X188214285Y-91619047D01*
X188119047Y-91571428D01*
X188071428Y-91476190D01*
X188071428Y-91238095D01*
X188023809Y-91142857D01*
X188452380Y-90666666D02*
X187452380Y-90666666D01*
X187833333Y-90666666D02*
X187785714Y-90571428D01*
X187785714Y-90380952D01*
X187833333Y-90285714D01*
X187880952Y-90238095D01*
X187976190Y-90190476D01*
X188261904Y-90190476D01*
X188357142Y-90238095D01*
X188404761Y-90285714D01*
X188452380Y-90380952D01*
X188452380Y-90571428D01*
X188404761Y-90666666D01*
X187785714Y-89333333D02*
X188452380Y-89333333D01*
X187785714Y-89761904D02*
X188309523Y-89761904D01*
X188404761Y-89714285D01*
X188452380Y-89619047D01*
X188452380Y-89476190D01*
X188404761Y-89380952D01*
X188357142Y-89333333D01*
X188452380Y-88714285D02*
X188404761Y-88809523D01*
X188309523Y-88857142D01*
X187452380Y-88857142D01*
X188452380Y-88190476D02*
X188404761Y-88285714D01*
X188357142Y-88333333D01*
X188261904Y-88380952D01*
X187976190Y-88380952D01*
X187880952Y-88333333D01*
X187833333Y-88285714D01*
X187785714Y-88190476D01*
X187785714Y-88047619D01*
X187833333Y-87952380D01*
X187880952Y-87904761D01*
X187976190Y-87857142D01*
X188261904Y-87857142D01*
X188357142Y-87904761D01*
X188404761Y-87952380D01*
X188452380Y-88047619D01*
X188452380Y-88190476D01*
X187785714Y-87000000D02*
X188452380Y-87000000D01*
X187785714Y-87428571D02*
X188309523Y-87428571D01*
X188404761Y-87380952D01*
X188452380Y-87285714D01*
X188452380Y-87142857D01*
X188404761Y-87047619D01*
X188357142Y-87000000D01*
X188404761Y-86571428D02*
X188452380Y-86476190D01*
X188452380Y-86285714D01*
X188404761Y-86190476D01*
X188309523Y-86142857D01*
X188261904Y-86142857D01*
X188166666Y-86190476D01*
X188119047Y-86285714D01*
X188119047Y-86428571D01*
X188071428Y-86523809D01*
X187976190Y-86571428D01*
X187928571Y-86571428D01*
X187833333Y-86523809D01*
X187785714Y-86428571D01*
X187785714Y-86285714D01*
X187833333Y-86190476D01*
X188404761Y-85000000D02*
X188452380Y-84857142D01*
X188452380Y-84619047D01*
X188404761Y-84523809D01*
X188357142Y-84476190D01*
X188261904Y-84428571D01*
X188166666Y-84428571D01*
X188071428Y-84476190D01*
X188023809Y-84523809D01*
X187976190Y-84619047D01*
X187928571Y-84809523D01*
X187880952Y-84904761D01*
X187833333Y-84952380D01*
X187738095Y-85000000D01*
X187642857Y-85000000D01*
X187547619Y-84952380D01*
X187500000Y-84904761D01*
X187452380Y-84809523D01*
X187452380Y-84571428D01*
X187500000Y-84428571D01*
X187785714Y-84142857D02*
X187785714Y-83761904D01*
X187452380Y-84000000D02*
X188309523Y-84000000D01*
X188404761Y-83952380D01*
X188452380Y-83857142D01*
X188452380Y-83761904D01*
X188357142Y-83428571D02*
X188404761Y-83380952D01*
X188452380Y-83428571D01*
X188404761Y-83476190D01*
X188357142Y-83428571D01*
X188452380Y-83428571D01*
X188452380Y-82190476D02*
X187452380Y-82190476D01*
X187452380Y-81809523D01*
X187500000Y-81714285D01*
X187547619Y-81666666D01*
X187642857Y-81619047D01*
X187785714Y-81619047D01*
X187880952Y-81666666D01*
X187928571Y-81714285D01*
X187976190Y-81809523D01*
X187976190Y-82190476D01*
X188452380Y-80761904D02*
X187928571Y-80761904D01*
X187833333Y-80809523D01*
X187785714Y-80904761D01*
X187785714Y-81095238D01*
X187833333Y-81190476D01*
X188404761Y-80761904D02*
X188452380Y-80857142D01*
X188452380Y-81095238D01*
X188404761Y-81190476D01*
X188309523Y-81238095D01*
X188214285Y-81238095D01*
X188119047Y-81190476D01*
X188071428Y-81095238D01*
X188071428Y-80857142D01*
X188023809Y-80761904D01*
X187785714Y-79857142D02*
X188452380Y-79857142D01*
X187785714Y-80285714D02*
X188309523Y-80285714D01*
X188404761Y-80238095D01*
X188452380Y-80142857D01*
X188452380Y-80000000D01*
X188404761Y-79904761D01*
X188357142Y-79857142D01*
X188452380Y-79238095D02*
X188404761Y-79333333D01*
X188309523Y-79380952D01*
X187452380Y-79380952D01*
X188452380Y-78857142D02*
X187785714Y-78857142D01*
X187452380Y-78857142D02*
X187500000Y-78904761D01*
X187547619Y-78857142D01*
X187500000Y-78809523D01*
X187452380Y-78857142D01*
X187547619Y-78857142D01*
X176847619Y-114752380D02*
X177180952Y-115752380D01*
X177514285Y-114752380D01*
X178038095Y-114752380D02*
X178133333Y-114752380D01*
X178228571Y-114800000D01*
X178276190Y-114847619D01*
X178323809Y-114942857D01*
X178371428Y-115133333D01*
X178371428Y-115371428D01*
X178323809Y-115561904D01*
X178276190Y-115657142D01*
X178228571Y-115704761D01*
X178133333Y-115752380D01*
X178038095Y-115752380D01*
X177942857Y-115704761D01*
X177895238Y-115657142D01*
X177847619Y-115561904D01*
X177800000Y-115371428D01*
X177800000Y-115133333D01*
X177847619Y-114942857D01*
X177895238Y-114847619D01*
X177942857Y-114800000D01*
X178038095Y-114752380D01*
X178800000Y-115657142D02*
X178847619Y-115704761D01*
X178800000Y-115752380D01*
X178752380Y-115704761D01*
X178800000Y-115657142D01*
X178800000Y-115752380D01*
X179228571Y-114847619D02*
X179276190Y-114800000D01*
X179371428Y-114752380D01*
X179609523Y-114752380D01*
X179704761Y-114800000D01*
X179752380Y-114847619D01*
X179800000Y-114942857D01*
X179800000Y-115038095D01*
X179752380Y-115180952D01*
X179180952Y-115752380D01*
X179800000Y-115752380D01*
X181276190Y-116133333D02*
X181228571Y-116085714D01*
X181133333Y-115942857D01*
X181085714Y-115847619D01*
X181038095Y-115704761D01*
X180990476Y-115466666D01*
X180990476Y-115276190D01*
X181038095Y-115038095D01*
X181085714Y-114895238D01*
X181133333Y-114800000D01*
X181228571Y-114657142D01*
X181276190Y-114609523D01*
X181847619Y-114752380D02*
X181942857Y-114752380D01*
X182038095Y-114800000D01*
X182085714Y-114847619D01*
X182133333Y-114942857D01*
X182180952Y-115133333D01*
X182180952Y-115371428D01*
X182133333Y-115561904D01*
X182085714Y-115657142D01*
X182038095Y-115704761D01*
X181942857Y-115752380D01*
X181847619Y-115752380D01*
X181752380Y-115704761D01*
X181704761Y-115657142D01*
X181657142Y-115561904D01*
X181609523Y-115371428D01*
X181609523Y-115133333D01*
X181657142Y-114942857D01*
X181704761Y-114847619D01*
X181752380Y-114800000D01*
X181847619Y-114752380D01*
X183085714Y-114752380D02*
X182609523Y-114752380D01*
X182561904Y-115228571D01*
X182609523Y-115180952D01*
X182704761Y-115133333D01*
X182942857Y-115133333D01*
X183038095Y-115180952D01*
X183085714Y-115228571D01*
X183133333Y-115323809D01*
X183133333Y-115561904D01*
X183085714Y-115657142D01*
X183038095Y-115704761D01*
X182942857Y-115752380D01*
X182704761Y-115752380D01*
X182609523Y-115704761D01*
X182561904Y-115657142D01*
X184276190Y-114704761D02*
X183419047Y-115990476D01*
X184561904Y-114847619D02*
X184609523Y-114800000D01*
X184704761Y-114752380D01*
X184942857Y-114752380D01*
X185038095Y-114800000D01*
X185085714Y-114847619D01*
X185133333Y-114942857D01*
X185133333Y-115038095D01*
X185085714Y-115180952D01*
X184514285Y-115752380D01*
X185133333Y-115752380D01*
X185752380Y-114752380D02*
X185847619Y-114752380D01*
X185942857Y-114800000D01*
X185990476Y-114847619D01*
X186038095Y-114942857D01*
X186085714Y-115133333D01*
X186085714Y-115371428D01*
X186038095Y-115561904D01*
X185990476Y-115657142D01*
X185942857Y-115704761D01*
X185847619Y-115752380D01*
X185752380Y-115752380D01*
X185657142Y-115704761D01*
X185609523Y-115657142D01*
X185561904Y-115561904D01*
X185514285Y-115371428D01*
X185514285Y-115133333D01*
X185561904Y-114942857D01*
X185609523Y-114847619D01*
X185657142Y-114800000D01*
X185752380Y-114752380D01*
X187038095Y-115752380D02*
X186466666Y-115752380D01*
X186752380Y-115752380D02*
X186752380Y-114752380D01*
X186657142Y-114895238D01*
X186561904Y-114990476D01*
X186466666Y-115038095D01*
X187371428Y-114752380D02*
X188038095Y-114752380D01*
X187609523Y-115752380D01*
X188323809Y-116133333D02*
X188371428Y-116085714D01*
X188466666Y-115942857D01*
X188514285Y-115847619D01*
X188561904Y-115704761D01*
X188609523Y-115466666D01*
X188609523Y-115276190D01*
X188561904Y-115038095D01*
X188514285Y-114895238D01*
X188466666Y-114800000D01*
X188371428Y-114657142D01*
X188323809Y-114609523D01*
X102535595Y-115452380D02*
X102535595Y-114452380D01*
X102868928Y-115166666D01*
X103202261Y-114452380D01*
X103202261Y-115452380D01*
X104107023Y-115452380D02*
X104107023Y-114928571D01*
X104059404Y-114833333D01*
X103964166Y-114785714D01*
X103773690Y-114785714D01*
X103678452Y-114833333D01*
X104107023Y-115404761D02*
X104011785Y-115452380D01*
X103773690Y-115452380D01*
X103678452Y-115404761D01*
X103630833Y-115309523D01*
X103630833Y-115214285D01*
X103678452Y-115119047D01*
X103773690Y-115071428D01*
X104011785Y-115071428D01*
X104107023Y-115023809D01*
X104583214Y-115452380D02*
X104583214Y-114785714D01*
X104583214Y-114976190D02*
X104630833Y-114880952D01*
X104678452Y-114833333D01*
X104773690Y-114785714D01*
X104868928Y-114785714D01*
X105059404Y-114785714D02*
X105440357Y-114785714D01*
X105202261Y-114452380D02*
X105202261Y-115309523D01*
X105249880Y-115404761D01*
X105345119Y-115452380D01*
X105440357Y-115452380D01*
X105773690Y-115452380D02*
X105773690Y-114785714D01*
X105773690Y-114452380D02*
X105726071Y-114500000D01*
X105773690Y-114547619D01*
X105821309Y-114500000D01*
X105773690Y-114452380D01*
X105773690Y-114547619D01*
X106249880Y-114785714D02*
X106249880Y-115452380D01*
X106249880Y-114880952D02*
X106297500Y-114833333D01*
X106392738Y-114785714D01*
X106535595Y-114785714D01*
X106630833Y-114833333D01*
X106678452Y-114928571D01*
X106678452Y-115452380D01*
X108202261Y-114452380D02*
X108202261Y-115166666D01*
X108154642Y-115309523D01*
X108059404Y-115404761D01*
X107916547Y-115452380D01*
X107821309Y-115452380D01*
X109107023Y-115452380D02*
X109107023Y-114928571D01*
X109059404Y-114833333D01*
X108964166Y-114785714D01*
X108773690Y-114785714D01*
X108678452Y-114833333D01*
X109107023Y-115404761D02*
X109011785Y-115452380D01*
X108773690Y-115452380D01*
X108678452Y-115404761D01*
X108630833Y-115309523D01*
X108630833Y-115214285D01*
X108678452Y-115119047D01*
X108773690Y-115071428D01*
X109011785Y-115071428D01*
X109107023Y-115023809D01*
X108678452Y-114452380D02*
X108726071Y-114500000D01*
X108678452Y-114547619D01*
X108630833Y-114500000D01*
X108678452Y-114452380D01*
X108678452Y-114547619D01*
X109059404Y-114452380D02*
X109107023Y-114500000D01*
X109059404Y-114547619D01*
X109011785Y-114500000D01*
X109059404Y-114452380D01*
X109059404Y-114547619D01*
X110011785Y-114785714D02*
X110011785Y-115595238D01*
X109964166Y-115690476D01*
X109916547Y-115738095D01*
X109821309Y-115785714D01*
X109678452Y-115785714D01*
X109583214Y-115738095D01*
X110011785Y-115404761D02*
X109916547Y-115452380D01*
X109726071Y-115452380D01*
X109630833Y-115404761D01*
X109583214Y-115357142D01*
X109535595Y-115261904D01*
X109535595Y-114976190D01*
X109583214Y-114880952D01*
X109630833Y-114833333D01*
X109726071Y-114785714D01*
X109916547Y-114785714D01*
X110011785Y-114833333D01*
X110868928Y-115404761D02*
X110773690Y-115452380D01*
X110583214Y-115452380D01*
X110487976Y-115404761D01*
X110440357Y-115309523D01*
X110440357Y-114928571D01*
X110487976Y-114833333D01*
X110583214Y-114785714D01*
X110773690Y-114785714D01*
X110868928Y-114833333D01*
X110916547Y-114928571D01*
X110916547Y-115023809D01*
X110440357Y-115119047D01*
X111345119Y-115452380D02*
X111345119Y-114785714D01*
X111345119Y-114976190D02*
X111392738Y-114880952D01*
X111440357Y-114833333D01*
X111535595Y-114785714D01*
X111630833Y-114785714D01*
X112011785Y-115404761D02*
X112011785Y-115452380D01*
X111964166Y-115547619D01*
X111916547Y-115595238D01*
X113202261Y-115452380D02*
X113202261Y-114452380D01*
X113630833Y-115452380D02*
X113630833Y-114928571D01*
X113583214Y-114833333D01*
X113487976Y-114785714D01*
X113345119Y-114785714D01*
X113249880Y-114833333D01*
X113202261Y-114880952D01*
X113964166Y-114785714D02*
X114345119Y-114785714D01*
X114107023Y-114452380D02*
X114107023Y-115309523D01*
X114154642Y-115404761D01*
X114249880Y-115452380D01*
X114345119Y-115452380D01*
X114535595Y-114785714D02*
X114916547Y-114785714D01*
X114678452Y-114452380D02*
X114678452Y-115309523D01*
X114726071Y-115404761D01*
X114821309Y-115452380D01*
X114916547Y-115452380D01*
X115249880Y-114785714D02*
X115249880Y-115785714D01*
X115249880Y-114833333D02*
X115345119Y-114785714D01*
X115535595Y-114785714D01*
X115630833Y-114833333D01*
X115678452Y-114880952D01*
X115726071Y-114976190D01*
X115726071Y-115261904D01*
X115678452Y-115357142D01*
X115630833Y-115404761D01*
X115535595Y-115452380D01*
X115345119Y-115452380D01*
X115249880Y-115404761D01*
X116154642Y-115357142D02*
X116202261Y-115404761D01*
X116154642Y-115452380D01*
X116107023Y-115404761D01*
X116154642Y-115357142D01*
X116154642Y-115452380D01*
X116154642Y-114833333D02*
X116202261Y-114880952D01*
X116154642Y-114928571D01*
X116107023Y-114880952D01*
X116154642Y-114833333D01*
X116154642Y-114928571D01*
X117345119Y-114404761D02*
X116487976Y-115690476D01*
X118392738Y-114404761D02*
X117535595Y-115690476D01*
X118868928Y-115452380D02*
X118773690Y-115404761D01*
X118726071Y-115309523D01*
X118726071Y-114452380D01*
X119249880Y-115452380D02*
X119249880Y-114785714D01*
X119249880Y-114452380D02*
X119202261Y-114500000D01*
X119249880Y-114547619D01*
X119297500Y-114500000D01*
X119249880Y-114452380D01*
X119249880Y-114547619D01*
X119726071Y-115452380D02*
X119726071Y-114452380D01*
X119726071Y-114833333D02*
X119821309Y-114785714D01*
X120011785Y-114785714D01*
X120107023Y-114833333D01*
X120154642Y-114880952D01*
X120202261Y-114976190D01*
X120202261Y-115261904D01*
X120154642Y-115357142D01*
X120107023Y-115404761D01*
X120011785Y-115452380D01*
X119821309Y-115452380D01*
X119726071Y-115404761D01*
X120630833Y-115452380D02*
X120630833Y-114785714D01*
X120630833Y-114976190D02*
X120678452Y-114880952D01*
X120726071Y-114833333D01*
X120821309Y-114785714D01*
X120916547Y-114785714D01*
X121630833Y-115404761D02*
X121535595Y-115452380D01*
X121345119Y-115452380D01*
X121249880Y-115404761D01*
X121202261Y-115309523D01*
X121202261Y-114928571D01*
X121249880Y-114833333D01*
X121345119Y-114785714D01*
X121535595Y-114785714D01*
X121630833Y-114833333D01*
X121678452Y-114928571D01*
X121678452Y-115023809D01*
X121202261Y-115119047D01*
X122107023Y-115357142D02*
X122154642Y-115404761D01*
X122107023Y-115452380D01*
X122059404Y-115404761D01*
X122107023Y-115357142D01*
X122107023Y-115452380D01*
X122535595Y-115404761D02*
X122630833Y-115452380D01*
X122821309Y-115452380D01*
X122916547Y-115404761D01*
X122964166Y-115309523D01*
X122964166Y-115261904D01*
X122916547Y-115166666D01*
X122821309Y-115119047D01*
X122678452Y-115119047D01*
X122583214Y-115071428D01*
X122535595Y-114976190D01*
X122535595Y-114928571D01*
X122583214Y-114833333D01*
X122678452Y-114785714D01*
X122821309Y-114785714D01*
X122916547Y-114833333D01*
X123535595Y-115452380D02*
X123440357Y-115404761D01*
X123392738Y-115357142D01*
X123345119Y-115261904D01*
X123345119Y-114976190D01*
X123392738Y-114880952D01*
X123440357Y-114833333D01*
X123535595Y-114785714D01*
X123678452Y-114785714D01*
X123773690Y-114833333D01*
X123821309Y-114880952D01*
X123868928Y-114976190D01*
X123868928Y-115261904D01*
X123821309Y-115357142D01*
X123773690Y-115404761D01*
X123678452Y-115452380D01*
X123535595Y-115452380D01*
X124440357Y-115452380D02*
X124345119Y-115404761D01*
X124297500Y-115309523D01*
X124297500Y-114452380D01*
X125249880Y-115452380D02*
X125249880Y-114928571D01*
X125202261Y-114833333D01*
X125107023Y-114785714D01*
X124916547Y-114785714D01*
X124821309Y-114833333D01*
X125249880Y-115404761D02*
X125154642Y-115452380D01*
X124916547Y-115452380D01*
X124821309Y-115404761D01*
X124773690Y-115309523D01*
X124773690Y-115214285D01*
X124821309Y-115119047D01*
X124916547Y-115071428D01*
X125154642Y-115071428D01*
X125249880Y-115023809D01*
X125726071Y-115452380D02*
X125726071Y-114785714D01*
X125726071Y-114976190D02*
X125773690Y-114880952D01*
X125821309Y-114833333D01*
X125916547Y-114785714D01*
X126011785Y-114785714D01*
D12*
X156409523Y-105233333D02*
X156504761Y-104947619D01*
X156504761Y-104471428D01*
X156409523Y-104280952D01*
X156314285Y-104185714D01*
X156123809Y-104090476D01*
X155933333Y-104090476D01*
X155742857Y-104185714D01*
X155647619Y-104280952D01*
X155552380Y-104471428D01*
X155457142Y-104852380D01*
X155361904Y-105042857D01*
X155266666Y-105138095D01*
X155076190Y-105233333D01*
X154885714Y-105233333D01*
X154695238Y-105138095D01*
X154600000Y-105042857D01*
X154504761Y-104852380D01*
X154504761Y-104376190D01*
X154600000Y-104090476D01*
X155171428Y-103423809D02*
X156504761Y-103042857D01*
X155552380Y-102661904D01*
X156504761Y-102280952D01*
X155171428Y-101900000D01*
X156504761Y-101138095D02*
X155171428Y-101138095D01*
X154504761Y-101138095D02*
X154600000Y-101233333D01*
X154695238Y-101138095D01*
X154600000Y-101042857D01*
X154504761Y-101138095D01*
X154695238Y-101138095D01*
X155171428Y-100471428D02*
X155171428Y-99709523D01*
X154504761Y-100185714D02*
X156219047Y-100185714D01*
X156409523Y-100090476D01*
X156504761Y-99900000D01*
X156504761Y-99709523D01*
X156409523Y-98185714D02*
X156504761Y-98376190D01*
X156504761Y-98757142D01*
X156409523Y-98947619D01*
X156314285Y-99042857D01*
X156123809Y-99138095D01*
X155552380Y-99138095D01*
X155361904Y-99042857D01*
X155266666Y-98947619D01*
X155171428Y-98757142D01*
X155171428Y-98376190D01*
X155266666Y-98185714D01*
X156504761Y-97328571D02*
X154504761Y-97328571D01*
X156504761Y-96471428D02*
X155457142Y-96471428D01*
X155266666Y-96566666D01*
X155171428Y-96757142D01*
X155171428Y-97042857D01*
X155266666Y-97233333D01*
X155361904Y-97328571D01*
X155742857Y-95519047D02*
X155742857Y-93995238D01*
X156504761Y-93042857D02*
X154504761Y-93042857D01*
X156504761Y-91900000D01*
X154504761Y-91900000D01*
X155742857Y-90947619D02*
X155742857Y-89423809D01*
X156409523Y-88566666D02*
X156504761Y-88280952D01*
X156504761Y-87804761D01*
X156409523Y-87614285D01*
X156314285Y-87519047D01*
X156123809Y-87423809D01*
X155933333Y-87423809D01*
X155742857Y-87519047D01*
X155647619Y-87614285D01*
X155552380Y-87804761D01*
X155457142Y-88185714D01*
X155361904Y-88376190D01*
X155266666Y-88471428D01*
X155076190Y-88566666D01*
X154885714Y-88566666D01*
X154695238Y-88471428D01*
X154600000Y-88376190D01*
X154504761Y-88185714D01*
X154504761Y-87709523D01*
X154600000Y-87423809D01*
X156409523Y-85804761D02*
X156504761Y-85995238D01*
X156504761Y-86376190D01*
X156409523Y-86566666D01*
X156219047Y-86661904D01*
X155457142Y-86661904D01*
X155266666Y-86566666D01*
X155171428Y-86376190D01*
X155171428Y-85995238D01*
X155266666Y-85804761D01*
X155457142Y-85709523D01*
X155647619Y-85709523D01*
X155838095Y-86661904D01*
X155171428Y-84852380D02*
X156504761Y-84852380D01*
X155361904Y-84852380D02*
X155266666Y-84757142D01*
X155171428Y-84566666D01*
X155171428Y-84280952D01*
X155266666Y-84090476D01*
X155457142Y-83995238D01*
X156504761Y-83995238D01*
X156409523Y-83138095D02*
X156504761Y-82947619D01*
X156504761Y-82566666D01*
X156409523Y-82376190D01*
X156219047Y-82280952D01*
X156123809Y-82280952D01*
X155933333Y-82376190D01*
X155838095Y-82566666D01*
X155838095Y-82852380D01*
X155742857Y-83042857D01*
X155552380Y-83138095D01*
X155457142Y-83138095D01*
X155266666Y-83042857D01*
X155171428Y-82852380D01*
X155171428Y-82566666D01*
X155266666Y-82376190D01*
X156409523Y-80661904D02*
X156504761Y-80852380D01*
X156504761Y-81233333D01*
X156409523Y-81423809D01*
X156219047Y-81519047D01*
X155457142Y-81519047D01*
X155266666Y-81423809D01*
X155171428Y-81233333D01*
X155171428Y-80852380D01*
X155266666Y-80661904D01*
X155457142Y-80566666D01*
X155647619Y-80566666D01*
X155838095Y-81519047D01*
X151057142Y-98527142D02*
X151152380Y-98241428D01*
X151247619Y-98146190D01*
X151438095Y-98050952D01*
X151723809Y-98050952D01*
X151914285Y-98146190D01*
X152009523Y-98241428D01*
X152104761Y-98431904D01*
X152104761Y-99193809D01*
X150104761Y-99193809D01*
X150104761Y-98527142D01*
X150200000Y-98336666D01*
X150295238Y-98241428D01*
X150485714Y-98146190D01*
X150676190Y-98146190D01*
X150866666Y-98241428D01*
X150961904Y-98336666D01*
X151057142Y-98527142D01*
X151057142Y-99193809D01*
X152104761Y-97193809D02*
X150104761Y-97193809D01*
X151533333Y-96527142D01*
X150104761Y-95860476D01*
X152104761Y-95860476D01*
X152009523Y-95003333D02*
X152104761Y-94717619D01*
X152104761Y-94241428D01*
X152009523Y-94050952D01*
X151914285Y-93955714D01*
X151723809Y-93860476D01*
X151533333Y-93860476D01*
X151342857Y-93955714D01*
X151247619Y-94050952D01*
X151152380Y-94241428D01*
X151057142Y-94622380D01*
X150961904Y-94812857D01*
X150866666Y-94908095D01*
X150676190Y-95003333D01*
X150485714Y-95003333D01*
X150295238Y-94908095D01*
X150200000Y-94812857D01*
X150104761Y-94622380D01*
X150104761Y-94146190D01*
X150200000Y-93860476D01*
X152104761Y-90431904D02*
X152104761Y-91574761D01*
X152104761Y-91003333D02*
X150104761Y-91003333D01*
X150390476Y-91193809D01*
X150580952Y-91384285D01*
X150676190Y-91574761D01*
X150295238Y-89670000D02*
X150200000Y-89574761D01*
X150104761Y-89384285D01*
X150104761Y-88908095D01*
X150200000Y-88717619D01*
X150295238Y-88622380D01*
X150485714Y-88527142D01*
X150676190Y-88527142D01*
X150961904Y-88622380D01*
X152104761Y-89765238D01*
X152104761Y-88527142D01*
X151342857Y-87670000D02*
X151342857Y-86146190D01*
X150295238Y-85289047D02*
X150200000Y-85193809D01*
X150104761Y-85003333D01*
X150104761Y-84527142D01*
X150200000Y-84336666D01*
X150295238Y-84241428D01*
X150485714Y-84146190D01*
X150676190Y-84146190D01*
X150961904Y-84241428D01*
X152104761Y-85384285D01*
X152104761Y-84146190D01*
X150771428Y-82431904D02*
X152104761Y-82431904D01*
X150009523Y-82908095D02*
X151438095Y-83384285D01*
X151438095Y-82146190D01*
X150104761Y-81670000D02*
X152104761Y-81003333D01*
X150104761Y-80336666D01*
D13*
X141409285Y-88535714D02*
X141337857Y-88607142D01*
X141123571Y-88678571D01*
X140980714Y-88678571D01*
X140766428Y-88607142D01*
X140623571Y-88464285D01*
X140552142Y-88321428D01*
X140480714Y-88035714D01*
X140480714Y-87821428D01*
X140552142Y-87535714D01*
X140623571Y-87392857D01*
X140766428Y-87250000D01*
X140980714Y-87178571D01*
X141123571Y-87178571D01*
X141337857Y-87250000D01*
X141409285Y-87321428D01*
X142052142Y-88678571D02*
X142052142Y-87178571D01*
X142695000Y-88678571D02*
X142695000Y-87892857D01*
X142623571Y-87750000D01*
X142480714Y-87678571D01*
X142266428Y-87678571D01*
X142123571Y-87750000D01*
X142052142Y-87821428D01*
X144052142Y-87678571D02*
X144052142Y-88892857D01*
X143980714Y-89035714D01*
X143909285Y-89107142D01*
X143766428Y-89178571D01*
X143552142Y-89178571D01*
X143409285Y-89107142D01*
X144052142Y-88607142D02*
X143909285Y-88678571D01*
X143623571Y-88678571D01*
X143480714Y-88607142D01*
X143409285Y-88535714D01*
X143337857Y-88392857D01*
X143337857Y-87964285D01*
X143409285Y-87821428D01*
X143480714Y-87750000D01*
X143623571Y-87678571D01*
X143909285Y-87678571D01*
X144052142Y-87750000D01*
X144766428Y-88107142D02*
X145909285Y-88107142D01*
X145337857Y-88678571D02*
X145337857Y-87535714D01*
X141552142Y-107392857D02*
X141766428Y-107464285D01*
X141837857Y-107535714D01*
X141909285Y-107678571D01*
X141909285Y-107892857D01*
X141837857Y-108035714D01*
X141766428Y-108107142D01*
X141623571Y-108178571D01*
X141052142Y-108178571D01*
X141052142Y-106678571D01*
X141552142Y-106678571D01*
X141695000Y-106750000D01*
X141766428Y-106821428D01*
X141837857Y-106964285D01*
X141837857Y-107107142D01*
X141766428Y-107250000D01*
X141695000Y-107321428D01*
X141552142Y-107392857D01*
X141052142Y-107392857D01*
X143195000Y-108178571D02*
X143195000Y-107392857D01*
X143123571Y-107250000D01*
X142980714Y-107178571D01*
X142695000Y-107178571D01*
X142552142Y-107250000D01*
X143195000Y-108107142D02*
X143052142Y-108178571D01*
X142695000Y-108178571D01*
X142552142Y-108107142D01*
X142480714Y-107964285D01*
X142480714Y-107821428D01*
X142552142Y-107678571D01*
X142695000Y-107607142D01*
X143052142Y-107607142D01*
X143195000Y-107535714D01*
X143695000Y-107178571D02*
X144266428Y-107178571D01*
X143909285Y-106678571D02*
X143909285Y-107964285D01*
X143980714Y-108107142D01*
X144123571Y-108178571D01*
X144266428Y-108178571D01*
X144766428Y-107607142D02*
X145909285Y-107607142D01*
X145337857Y-108178571D02*
X145337857Y-107035714D01*
X140552142Y-70678571D02*
X140552142Y-69178571D01*
X141123571Y-69178571D01*
X141266428Y-69250000D01*
X141337857Y-69321428D01*
X141409285Y-69464285D01*
X141409285Y-69678571D01*
X141337857Y-69821428D01*
X141266428Y-69892857D01*
X141123571Y-69964285D01*
X140552142Y-69964285D01*
X141909285Y-69678571D02*
X142195000Y-70678571D01*
X142480714Y-69964285D01*
X142766428Y-70678571D01*
X143052142Y-69678571D01*
X143623571Y-70678571D02*
X143623571Y-69678571D01*
X143623571Y-69964285D02*
X143695000Y-69821428D01*
X143766428Y-69750000D01*
X143909285Y-69678571D01*
X144052142Y-69678571D01*
X144552142Y-70107142D02*
X145695000Y-70107142D01*
X145123571Y-70678571D02*
X145123571Y-69535714D01*
X168071428Y-99392857D02*
X168285714Y-99464285D01*
X168357142Y-99535714D01*
X168428571Y-99678571D01*
X168428571Y-99892857D01*
X168357142Y-100035714D01*
X168285714Y-100107142D01*
X168142857Y-100178571D01*
X167571428Y-100178571D01*
X167571428Y-98678571D01*
X168071428Y-98678571D01*
X168214285Y-98750000D01*
X168285714Y-98821428D01*
X168357142Y-98964285D01*
X168357142Y-99107142D01*
X168285714Y-99250000D01*
X168214285Y-99321428D01*
X168071428Y-99392857D01*
X167571428Y-99392857D01*
X169714285Y-100178571D02*
X169714285Y-99392857D01*
X169642857Y-99250000D01*
X169500000Y-99178571D01*
X169214285Y-99178571D01*
X169071428Y-99250000D01*
X169714285Y-100107142D02*
X169571428Y-100178571D01*
X169214285Y-100178571D01*
X169071428Y-100107142D01*
X169000000Y-99964285D01*
X169000000Y-99821428D01*
X169071428Y-99678571D01*
X169214285Y-99607142D01*
X169571428Y-99607142D01*
X169714285Y-99535714D01*
X170214285Y-99178571D02*
X170785714Y-99178571D01*
X170428571Y-98678571D02*
X170428571Y-99964285D01*
X170500000Y-100107142D01*
X170642857Y-100178571D01*
X170785714Y-100178571D01*
X171285714Y-99607142D02*
X172428571Y-99607142D01*
X168428571Y-79178571D02*
X168428571Y-77678571D01*
X169000000Y-77678571D01*
X169142857Y-77750000D01*
X169214285Y-77821428D01*
X169285714Y-77964285D01*
X169285714Y-78178571D01*
X169214285Y-78321428D01*
X169142857Y-78392857D01*
X169000000Y-78464285D01*
X168428571Y-78464285D01*
X169785714Y-78178571D02*
X170071428Y-79178571D01*
X170357142Y-78464285D01*
X170642857Y-79178571D01*
X170928571Y-78178571D01*
X171500000Y-79178571D02*
X171500000Y-78178571D01*
X171500000Y-78464285D02*
X171571428Y-78321428D01*
X171642857Y-78250000D01*
X171785714Y-78178571D01*
X171928571Y-78178571D01*
X172428571Y-78607142D02*
X173571428Y-78607142D01*
D11*
X104525000Y-75000000D02*
X104525000Y-70600000D01*
X99000000Y-76575000D02*
X99000000Y-70600000D01*
X97700000Y-90200000D02*
X97700000Y-106800000D01*
X102200000Y-106800000D02*
X104200000Y-106800000D01*
X104200000Y-106800000D02*
X104200000Y-104500000D01*
X102200000Y-90200000D02*
X104200000Y-90200000D01*
X104200000Y-90200000D02*
X104200000Y-92500000D01*
X100000000Y-106800000D02*
X97700000Y-106800000D01*
X100000000Y-90200000D02*
X97700000Y-90200000D01*
D14*
X153350000Y-62550000D02*
X152650000Y-62550000D01*
X152650000Y-61450000D02*
X153350000Y-61450000D01*
X98850000Y-79150000D02*
X99550000Y-79150000D01*
X99550000Y-80250000D02*
X98850000Y-80250000D01*
X154550000Y-72150000D02*
X154550000Y-72850000D01*
X153450000Y-72850000D02*
X153450000Y-72150000D01*
X103350000Y-68150000D02*
X102650000Y-68150000D01*
X102650000Y-67050000D02*
X103350000Y-67050000D01*
X156850000Y-62550000D02*
X156150000Y-62550000D01*
X156150000Y-61450000D02*
X156850000Y-61450000D01*
X98850000Y-77450000D02*
X99550000Y-77450000D01*
X99550000Y-78550000D02*
X98850000Y-78550000D01*
X154550000Y-75650000D02*
X154550000Y-76350000D01*
X153450000Y-76350000D02*
X153450000Y-75650000D01*
X149200000Y-109750000D02*
X157600000Y-109750000D01*
X149200000Y-116250000D02*
X157600000Y-116250000D01*
X149200000Y-116250000D02*
X149200000Y-109750000D01*
X150200000Y-70250000D02*
X150200000Y-63750000D01*
X150200000Y-70250000D02*
X158600000Y-70250000D01*
X150200000Y-63750000D02*
X158600000Y-63750000D01*
X102650000Y-65450000D02*
X103350000Y-65450000D01*
X103350000Y-66550000D02*
X102650000Y-66550000D01*
X116650000Y-97550000D02*
X117350000Y-97550000D01*
X117350000Y-98650000D02*
X116650000Y-98650000D01*
X101550000Y-85850000D02*
X101550000Y-85150000D01*
X102650000Y-85150000D02*
X102650000Y-85850000D01*
X104150000Y-85150000D02*
X104150000Y-85850000D01*
X103050000Y-85850000D02*
X103050000Y-85150000D01*
X100050000Y-85850000D02*
X100050000Y-85150000D01*
X101150000Y-85150000D02*
X101150000Y-85850000D01*
X140550000Y-76650000D02*
X140550000Y-77350000D01*
X139450000Y-77350000D02*
X139450000Y-76650000D01*
X140550000Y-99295939D02*
X140550000Y-99995939D01*
X139450000Y-99995939D02*
X139450000Y-99295939D01*
X115150000Y-99450000D02*
X115850000Y-99450000D01*
X115850000Y-100550000D02*
X115150000Y-100550000D01*
X99050000Y-81950000D02*
X99050000Y-82650000D01*
X97950000Y-82650000D02*
X97950000Y-81950000D01*
X116450000Y-76050000D02*
X117150000Y-76050000D01*
X117150000Y-77150000D02*
X116450000Y-77150000D01*
X107150000Y-89500000D02*
X110850000Y-89500000D01*
X110850000Y-92500000D02*
X107150000Y-92500000D01*
X110850000Y-84500000D02*
X107150000Y-84500000D01*
X107150000Y-81500000D02*
X110850000Y-81500000D01*
X107150000Y-85500000D02*
X110850000Y-85500000D01*
X110850000Y-88500000D02*
X107150000Y-88500000D01*
X106360000Y-81180000D02*
X106360000Y-80250000D01*
X106360000Y-78020000D02*
X106360000Y-78950000D01*
X106360000Y-78020000D02*
X104200000Y-78020000D01*
X106360000Y-81180000D02*
X104900000Y-81180000D01*
D11*
X124500000Y-75850000D02*
X124500000Y-81850000D01*
X119500000Y-81850000D02*
X119500000Y-75850000D01*
X123400000Y-75850000D02*
X123200000Y-75850000D01*
X122100000Y-75850000D02*
X121900000Y-75850000D01*
X120800000Y-75850000D02*
X120600000Y-75850000D01*
X123200000Y-100850000D02*
X123400000Y-100850000D01*
X121900000Y-100850000D02*
X122100000Y-100850000D01*
X120600000Y-100850000D02*
X120800000Y-100850000D01*
X124500000Y-94850000D02*
X124500000Y-100850000D01*
X119500000Y-100850000D02*
X119500000Y-94850000D01*
X146500000Y-75850000D02*
X146500000Y-81850000D01*
X141500000Y-81850000D02*
X141500000Y-75850000D01*
X145400000Y-75850000D02*
X145200000Y-75850000D01*
X144100000Y-75850000D02*
X143900000Y-75850000D01*
X142800000Y-75850000D02*
X142600000Y-75850000D01*
X141500000Y-100850000D02*
X141500000Y-94850000D01*
X146500000Y-94850000D02*
X146500000Y-100850000D01*
X142600000Y-100850000D02*
X142800000Y-100850000D01*
X143900000Y-100850000D02*
X144100000Y-100850000D01*
X145200000Y-100850000D02*
X145400000Y-100850000D01*
X171300000Y-86150000D02*
X171300000Y-91350000D01*
X166700000Y-91350000D02*
X166700000Y-86150000D01*
X165300000Y-86150000D02*
X165300000Y-91350000D01*
X160700000Y-91350000D02*
X160700000Y-86150000D01*
X177300000Y-86150000D02*
X177300000Y-91350000D01*
X172700000Y-91350000D02*
X172700000Y-86150000D01*
X183300000Y-86150000D02*
X183300000Y-91350000D01*
X178700000Y-91350000D02*
X178700000Y-86150000D01*
D10*
G36*
X116452500Y-68042500D02*
X119308500Y-68042500D01*
X119308500Y-68025500D01*
X116452500Y-68025500D01*
X116452500Y-68042500D01*
G37*
G36*
X116435500Y-68025500D02*
X119342500Y-68025500D01*
X119342500Y-68008500D01*
X116435500Y-68008500D01*
X116435500Y-68025500D01*
G37*
G36*
X116401500Y-68008500D02*
X119359500Y-68008500D01*
X119359500Y-67991500D01*
X116401500Y-67991500D01*
X116401500Y-68008500D01*
G37*
G36*
X116384500Y-67991500D02*
X119393500Y-67991500D01*
X119393500Y-67974500D01*
X116384500Y-67974500D01*
X116384500Y-67991500D01*
G37*
G36*
X116367500Y-67974500D02*
X119410500Y-67974500D01*
X119410500Y-67957500D01*
X116367500Y-67957500D01*
X116367500Y-67974500D01*
G37*
G36*
X116350500Y-67957500D02*
X119427500Y-67957500D01*
X119427500Y-67940500D01*
X116350500Y-67940500D01*
X116350500Y-67957500D01*
G37*
G36*
X116316500Y-67940500D02*
X119444500Y-67940500D01*
X119444500Y-67923500D01*
X116316500Y-67923500D01*
X116316500Y-67940500D01*
G37*
G36*
X116299500Y-67923500D02*
X119461500Y-67923500D01*
X119461500Y-67906500D01*
X116299500Y-67906500D01*
X116299500Y-67923500D01*
G37*
G36*
X116282500Y-67906500D02*
X119478500Y-67906500D01*
X119478500Y-67889500D01*
X116282500Y-67889500D01*
X116282500Y-67906500D01*
G37*
G36*
X116265500Y-67889500D02*
X119495500Y-67889500D01*
X119495500Y-67872500D01*
X116265500Y-67872500D01*
X116265500Y-67889500D01*
G37*
G36*
X116248500Y-67872500D02*
X119512500Y-67872500D01*
X119512500Y-67855500D01*
X116248500Y-67855500D01*
X116248500Y-67872500D01*
G37*
G36*
X116231500Y-67855500D02*
X119546500Y-67855500D01*
X119546500Y-67838500D01*
X116231500Y-67838500D01*
X116231500Y-67855500D01*
G37*
G36*
X116214500Y-67838500D02*
X119563500Y-67838500D01*
X119563500Y-67821500D01*
X116214500Y-67821500D01*
X116214500Y-67838500D01*
G37*
G36*
X116197500Y-67821500D02*
X119580500Y-67821500D01*
X119580500Y-67804500D01*
X116197500Y-67804500D01*
X116197500Y-67821500D01*
G37*
G36*
X116180500Y-67804500D02*
X119597500Y-67804500D01*
X119597500Y-67787500D01*
X116180500Y-67787500D01*
X116180500Y-67804500D01*
G37*
G36*
X116163500Y-67787500D02*
X119614500Y-67787500D01*
X119614500Y-67770500D01*
X116163500Y-67770500D01*
X116163500Y-67787500D01*
G37*
G36*
X116146500Y-67770500D02*
X119631500Y-67770500D01*
X119631500Y-67753500D01*
X116146500Y-67753500D01*
X116146500Y-67770500D01*
G37*
G36*
X116129500Y-67753500D02*
X119648500Y-67753500D01*
X119648500Y-67736500D01*
X116129500Y-67736500D01*
X116129500Y-67753500D01*
G37*
G36*
X116112500Y-67736500D02*
X119665500Y-67736500D01*
X119665500Y-67719500D01*
X116112500Y-67719500D01*
X116112500Y-67736500D01*
G37*
G36*
X116095500Y-67719500D02*
X119682500Y-67719500D01*
X119682500Y-67702500D01*
X116095500Y-67702500D01*
X116095500Y-67719500D01*
G37*
G36*
X116078500Y-67702500D02*
X119699500Y-67702500D01*
X119699500Y-67685500D01*
X116078500Y-67685500D01*
X116078500Y-67702500D01*
G37*
G36*
X116061500Y-67685500D02*
X119716500Y-67685500D01*
X119716500Y-67668500D01*
X116061500Y-67668500D01*
X116061500Y-67685500D01*
G37*
G36*
X116044500Y-67668500D02*
X119733500Y-67668500D01*
X119733500Y-67651500D01*
X116044500Y-67651500D01*
X116044500Y-67668500D01*
G37*
G36*
X116027500Y-67651500D02*
X119750500Y-67651500D01*
X119750500Y-67634500D01*
X116027500Y-67634500D01*
X116027500Y-67651500D01*
G37*
G36*
X116010500Y-67634500D02*
X119750500Y-67634500D01*
X119750500Y-67617500D01*
X116010500Y-67617500D01*
X116010500Y-67634500D01*
G37*
G36*
X115993500Y-67617500D02*
X119767500Y-67617500D01*
X119767500Y-67600500D01*
X115993500Y-67600500D01*
X115993500Y-67617500D01*
G37*
G36*
X115976500Y-67600500D02*
X119784500Y-67600500D01*
X119784500Y-67583500D01*
X115976500Y-67583500D01*
X115976500Y-67600500D01*
G37*
G36*
X115959500Y-67583500D02*
X119801500Y-67583500D01*
X119801500Y-67566500D01*
X115959500Y-67566500D01*
X115959500Y-67583500D01*
G37*
G36*
X115942500Y-67566500D02*
X119818500Y-67566500D01*
X119818500Y-67549500D01*
X115942500Y-67549500D01*
X115942500Y-67566500D01*
G37*
G36*
X115925500Y-67549500D02*
X119835500Y-67549500D01*
X119835500Y-67532500D01*
X115925500Y-67532500D01*
X115925500Y-67549500D01*
G37*
G36*
X115908500Y-67532500D02*
X119852500Y-67532500D01*
X119852500Y-67515500D01*
X115908500Y-67515500D01*
X115908500Y-67532500D01*
G37*
G36*
X115908500Y-67515500D02*
X119869500Y-67515500D01*
X119869500Y-67498500D01*
X115908500Y-67498500D01*
X115908500Y-67515500D01*
G37*
G36*
X115891500Y-67498500D02*
X119886500Y-67498500D01*
X119886500Y-67481500D01*
X115891500Y-67481500D01*
X115891500Y-67498500D01*
G37*
G36*
X115874500Y-67481500D02*
X119886500Y-67481500D01*
X119886500Y-67464500D01*
X115874500Y-67464500D01*
X115874500Y-67481500D01*
G37*
G36*
X115857500Y-67464500D02*
X119903500Y-67464500D01*
X119903500Y-67447500D01*
X115857500Y-67447500D01*
X115857500Y-67464500D01*
G37*
G36*
X115857500Y-67447500D02*
X119920500Y-67447500D01*
X119920500Y-67430500D01*
X115857500Y-67430500D01*
X115857500Y-67447500D01*
G37*
G36*
X115840500Y-67430500D02*
X119920500Y-67430500D01*
X119920500Y-67413500D01*
X115840500Y-67413500D01*
X115840500Y-67430500D01*
G37*
G36*
X115840500Y-67413500D02*
X119937500Y-67413500D01*
X119937500Y-67396500D01*
X115840500Y-67396500D01*
X115840500Y-67413500D01*
G37*
G36*
X115840500Y-67396500D02*
X119937500Y-67396500D01*
X119937500Y-67379500D01*
X115840500Y-67379500D01*
X115840500Y-67396500D01*
G37*
G36*
X115840500Y-67379500D02*
X119937500Y-67379500D01*
X119937500Y-67362500D01*
X115840500Y-67362500D01*
X115840500Y-67379500D01*
G37*
G36*
X115840500Y-67362500D02*
X119937500Y-67362500D01*
X119937500Y-67345500D01*
X115840500Y-67345500D01*
X115840500Y-67362500D01*
G37*
G36*
X115840500Y-67345500D02*
X119937500Y-67345500D01*
X119937500Y-67328500D01*
X115840500Y-67328500D01*
X115840500Y-67345500D01*
G37*
G36*
X115840500Y-67328500D02*
X119937500Y-67328500D01*
X119937500Y-67311500D01*
X115840500Y-67311500D01*
X115840500Y-67328500D01*
G37*
G36*
X115840500Y-67311500D02*
X119937500Y-67311500D01*
X119937500Y-67294500D01*
X115840500Y-67294500D01*
X115840500Y-67311500D01*
G37*
G36*
X115840500Y-67294500D02*
X119937500Y-67294500D01*
X119937500Y-67277500D01*
X115840500Y-67277500D01*
X115840500Y-67294500D01*
G37*
G36*
X115840500Y-67277500D02*
X119937500Y-67277500D01*
X119937500Y-67260500D01*
X115840500Y-67260500D01*
X115840500Y-67277500D01*
G37*
G36*
X115840500Y-67260500D02*
X118900500Y-67260500D01*
X118900500Y-67243500D01*
X115840500Y-67243500D01*
X115840500Y-67260500D01*
G37*
G36*
X118917500Y-67260500D02*
X119937500Y-67260500D01*
X119937500Y-67243500D01*
X118917500Y-67243500D01*
X118917500Y-67260500D01*
G37*
G36*
X121569500Y-67260500D02*
X121586500Y-67260500D01*
X121586500Y-67243500D01*
X121569500Y-67243500D01*
X121569500Y-67260500D01*
G37*
G36*
X115840500Y-67243500D02*
X118883500Y-67243500D01*
X118883500Y-67226500D01*
X115840500Y-67226500D01*
X115840500Y-67243500D01*
G37*
G36*
X118900500Y-67243500D02*
X119937500Y-67243500D01*
X119937500Y-67226500D01*
X118900500Y-67226500D01*
X118900500Y-67243500D01*
G37*
G36*
X121552500Y-67243500D02*
X121569500Y-67243500D01*
X121569500Y-67226500D01*
X121552500Y-67226500D01*
X121552500Y-67243500D01*
G37*
G36*
X115840500Y-67226500D02*
X118866500Y-67226500D01*
X118866500Y-67209500D01*
X115840500Y-67209500D01*
X115840500Y-67226500D01*
G37*
G36*
X118900500Y-67226500D02*
X119937500Y-67226500D01*
X119937500Y-67209500D01*
X118900500Y-67209500D01*
X118900500Y-67226500D01*
G37*
G36*
X121535500Y-67226500D02*
X121569500Y-67226500D01*
X121569500Y-67209500D01*
X121535500Y-67209500D01*
X121535500Y-67226500D01*
G37*
G36*
X115840500Y-67209500D02*
X118849500Y-67209500D01*
X118849500Y-67192500D01*
X115840500Y-67192500D01*
X115840500Y-67209500D01*
G37*
G36*
X118883500Y-67209500D02*
X119937500Y-67209500D01*
X119937500Y-67192500D01*
X118883500Y-67192500D01*
X118883500Y-67209500D01*
G37*
G36*
X121535500Y-67209500D02*
X121552500Y-67209500D01*
X121552500Y-67192500D01*
X121535500Y-67192500D01*
X121535500Y-67209500D01*
G37*
G36*
X115840500Y-67192500D02*
X118832500Y-67192500D01*
X118832500Y-67175500D01*
X115840500Y-67175500D01*
X115840500Y-67192500D01*
G37*
G36*
X118866500Y-67192500D02*
X119937500Y-67192500D01*
X119937500Y-67175500D01*
X118866500Y-67175500D01*
X118866500Y-67192500D01*
G37*
G36*
X121518500Y-67192500D02*
X121552500Y-67192500D01*
X121552500Y-67175500D01*
X121518500Y-67175500D01*
X121518500Y-67192500D01*
G37*
G36*
X115840500Y-67175500D02*
X118815500Y-67175500D01*
X118815500Y-67158500D01*
X115840500Y-67158500D01*
X115840500Y-67175500D01*
G37*
G36*
X118866500Y-67175500D02*
X119937500Y-67175500D01*
X119937500Y-67158500D01*
X118866500Y-67158500D01*
X118866500Y-67175500D01*
G37*
G36*
X121501500Y-67175500D02*
X121552500Y-67175500D01*
X121552500Y-67158500D01*
X121501500Y-67158500D01*
X121501500Y-67175500D01*
G37*
G36*
X115840500Y-67158500D02*
X118798500Y-67158500D01*
X118798500Y-67141500D01*
X115840500Y-67141500D01*
X115840500Y-67158500D01*
G37*
G36*
X118849500Y-67158500D02*
X119937500Y-67158500D01*
X119937500Y-67141500D01*
X118849500Y-67141500D01*
X118849500Y-67158500D01*
G37*
G36*
X121501500Y-67158500D02*
X121535500Y-67158500D01*
X121535500Y-67141500D01*
X121501500Y-67141500D01*
X121501500Y-67158500D01*
G37*
G36*
X115840500Y-67141500D02*
X118781500Y-67141500D01*
X118781500Y-67124500D01*
X115840500Y-67124500D01*
X115840500Y-67141500D01*
G37*
G36*
X118849500Y-67141500D02*
X119937500Y-67141500D01*
X119937500Y-67124500D01*
X118849500Y-67124500D01*
X118849500Y-67141500D01*
G37*
G36*
X121484500Y-67141500D02*
X121535500Y-67141500D01*
X121535500Y-67124500D01*
X121484500Y-67124500D01*
X121484500Y-67141500D01*
G37*
G36*
X115840500Y-67124500D02*
X118764500Y-67124500D01*
X118764500Y-67107500D01*
X115840500Y-67107500D01*
X115840500Y-67124500D01*
G37*
G36*
X118832500Y-67124500D02*
X119937500Y-67124500D01*
X119937500Y-67107500D01*
X118832500Y-67107500D01*
X118832500Y-67124500D01*
G37*
G36*
X121467500Y-67124500D02*
X121518500Y-67124500D01*
X121518500Y-67107500D01*
X121467500Y-67107500D01*
X121467500Y-67124500D01*
G37*
G36*
X115840500Y-67107500D02*
X118747500Y-67107500D01*
X118747500Y-67090500D01*
X115840500Y-67090500D01*
X115840500Y-67107500D01*
G37*
G36*
X118815500Y-67107500D02*
X119937500Y-67107500D01*
X119937500Y-67090500D01*
X118815500Y-67090500D01*
X118815500Y-67107500D01*
G37*
G36*
X121450500Y-67107500D02*
X121518500Y-67107500D01*
X121518500Y-67090500D01*
X121450500Y-67090500D01*
X121450500Y-67107500D01*
G37*
G36*
X115840500Y-67090500D02*
X118730500Y-67090500D01*
X118730500Y-67073500D01*
X115840500Y-67073500D01*
X115840500Y-67090500D01*
G37*
G36*
X118815500Y-67090500D02*
X119937500Y-67090500D01*
X119937500Y-67073500D01*
X118815500Y-67073500D01*
X118815500Y-67090500D01*
G37*
G36*
X121433500Y-67090500D02*
X121501500Y-67090500D01*
X121501500Y-67073500D01*
X121433500Y-67073500D01*
X121433500Y-67090500D01*
G37*
G36*
X115840500Y-67073500D02*
X118713500Y-67073500D01*
X118713500Y-67056500D01*
X115840500Y-67056500D01*
X115840500Y-67073500D01*
G37*
G36*
X118798500Y-67073500D02*
X119937500Y-67073500D01*
X119937500Y-67056500D01*
X118798500Y-67056500D01*
X118798500Y-67073500D01*
G37*
G36*
X121433500Y-67073500D02*
X121501500Y-67073500D01*
X121501500Y-67056500D01*
X121433500Y-67056500D01*
X121433500Y-67073500D01*
G37*
G36*
X115840500Y-67056500D02*
X118696500Y-67056500D01*
X118696500Y-67039500D01*
X115840500Y-67039500D01*
X115840500Y-67056500D01*
G37*
G36*
X118781500Y-67056500D02*
X119937500Y-67056500D01*
X119937500Y-67039500D01*
X118781500Y-67039500D01*
X118781500Y-67056500D01*
G37*
G36*
X121416500Y-67056500D02*
X121501500Y-67056500D01*
X121501500Y-67039500D01*
X121416500Y-67039500D01*
X121416500Y-67056500D01*
G37*
G36*
X115840500Y-67039500D02*
X118679500Y-67039500D01*
X118679500Y-67022500D01*
X115840500Y-67022500D01*
X115840500Y-67039500D01*
G37*
G36*
X118781500Y-67039500D02*
X119937500Y-67039500D01*
X119937500Y-67022500D01*
X118781500Y-67022500D01*
X118781500Y-67039500D01*
G37*
G36*
X121399500Y-67039500D02*
X121484500Y-67039500D01*
X121484500Y-67022500D01*
X121399500Y-67022500D01*
X121399500Y-67039500D01*
G37*
G36*
X115840500Y-67022500D02*
X118662500Y-67022500D01*
X118662500Y-67005500D01*
X115840500Y-67005500D01*
X115840500Y-67022500D01*
G37*
G36*
X118764500Y-67022500D02*
X119937500Y-67022500D01*
X119937500Y-67005500D01*
X118764500Y-67005500D01*
X118764500Y-67022500D01*
G37*
G36*
X121382500Y-67022500D02*
X121484500Y-67022500D01*
X121484500Y-67005500D01*
X121382500Y-67005500D01*
X121382500Y-67022500D01*
G37*
G36*
X115840500Y-67005500D02*
X118645500Y-67005500D01*
X118645500Y-66988500D01*
X115840500Y-66988500D01*
X115840500Y-67005500D01*
G37*
G36*
X118764500Y-67005500D02*
X119937500Y-67005500D01*
X119937500Y-66988500D01*
X118764500Y-66988500D01*
X118764500Y-67005500D01*
G37*
G36*
X121382500Y-67005500D02*
X121467500Y-67005500D01*
X121467500Y-66988500D01*
X121382500Y-66988500D01*
X121382500Y-67005500D01*
G37*
G36*
X115840500Y-66988500D02*
X118628500Y-66988500D01*
X118628500Y-66971500D01*
X115840500Y-66971500D01*
X115840500Y-66988500D01*
G37*
G36*
X118747500Y-66988500D02*
X119937500Y-66988500D01*
X119937500Y-66971500D01*
X118747500Y-66971500D01*
X118747500Y-66988500D01*
G37*
G36*
X121365500Y-66988500D02*
X121467500Y-66988500D01*
X121467500Y-66971500D01*
X121365500Y-66971500D01*
X121365500Y-66988500D01*
G37*
G36*
X115840500Y-66971500D02*
X118611500Y-66971500D01*
X118611500Y-66954500D01*
X115840500Y-66954500D01*
X115840500Y-66971500D01*
G37*
G36*
X118747500Y-66971500D02*
X119937500Y-66971500D01*
X119937500Y-66954500D01*
X118747500Y-66954500D01*
X118747500Y-66971500D01*
G37*
G36*
X121348500Y-66971500D02*
X121450500Y-66971500D01*
X121450500Y-66954500D01*
X121348500Y-66954500D01*
X121348500Y-66971500D01*
G37*
G36*
X115840500Y-66954500D02*
X118594500Y-66954500D01*
X118594500Y-66937500D01*
X115840500Y-66937500D01*
X115840500Y-66954500D01*
G37*
G36*
X118730500Y-66954500D02*
X119937500Y-66954500D01*
X119937500Y-66937500D01*
X118730500Y-66937500D01*
X118730500Y-66954500D01*
G37*
G36*
X121348500Y-66954500D02*
X121450500Y-66954500D01*
X121450500Y-66937500D01*
X121348500Y-66937500D01*
X121348500Y-66954500D01*
G37*
G36*
X115840500Y-66937500D02*
X118577500Y-66937500D01*
X118577500Y-66920500D01*
X115840500Y-66920500D01*
X115840500Y-66937500D01*
G37*
G36*
X118713500Y-66937500D02*
X119937500Y-66937500D01*
X119937500Y-66920500D01*
X118713500Y-66920500D01*
X118713500Y-66937500D01*
G37*
G36*
X121331500Y-66937500D02*
X121450500Y-66937500D01*
X121450500Y-66920500D01*
X121331500Y-66920500D01*
X121331500Y-66937500D01*
G37*
G36*
X115840500Y-66920500D02*
X118560500Y-66920500D01*
X118560500Y-66903500D01*
X115840500Y-66903500D01*
X115840500Y-66920500D01*
G37*
G36*
X118713500Y-66920500D02*
X119937500Y-66920500D01*
X119937500Y-66903500D01*
X118713500Y-66903500D01*
X118713500Y-66920500D01*
G37*
G36*
X121314500Y-66920500D02*
X121433500Y-66920500D01*
X121433500Y-66903500D01*
X121314500Y-66903500D01*
X121314500Y-66920500D01*
G37*
G36*
X115840500Y-66903500D02*
X118543500Y-66903500D01*
X118543500Y-66886500D01*
X115840500Y-66886500D01*
X115840500Y-66903500D01*
G37*
G36*
X118696500Y-66903500D02*
X119937500Y-66903500D01*
X119937500Y-66886500D01*
X118696500Y-66886500D01*
X118696500Y-66903500D01*
G37*
G36*
X121297500Y-66903500D02*
X121433500Y-66903500D01*
X121433500Y-66886500D01*
X121297500Y-66886500D01*
X121297500Y-66903500D01*
G37*
G36*
X115840500Y-66886500D02*
X118526500Y-66886500D01*
X118526500Y-66869500D01*
X115840500Y-66869500D01*
X115840500Y-66886500D01*
G37*
G36*
X118679500Y-66886500D02*
X119937500Y-66886500D01*
X119937500Y-66869500D01*
X118679500Y-66869500D01*
X118679500Y-66886500D01*
G37*
G36*
X121280500Y-66886500D02*
X121416500Y-66886500D01*
X121416500Y-66869500D01*
X121280500Y-66869500D01*
X121280500Y-66886500D01*
G37*
G36*
X115840500Y-66869500D02*
X118509500Y-66869500D01*
X118509500Y-66852500D01*
X115840500Y-66852500D01*
X115840500Y-66869500D01*
G37*
G36*
X118679500Y-66869500D02*
X119937500Y-66869500D01*
X119937500Y-66852500D01*
X118679500Y-66852500D01*
X118679500Y-66869500D01*
G37*
G36*
X121280500Y-66869500D02*
X121416500Y-66869500D01*
X121416500Y-66852500D01*
X121280500Y-66852500D01*
X121280500Y-66869500D01*
G37*
G36*
X115840500Y-66852500D02*
X118492500Y-66852500D01*
X118492500Y-66835500D01*
X115840500Y-66835500D01*
X115840500Y-66852500D01*
G37*
G36*
X118662500Y-66852500D02*
X119937500Y-66852500D01*
X119937500Y-66835500D01*
X118662500Y-66835500D01*
X118662500Y-66852500D01*
G37*
G36*
X121263500Y-66852500D02*
X121399500Y-66852500D01*
X121399500Y-66835500D01*
X121263500Y-66835500D01*
X121263500Y-66852500D01*
G37*
G36*
X115840500Y-66835500D02*
X118475500Y-66835500D01*
X118475500Y-66818500D01*
X115840500Y-66818500D01*
X115840500Y-66835500D01*
G37*
G36*
X118662500Y-66835500D02*
X119937500Y-66835500D01*
X119937500Y-66818500D01*
X118662500Y-66818500D01*
X118662500Y-66835500D01*
G37*
G36*
X121246500Y-66835500D02*
X121399500Y-66835500D01*
X121399500Y-66818500D01*
X121246500Y-66818500D01*
X121246500Y-66835500D01*
G37*
G36*
X115840500Y-66818500D02*
X118441500Y-66818500D01*
X118441500Y-66801500D01*
X115840500Y-66801500D01*
X115840500Y-66818500D01*
G37*
G36*
X118645500Y-66818500D02*
X119937500Y-66818500D01*
X119937500Y-66801500D01*
X118645500Y-66801500D01*
X118645500Y-66818500D01*
G37*
G36*
X121229500Y-66818500D02*
X121382500Y-66818500D01*
X121382500Y-66801500D01*
X121229500Y-66801500D01*
X121229500Y-66818500D01*
G37*
G36*
X115840500Y-66801500D02*
X118424500Y-66801500D01*
X118424500Y-66784500D01*
X115840500Y-66784500D01*
X115840500Y-66801500D01*
G37*
G36*
X118628500Y-66801500D02*
X119937500Y-66801500D01*
X119937500Y-66784500D01*
X118628500Y-66784500D01*
X118628500Y-66801500D01*
G37*
G36*
X121229500Y-66801500D02*
X121382500Y-66801500D01*
X121382500Y-66784500D01*
X121229500Y-66784500D01*
X121229500Y-66801500D01*
G37*
G36*
X115840500Y-66784500D02*
X116639500Y-66784500D01*
X116639500Y-66767500D01*
X115840500Y-66767500D01*
X115840500Y-66784500D01*
G37*
G36*
X116656500Y-66784500D02*
X118407500Y-66784500D01*
X118407500Y-66767500D01*
X116656500Y-66767500D01*
X116656500Y-66784500D01*
G37*
G36*
X118628500Y-66784500D02*
X119937500Y-66784500D01*
X119937500Y-66767500D01*
X118628500Y-66767500D01*
X118628500Y-66784500D01*
G37*
G36*
X121212500Y-66784500D02*
X121382500Y-66784500D01*
X121382500Y-66767500D01*
X121212500Y-66767500D01*
X121212500Y-66784500D01*
G37*
G36*
X115840500Y-66767500D02*
X116622500Y-66767500D01*
X116622500Y-66750500D01*
X115840500Y-66750500D01*
X115840500Y-66767500D01*
G37*
G36*
X116690500Y-66767500D02*
X118390500Y-66767500D01*
X118390500Y-66750500D01*
X116690500Y-66750500D01*
X116690500Y-66767500D01*
G37*
G36*
X118611500Y-66767500D02*
X119937500Y-66767500D01*
X119937500Y-66750500D01*
X118611500Y-66750500D01*
X118611500Y-66767500D01*
G37*
G36*
X121195500Y-66767500D02*
X121365500Y-66767500D01*
X121365500Y-66750500D01*
X121195500Y-66750500D01*
X121195500Y-66767500D01*
G37*
G36*
X115840500Y-66750500D02*
X116622500Y-66750500D01*
X116622500Y-66733500D01*
X115840500Y-66733500D01*
X115840500Y-66750500D01*
G37*
G36*
X116724500Y-66750500D02*
X118373500Y-66750500D01*
X118373500Y-66733500D01*
X116724500Y-66733500D01*
X116724500Y-66750500D01*
G37*
G36*
X118594500Y-66750500D02*
X119937500Y-66750500D01*
X119937500Y-66733500D01*
X118594500Y-66733500D01*
X118594500Y-66750500D01*
G37*
G36*
X121178500Y-66750500D02*
X121365500Y-66750500D01*
X121365500Y-66733500D01*
X121178500Y-66733500D01*
X121178500Y-66750500D01*
G37*
G36*
X115840500Y-66733500D02*
X116605500Y-66733500D01*
X116605500Y-66716500D01*
X115840500Y-66716500D01*
X115840500Y-66733500D01*
G37*
G36*
X116741500Y-66733500D02*
X118339500Y-66733500D01*
X118339500Y-66716500D01*
X116741500Y-66716500D01*
X116741500Y-66733500D01*
G37*
G36*
X118594500Y-66733500D02*
X119937500Y-66733500D01*
X119937500Y-66716500D01*
X118594500Y-66716500D01*
X118594500Y-66733500D01*
G37*
G36*
X121178500Y-66733500D02*
X121348500Y-66733500D01*
X121348500Y-66716500D01*
X121178500Y-66716500D01*
X121178500Y-66733500D01*
G37*
G36*
X115840500Y-66716500D02*
X116605500Y-66716500D01*
X116605500Y-66699500D01*
X115840500Y-66699500D01*
X115840500Y-66716500D01*
G37*
G36*
X116775500Y-66716500D02*
X118322500Y-66716500D01*
X118322500Y-66699500D01*
X116775500Y-66699500D01*
X116775500Y-66716500D01*
G37*
G36*
X118577500Y-66716500D02*
X119937500Y-66716500D01*
X119937500Y-66699500D01*
X118577500Y-66699500D01*
X118577500Y-66716500D01*
G37*
G36*
X121161500Y-66716500D02*
X121348500Y-66716500D01*
X121348500Y-66699500D01*
X121161500Y-66699500D01*
X121161500Y-66716500D01*
G37*
G36*
X115840500Y-66699500D02*
X116588500Y-66699500D01*
X116588500Y-66682500D01*
X115840500Y-66682500D01*
X115840500Y-66699500D01*
G37*
G36*
X116792500Y-66699500D02*
X118305500Y-66699500D01*
X118305500Y-66682500D01*
X116792500Y-66682500D01*
X116792500Y-66699500D01*
G37*
G36*
X118560500Y-66699500D02*
X119937500Y-66699500D01*
X119937500Y-66682500D01*
X118560500Y-66682500D01*
X118560500Y-66699500D01*
G37*
G36*
X121144500Y-66699500D02*
X121331500Y-66699500D01*
X121331500Y-66682500D01*
X121144500Y-66682500D01*
X121144500Y-66699500D01*
G37*
G36*
X115840500Y-66682500D02*
X116588500Y-66682500D01*
X116588500Y-66665500D01*
X115840500Y-66665500D01*
X115840500Y-66682500D01*
G37*
G36*
X116826500Y-66682500D02*
X118271500Y-66682500D01*
X118271500Y-66665500D01*
X116826500Y-66665500D01*
X116826500Y-66682500D01*
G37*
G36*
X118543500Y-66682500D02*
X119937500Y-66682500D01*
X119937500Y-66665500D01*
X118543500Y-66665500D01*
X118543500Y-66682500D01*
G37*
G36*
X121127500Y-66682500D02*
X121331500Y-66682500D01*
X121331500Y-66665500D01*
X121127500Y-66665500D01*
X121127500Y-66682500D01*
G37*
G36*
X115840500Y-66665500D02*
X116571500Y-66665500D01*
X116571500Y-66648500D01*
X115840500Y-66648500D01*
X115840500Y-66665500D01*
G37*
G36*
X116860500Y-66665500D02*
X118254500Y-66665500D01*
X118254500Y-66648500D01*
X116860500Y-66648500D01*
X116860500Y-66665500D01*
G37*
G36*
X118543500Y-66665500D02*
X119937500Y-66665500D01*
X119937500Y-66648500D01*
X118543500Y-66648500D01*
X118543500Y-66665500D01*
G37*
G36*
X121110500Y-66665500D02*
X121314500Y-66665500D01*
X121314500Y-66648500D01*
X121110500Y-66648500D01*
X121110500Y-66665500D01*
G37*
G36*
X115840500Y-66648500D02*
X116571500Y-66648500D01*
X116571500Y-66631500D01*
X115840500Y-66631500D01*
X115840500Y-66648500D01*
G37*
G36*
X116894500Y-66648500D02*
X118220500Y-66648500D01*
X118220500Y-66631500D01*
X116894500Y-66631500D01*
X116894500Y-66648500D01*
G37*
G36*
X118526500Y-66648500D02*
X119937500Y-66648500D01*
X119937500Y-66631500D01*
X118526500Y-66631500D01*
X118526500Y-66648500D01*
G37*
G36*
X121093500Y-66648500D02*
X121314500Y-66648500D01*
X121314500Y-66631500D01*
X121093500Y-66631500D01*
X121093500Y-66648500D01*
G37*
G36*
X115840500Y-66631500D02*
X116554500Y-66631500D01*
X116554500Y-66614500D01*
X115840500Y-66614500D01*
X115840500Y-66631500D01*
G37*
G36*
X116928500Y-66631500D02*
X118203500Y-66631500D01*
X118203500Y-66614500D01*
X116928500Y-66614500D01*
X116928500Y-66631500D01*
G37*
G36*
X118509500Y-66631500D02*
X119937500Y-66631500D01*
X119937500Y-66614500D01*
X118509500Y-66614500D01*
X118509500Y-66631500D01*
G37*
G36*
X121076500Y-66631500D02*
X121297500Y-66631500D01*
X121297500Y-66614500D01*
X121076500Y-66614500D01*
X121076500Y-66631500D01*
G37*
G36*
X115840500Y-66614500D02*
X116554500Y-66614500D01*
X116554500Y-66597500D01*
X115840500Y-66597500D01*
X115840500Y-66614500D01*
G37*
G36*
X116962500Y-66614500D02*
X118169500Y-66614500D01*
X118169500Y-66597500D01*
X116962500Y-66597500D01*
X116962500Y-66614500D01*
G37*
G36*
X118492500Y-66614500D02*
X119937500Y-66614500D01*
X119937500Y-66597500D01*
X118492500Y-66597500D01*
X118492500Y-66614500D01*
G37*
G36*
X121059500Y-66614500D02*
X121280500Y-66614500D01*
X121280500Y-66597500D01*
X121059500Y-66597500D01*
X121059500Y-66614500D01*
G37*
G36*
X115840500Y-66597500D02*
X116537500Y-66597500D01*
X116537500Y-66580500D01*
X115840500Y-66580500D01*
X115840500Y-66597500D01*
G37*
G36*
X117013500Y-66597500D02*
X118152500Y-66597500D01*
X118152500Y-66580500D01*
X117013500Y-66580500D01*
X117013500Y-66597500D01*
G37*
G36*
X118475500Y-66597500D02*
X119937500Y-66597500D01*
X119937500Y-66580500D01*
X118475500Y-66580500D01*
X118475500Y-66597500D01*
G37*
G36*
X121025500Y-66597500D02*
X121280500Y-66597500D01*
X121280500Y-66580500D01*
X121025500Y-66580500D01*
X121025500Y-66597500D01*
G37*
G36*
X115840500Y-66580500D02*
X116537500Y-66580500D01*
X116537500Y-66563500D01*
X115840500Y-66563500D01*
X115840500Y-66580500D01*
G37*
G36*
X117047500Y-66580500D02*
X118118500Y-66580500D01*
X118118500Y-66563500D01*
X117047500Y-66563500D01*
X117047500Y-66580500D01*
G37*
G36*
X118458500Y-66580500D02*
X119937500Y-66580500D01*
X119937500Y-66563500D01*
X118458500Y-66563500D01*
X118458500Y-66580500D01*
G37*
G36*
X121008500Y-66580500D02*
X121263500Y-66580500D01*
X121263500Y-66563500D01*
X121008500Y-66563500D01*
X121008500Y-66580500D01*
G37*
G36*
X115840500Y-66563500D02*
X116520500Y-66563500D01*
X116520500Y-66546500D01*
X115840500Y-66546500D01*
X115840500Y-66563500D01*
G37*
G36*
X117081500Y-66563500D02*
X118067500Y-66563500D01*
X118067500Y-66546500D01*
X117081500Y-66546500D01*
X117081500Y-66563500D01*
G37*
G36*
X118458500Y-66563500D02*
X119937500Y-66563500D01*
X119937500Y-66546500D01*
X118458500Y-66546500D01*
X118458500Y-66563500D01*
G37*
G36*
X120991500Y-66563500D02*
X121246500Y-66563500D01*
X121246500Y-66546500D01*
X120991500Y-66546500D01*
X120991500Y-66563500D01*
G37*
G36*
X115840500Y-66546500D02*
X116520500Y-66546500D01*
X116520500Y-66529500D01*
X115840500Y-66529500D01*
X115840500Y-66546500D01*
G37*
G36*
X117132500Y-66546500D02*
X118033500Y-66546500D01*
X118033500Y-66529500D01*
X117132500Y-66529500D01*
X117132500Y-66546500D01*
G37*
G36*
X118441500Y-66546500D02*
X119937500Y-66546500D01*
X119937500Y-66529500D01*
X118441500Y-66529500D01*
X118441500Y-66546500D01*
G37*
G36*
X120957500Y-66546500D02*
X121229500Y-66546500D01*
X121229500Y-66529500D01*
X120957500Y-66529500D01*
X120957500Y-66546500D01*
G37*
G36*
X115840500Y-66529500D02*
X116503500Y-66529500D01*
X116503500Y-66512500D01*
X115840500Y-66512500D01*
X115840500Y-66529500D01*
G37*
G36*
X117183500Y-66529500D02*
X117999500Y-66529500D01*
X117999500Y-66512500D01*
X117183500Y-66512500D01*
X117183500Y-66529500D01*
G37*
G36*
X118407500Y-66529500D02*
X119937500Y-66529500D01*
X119937500Y-66512500D01*
X118407500Y-66512500D01*
X118407500Y-66529500D01*
G37*
G36*
X120940500Y-66529500D02*
X121229500Y-66529500D01*
X121229500Y-66512500D01*
X120940500Y-66512500D01*
X120940500Y-66529500D01*
G37*
G36*
X115840500Y-66512500D02*
X116486500Y-66512500D01*
X116486500Y-66495500D01*
X115840500Y-66495500D01*
X115840500Y-66512500D01*
G37*
G36*
X117234500Y-66512500D02*
X117948500Y-66512500D01*
X117948500Y-66495500D01*
X117234500Y-66495500D01*
X117234500Y-66512500D01*
G37*
G36*
X118390500Y-66512500D02*
X119937500Y-66512500D01*
X119937500Y-66495500D01*
X118390500Y-66495500D01*
X118390500Y-66512500D01*
G37*
G36*
X120906500Y-66512500D02*
X121212500Y-66512500D01*
X121212500Y-66495500D01*
X120906500Y-66495500D01*
X120906500Y-66512500D01*
G37*
G36*
X115840500Y-66495500D02*
X116486500Y-66495500D01*
X116486500Y-66478500D01*
X115840500Y-66478500D01*
X115840500Y-66495500D01*
G37*
G36*
X117319500Y-66495500D02*
X117897500Y-66495500D01*
X117897500Y-66478500D01*
X117319500Y-66478500D01*
X117319500Y-66495500D01*
G37*
G36*
X118373500Y-66495500D02*
X119937500Y-66495500D01*
X119937500Y-66478500D01*
X118373500Y-66478500D01*
X118373500Y-66495500D01*
G37*
G36*
X120889500Y-66495500D02*
X121195500Y-66495500D01*
X121195500Y-66478500D01*
X120889500Y-66478500D01*
X120889500Y-66495500D01*
G37*
G36*
X115840500Y-66478500D02*
X116469500Y-66478500D01*
X116469500Y-66461500D01*
X115840500Y-66461500D01*
X115840500Y-66478500D01*
G37*
G36*
X117387500Y-66478500D02*
X117812500Y-66478500D01*
X117812500Y-66461500D01*
X117387500Y-66461500D01*
X117387500Y-66478500D01*
G37*
G36*
X118356500Y-66478500D02*
X119937500Y-66478500D01*
X119937500Y-66461500D01*
X118356500Y-66461500D01*
X118356500Y-66478500D01*
G37*
G36*
X120855500Y-66478500D02*
X121178500Y-66478500D01*
X121178500Y-66461500D01*
X120855500Y-66461500D01*
X120855500Y-66478500D01*
G37*
G36*
X115840500Y-66461500D02*
X116452500Y-66461500D01*
X116452500Y-66444500D01*
X115840500Y-66444500D01*
X115840500Y-66461500D01*
G37*
G36*
X117523500Y-66461500D02*
X117693500Y-66461500D01*
X117693500Y-66444500D01*
X117523500Y-66444500D01*
X117523500Y-66461500D01*
G37*
G36*
X118339500Y-66461500D02*
X119937500Y-66461500D01*
X119937500Y-66444500D01*
X118339500Y-66444500D01*
X118339500Y-66461500D01*
G37*
G36*
X120821500Y-66461500D02*
X121178500Y-66461500D01*
X121178500Y-66444500D01*
X120821500Y-66444500D01*
X120821500Y-66461500D01*
G37*
G36*
X115840500Y-66444500D02*
X116452500Y-66444500D01*
X116452500Y-66427500D01*
X115840500Y-66427500D01*
X115840500Y-66444500D01*
G37*
G36*
X118322500Y-66444500D02*
X119937500Y-66444500D01*
X119937500Y-66427500D01*
X118322500Y-66427500D01*
X118322500Y-66444500D01*
G37*
G36*
X120787500Y-66444500D02*
X121161500Y-66444500D01*
X121161500Y-66427500D01*
X120787500Y-66427500D01*
X120787500Y-66444500D01*
G37*
G36*
X115840500Y-66427500D02*
X116435500Y-66427500D01*
X116435500Y-66410500D01*
X115840500Y-66410500D01*
X115840500Y-66427500D01*
G37*
G36*
X118305500Y-66427500D02*
X119937500Y-66427500D01*
X119937500Y-66410500D01*
X118305500Y-66410500D01*
X118305500Y-66427500D01*
G37*
G36*
X120753500Y-66427500D02*
X121144500Y-66427500D01*
X121144500Y-66410500D01*
X120753500Y-66410500D01*
X120753500Y-66427500D01*
G37*
G36*
X115840500Y-66410500D02*
X116418500Y-66410500D01*
X116418500Y-66393500D01*
X115840500Y-66393500D01*
X115840500Y-66410500D01*
G37*
G36*
X118288500Y-66410500D02*
X119121500Y-66410500D01*
X119121500Y-66393500D01*
X118288500Y-66393500D01*
X118288500Y-66410500D01*
G37*
G36*
X119172500Y-66410500D02*
X119937500Y-66410500D01*
X119937500Y-66393500D01*
X119172500Y-66393500D01*
X119172500Y-66410500D01*
G37*
G36*
X120719500Y-66410500D02*
X121127500Y-66410500D01*
X121127500Y-66393500D01*
X120719500Y-66393500D01*
X120719500Y-66410500D01*
G37*
G36*
X115840500Y-66393500D02*
X116401500Y-66393500D01*
X116401500Y-66376500D01*
X115840500Y-66376500D01*
X115840500Y-66393500D01*
G37*
G36*
X118254500Y-66393500D02*
X119121500Y-66393500D01*
X119121500Y-66376500D01*
X118254500Y-66376500D01*
X118254500Y-66393500D01*
G37*
G36*
X119223500Y-66393500D02*
X119937500Y-66393500D01*
X119937500Y-66376500D01*
X119223500Y-66376500D01*
X119223500Y-66393500D01*
G37*
G36*
X120685500Y-66393500D02*
X121110500Y-66393500D01*
X121110500Y-66376500D01*
X120685500Y-66376500D01*
X120685500Y-66393500D01*
G37*
G36*
X115840500Y-66376500D02*
X116384500Y-66376500D01*
X116384500Y-66359500D01*
X115840500Y-66359500D01*
X115840500Y-66376500D01*
G37*
G36*
X118237500Y-66376500D02*
X119104500Y-66376500D01*
X119104500Y-66359500D01*
X118237500Y-66359500D01*
X118237500Y-66376500D01*
G37*
G36*
X119274500Y-66376500D02*
X119937500Y-66376500D01*
X119937500Y-66359500D01*
X119274500Y-66359500D01*
X119274500Y-66376500D01*
G37*
G36*
X120651500Y-66376500D02*
X121093500Y-66376500D01*
X121093500Y-66359500D01*
X120651500Y-66359500D01*
X120651500Y-66376500D01*
G37*
G36*
X115840500Y-66359500D02*
X116367500Y-66359500D01*
X116367500Y-66342500D01*
X115840500Y-66342500D01*
X115840500Y-66359500D01*
G37*
G36*
X118203500Y-66359500D02*
X119104500Y-66359500D01*
X119104500Y-66342500D01*
X118203500Y-66342500D01*
X118203500Y-66359500D01*
G37*
G36*
X119342500Y-66359500D02*
X119937500Y-66359500D01*
X119937500Y-66342500D01*
X119342500Y-66342500D01*
X119342500Y-66359500D01*
G37*
G36*
X120600500Y-66359500D02*
X121076500Y-66359500D01*
X121076500Y-66342500D01*
X120600500Y-66342500D01*
X120600500Y-66359500D01*
G37*
G36*
X115840500Y-66342500D02*
X116350500Y-66342500D01*
X116350500Y-66325500D01*
X115840500Y-66325500D01*
X115840500Y-66342500D01*
G37*
G36*
X118186500Y-66342500D02*
X119087500Y-66342500D01*
X119087500Y-66325500D01*
X118186500Y-66325500D01*
X118186500Y-66342500D01*
G37*
G36*
X119427500Y-66342500D02*
X119937500Y-66342500D01*
X119937500Y-66325500D01*
X119427500Y-66325500D01*
X119427500Y-66342500D01*
G37*
G36*
X120549500Y-66342500D02*
X121059500Y-66342500D01*
X121059500Y-66325500D01*
X120549500Y-66325500D01*
X120549500Y-66342500D01*
G37*
G36*
X115840500Y-66325500D02*
X116333500Y-66325500D01*
X116333500Y-66308500D01*
X115840500Y-66308500D01*
X115840500Y-66325500D01*
G37*
G36*
X118152500Y-66325500D02*
X119087500Y-66325500D01*
X119087500Y-66308500D01*
X118152500Y-66308500D01*
X118152500Y-66325500D01*
G37*
G36*
X119495500Y-66325500D02*
X119937500Y-66325500D01*
X119937500Y-66308500D01*
X119495500Y-66308500D01*
X119495500Y-66325500D01*
G37*
G36*
X120498500Y-66325500D02*
X121042500Y-66325500D01*
X121042500Y-66308500D01*
X120498500Y-66308500D01*
X120498500Y-66325500D01*
G37*
G36*
X115840500Y-66308500D02*
X116316500Y-66308500D01*
X116316500Y-66291500D01*
X115840500Y-66291500D01*
X115840500Y-66308500D01*
G37*
G36*
X118135500Y-66308500D02*
X119070500Y-66308500D01*
X119070500Y-66291500D01*
X118135500Y-66291500D01*
X118135500Y-66308500D01*
G37*
G36*
X119580500Y-66308500D02*
X119937500Y-66308500D01*
X119937500Y-66291500D01*
X119580500Y-66291500D01*
X119580500Y-66308500D01*
G37*
G36*
X120430500Y-66308500D02*
X121025500Y-66308500D01*
X121025500Y-66291500D01*
X120430500Y-66291500D01*
X120430500Y-66308500D01*
G37*
G36*
X115840500Y-66291500D02*
X116299500Y-66291500D01*
X116299500Y-66274500D01*
X115840500Y-66274500D01*
X115840500Y-66291500D01*
G37*
G36*
X118101500Y-66291500D02*
X119053500Y-66291500D01*
X119053500Y-66274500D01*
X118101500Y-66274500D01*
X118101500Y-66291500D01*
G37*
G36*
X119682500Y-66291500D02*
X119937500Y-66291500D01*
X119937500Y-66274500D01*
X119682500Y-66274500D01*
X119682500Y-66291500D01*
G37*
G36*
X120311500Y-66291500D02*
X120991500Y-66291500D01*
X120991500Y-66274500D01*
X120311500Y-66274500D01*
X120311500Y-66291500D01*
G37*
G36*
X115840500Y-66274500D02*
X116265500Y-66274500D01*
X116265500Y-66257500D01*
X115840500Y-66257500D01*
X115840500Y-66274500D01*
G37*
G36*
X118067500Y-66274500D02*
X119053500Y-66274500D01*
X119053500Y-66257500D01*
X118067500Y-66257500D01*
X118067500Y-66274500D01*
G37*
G36*
X119886500Y-66274500D02*
X120974500Y-66274500D01*
X120974500Y-66257500D01*
X119886500Y-66257500D01*
X119886500Y-66274500D01*
G37*
G36*
X115840500Y-66257500D02*
X116248500Y-66257500D01*
X116248500Y-66240500D01*
X115840500Y-66240500D01*
X115840500Y-66257500D01*
G37*
G36*
X118033500Y-66257500D02*
X119036500Y-66257500D01*
X119036500Y-66240500D01*
X118033500Y-66240500D01*
X118033500Y-66257500D01*
G37*
G36*
X119937500Y-66257500D02*
X120957500Y-66257500D01*
X120957500Y-66240500D01*
X119937500Y-66240500D01*
X119937500Y-66257500D01*
G37*
G36*
X115840500Y-66240500D02*
X116214500Y-66240500D01*
X116214500Y-66223500D01*
X115840500Y-66223500D01*
X115840500Y-66240500D01*
G37*
G36*
X117999500Y-66240500D02*
X119036500Y-66240500D01*
X119036500Y-66223500D01*
X117999500Y-66223500D01*
X117999500Y-66240500D01*
G37*
G36*
X119937500Y-66240500D02*
X120940500Y-66240500D01*
X120940500Y-66223500D01*
X119937500Y-66223500D01*
X119937500Y-66240500D01*
G37*
G36*
X115840500Y-66223500D02*
X116197500Y-66223500D01*
X116197500Y-66206500D01*
X115840500Y-66206500D01*
X115840500Y-66223500D01*
G37*
G36*
X116792500Y-66223500D02*
X116843500Y-66223500D01*
X116843500Y-66206500D01*
X116792500Y-66206500D01*
X116792500Y-66223500D01*
G37*
G36*
X117948500Y-66223500D02*
X119019500Y-66223500D01*
X119019500Y-66206500D01*
X117948500Y-66206500D01*
X117948500Y-66223500D01*
G37*
G36*
X119937500Y-66223500D02*
X120906500Y-66223500D01*
X120906500Y-66206500D01*
X119937500Y-66206500D01*
X119937500Y-66223500D01*
G37*
G36*
X115840500Y-66206500D02*
X116163500Y-66206500D01*
X116163500Y-66189500D01*
X115840500Y-66189500D01*
X115840500Y-66206500D01*
G37*
G36*
X116775500Y-66206500D02*
X116911500Y-66206500D01*
X116911500Y-66189500D01*
X116775500Y-66189500D01*
X116775500Y-66206500D01*
G37*
G36*
X117897500Y-66206500D02*
X119019500Y-66206500D01*
X119019500Y-66189500D01*
X117897500Y-66189500D01*
X117897500Y-66206500D01*
G37*
G36*
X119937500Y-66206500D02*
X120889500Y-66206500D01*
X120889500Y-66189500D01*
X119937500Y-66189500D01*
X119937500Y-66206500D01*
G37*
G36*
X115840500Y-66189500D02*
X116129500Y-66189500D01*
X116129500Y-66172500D01*
X115840500Y-66172500D01*
X115840500Y-66189500D01*
G37*
G36*
X116758500Y-66189500D02*
X116962500Y-66189500D01*
X116962500Y-66172500D01*
X116758500Y-66172500D01*
X116758500Y-66189500D01*
G37*
G36*
X117846500Y-66189500D02*
X119002500Y-66189500D01*
X119002500Y-66172500D01*
X117846500Y-66172500D01*
X117846500Y-66189500D01*
G37*
G36*
X119937500Y-66189500D02*
X120855500Y-66189500D01*
X120855500Y-66172500D01*
X119937500Y-66172500D01*
X119937500Y-66189500D01*
G37*
G36*
X115840500Y-66172500D02*
X116095500Y-66172500D01*
X116095500Y-66155500D01*
X115840500Y-66155500D01*
X115840500Y-66172500D01*
G37*
G36*
X116741500Y-66172500D02*
X117030500Y-66172500D01*
X117030500Y-66155500D01*
X116741500Y-66155500D01*
X116741500Y-66172500D01*
G37*
G36*
X117795500Y-66172500D02*
X118985500Y-66172500D01*
X118985500Y-66155500D01*
X117795500Y-66155500D01*
X117795500Y-66172500D01*
G37*
G36*
X119937500Y-66172500D02*
X120838500Y-66172500D01*
X120838500Y-66155500D01*
X119937500Y-66155500D01*
X119937500Y-66172500D01*
G37*
G36*
X115840500Y-66155500D02*
X116061500Y-66155500D01*
X116061500Y-66138500D01*
X115840500Y-66138500D01*
X115840500Y-66155500D01*
G37*
G36*
X116741500Y-66155500D02*
X117115500Y-66155500D01*
X117115500Y-66138500D01*
X116741500Y-66138500D01*
X116741500Y-66155500D01*
G37*
G36*
X117710500Y-66155500D02*
X118985500Y-66155500D01*
X118985500Y-66138500D01*
X117710500Y-66138500D01*
X117710500Y-66155500D01*
G37*
G36*
X119937500Y-66155500D02*
X120804500Y-66155500D01*
X120804500Y-66138500D01*
X119937500Y-66138500D01*
X119937500Y-66155500D01*
G37*
G36*
X115840500Y-66138500D02*
X116010500Y-66138500D01*
X116010500Y-66121500D01*
X115840500Y-66121500D01*
X115840500Y-66138500D01*
G37*
G36*
X116724500Y-66138500D02*
X117251500Y-66138500D01*
X117251500Y-66121500D01*
X116724500Y-66121500D01*
X116724500Y-66138500D01*
G37*
G36*
X117574500Y-66138500D02*
X118968500Y-66138500D01*
X118968500Y-66121500D01*
X117574500Y-66121500D01*
X117574500Y-66138500D01*
G37*
G36*
X119937500Y-66138500D02*
X120770500Y-66138500D01*
X120770500Y-66121500D01*
X119937500Y-66121500D01*
X119937500Y-66138500D01*
G37*
G36*
X115840500Y-66121500D02*
X115976500Y-66121500D01*
X115976500Y-66104500D01*
X115840500Y-66104500D01*
X115840500Y-66121500D01*
G37*
G36*
X116690500Y-66121500D02*
X118968500Y-66121500D01*
X118968500Y-66104500D01*
X116690500Y-66104500D01*
X116690500Y-66121500D01*
G37*
G36*
X119937500Y-66121500D02*
X120736500Y-66121500D01*
X120736500Y-66104500D01*
X119937500Y-66104500D01*
X119937500Y-66121500D01*
G37*
G36*
X115840500Y-66104500D02*
X115908500Y-66104500D01*
X115908500Y-66087500D01*
X115840500Y-66087500D01*
X115840500Y-66104500D01*
G37*
G36*
X116673500Y-66104500D02*
X118951500Y-66104500D01*
X118951500Y-66087500D01*
X116673500Y-66087500D01*
X116673500Y-66104500D01*
G37*
G36*
X119937500Y-66104500D02*
X120702500Y-66104500D01*
X120702500Y-66087500D01*
X119937500Y-66087500D01*
X119937500Y-66104500D01*
G37*
G36*
X115823500Y-66087500D02*
X115857500Y-66087500D01*
X115857500Y-66070500D01*
X115823500Y-66070500D01*
X115823500Y-66087500D01*
G37*
G36*
X116656500Y-66087500D02*
X118934500Y-66087500D01*
X118934500Y-66070500D01*
X116656500Y-66070500D01*
X116656500Y-66087500D01*
G37*
G36*
X119937500Y-66087500D02*
X120668500Y-66087500D01*
X120668500Y-66070500D01*
X119937500Y-66070500D01*
X119937500Y-66087500D01*
G37*
G36*
X115755500Y-66070500D02*
X115840500Y-66070500D01*
X115840500Y-66053500D01*
X115755500Y-66053500D01*
X115755500Y-66070500D01*
G37*
G36*
X116639500Y-66070500D02*
X118934500Y-66070500D01*
X118934500Y-66053500D01*
X116639500Y-66053500D01*
X116639500Y-66070500D01*
G37*
G36*
X119937500Y-66070500D02*
X120634500Y-66070500D01*
X120634500Y-66053500D01*
X119937500Y-66053500D01*
X119937500Y-66070500D01*
G37*
G36*
X114888500Y-66053500D02*
X115245500Y-66053500D01*
X115245500Y-66036500D01*
X114888500Y-66036500D01*
X114888500Y-66053500D01*
G37*
G36*
X115670500Y-66053500D02*
X115840500Y-66053500D01*
X115840500Y-66036500D01*
X115670500Y-66036500D01*
X115670500Y-66053500D01*
G37*
G36*
X116622500Y-66053500D02*
X118917500Y-66053500D01*
X118917500Y-66036500D01*
X116622500Y-66036500D01*
X116622500Y-66053500D01*
G37*
G36*
X119937500Y-66053500D02*
X120600500Y-66053500D01*
X120600500Y-66036500D01*
X119937500Y-66036500D01*
X119937500Y-66053500D01*
G37*
G36*
X114905500Y-66036500D02*
X115840500Y-66036500D01*
X115840500Y-66019500D01*
X114905500Y-66019500D01*
X114905500Y-66036500D01*
G37*
G36*
X116605500Y-66036500D02*
X118900500Y-66036500D01*
X118900500Y-66019500D01*
X116605500Y-66019500D01*
X116605500Y-66036500D01*
G37*
G36*
X119937500Y-66036500D02*
X120549500Y-66036500D01*
X120549500Y-66019500D01*
X119937500Y-66019500D01*
X119937500Y-66036500D01*
G37*
G36*
X114956500Y-66019500D02*
X115840500Y-66019500D01*
X115840500Y-66002500D01*
X114956500Y-66002500D01*
X114956500Y-66019500D01*
G37*
G36*
X116571500Y-66019500D02*
X118883500Y-66019500D01*
X118883500Y-66002500D01*
X116571500Y-66002500D01*
X116571500Y-66019500D01*
G37*
G36*
X119937500Y-66019500D02*
X120498500Y-66019500D01*
X120498500Y-66002500D01*
X119937500Y-66002500D01*
X119937500Y-66019500D01*
G37*
G36*
X114990500Y-66002500D02*
X115840500Y-66002500D01*
X115840500Y-65985500D01*
X114990500Y-65985500D01*
X114990500Y-66002500D01*
G37*
G36*
X116554500Y-66002500D02*
X118883500Y-66002500D01*
X118883500Y-65985500D01*
X116554500Y-65985500D01*
X116554500Y-66002500D01*
G37*
G36*
X119937500Y-66002500D02*
X120447500Y-66002500D01*
X120447500Y-65985500D01*
X119937500Y-65985500D01*
X119937500Y-66002500D01*
G37*
G36*
X115024500Y-65985500D02*
X115840500Y-65985500D01*
X115840500Y-65968500D01*
X115024500Y-65968500D01*
X115024500Y-65985500D01*
G37*
G36*
X116520500Y-65985500D02*
X118866500Y-65985500D01*
X118866500Y-65968500D01*
X116520500Y-65968500D01*
X116520500Y-65985500D01*
G37*
G36*
X119937500Y-65985500D02*
X120379500Y-65985500D01*
X120379500Y-65968500D01*
X119937500Y-65968500D01*
X119937500Y-65985500D01*
G37*
G36*
X115075500Y-65968500D02*
X115840500Y-65968500D01*
X115840500Y-65951500D01*
X115075500Y-65951500D01*
X115075500Y-65968500D01*
G37*
G36*
X116503500Y-65968500D02*
X118849500Y-65968500D01*
X118849500Y-65951500D01*
X116503500Y-65951500D01*
X116503500Y-65968500D01*
G37*
G36*
X119937500Y-65968500D02*
X120311500Y-65968500D01*
X120311500Y-65951500D01*
X119937500Y-65951500D01*
X119937500Y-65968500D01*
G37*
G36*
X115143500Y-65951500D02*
X115840500Y-65951500D01*
X115840500Y-65934500D01*
X115143500Y-65934500D01*
X115143500Y-65951500D01*
G37*
G36*
X116469500Y-65951500D02*
X118849500Y-65951500D01*
X118849500Y-65934500D01*
X116469500Y-65934500D01*
X116469500Y-65951500D01*
G37*
G36*
X119937500Y-65951500D02*
X120226500Y-65951500D01*
X120226500Y-65934500D01*
X119937500Y-65934500D01*
X119937500Y-65951500D01*
G37*
G36*
X115194500Y-65934500D02*
X115840500Y-65934500D01*
X115840500Y-65917500D01*
X115194500Y-65917500D01*
X115194500Y-65934500D01*
G37*
G36*
X116435500Y-65934500D02*
X118832500Y-65934500D01*
X118832500Y-65917500D01*
X116435500Y-65917500D01*
X116435500Y-65934500D01*
G37*
G36*
X119325500Y-65934500D02*
X119393500Y-65934500D01*
X119393500Y-65917500D01*
X119325500Y-65917500D01*
X119325500Y-65934500D01*
G37*
G36*
X119937500Y-65934500D02*
X120124500Y-65934500D01*
X120124500Y-65917500D01*
X119937500Y-65917500D01*
X119937500Y-65934500D01*
G37*
G36*
X115262500Y-65917500D02*
X115840500Y-65917500D01*
X115840500Y-65900500D01*
X115262500Y-65900500D01*
X115262500Y-65917500D01*
G37*
G36*
X116401500Y-65917500D02*
X118815500Y-65917500D01*
X118815500Y-65900500D01*
X116401500Y-65900500D01*
X116401500Y-65917500D01*
G37*
G36*
X119325500Y-65917500D02*
X119597500Y-65917500D01*
X119597500Y-65900500D01*
X119325500Y-65900500D01*
X119325500Y-65917500D01*
G37*
G36*
X119869500Y-65917500D02*
X119971500Y-65917500D01*
X119971500Y-65900500D01*
X119869500Y-65900500D01*
X119869500Y-65917500D01*
G37*
G36*
X115313500Y-65900500D02*
X115840500Y-65900500D01*
X115840500Y-65883500D01*
X115313500Y-65883500D01*
X115313500Y-65900500D01*
G37*
G36*
X116350500Y-65900500D02*
X118798500Y-65900500D01*
X118798500Y-65883500D01*
X116350500Y-65883500D01*
X116350500Y-65900500D01*
G37*
G36*
X119308500Y-65900500D02*
X119937500Y-65900500D01*
X119937500Y-65883500D01*
X119308500Y-65883500D01*
X119308500Y-65900500D01*
G37*
G36*
X115381500Y-65883500D02*
X115840500Y-65883500D01*
X115840500Y-65866500D01*
X115381500Y-65866500D01*
X115381500Y-65883500D01*
G37*
G36*
X116316500Y-65883500D02*
X118781500Y-65883500D01*
X118781500Y-65866500D01*
X116316500Y-65866500D01*
X116316500Y-65883500D01*
G37*
G36*
X119291500Y-65883500D02*
X119937500Y-65883500D01*
X119937500Y-65866500D01*
X119291500Y-65866500D01*
X119291500Y-65883500D01*
G37*
G36*
X115466500Y-65866500D02*
X115840500Y-65866500D01*
X115840500Y-65849500D01*
X115466500Y-65849500D01*
X115466500Y-65866500D01*
G37*
G36*
X116265500Y-65866500D02*
X118764500Y-65866500D01*
X118764500Y-65849500D01*
X116265500Y-65849500D01*
X116265500Y-65866500D01*
G37*
G36*
X119291500Y-65866500D02*
X119937500Y-65866500D01*
X119937500Y-65849500D01*
X119291500Y-65849500D01*
X119291500Y-65866500D01*
G37*
G36*
X115534500Y-65849500D02*
X115840500Y-65849500D01*
X115840500Y-65832500D01*
X115534500Y-65832500D01*
X115534500Y-65849500D01*
G37*
G36*
X116197500Y-65849500D02*
X118747500Y-65849500D01*
X118747500Y-65832500D01*
X116197500Y-65832500D01*
X116197500Y-65849500D01*
G37*
G36*
X119274500Y-65849500D02*
X119937500Y-65849500D01*
X119937500Y-65832500D01*
X119274500Y-65832500D01*
X119274500Y-65849500D01*
G37*
G36*
X115602500Y-65832500D02*
X115840500Y-65832500D01*
X115840500Y-65815500D01*
X115602500Y-65815500D01*
X115602500Y-65832500D01*
G37*
G36*
X116112500Y-65832500D02*
X118730500Y-65832500D01*
X118730500Y-65815500D01*
X116112500Y-65815500D01*
X116112500Y-65832500D01*
G37*
G36*
X119257500Y-65832500D02*
X119937500Y-65832500D01*
X119937500Y-65815500D01*
X119257500Y-65815500D01*
X119257500Y-65832500D01*
G37*
G36*
X115721500Y-65815500D02*
X118713500Y-65815500D01*
X118713500Y-65798500D01*
X115721500Y-65798500D01*
X115721500Y-65815500D01*
G37*
G36*
X119257500Y-65815500D02*
X119937500Y-65815500D01*
X119937500Y-65798500D01*
X119257500Y-65798500D01*
X119257500Y-65815500D01*
G37*
G36*
X115840500Y-65798500D02*
X118696500Y-65798500D01*
X118696500Y-65781500D01*
X115840500Y-65781500D01*
X115840500Y-65798500D01*
G37*
G36*
X119240500Y-65798500D02*
X119937500Y-65798500D01*
X119937500Y-65781500D01*
X119240500Y-65781500D01*
X119240500Y-65798500D01*
G37*
G36*
X115840500Y-65781500D02*
X118679500Y-65781500D01*
X118679500Y-65764500D01*
X115840500Y-65764500D01*
X115840500Y-65781500D01*
G37*
G36*
X119223500Y-65781500D02*
X119937500Y-65781500D01*
X119937500Y-65764500D01*
X119223500Y-65764500D01*
X119223500Y-65781500D01*
G37*
G36*
X115840500Y-65764500D02*
X118662500Y-65764500D01*
X118662500Y-65747500D01*
X115840500Y-65747500D01*
X115840500Y-65764500D01*
G37*
G36*
X119206500Y-65764500D02*
X119937500Y-65764500D01*
X119937500Y-65747500D01*
X119206500Y-65747500D01*
X119206500Y-65764500D01*
G37*
G36*
X115840500Y-65747500D02*
X118645500Y-65747500D01*
X118645500Y-65730500D01*
X115840500Y-65730500D01*
X115840500Y-65747500D01*
G37*
G36*
X119189500Y-65747500D02*
X119937500Y-65747500D01*
X119937500Y-65730500D01*
X119189500Y-65730500D01*
X119189500Y-65747500D01*
G37*
G36*
X115840500Y-65730500D02*
X118611500Y-65730500D01*
X118611500Y-65713500D01*
X115840500Y-65713500D01*
X115840500Y-65730500D01*
G37*
G36*
X119172500Y-65730500D02*
X119937500Y-65730500D01*
X119937500Y-65713500D01*
X119172500Y-65713500D01*
X119172500Y-65730500D01*
G37*
G36*
X115840500Y-65713500D02*
X118594500Y-65713500D01*
X118594500Y-65696500D01*
X115840500Y-65696500D01*
X115840500Y-65713500D01*
G37*
G36*
X119172500Y-65713500D02*
X119937500Y-65713500D01*
X119937500Y-65696500D01*
X119172500Y-65696500D01*
X119172500Y-65713500D01*
G37*
G36*
X115840500Y-65696500D02*
X118560500Y-65696500D01*
X118560500Y-65679500D01*
X115840500Y-65679500D01*
X115840500Y-65696500D01*
G37*
G36*
X119155500Y-65696500D02*
X119937500Y-65696500D01*
X119937500Y-65679500D01*
X119155500Y-65679500D01*
X119155500Y-65696500D01*
G37*
G36*
X115840500Y-65679500D02*
X118543500Y-65679500D01*
X118543500Y-65662500D01*
X115840500Y-65662500D01*
X115840500Y-65679500D01*
G37*
G36*
X119138500Y-65679500D02*
X119937500Y-65679500D01*
X119937500Y-65662500D01*
X119138500Y-65662500D01*
X119138500Y-65679500D01*
G37*
G36*
X115840500Y-65662500D02*
X118509500Y-65662500D01*
X118509500Y-65645500D01*
X115840500Y-65645500D01*
X115840500Y-65662500D01*
G37*
G36*
X119121500Y-65662500D02*
X119937500Y-65662500D01*
X119937500Y-65645500D01*
X119121500Y-65645500D01*
X119121500Y-65662500D01*
G37*
G36*
X115840500Y-65645500D02*
X118475500Y-65645500D01*
X118475500Y-65628500D01*
X115840500Y-65628500D01*
X115840500Y-65645500D01*
G37*
G36*
X119104500Y-65645500D02*
X119937500Y-65645500D01*
X119937500Y-65628500D01*
X119104500Y-65628500D01*
X119104500Y-65645500D01*
G37*
G36*
X115840500Y-65628500D02*
X118441500Y-65628500D01*
X118441500Y-65611500D01*
X115840500Y-65611500D01*
X115840500Y-65628500D01*
G37*
G36*
X119087500Y-65628500D02*
X119937500Y-65628500D01*
X119937500Y-65611500D01*
X119087500Y-65611500D01*
X119087500Y-65628500D01*
G37*
G36*
X115840500Y-65611500D02*
X118407500Y-65611500D01*
X118407500Y-65594500D01*
X115840500Y-65594500D01*
X115840500Y-65611500D01*
G37*
G36*
X119070500Y-65611500D02*
X119937500Y-65611500D01*
X119937500Y-65594500D01*
X119070500Y-65594500D01*
X119070500Y-65611500D01*
G37*
G36*
X115840500Y-65594500D02*
X118373500Y-65594500D01*
X118373500Y-65577500D01*
X115840500Y-65577500D01*
X115840500Y-65594500D01*
G37*
G36*
X119053500Y-65594500D02*
X119937500Y-65594500D01*
X119937500Y-65577500D01*
X119053500Y-65577500D01*
X119053500Y-65594500D01*
G37*
G36*
X115840500Y-65577500D02*
X118322500Y-65577500D01*
X118322500Y-65560500D01*
X115840500Y-65560500D01*
X115840500Y-65577500D01*
G37*
G36*
X119019500Y-65577500D02*
X119937500Y-65577500D01*
X119937500Y-65560500D01*
X119019500Y-65560500D01*
X119019500Y-65577500D01*
G37*
G36*
X115840500Y-65560500D02*
X118254500Y-65560500D01*
X118254500Y-65543500D01*
X115840500Y-65543500D01*
X115840500Y-65560500D01*
G37*
G36*
X119002500Y-65560500D02*
X119937500Y-65560500D01*
X119937500Y-65543500D01*
X119002500Y-65543500D01*
X119002500Y-65560500D01*
G37*
G36*
X115840500Y-65543500D02*
X118186500Y-65543500D01*
X118186500Y-65526500D01*
X115840500Y-65526500D01*
X115840500Y-65543500D01*
G37*
G36*
X118985500Y-65543500D02*
X119937500Y-65543500D01*
X119937500Y-65526500D01*
X118985500Y-65526500D01*
X118985500Y-65543500D01*
G37*
G36*
X115840500Y-65526500D02*
X118084500Y-65526500D01*
X118084500Y-65509500D01*
X115840500Y-65509500D01*
X115840500Y-65526500D01*
G37*
G36*
X118968500Y-65526500D02*
X119937500Y-65526500D01*
X119937500Y-65509500D01*
X118968500Y-65509500D01*
X118968500Y-65526500D01*
G37*
G36*
X115840500Y-65509500D02*
X117540500Y-65509500D01*
X117540500Y-65492500D01*
X115840500Y-65492500D01*
X115840500Y-65509500D01*
G37*
G36*
X118934500Y-65509500D02*
X119937500Y-65509500D01*
X119937500Y-65492500D01*
X118934500Y-65492500D01*
X118934500Y-65509500D01*
G37*
G36*
X115840500Y-65492500D02*
X117557500Y-65492500D01*
X117557500Y-65475500D01*
X115840500Y-65475500D01*
X115840500Y-65492500D01*
G37*
G36*
X118917500Y-65492500D02*
X119937500Y-65492500D01*
X119937500Y-65475500D01*
X118917500Y-65475500D01*
X118917500Y-65492500D01*
G37*
G36*
X115840500Y-65475500D02*
X117574500Y-65475500D01*
X117574500Y-65458500D01*
X115840500Y-65458500D01*
X115840500Y-65475500D01*
G37*
G36*
X118900500Y-65475500D02*
X119937500Y-65475500D01*
X119937500Y-65458500D01*
X118900500Y-65458500D01*
X118900500Y-65475500D01*
G37*
G36*
X115840500Y-65458500D02*
X117608500Y-65458500D01*
X117608500Y-65441500D01*
X115840500Y-65441500D01*
X115840500Y-65458500D01*
G37*
G36*
X118866500Y-65458500D02*
X119937500Y-65458500D01*
X119937500Y-65441500D01*
X118866500Y-65441500D01*
X118866500Y-65458500D01*
G37*
G36*
X115840500Y-65441500D02*
X117642500Y-65441500D01*
X117642500Y-65424500D01*
X115840500Y-65424500D01*
X115840500Y-65441500D01*
G37*
G36*
X118832500Y-65441500D02*
X119937500Y-65441500D01*
X119937500Y-65424500D01*
X118832500Y-65424500D01*
X118832500Y-65441500D01*
G37*
G36*
X115840500Y-65424500D02*
X117676500Y-65424500D01*
X117676500Y-65407500D01*
X115840500Y-65407500D01*
X115840500Y-65424500D01*
G37*
G36*
X118798500Y-65424500D02*
X119937500Y-65424500D01*
X119937500Y-65407500D01*
X118798500Y-65407500D01*
X118798500Y-65424500D01*
G37*
G36*
X115840500Y-65407500D02*
X117710500Y-65407500D01*
X117710500Y-65390500D01*
X115840500Y-65390500D01*
X115840500Y-65407500D01*
G37*
G36*
X118764500Y-65407500D02*
X119937500Y-65407500D01*
X119937500Y-65390500D01*
X118764500Y-65390500D01*
X118764500Y-65407500D01*
G37*
G36*
X115840500Y-65390500D02*
X117744500Y-65390500D01*
X117744500Y-65373500D01*
X115840500Y-65373500D01*
X115840500Y-65390500D01*
G37*
G36*
X118747500Y-65390500D02*
X119937500Y-65390500D01*
X119937500Y-65373500D01*
X118747500Y-65373500D01*
X118747500Y-65390500D01*
G37*
G36*
X115840500Y-65373500D02*
X117795500Y-65373500D01*
X117795500Y-65356500D01*
X115840500Y-65356500D01*
X115840500Y-65373500D01*
G37*
G36*
X118696500Y-65373500D02*
X119937500Y-65373500D01*
X119937500Y-65356500D01*
X118696500Y-65356500D01*
X118696500Y-65373500D01*
G37*
G36*
X115840500Y-65356500D02*
X117846500Y-65356500D01*
X117846500Y-65339500D01*
X115840500Y-65339500D01*
X115840500Y-65356500D01*
G37*
G36*
X118662500Y-65356500D02*
X119937500Y-65356500D01*
X119937500Y-65339500D01*
X118662500Y-65339500D01*
X118662500Y-65356500D01*
G37*
G36*
X115840500Y-65339500D02*
X117897500Y-65339500D01*
X117897500Y-65322500D01*
X115840500Y-65322500D01*
X115840500Y-65339500D01*
G37*
G36*
X118611500Y-65339500D02*
X119937500Y-65339500D01*
X119937500Y-65322500D01*
X118611500Y-65322500D01*
X118611500Y-65339500D01*
G37*
G36*
X115840500Y-65322500D02*
X117965500Y-65322500D01*
X117965500Y-65305500D01*
X115840500Y-65305500D01*
X115840500Y-65322500D01*
G37*
G36*
X118560500Y-65322500D02*
X119937500Y-65322500D01*
X119937500Y-65305500D01*
X118560500Y-65305500D01*
X118560500Y-65322500D01*
G37*
G36*
X115840500Y-65305500D02*
X118033500Y-65305500D01*
X118033500Y-65288500D01*
X115840500Y-65288500D01*
X115840500Y-65305500D01*
G37*
G36*
X118492500Y-65305500D02*
X119937500Y-65305500D01*
X119937500Y-65288500D01*
X118492500Y-65288500D01*
X118492500Y-65305500D01*
G37*
G36*
X115840500Y-65288500D02*
X118152500Y-65288500D01*
X118152500Y-65271500D01*
X115840500Y-65271500D01*
X115840500Y-65288500D01*
G37*
G36*
X118373500Y-65288500D02*
X119937500Y-65288500D01*
X119937500Y-65271500D01*
X118373500Y-65271500D01*
X118373500Y-65288500D01*
G37*
G36*
X115840500Y-65271500D02*
X119937500Y-65271500D01*
X119937500Y-65254500D01*
X115840500Y-65254500D01*
X115840500Y-65271500D01*
G37*
G36*
X115840500Y-65254500D02*
X119937500Y-65254500D01*
X119937500Y-65237500D01*
X115840500Y-65237500D01*
X115840500Y-65254500D01*
G37*
G36*
X115840500Y-65237500D02*
X119937500Y-65237500D01*
X119937500Y-65220500D01*
X115840500Y-65220500D01*
X115840500Y-65237500D01*
G37*
G36*
X115840500Y-65220500D02*
X119937500Y-65220500D01*
X119937500Y-65203500D01*
X115840500Y-65203500D01*
X115840500Y-65220500D01*
G37*
G36*
X115840500Y-65203500D02*
X119937500Y-65203500D01*
X119937500Y-65186500D01*
X115840500Y-65186500D01*
X115840500Y-65203500D01*
G37*
G36*
X115840500Y-65186500D02*
X119937500Y-65186500D01*
X119937500Y-65169500D01*
X115840500Y-65169500D01*
X115840500Y-65186500D01*
G37*
G36*
X115840500Y-65169500D02*
X119937500Y-65169500D01*
X119937500Y-65152500D01*
X115840500Y-65152500D01*
X115840500Y-65169500D01*
G37*
G36*
X115840500Y-65152500D02*
X119937500Y-65152500D01*
X119937500Y-65135500D01*
X115840500Y-65135500D01*
X115840500Y-65152500D01*
G37*
G36*
X115840500Y-65135500D02*
X119937500Y-65135500D01*
X119937500Y-65118500D01*
X115840500Y-65118500D01*
X115840500Y-65135500D01*
G37*
G36*
X115840500Y-65118500D02*
X119937500Y-65118500D01*
X119937500Y-65101500D01*
X115840500Y-65101500D01*
X115840500Y-65118500D01*
G37*
G36*
X115840500Y-65101500D02*
X119937500Y-65101500D01*
X119937500Y-65084500D01*
X115840500Y-65084500D01*
X115840500Y-65101500D01*
G37*
G36*
X115840500Y-65084500D02*
X119937500Y-65084500D01*
X119937500Y-65067500D01*
X115840500Y-65067500D01*
X115840500Y-65084500D01*
G37*
G36*
X115840500Y-65067500D02*
X119937500Y-65067500D01*
X119937500Y-65050500D01*
X115840500Y-65050500D01*
X115840500Y-65067500D01*
G37*
G36*
X115840500Y-65050500D02*
X119937500Y-65050500D01*
X119937500Y-65033500D01*
X115840500Y-65033500D01*
X115840500Y-65050500D01*
G37*
G36*
X115840500Y-65033500D02*
X119937500Y-65033500D01*
X119937500Y-65016500D01*
X115840500Y-65016500D01*
X115840500Y-65033500D01*
G37*
G36*
X115840500Y-65016500D02*
X119937500Y-65016500D01*
X119937500Y-64999500D01*
X115840500Y-64999500D01*
X115840500Y-65016500D01*
G37*
G36*
X115840500Y-64999500D02*
X119937500Y-64999500D01*
X119937500Y-64982500D01*
X115840500Y-64982500D01*
X115840500Y-64999500D01*
G37*
G36*
X115840500Y-64982500D02*
X119937500Y-64982500D01*
X119937500Y-64965500D01*
X115840500Y-64965500D01*
X115840500Y-64982500D01*
G37*
G36*
X115840500Y-64965500D02*
X119937500Y-64965500D01*
X119937500Y-64948500D01*
X115840500Y-64948500D01*
X115840500Y-64965500D01*
G37*
G36*
X115840500Y-64948500D02*
X119937500Y-64948500D01*
X119937500Y-64931500D01*
X115840500Y-64931500D01*
X115840500Y-64948500D01*
G37*
G36*
X115840500Y-64931500D02*
X119937500Y-64931500D01*
X119937500Y-64914500D01*
X115840500Y-64914500D01*
X115840500Y-64931500D01*
G37*
G36*
X115840500Y-64914500D02*
X119937500Y-64914500D01*
X119937500Y-64897500D01*
X115840500Y-64897500D01*
X115840500Y-64914500D01*
G37*
G36*
X115840500Y-64897500D02*
X119937500Y-64897500D01*
X119937500Y-64880500D01*
X115840500Y-64880500D01*
X115840500Y-64897500D01*
G37*
G36*
X115840500Y-64880500D02*
X119937500Y-64880500D01*
X119937500Y-64863500D01*
X115840500Y-64863500D01*
X115840500Y-64880500D01*
G37*
G36*
X115840500Y-64863500D02*
X119937500Y-64863500D01*
X119937500Y-64846500D01*
X115840500Y-64846500D01*
X115840500Y-64863500D01*
G37*
G36*
X115840500Y-64846500D02*
X119937500Y-64846500D01*
X119937500Y-64829500D01*
X115840500Y-64829500D01*
X115840500Y-64846500D01*
G37*
G36*
X115840500Y-64829500D02*
X119937500Y-64829500D01*
X119937500Y-64812500D01*
X115840500Y-64812500D01*
X115840500Y-64829500D01*
G37*
G36*
X115840500Y-64812500D02*
X119937500Y-64812500D01*
X119937500Y-64795500D01*
X115840500Y-64795500D01*
X115840500Y-64812500D01*
G37*
G36*
X115840500Y-64795500D02*
X119937500Y-64795500D01*
X119937500Y-64778500D01*
X115840500Y-64778500D01*
X115840500Y-64795500D01*
G37*
G36*
X115840500Y-64778500D02*
X119937500Y-64778500D01*
X119937500Y-64761500D01*
X115840500Y-64761500D01*
X115840500Y-64778500D01*
G37*
G36*
X115840500Y-64761500D02*
X119937500Y-64761500D01*
X119937500Y-64744500D01*
X115840500Y-64744500D01*
X115840500Y-64761500D01*
G37*
G36*
X115840500Y-64744500D02*
X119937500Y-64744500D01*
X119937500Y-64727500D01*
X115840500Y-64727500D01*
X115840500Y-64744500D01*
G37*
G36*
X115840500Y-64727500D02*
X119937500Y-64727500D01*
X119937500Y-64710500D01*
X115840500Y-64710500D01*
X115840500Y-64727500D01*
G37*
G36*
X115840500Y-64710500D02*
X119937500Y-64710500D01*
X119937500Y-64693500D01*
X115840500Y-64693500D01*
X115840500Y-64710500D01*
G37*
G36*
X115840500Y-64693500D02*
X119937500Y-64693500D01*
X119937500Y-64676500D01*
X115840500Y-64676500D01*
X115840500Y-64693500D01*
G37*
G36*
X115840500Y-64676500D02*
X119937500Y-64676500D01*
X119937500Y-64659500D01*
X115840500Y-64659500D01*
X115840500Y-64676500D01*
G37*
G36*
X115840500Y-64659500D02*
X119937500Y-64659500D01*
X119937500Y-64642500D01*
X115840500Y-64642500D01*
X115840500Y-64659500D01*
G37*
G36*
X115840500Y-64642500D02*
X119937500Y-64642500D01*
X119937500Y-64625500D01*
X115840500Y-64625500D01*
X115840500Y-64642500D01*
G37*
G36*
X115840500Y-64625500D02*
X119937500Y-64625500D01*
X119937500Y-64608500D01*
X115840500Y-64608500D01*
X115840500Y-64625500D01*
G37*
G36*
X115840500Y-64608500D02*
X119937500Y-64608500D01*
X119937500Y-64591500D01*
X115840500Y-64591500D01*
X115840500Y-64608500D01*
G37*
G36*
X115840500Y-64591500D02*
X119937500Y-64591500D01*
X119937500Y-64574500D01*
X115840500Y-64574500D01*
X115840500Y-64591500D01*
G37*
G36*
X115840500Y-64574500D02*
X119937500Y-64574500D01*
X119937500Y-64557500D01*
X115840500Y-64557500D01*
X115840500Y-64574500D01*
G37*
G36*
X115840500Y-64557500D02*
X119920500Y-64557500D01*
X119920500Y-64540500D01*
X115840500Y-64540500D01*
X115840500Y-64557500D01*
G37*
G36*
X115857500Y-64540500D02*
X119903500Y-64540500D01*
X119903500Y-64523500D01*
X115857500Y-64523500D01*
X115857500Y-64540500D01*
G37*
G36*
X115874500Y-64523500D02*
X119903500Y-64523500D01*
X119903500Y-64506500D01*
X115874500Y-64506500D01*
X115874500Y-64523500D01*
G37*
G36*
X115891500Y-64506500D02*
X119886500Y-64506500D01*
X119886500Y-64489500D01*
X115891500Y-64489500D01*
X115891500Y-64506500D01*
G37*
G36*
X115908500Y-64489500D02*
X119869500Y-64489500D01*
X119869500Y-64472500D01*
X115908500Y-64472500D01*
X115908500Y-64489500D01*
G37*
G36*
X115925500Y-64472500D02*
X119852500Y-64472500D01*
X119852500Y-64455500D01*
X115925500Y-64455500D01*
X115925500Y-64472500D01*
G37*
G36*
X115942500Y-64455500D02*
X119835500Y-64455500D01*
X119835500Y-64438500D01*
X115942500Y-64438500D01*
X115942500Y-64455500D01*
G37*
G36*
X115959500Y-64438500D02*
X119835500Y-64438500D01*
X119835500Y-64421500D01*
X115959500Y-64421500D01*
X115959500Y-64438500D01*
G37*
G36*
X115976500Y-64421500D02*
X119818500Y-64421500D01*
X119818500Y-64404500D01*
X115976500Y-64404500D01*
X115976500Y-64421500D01*
G37*
G36*
X115993500Y-64404500D02*
X119801500Y-64404500D01*
X119801500Y-64387500D01*
X115993500Y-64387500D01*
X115993500Y-64404500D01*
G37*
G36*
X116010500Y-64387500D02*
X119784500Y-64387500D01*
X119784500Y-64370500D01*
X116010500Y-64370500D01*
X116010500Y-64387500D01*
G37*
G36*
X116027500Y-64370500D02*
X119767500Y-64370500D01*
X119767500Y-64353500D01*
X116027500Y-64353500D01*
X116027500Y-64370500D01*
G37*
G36*
X116044500Y-64353500D02*
X119750500Y-64353500D01*
X119750500Y-64336500D01*
X116044500Y-64336500D01*
X116044500Y-64353500D01*
G37*
G36*
X116061500Y-64336500D02*
X119733500Y-64336500D01*
X119733500Y-64319500D01*
X116061500Y-64319500D01*
X116061500Y-64336500D01*
G37*
G36*
X116095500Y-64319500D02*
X119716500Y-64319500D01*
X119716500Y-64302500D01*
X116095500Y-64302500D01*
X116095500Y-64319500D01*
G37*
G36*
X116112500Y-64302500D02*
X119699500Y-64302500D01*
X119699500Y-64285500D01*
X116112500Y-64285500D01*
X116112500Y-64302500D01*
G37*
G36*
X116129500Y-64285500D02*
X119682500Y-64285500D01*
X119682500Y-64268500D01*
X116129500Y-64268500D01*
X116129500Y-64285500D01*
G37*
G36*
X116146500Y-64268500D02*
X119665500Y-64268500D01*
X119665500Y-64251500D01*
X116146500Y-64251500D01*
X116146500Y-64268500D01*
G37*
G36*
X116163500Y-64251500D02*
X119648500Y-64251500D01*
X119648500Y-64234500D01*
X116163500Y-64234500D01*
X116163500Y-64251500D01*
G37*
G36*
X116180500Y-64234500D02*
X119631500Y-64234500D01*
X119631500Y-64217500D01*
X116180500Y-64217500D01*
X116180500Y-64234500D01*
G37*
G36*
X116197500Y-64217500D02*
X119614500Y-64217500D01*
X119614500Y-64200500D01*
X116197500Y-64200500D01*
X116197500Y-64217500D01*
G37*
G36*
X116231500Y-64200500D02*
X119597500Y-64200500D01*
X119597500Y-64183500D01*
X116231500Y-64183500D01*
X116231500Y-64200500D01*
G37*
G36*
X116248500Y-64183500D02*
X119580500Y-64183500D01*
X119580500Y-64166500D01*
X116248500Y-64166500D01*
X116248500Y-64183500D01*
G37*
G36*
X116265500Y-64166500D02*
X119563500Y-64166500D01*
X119563500Y-64149500D01*
X116265500Y-64149500D01*
X116265500Y-64166500D01*
G37*
G36*
X116282500Y-64149500D02*
X119546500Y-64149500D01*
X119546500Y-64132500D01*
X116282500Y-64132500D01*
X116282500Y-64149500D01*
G37*
G36*
X116316500Y-64132500D02*
X119529500Y-64132500D01*
X119529500Y-64115500D01*
X116316500Y-64115500D01*
X116316500Y-64132500D01*
G37*
G36*
X116333500Y-64115500D02*
X119512500Y-64115500D01*
X119512500Y-64098500D01*
X116333500Y-64098500D01*
X116333500Y-64115500D01*
G37*
G36*
X116350500Y-64098500D02*
X119495500Y-64098500D01*
X119495500Y-64081500D01*
X116350500Y-64081500D01*
X116350500Y-64098500D01*
G37*
G36*
X116367500Y-64081500D02*
X119478500Y-64081500D01*
X119478500Y-64064500D01*
X116367500Y-64064500D01*
X116367500Y-64081500D01*
G37*
G36*
X116401500Y-64064500D02*
X119461500Y-64064500D01*
X119461500Y-64047500D01*
X116401500Y-64047500D01*
X116401500Y-64064500D01*
G37*
G36*
X116418500Y-64047500D02*
X119444500Y-64047500D01*
X119444500Y-64030500D01*
X116418500Y-64030500D01*
X116418500Y-64047500D01*
G37*
G36*
X116435500Y-64030500D02*
X119410500Y-64030500D01*
X119410500Y-64013500D01*
X116435500Y-64013500D01*
X116435500Y-64030500D01*
G37*
G36*
X116469500Y-64013500D02*
X119393500Y-64013500D01*
X119393500Y-63996500D01*
X116469500Y-63996500D01*
X116469500Y-64013500D01*
G37*
G36*
X116486500Y-63996500D02*
X119376500Y-63996500D01*
X119376500Y-63979500D01*
X116486500Y-63979500D01*
X116486500Y-63996500D01*
G37*
G36*
X116503500Y-63979500D02*
X119359500Y-63979500D01*
X119359500Y-63962500D01*
X116503500Y-63962500D01*
X116503500Y-63979500D01*
G37*
G36*
X116537500Y-63962500D02*
X119325500Y-63962500D01*
X119325500Y-63945500D01*
X116537500Y-63945500D01*
X116537500Y-63962500D01*
G37*
D15*
G36*
X115391241Y-109169184D02*
X115417753Y-109182282D01*
X115450447Y-109205106D01*
X115474275Y-109229996D01*
X115490594Y-109261249D01*
X115500760Y-109303166D01*
X115506128Y-109360044D01*
X115508056Y-109436184D01*
X115508169Y-109468917D01*
X115507839Y-109540656D01*
X115506473Y-109591927D01*
X115503500Y-109627404D01*
X115498351Y-109651763D01*
X115490457Y-109669680D01*
X115482243Y-109681902D01*
X115429813Y-109733905D01*
X115368070Y-109765184D01*
X115301464Y-109774592D01*
X115234442Y-109760980D01*
X115213208Y-109751354D01*
X115162376Y-109724859D01*
X115162376Y-110140052D01*
X115199475Y-110120868D01*
X115248357Y-110106025D01*
X115308439Y-110102222D01*
X115368436Y-110109243D01*
X115413744Y-110125013D01*
X115451325Y-110155047D01*
X115483436Y-110198024D01*
X115485850Y-110202436D01*
X115496033Y-110223221D01*
X115503470Y-110244170D01*
X115508589Y-110269548D01*
X115511819Y-110303618D01*
X115513587Y-110350641D01*
X115514323Y-110414882D01*
X115514456Y-110487176D01*
X115514456Y-110717822D01*
X115376139Y-110717822D01*
X115376139Y-110292533D01*
X115337451Y-110259979D01*
X115297262Y-110233940D01*
X115259203Y-110229205D01*
X115220934Y-110241389D01*
X115200538Y-110253320D01*
X115185358Y-110270313D01*
X115174562Y-110295995D01*
X115167317Y-110333991D01*
X115162792Y-110387926D01*
X115160156Y-110461425D01*
X115159228Y-110510347D01*
X115156089Y-110711535D01*
X115090074Y-110715336D01*
X115024060Y-110719136D01*
X115024060Y-109470650D01*
X115162376Y-109470650D01*
X115165903Y-109540254D01*
X115177785Y-109588569D01*
X115199980Y-109618631D01*
X115234441Y-109633471D01*
X115269258Y-109636436D01*
X115308671Y-109633028D01*
X115334829Y-109619617D01*
X115351186Y-109601896D01*
X115364063Y-109582835D01*
X115371728Y-109561601D01*
X115375139Y-109531849D01*
X115375251Y-109487236D01*
X115374103Y-109449880D01*
X115371468Y-109393604D01*
X115367544Y-109356658D01*
X115360937Y-109333223D01*
X115350251Y-109317480D01*
X115340167Y-109308380D01*
X115298030Y-109288537D01*
X115248160Y-109285332D01*
X115219524Y-109292168D01*
X115191172Y-109316464D01*
X115172391Y-109363728D01*
X115163288Y-109433624D01*
X115162376Y-109470650D01*
X115024060Y-109470650D01*
X115024060Y-109158614D01*
X115093218Y-109158614D01*
X115134740Y-109160256D01*
X115156162Y-109166087D01*
X115162374Y-109177461D01*
X115162376Y-109177798D01*
X115165258Y-109188938D01*
X115177970Y-109187673D01*
X115203243Y-109175433D01*
X115262131Y-109156707D01*
X115328385Y-109154739D01*
X115391241Y-109169184D01*
X115391241Y-109169184D01*
G37*
X115391241Y-109169184D02*
X115417753Y-109182282D01*
X115450447Y-109205106D01*
X115474275Y-109229996D01*
X115490594Y-109261249D01*
X115500760Y-109303166D01*
X115506128Y-109360044D01*
X115508056Y-109436184D01*
X115508169Y-109468917D01*
X115507839Y-109540656D01*
X115506473Y-109591927D01*
X115503500Y-109627404D01*
X115498351Y-109651763D01*
X115490457Y-109669680D01*
X115482243Y-109681902D01*
X115429813Y-109733905D01*
X115368070Y-109765184D01*
X115301464Y-109774592D01*
X115234442Y-109760980D01*
X115213208Y-109751354D01*
X115162376Y-109724859D01*
X115162376Y-110140052D01*
X115199475Y-110120868D01*
X115248357Y-110106025D01*
X115308439Y-110102222D01*
X115368436Y-110109243D01*
X115413744Y-110125013D01*
X115451325Y-110155047D01*
X115483436Y-110198024D01*
X115485850Y-110202436D01*
X115496033Y-110223221D01*
X115503470Y-110244170D01*
X115508589Y-110269548D01*
X115511819Y-110303618D01*
X115513587Y-110350641D01*
X115514323Y-110414882D01*
X115514456Y-110487176D01*
X115514456Y-110717822D01*
X115376139Y-110717822D01*
X115376139Y-110292533D01*
X115337451Y-110259979D01*
X115297262Y-110233940D01*
X115259203Y-110229205D01*
X115220934Y-110241389D01*
X115200538Y-110253320D01*
X115185358Y-110270313D01*
X115174562Y-110295995D01*
X115167317Y-110333991D01*
X115162792Y-110387926D01*
X115160156Y-110461425D01*
X115159228Y-110510347D01*
X115156089Y-110711535D01*
X115090074Y-110715336D01*
X115024060Y-110719136D01*
X115024060Y-109470650D01*
X115162376Y-109470650D01*
X115165903Y-109540254D01*
X115177785Y-109588569D01*
X115199980Y-109618631D01*
X115234441Y-109633471D01*
X115269258Y-109636436D01*
X115308671Y-109633028D01*
X115334829Y-109619617D01*
X115351186Y-109601896D01*
X115364063Y-109582835D01*
X115371728Y-109561601D01*
X115375139Y-109531849D01*
X115375251Y-109487236D01*
X115374103Y-109449880D01*
X115371468Y-109393604D01*
X115367544Y-109356658D01*
X115360937Y-109333223D01*
X115350251Y-109317480D01*
X115340167Y-109308380D01*
X115298030Y-109288537D01*
X115248160Y-109285332D01*
X115219524Y-109292168D01*
X115191172Y-109316464D01*
X115172391Y-109363728D01*
X115163288Y-109433624D01*
X115162376Y-109470650D01*
X115024060Y-109470650D01*
X115024060Y-109158614D01*
X115093218Y-109158614D01*
X115134740Y-109160256D01*
X115156162Y-109166087D01*
X115162374Y-109177461D01*
X115162376Y-109177798D01*
X115165258Y-109188938D01*
X115177970Y-109187673D01*
X115203243Y-109175433D01*
X115262131Y-109156707D01*
X115328385Y-109154739D01*
X115391241Y-109169184D01*
G36*
X115915790Y-110106555D02*
X115974945Y-110122339D01*
X116019977Y-110150948D01*
X116051754Y-110188419D01*
X116061634Y-110204411D01*
X116068927Y-110221163D01*
X116074026Y-110242592D01*
X116077321Y-110272616D01*
X116079203Y-110315154D01*
X116080063Y-110374122D01*
X116080293Y-110453440D01*
X116080297Y-110474484D01*
X116080297Y-110717822D01*
X116019941Y-110717822D01*
X115981443Y-110715126D01*
X115952977Y-110708295D01*
X115945845Y-110704083D01*
X115926348Y-110696813D01*
X115906434Y-110704083D01*
X115873647Y-110713160D01*
X115826022Y-110716813D01*
X115773236Y-110715228D01*
X115724964Y-110708589D01*
X115696782Y-110700072D01*
X115642247Y-110665063D01*
X115608165Y-110616479D01*
X115592843Y-110551882D01*
X115592701Y-110550223D01*
X115594045Y-110521566D01*
X115715644Y-110521566D01*
X115726274Y-110554161D01*
X115743590Y-110572505D01*
X115778348Y-110586379D01*
X115824227Y-110591917D01*
X115871012Y-110589191D01*
X115908486Y-110578274D01*
X115918985Y-110571269D01*
X115937332Y-110538904D01*
X115941980Y-110502111D01*
X115941980Y-110453763D01*
X115872418Y-110453763D01*
X115806333Y-110458850D01*
X115756236Y-110473263D01*
X115725071Y-110495729D01*
X115715644Y-110521566D01*
X115594045Y-110521566D01*
X115596013Y-110479647D01*
X115619290Y-110423845D01*
X115663052Y-110381647D01*
X115669101Y-110377808D01*
X115695093Y-110365309D01*
X115727265Y-110357740D01*
X115772240Y-110354061D01*
X115825669Y-110353216D01*
X115941980Y-110353169D01*
X115941980Y-110304411D01*
X115937047Y-110266581D01*
X115924457Y-110241236D01*
X115922983Y-110239887D01*
X115894966Y-110228800D01*
X115852674Y-110224503D01*
X115805936Y-110226615D01*
X115764582Y-110234756D01*
X115740043Y-110246965D01*
X115726747Y-110256746D01*
X115712706Y-110258613D01*
X115693329Y-110250600D01*
X115664024Y-110230739D01*
X115620197Y-110197063D01*
X115616175Y-110193909D01*
X115618236Y-110182236D01*
X115635432Y-110162822D01*
X115661567Y-110141248D01*
X115690448Y-110123096D01*
X115699522Y-110118809D01*
X115732620Y-110110256D01*
X115781120Y-110104155D01*
X115835305Y-110101708D01*
X115837839Y-110101703D01*
X115915790Y-110106555D01*
X115915790Y-110106555D01*
G37*
X115915790Y-110106555D02*
X115974945Y-110122339D01*
X116019977Y-110150948D01*
X116051754Y-110188419D01*
X116061634Y-110204411D01*
X116068927Y-110221163D01*
X116074026Y-110242592D01*
X116077321Y-110272616D01*
X116079203Y-110315154D01*
X116080063Y-110374122D01*
X116080293Y-110453440D01*
X116080297Y-110474484D01*
X116080297Y-110717822D01*
X116019941Y-110717822D01*
X115981443Y-110715126D01*
X115952977Y-110708295D01*
X115945845Y-110704083D01*
X115926348Y-110696813D01*
X115906434Y-110704083D01*
X115873647Y-110713160D01*
X115826022Y-110716813D01*
X115773236Y-110715228D01*
X115724964Y-110708589D01*
X115696782Y-110700072D01*
X115642247Y-110665063D01*
X115608165Y-110616479D01*
X115592843Y-110551882D01*
X115592701Y-110550223D01*
X115594045Y-110521566D01*
X115715644Y-110521566D01*
X115726274Y-110554161D01*
X115743590Y-110572505D01*
X115778348Y-110586379D01*
X115824227Y-110591917D01*
X115871012Y-110589191D01*
X115908486Y-110578274D01*
X115918985Y-110571269D01*
X115937332Y-110538904D01*
X115941980Y-110502111D01*
X115941980Y-110453763D01*
X115872418Y-110453763D01*
X115806333Y-110458850D01*
X115756236Y-110473263D01*
X115725071Y-110495729D01*
X115715644Y-110521566D01*
X115594045Y-110521566D01*
X115596013Y-110479647D01*
X115619290Y-110423845D01*
X115663052Y-110381647D01*
X115669101Y-110377808D01*
X115695093Y-110365309D01*
X115727265Y-110357740D01*
X115772240Y-110354061D01*
X115825669Y-110353216D01*
X115941980Y-110353169D01*
X115941980Y-110304411D01*
X115937047Y-110266581D01*
X115924457Y-110241236D01*
X115922983Y-110239887D01*
X115894966Y-110228800D01*
X115852674Y-110224503D01*
X115805936Y-110226615D01*
X115764582Y-110234756D01*
X115740043Y-110246965D01*
X115726747Y-110256746D01*
X115712706Y-110258613D01*
X115693329Y-110250600D01*
X115664024Y-110230739D01*
X115620197Y-110197063D01*
X115616175Y-110193909D01*
X115618236Y-110182236D01*
X115635432Y-110162822D01*
X115661567Y-110141248D01*
X115690448Y-110123096D01*
X115699522Y-110118809D01*
X115732620Y-110110256D01*
X115781120Y-110104155D01*
X115835305Y-110101708D01*
X115837839Y-110101703D01*
X115915790Y-110106555D01*
G36*
X116306644Y-110103020D02*
X116325461Y-110108660D01*
X116331527Y-110121053D01*
X116331782Y-110126647D01*
X116332871Y-110142230D01*
X116340368Y-110144676D01*
X116360619Y-110133993D01*
X116372649Y-110126694D01*
X116410600Y-110111063D01*
X116455928Y-110103334D01*
X116503456Y-110102740D01*
X116548005Y-110108513D01*
X116584398Y-110119884D01*
X116607457Y-110136088D01*
X116612004Y-110156355D01*
X116609709Y-110161843D01*
X116592980Y-110184626D01*
X116567037Y-110212647D01*
X116562345Y-110217177D01*
X116537617Y-110238005D01*
X116516282Y-110244735D01*
X116486445Y-110240038D01*
X116474492Y-110236917D01*
X116437295Y-110229421D01*
X116411141Y-110232792D01*
X116389054Y-110244681D01*
X116368822Y-110260635D01*
X116353921Y-110280700D01*
X116343566Y-110308702D01*
X116336971Y-110348467D01*
X116333351Y-110403823D01*
X116331922Y-110478594D01*
X116331782Y-110523740D01*
X116331782Y-110717822D01*
X116206040Y-110717822D01*
X116206040Y-110101683D01*
X116268911Y-110101683D01*
X116306644Y-110103020D01*
X116306644Y-110103020D01*
G37*
X116306644Y-110103020D02*
X116325461Y-110108660D01*
X116331527Y-110121053D01*
X116331782Y-110126647D01*
X116332871Y-110142230D01*
X116340368Y-110144676D01*
X116360619Y-110133993D01*
X116372649Y-110126694D01*
X116410600Y-110111063D01*
X116455928Y-110103334D01*
X116503456Y-110102740D01*
X116548005Y-110108513D01*
X116584398Y-110119884D01*
X116607457Y-110136088D01*
X116612004Y-110156355D01*
X116609709Y-110161843D01*
X116592980Y-110184626D01*
X116567037Y-110212647D01*
X116562345Y-110217177D01*
X116537617Y-110238005D01*
X116516282Y-110244735D01*
X116486445Y-110240038D01*
X116474492Y-110236917D01*
X116437295Y-110229421D01*
X116411141Y-110232792D01*
X116389054Y-110244681D01*
X116368822Y-110260635D01*
X116353921Y-110280700D01*
X116343566Y-110308702D01*
X116336971Y-110348467D01*
X116333351Y-110403823D01*
X116331922Y-110478594D01*
X116331782Y-110523740D01*
X116331782Y-110717822D01*
X116206040Y-110717822D01*
X116206040Y-110101683D01*
X116268911Y-110101683D01*
X116306644Y-110103020D01*
G36*
X117098812Y-110717822D02*
X117029654Y-110717822D01*
X116989512Y-110716645D01*
X116968606Y-110711772D01*
X116961078Y-110701186D01*
X116960495Y-110694029D01*
X116959226Y-110679676D01*
X116951221Y-110676923D01*
X116930185Y-110685771D01*
X116913827Y-110694029D01*
X116851023Y-110713597D01*
X116782752Y-110714729D01*
X116727248Y-110700135D01*
X116675562Y-110664877D01*
X116636162Y-110612835D01*
X116614587Y-110551450D01*
X116614038Y-110548018D01*
X116610833Y-110510571D01*
X116609239Y-110456813D01*
X116609367Y-110416155D01*
X116746721Y-110416155D01*
X116749903Y-110470194D01*
X116757141Y-110514735D01*
X116766940Y-110539888D01*
X116804011Y-110574260D01*
X116848026Y-110586582D01*
X116893416Y-110576618D01*
X116932203Y-110546895D01*
X116946892Y-110526905D01*
X116955481Y-110503050D01*
X116959504Y-110468230D01*
X116960495Y-110415930D01*
X116958722Y-110364139D01*
X116954037Y-110318634D01*
X116947397Y-110288181D01*
X116946290Y-110285452D01*
X116919509Y-110253000D01*
X116880421Y-110235183D01*
X116836685Y-110232306D01*
X116795962Y-110244674D01*
X116765913Y-110272593D01*
X116762796Y-110278148D01*
X116753039Y-110312022D01*
X116747723Y-110360728D01*
X116746721Y-110416155D01*
X116609367Y-110416155D01*
X116609432Y-110395540D01*
X116610336Y-110362563D01*
X116616486Y-110280981D01*
X116629267Y-110219730D01*
X116650529Y-110174449D01*
X116682122Y-110140779D01*
X116712793Y-110121014D01*
X116755646Y-110107120D01*
X116808944Y-110102354D01*
X116863520Y-110106236D01*
X116910208Y-110118282D01*
X116934876Y-110132693D01*
X116960495Y-110155878D01*
X116960495Y-109862773D01*
X117098812Y-109862773D01*
X117098812Y-110717822D01*
X117098812Y-110717822D01*
G37*
X117098812Y-110717822D02*
X117029654Y-110717822D01*
X116989512Y-110716645D01*
X116968606Y-110711772D01*
X116961078Y-110701186D01*
X116960495Y-110694029D01*
X116959226Y-110679676D01*
X116951221Y-110676923D01*
X116930185Y-110685771D01*
X116913827Y-110694029D01*
X116851023Y-110713597D01*
X116782752Y-110714729D01*
X116727248Y-110700135D01*
X116675562Y-110664877D01*
X116636162Y-110612835D01*
X116614587Y-110551450D01*
X116614038Y-110548018D01*
X116610833Y-110510571D01*
X116609239Y-110456813D01*
X116609367Y-110416155D01*
X116746721Y-110416155D01*
X116749903Y-110470194D01*
X116757141Y-110514735D01*
X116766940Y-110539888D01*
X116804011Y-110574260D01*
X116848026Y-110586582D01*
X116893416Y-110576618D01*
X116932203Y-110546895D01*
X116946892Y-110526905D01*
X116955481Y-110503050D01*
X116959504Y-110468230D01*
X116960495Y-110415930D01*
X116958722Y-110364139D01*
X116954037Y-110318634D01*
X116947397Y-110288181D01*
X116946290Y-110285452D01*
X116919509Y-110253000D01*
X116880421Y-110235183D01*
X116836685Y-110232306D01*
X116795962Y-110244674D01*
X116765913Y-110272593D01*
X116762796Y-110278148D01*
X116753039Y-110312022D01*
X116747723Y-110360728D01*
X116746721Y-110416155D01*
X116609367Y-110416155D01*
X116609432Y-110395540D01*
X116610336Y-110362563D01*
X116616486Y-110280981D01*
X116629267Y-110219730D01*
X116650529Y-110174449D01*
X116682122Y-110140779D01*
X116712793Y-110121014D01*
X116755646Y-110107120D01*
X116808944Y-110102354D01*
X116863520Y-110106236D01*
X116910208Y-110118282D01*
X116934876Y-110132693D01*
X116960495Y-110155878D01*
X116960495Y-109862773D01*
X117098812Y-109862773D01*
X117098812Y-110717822D01*
G36*
X117581524Y-110104237D02*
X117631255Y-110107971D01*
X117761291Y-110497773D01*
X117781678Y-110428614D01*
X117793946Y-110385874D01*
X117810085Y-110328115D01*
X117827512Y-110264625D01*
X117836726Y-110230570D01*
X117871388Y-110101683D01*
X118014391Y-110101683D01*
X117971646Y-110236857D01*
X117950596Y-110303342D01*
X117925167Y-110383539D01*
X117898610Y-110467193D01*
X117874902Y-110541782D01*
X117820902Y-110711535D01*
X117762598Y-110715328D01*
X117704295Y-110719122D01*
X117672679Y-110614734D01*
X117653182Y-110549889D01*
X117631904Y-110478400D01*
X117613308Y-110415263D01*
X117612574Y-110412750D01*
X117598684Y-110369969D01*
X117586429Y-110340779D01*
X117577846Y-110329741D01*
X117576082Y-110331018D01*
X117569891Y-110348130D01*
X117558128Y-110384787D01*
X117542225Y-110436378D01*
X117523614Y-110498294D01*
X117513543Y-110532352D01*
X117459007Y-110717822D01*
X117343264Y-110717822D01*
X117250737Y-110425471D01*
X117224744Y-110343462D01*
X117201066Y-110268987D01*
X117180820Y-110205544D01*
X117165126Y-110156632D01*
X117155102Y-110125749D01*
X117152055Y-110116726D01*
X117154467Y-110107487D01*
X117173408Y-110103441D01*
X117212823Y-110103846D01*
X117218993Y-110104152D01*
X117292086Y-110107971D01*
X117339957Y-110284010D01*
X117357553Y-110348211D01*
X117373277Y-110404649D01*
X117385746Y-110448422D01*
X117393574Y-110474630D01*
X117395020Y-110478903D01*
X117401014Y-110473990D01*
X117413101Y-110448532D01*
X117429893Y-110405997D01*
X117450003Y-110349850D01*
X117467003Y-110299130D01*
X117531794Y-110100504D01*
X117581524Y-110104237D01*
X117581524Y-110104237D01*
G37*
X117581524Y-110104237D02*
X117631255Y-110107971D01*
X117761291Y-110497773D01*
X117781678Y-110428614D01*
X117793946Y-110385874D01*
X117810085Y-110328115D01*
X117827512Y-110264625D01*
X117836726Y-110230570D01*
X117871388Y-110101683D01*
X118014391Y-110101683D01*
X117971646Y-110236857D01*
X117950596Y-110303342D01*
X117925167Y-110383539D01*
X117898610Y-110467193D01*
X117874902Y-110541782D01*
X117820902Y-110711535D01*
X117762598Y-110715328D01*
X117704295Y-110719122D01*
X117672679Y-110614734D01*
X117653182Y-110549889D01*
X117631904Y-110478400D01*
X117613308Y-110415263D01*
X117612574Y-110412750D01*
X117598684Y-110369969D01*
X117586429Y-110340779D01*
X117577846Y-110329741D01*
X117576082Y-110331018D01*
X117569891Y-110348130D01*
X117558128Y-110384787D01*
X117542225Y-110436378D01*
X117523614Y-110498294D01*
X117513543Y-110532352D01*
X117459007Y-110717822D01*
X117343264Y-110717822D01*
X117250737Y-110425471D01*
X117224744Y-110343462D01*
X117201066Y-110268987D01*
X117180820Y-110205544D01*
X117165126Y-110156632D01*
X117155102Y-110125749D01*
X117152055Y-110116726D01*
X117154467Y-110107487D01*
X117173408Y-110103441D01*
X117212823Y-110103846D01*
X117218993Y-110104152D01*
X117292086Y-110107971D01*
X117339957Y-110284010D01*
X117357553Y-110348211D01*
X117373277Y-110404649D01*
X117385746Y-110448422D01*
X117393574Y-110474630D01*
X117395020Y-110478903D01*
X117401014Y-110473990D01*
X117413101Y-110448532D01*
X117429893Y-110405997D01*
X117450003Y-110349850D01*
X117467003Y-110299130D01*
X117531794Y-110100504D01*
X117581524Y-110104237D01*
G36*
X118338411Y-110105417D02*
X118391411Y-110118290D01*
X118406731Y-110125110D01*
X118436428Y-110142974D01*
X118459220Y-110163093D01*
X118476083Y-110188962D01*
X118487998Y-110224073D01*
X118495942Y-110271920D01*
X118500894Y-110335996D01*
X118503831Y-110419794D01*
X118504947Y-110475768D01*
X118509052Y-110717822D01*
X118438932Y-110717822D01*
X118396393Y-110716038D01*
X118374476Y-110709942D01*
X118368812Y-110699706D01*
X118365821Y-110688637D01*
X118352451Y-110690754D01*
X118334233Y-110699629D01*
X118288624Y-110713233D01*
X118230007Y-110716899D01*
X118168354Y-110710903D01*
X118113638Y-110695521D01*
X118108730Y-110693386D01*
X118058723Y-110658255D01*
X118025756Y-110609419D01*
X118010587Y-110552333D01*
X118011746Y-110531824D01*
X118135508Y-110531824D01*
X118146413Y-110559425D01*
X118178745Y-110579204D01*
X118230910Y-110589819D01*
X118258787Y-110591228D01*
X118305247Y-110587620D01*
X118336129Y-110573597D01*
X118343664Y-110566931D01*
X118364076Y-110530666D01*
X118368812Y-110497773D01*
X118368812Y-110453763D01*
X118307513Y-110453763D01*
X118236256Y-110457395D01*
X118186276Y-110468818D01*
X118154696Y-110488824D01*
X118147626Y-110497743D01*
X118135508Y-110531824D01*
X118011746Y-110531824D01*
X118013971Y-110492456D01*
X118036663Y-110435244D01*
X118067624Y-110396580D01*
X118086376Y-110379864D01*
X118104733Y-110368878D01*
X118128619Y-110362180D01*
X118163957Y-110358326D01*
X118216669Y-110355873D01*
X118237577Y-110355168D01*
X118368812Y-110350879D01*
X118368620Y-110311158D01*
X118363537Y-110269405D01*
X118345162Y-110244158D01*
X118308039Y-110228030D01*
X118307043Y-110227742D01*
X118254410Y-110221400D01*
X118202906Y-110229684D01*
X118164630Y-110249827D01*
X118149272Y-110259773D01*
X118132730Y-110258397D01*
X118107275Y-110243987D01*
X118092328Y-110233817D01*
X118063091Y-110212088D01*
X118044980Y-110195800D01*
X118042074Y-110191137D01*
X118054040Y-110167005D01*
X118089396Y-110138185D01*
X118104753Y-110128461D01*
X118148901Y-110111714D01*
X118208398Y-110102227D01*
X118274487Y-110100095D01*
X118338411Y-110105417D01*
X118338411Y-110105417D01*
G37*
X118338411Y-110105417D02*
X118391411Y-110118290D01*
X118406731Y-110125110D01*
X118436428Y-110142974D01*
X118459220Y-110163093D01*
X118476083Y-110188962D01*
X118487998Y-110224073D01*
X118495942Y-110271920D01*
X118500894Y-110335996D01*
X118503831Y-110419794D01*
X118504947Y-110475768D01*
X118509052Y-110717822D01*
X118438932Y-110717822D01*
X118396393Y-110716038D01*
X118374476Y-110709942D01*
X118368812Y-110699706D01*
X118365821Y-110688637D01*
X118352451Y-110690754D01*
X118334233Y-110699629D01*
X118288624Y-110713233D01*
X118230007Y-110716899D01*
X118168354Y-110710903D01*
X118113638Y-110695521D01*
X118108730Y-110693386D01*
X118058723Y-110658255D01*
X118025756Y-110609419D01*
X118010587Y-110552333D01*
X118011746Y-110531824D01*
X118135508Y-110531824D01*
X118146413Y-110559425D01*
X118178745Y-110579204D01*
X118230910Y-110589819D01*
X118258787Y-110591228D01*
X118305247Y-110587620D01*
X118336129Y-110573597D01*
X118343664Y-110566931D01*
X118364076Y-110530666D01*
X118368812Y-110497773D01*
X118368812Y-110453763D01*
X118307513Y-110453763D01*
X118236256Y-110457395D01*
X118186276Y-110468818D01*
X118154696Y-110488824D01*
X118147626Y-110497743D01*
X118135508Y-110531824D01*
X118011746Y-110531824D01*
X118013971Y-110492456D01*
X118036663Y-110435244D01*
X118067624Y-110396580D01*
X118086376Y-110379864D01*
X118104733Y-110368878D01*
X118128619Y-110362180D01*
X118163957Y-110358326D01*
X118216669Y-110355873D01*
X118237577Y-110355168D01*
X118368812Y-110350879D01*
X118368620Y-110311158D01*
X118363537Y-110269405D01*
X118345162Y-110244158D01*
X118308039Y-110228030D01*
X118307043Y-110227742D01*
X118254410Y-110221400D01*
X118202906Y-110229684D01*
X118164630Y-110249827D01*
X118149272Y-110259773D01*
X118132730Y-110258397D01*
X118107275Y-110243987D01*
X118092328Y-110233817D01*
X118063091Y-110212088D01*
X118044980Y-110195800D01*
X118042074Y-110191137D01*
X118054040Y-110167005D01*
X118089396Y-110138185D01*
X118104753Y-110128461D01*
X118148901Y-110111714D01*
X118208398Y-110102227D01*
X118274487Y-110100095D01*
X118338411Y-110105417D01*
G36*
X118935255Y-110101486D02*
X118983595Y-110111015D01*
X119011114Y-110125125D01*
X119040064Y-110148568D01*
X118998876Y-110200571D01*
X118973482Y-110232064D01*
X118956238Y-110247428D01*
X118939102Y-110249776D01*
X118914027Y-110242217D01*
X118902257Y-110237941D01*
X118854270Y-110231631D01*
X118810324Y-110245156D01*
X118778060Y-110275710D01*
X118772819Y-110285452D01*
X118767112Y-110311258D01*
X118762706Y-110358817D01*
X118759811Y-110424758D01*
X118758631Y-110505710D01*
X118758614Y-110517226D01*
X118758614Y-110717822D01*
X118620297Y-110717822D01*
X118620297Y-110101683D01*
X118689456Y-110101683D01*
X118729333Y-110102725D01*
X118750107Y-110107358D01*
X118757789Y-110117849D01*
X118758614Y-110127745D01*
X118758614Y-110153806D01*
X118791745Y-110127745D01*
X118829735Y-110109965D01*
X118880770Y-110101174D01*
X118935255Y-110101486D01*
X118935255Y-110101486D01*
G37*
X118935255Y-110101486D02*
X118983595Y-110111015D01*
X119011114Y-110125125D01*
X119040064Y-110148568D01*
X118998876Y-110200571D01*
X118973482Y-110232064D01*
X118956238Y-110247428D01*
X118939102Y-110249776D01*
X118914027Y-110242217D01*
X118902257Y-110237941D01*
X118854270Y-110231631D01*
X118810324Y-110245156D01*
X118778060Y-110275710D01*
X118772819Y-110285452D01*
X118767112Y-110311258D01*
X118762706Y-110358817D01*
X118759811Y-110424758D01*
X118758631Y-110505710D01*
X118758614Y-110517226D01*
X118758614Y-110717822D01*
X118620297Y-110717822D01*
X118620297Y-110101683D01*
X118689456Y-110101683D01*
X118729333Y-110102725D01*
X118750107Y-110107358D01*
X118757789Y-110117849D01*
X118758614Y-110127745D01*
X118758614Y-110153806D01*
X118791745Y-110127745D01*
X118829735Y-110109965D01*
X118880770Y-110101174D01*
X118935255Y-110101486D01*
G36*
X119332581Y-110104970D02*
X119392685Y-110120597D01*
X119443021Y-110152848D01*
X119467393Y-110176940D01*
X119507345Y-110233895D01*
X119530242Y-110299965D01*
X119538108Y-110381182D01*
X119538148Y-110387748D01*
X119538218Y-110453763D01*
X119158264Y-110453763D01*
X119166363Y-110488342D01*
X119180987Y-110519659D01*
X119206581Y-110552291D01*
X119211935Y-110557500D01*
X119257943Y-110585694D01*
X119310410Y-110590475D01*
X119370803Y-110571926D01*
X119381040Y-110566931D01*
X119412439Y-110551745D01*
X119433470Y-110543094D01*
X119437139Y-110542293D01*
X119449948Y-110550063D01*
X119474378Y-110569072D01*
X119486779Y-110579460D01*
X119512476Y-110603321D01*
X119520915Y-110619077D01*
X119515058Y-110633571D01*
X119511928Y-110637534D01*
X119490725Y-110654879D01*
X119455738Y-110675959D01*
X119431337Y-110688265D01*
X119362072Y-110709946D01*
X119285388Y-110716971D01*
X119212765Y-110708647D01*
X119192426Y-110702686D01*
X119129476Y-110668952D01*
X119082815Y-110617045D01*
X119052173Y-110546459D01*
X119037282Y-110456692D01*
X119035647Y-110409753D01*
X119040421Y-110341413D01*
X119160990Y-110341413D01*
X119172652Y-110346465D01*
X119203998Y-110350429D01*
X119249571Y-110352768D01*
X119280446Y-110353169D01*
X119335981Y-110352783D01*
X119371033Y-110350975D01*
X119390262Y-110346773D01*
X119398330Y-110339203D01*
X119399901Y-110328218D01*
X119389121Y-110294381D01*
X119361980Y-110260940D01*
X119326277Y-110235272D01*
X119290560Y-110224772D01*
X119242048Y-110234086D01*
X119200053Y-110261013D01*
X119170936Y-110299827D01*
X119160990Y-110341413D01*
X119040421Y-110341413D01*
X119042599Y-110310236D01*
X119064055Y-110230949D01*
X119100470Y-110171263D01*
X119152297Y-110130549D01*
X119219990Y-110108179D01*
X119256662Y-110103871D01*
X119332581Y-110104970D01*
X119332581Y-110104970D01*
G37*
X119332581Y-110104970D02*
X119392685Y-110120597D01*
X119443021Y-110152848D01*
X119467393Y-110176940D01*
X119507345Y-110233895D01*
X119530242Y-110299965D01*
X119538108Y-110381182D01*
X119538148Y-110387748D01*
X119538218Y-110453763D01*
X119158264Y-110453763D01*
X119166363Y-110488342D01*
X119180987Y-110519659D01*
X119206581Y-110552291D01*
X119211935Y-110557500D01*
X119257943Y-110585694D01*
X119310410Y-110590475D01*
X119370803Y-110571926D01*
X119381040Y-110566931D01*
X119412439Y-110551745D01*
X119433470Y-110543094D01*
X119437139Y-110542293D01*
X119449948Y-110550063D01*
X119474378Y-110569072D01*
X119486779Y-110579460D01*
X119512476Y-110603321D01*
X119520915Y-110619077D01*
X119515058Y-110633571D01*
X119511928Y-110637534D01*
X119490725Y-110654879D01*
X119455738Y-110675959D01*
X119431337Y-110688265D01*
X119362072Y-110709946D01*
X119285388Y-110716971D01*
X119212765Y-110708647D01*
X119192426Y-110702686D01*
X119129476Y-110668952D01*
X119082815Y-110617045D01*
X119052173Y-110546459D01*
X119037282Y-110456692D01*
X119035647Y-110409753D01*
X119040421Y-110341413D01*
X119160990Y-110341413D01*
X119172652Y-110346465D01*
X119203998Y-110350429D01*
X119249571Y-110352768D01*
X119280446Y-110353169D01*
X119335981Y-110352783D01*
X119371033Y-110350975D01*
X119390262Y-110346773D01*
X119398330Y-110339203D01*
X119399901Y-110328218D01*
X119389121Y-110294381D01*
X119361980Y-110260940D01*
X119326277Y-110235272D01*
X119290560Y-110224772D01*
X119242048Y-110234086D01*
X119200053Y-110261013D01*
X119170936Y-110299827D01*
X119160990Y-110341413D01*
X119040421Y-110341413D01*
X119042599Y-110310236D01*
X119064055Y-110230949D01*
X119100470Y-110171263D01*
X119152297Y-110130549D01*
X119219990Y-110108179D01*
X119256662Y-110103871D01*
X119332581Y-110104970D01*
G36*
X114761739Y-109165148D02*
X114827521Y-109194231D01*
X114877460Y-109242793D01*
X114911626Y-109310908D01*
X114930093Y-109398651D01*
X114931417Y-109412351D01*
X114932454Y-109508939D01*
X114919007Y-109593602D01*
X114891892Y-109662221D01*
X114877373Y-109684294D01*
X114826799Y-109731011D01*
X114762391Y-109761268D01*
X114690334Y-109773824D01*
X114616815Y-109767439D01*
X114560928Y-109747772D01*
X114512868Y-109714629D01*
X114473588Y-109671175D01*
X114472908Y-109670158D01*
X114456956Y-109643338D01*
X114446590Y-109616368D01*
X114440312Y-109582332D01*
X114436627Y-109534310D01*
X114435003Y-109494931D01*
X114434328Y-109459219D01*
X114560045Y-109459219D01*
X114561274Y-109494770D01*
X114565734Y-109542094D01*
X114573603Y-109572465D01*
X114587793Y-109594072D01*
X114601083Y-109606694D01*
X114648198Y-109633122D01*
X114697495Y-109636653D01*
X114743407Y-109617639D01*
X114766362Y-109596331D01*
X114782904Y-109574859D01*
X114792579Y-109554313D01*
X114796826Y-109527574D01*
X114797080Y-109487523D01*
X114795772Y-109450638D01*
X114792957Y-109397947D01*
X114788495Y-109363772D01*
X114780452Y-109341480D01*
X114766897Y-109324442D01*
X114756155Y-109314703D01*
X114711223Y-109289123D01*
X114662751Y-109287847D01*
X114622106Y-109302999D01*
X114587433Y-109334642D01*
X114566776Y-109386620D01*
X114560045Y-109459219D01*
X114434328Y-109459219D01*
X114433521Y-109416621D01*
X114436052Y-109358056D01*
X114443638Y-109314007D01*
X114457319Y-109279248D01*
X114478135Y-109248551D01*
X114485853Y-109239436D01*
X114534111Y-109194021D01*
X114585872Y-109167493D01*
X114649172Y-109156379D01*
X114680039Y-109155471D01*
X114761739Y-109165148D01*
X114761739Y-109165148D01*
G37*
X114761739Y-109165148D02*
X114827521Y-109194231D01*
X114877460Y-109242793D01*
X114911626Y-109310908D01*
X114930093Y-109398651D01*
X114931417Y-109412351D01*
X114932454Y-109508939D01*
X114919007Y-109593602D01*
X114891892Y-109662221D01*
X114877373Y-109684294D01*
X114826799Y-109731011D01*
X114762391Y-109761268D01*
X114690334Y-109773824D01*
X114616815Y-109767439D01*
X114560928Y-109747772D01*
X114512868Y-109714629D01*
X114473588Y-109671175D01*
X114472908Y-109670158D01*
X114456956Y-109643338D01*
X114446590Y-109616368D01*
X114440312Y-109582332D01*
X114436627Y-109534310D01*
X114435003Y-109494931D01*
X114434328Y-109459219D01*
X114560045Y-109459219D01*
X114561274Y-109494770D01*
X114565734Y-109542094D01*
X114573603Y-109572465D01*
X114587793Y-109594072D01*
X114601083Y-109606694D01*
X114648198Y-109633122D01*
X114697495Y-109636653D01*
X114743407Y-109617639D01*
X114766362Y-109596331D01*
X114782904Y-109574859D01*
X114792579Y-109554313D01*
X114796826Y-109527574D01*
X114797080Y-109487523D01*
X114795772Y-109450638D01*
X114792957Y-109397947D01*
X114788495Y-109363772D01*
X114780452Y-109341480D01*
X114766897Y-109324442D01*
X114756155Y-109314703D01*
X114711223Y-109289123D01*
X114662751Y-109287847D01*
X114622106Y-109302999D01*
X114587433Y-109334642D01*
X114566776Y-109386620D01*
X114560045Y-109459219D01*
X114434328Y-109459219D01*
X114433521Y-109416621D01*
X114436052Y-109358056D01*
X114443638Y-109314007D01*
X114457319Y-109279248D01*
X114478135Y-109248551D01*
X114485853Y-109239436D01*
X114534111Y-109194021D01*
X114585872Y-109167493D01*
X114649172Y-109156379D01*
X114680039Y-109155471D01*
X114761739Y-109165148D01*
G36*
X115943301Y-109172614D02*
X115955832Y-109178514D01*
X115999201Y-109210283D01*
X116040210Y-109256646D01*
X116070832Y-109307696D01*
X116079541Y-109331166D01*
X116087488Y-109373091D01*
X116092226Y-109423757D01*
X116092801Y-109444679D01*
X116092871Y-109510693D01*
X115712917Y-109510693D01*
X115721017Y-109545273D01*
X115740896Y-109586170D01*
X115775653Y-109621514D01*
X115817002Y-109644282D01*
X115843351Y-109649010D01*
X115879084Y-109643273D01*
X115921718Y-109628882D01*
X115936201Y-109622262D01*
X115989760Y-109595513D01*
X116035467Y-109630376D01*
X116061842Y-109653955D01*
X116075876Y-109673417D01*
X116076586Y-109679129D01*
X116064049Y-109692973D01*
X116036572Y-109714012D01*
X116011634Y-109730425D01*
X115944336Y-109759930D01*
X115868890Y-109773284D01*
X115794112Y-109769812D01*
X115734505Y-109751663D01*
X115673059Y-109712784D01*
X115629392Y-109661595D01*
X115602074Y-109595367D01*
X115589678Y-109511371D01*
X115588579Y-109472936D01*
X115592978Y-109384861D01*
X115593518Y-109382299D01*
X115719418Y-109382299D01*
X115722885Y-109390558D01*
X115737137Y-109395113D01*
X115766530Y-109397065D01*
X115815425Y-109397517D01*
X115834252Y-109397525D01*
X115891533Y-109396843D01*
X115927859Y-109394364D01*
X115947396Y-109389443D01*
X115954310Y-109381434D01*
X115954555Y-109378862D01*
X115946664Y-109358423D01*
X115926915Y-109329789D01*
X115918425Y-109319763D01*
X115886906Y-109291408D01*
X115854051Y-109280259D01*
X115836349Y-109279327D01*
X115788461Y-109290981D01*
X115748301Y-109322285D01*
X115722827Y-109367752D01*
X115722375Y-109369233D01*
X115719418Y-109382299D01*
X115593518Y-109382299D01*
X115607608Y-109315510D01*
X115633962Y-109260025D01*
X115666193Y-109220639D01*
X115725783Y-109177931D01*
X115795832Y-109155109D01*
X115870339Y-109153046D01*
X115943301Y-109172614D01*
X115943301Y-109172614D01*
G37*
X115943301Y-109172614D02*
X115955832Y-109178514D01*
X115999201Y-109210283D01*
X116040210Y-109256646D01*
X116070832Y-109307696D01*
X116079541Y-109331166D01*
X116087488Y-109373091D01*
X116092226Y-109423757D01*
X116092801Y-109444679D01*
X116092871Y-109510693D01*
X115712917Y-109510693D01*
X115721017Y-109545273D01*
X115740896Y-109586170D01*
X115775653Y-109621514D01*
X115817002Y-109644282D01*
X115843351Y-109649010D01*
X115879084Y-109643273D01*
X115921718Y-109628882D01*
X115936201Y-109622262D01*
X115989760Y-109595513D01*
X116035467Y-109630376D01*
X116061842Y-109653955D01*
X116075876Y-109673417D01*
X116076586Y-109679129D01*
X116064049Y-109692973D01*
X116036572Y-109714012D01*
X116011634Y-109730425D01*
X115944336Y-109759930D01*
X115868890Y-109773284D01*
X115794112Y-109769812D01*
X115734505Y-109751663D01*
X115673059Y-109712784D01*
X115629392Y-109661595D01*
X115602074Y-109595367D01*
X115589678Y-109511371D01*
X115588579Y-109472936D01*
X115592978Y-109384861D01*
X115593518Y-109382299D01*
X115719418Y-109382299D01*
X115722885Y-109390558D01*
X115737137Y-109395113D01*
X115766530Y-109397065D01*
X115815425Y-109397517D01*
X115834252Y-109397525D01*
X115891533Y-109396843D01*
X115927859Y-109394364D01*
X115947396Y-109389443D01*
X115954310Y-109381434D01*
X115954555Y-109378862D01*
X115946664Y-109358423D01*
X115926915Y-109329789D01*
X115918425Y-109319763D01*
X115886906Y-109291408D01*
X115854051Y-109280259D01*
X115836349Y-109279327D01*
X115788461Y-109290981D01*
X115748301Y-109322285D01*
X115722827Y-109367752D01*
X115722375Y-109369233D01*
X115719418Y-109382299D01*
X115593518Y-109382299D01*
X115607608Y-109315510D01*
X115633962Y-109260025D01*
X115666193Y-109220639D01*
X115725783Y-109177931D01*
X115795832Y-109155109D01*
X115870339Y-109153046D01*
X115943301Y-109172614D01*
G36*
X117314017Y-109156452D02*
X117361634Y-109165482D01*
X117411034Y-109184370D01*
X117416312Y-109186777D01*
X117453774Y-109206476D01*
X117479717Y-109224781D01*
X117488103Y-109236508D01*
X117480117Y-109255632D01*
X117460720Y-109283850D01*
X117452110Y-109294384D01*
X117416628Y-109335847D01*
X117370885Y-109308858D01*
X117327350Y-109290878D01*
X117277050Y-109281267D01*
X117228812Y-109280660D01*
X117191467Y-109289691D01*
X117182505Y-109295327D01*
X117165437Y-109321171D01*
X117163363Y-109350941D01*
X117176134Y-109374197D01*
X117183688Y-109378708D01*
X117206325Y-109384309D01*
X117246115Y-109390892D01*
X117295166Y-109397183D01*
X117304215Y-109398170D01*
X117382996Y-109411798D01*
X117440136Y-109434946D01*
X117478030Y-109469752D01*
X117499079Y-109518354D01*
X117505635Y-109577718D01*
X117496577Y-109645198D01*
X117467164Y-109698188D01*
X117417278Y-109736783D01*
X117346800Y-109761081D01*
X117268565Y-109770667D01*
X117204766Y-109770552D01*
X117153016Y-109761845D01*
X117117673Y-109749825D01*
X117073017Y-109728880D01*
X117031747Y-109704574D01*
X117017079Y-109693876D01*
X116979357Y-109663084D01*
X117024852Y-109617049D01*
X117070347Y-109571013D01*
X117122072Y-109605243D01*
X117173952Y-109630952D01*
X117229351Y-109644399D01*
X117282605Y-109645818D01*
X117328049Y-109635443D01*
X117360016Y-109613507D01*
X117370338Y-109594998D01*
X117368789Y-109565314D01*
X117343140Y-109542615D01*
X117293460Y-109526940D01*
X117239031Y-109519695D01*
X117155264Y-109505873D01*
X117093033Y-109479796D01*
X117051507Y-109440699D01*
X117029853Y-109387820D01*
X117026853Y-109325126D01*
X117041671Y-109259642D01*
X117075454Y-109210144D01*
X117128505Y-109176408D01*
X117201126Y-109158207D01*
X117254928Y-109154639D01*
X117314017Y-109156452D01*
X117314017Y-109156452D01*
G37*
X117314017Y-109156452D02*
X117361634Y-109165482D01*
X117411034Y-109184370D01*
X117416312Y-109186777D01*
X117453774Y-109206476D01*
X117479717Y-109224781D01*
X117488103Y-109236508D01*
X117480117Y-109255632D01*
X117460720Y-109283850D01*
X117452110Y-109294384D01*
X117416628Y-109335847D01*
X117370885Y-109308858D01*
X117327350Y-109290878D01*
X117277050Y-109281267D01*
X117228812Y-109280660D01*
X117191467Y-109289691D01*
X117182505Y-109295327D01*
X117165437Y-109321171D01*
X117163363Y-109350941D01*
X117176134Y-109374197D01*
X117183688Y-109378708D01*
X117206325Y-109384309D01*
X117246115Y-109390892D01*
X117295166Y-109397183D01*
X117304215Y-109398170D01*
X117382996Y-109411798D01*
X117440136Y-109434946D01*
X117478030Y-109469752D01*
X117499079Y-109518354D01*
X117505635Y-109577718D01*
X117496577Y-109645198D01*
X117467164Y-109698188D01*
X117417278Y-109736783D01*
X117346800Y-109761081D01*
X117268565Y-109770667D01*
X117204766Y-109770552D01*
X117153016Y-109761845D01*
X117117673Y-109749825D01*
X117073017Y-109728880D01*
X117031747Y-109704574D01*
X117017079Y-109693876D01*
X116979357Y-109663084D01*
X117024852Y-109617049D01*
X117070347Y-109571013D01*
X117122072Y-109605243D01*
X117173952Y-109630952D01*
X117229351Y-109644399D01*
X117282605Y-109645818D01*
X117328049Y-109635443D01*
X117360016Y-109613507D01*
X117370338Y-109594998D01*
X117368789Y-109565314D01*
X117343140Y-109542615D01*
X117293460Y-109526940D01*
X117239031Y-109519695D01*
X117155264Y-109505873D01*
X117093033Y-109479796D01*
X117051507Y-109440699D01*
X117029853Y-109387820D01*
X117026853Y-109325126D01*
X117041671Y-109259642D01*
X117075454Y-109210144D01*
X117128505Y-109176408D01*
X117201126Y-109158207D01*
X117254928Y-109154639D01*
X117314017Y-109156452D01*
G36*
X117910762Y-109166055D02*
X117974363Y-109200692D01*
X118024123Y-109255372D01*
X118047568Y-109299842D01*
X118057634Y-109339121D01*
X118064156Y-109395116D01*
X118066951Y-109459621D01*
X118065836Y-109524429D01*
X118060626Y-109581334D01*
X118054541Y-109611727D01*
X118034014Y-109653306D01*
X117998463Y-109697468D01*
X117955619Y-109736087D01*
X117913211Y-109761034D01*
X117912177Y-109761430D01*
X117859553Y-109772331D01*
X117797188Y-109772601D01*
X117737924Y-109762676D01*
X117715040Y-109754722D01*
X117656102Y-109721300D01*
X117613890Y-109677511D01*
X117586156Y-109619538D01*
X117570651Y-109543565D01*
X117567143Y-109503771D01*
X117567590Y-109453766D01*
X117702376Y-109453766D01*
X117706917Y-109526732D01*
X117719986Y-109582334D01*
X117740756Y-109617861D01*
X117755552Y-109628020D01*
X117793464Y-109635104D01*
X117838527Y-109633007D01*
X117877487Y-109622812D01*
X117887704Y-109617204D01*
X117914659Y-109584538D01*
X117932451Y-109534545D01*
X117940024Y-109473705D01*
X117936325Y-109408497D01*
X117928057Y-109369253D01*
X117904320Y-109323805D01*
X117866849Y-109295396D01*
X117821720Y-109285573D01*
X117775011Y-109295887D01*
X117739132Y-109321112D01*
X117720277Y-109341925D01*
X117709272Y-109362439D01*
X117704026Y-109390203D01*
X117702449Y-109432762D01*
X117702376Y-109453766D01*
X117567590Y-109453766D01*
X117568094Y-109397580D01*
X117585388Y-109310501D01*
X117619029Y-109242530D01*
X117669018Y-109193664D01*
X117735356Y-109163899D01*
X117749601Y-109160448D01*
X117835210Y-109152345D01*
X117910762Y-109166055D01*
X117910762Y-109166055D01*
G37*
X117910762Y-109166055D02*
X117974363Y-109200692D01*
X118024123Y-109255372D01*
X118047568Y-109299842D01*
X118057634Y-109339121D01*
X118064156Y-109395116D01*
X118066951Y-109459621D01*
X118065836Y-109524429D01*
X118060626Y-109581334D01*
X118054541Y-109611727D01*
X118034014Y-109653306D01*
X117998463Y-109697468D01*
X117955619Y-109736087D01*
X117913211Y-109761034D01*
X117912177Y-109761430D01*
X117859553Y-109772331D01*
X117797188Y-109772601D01*
X117737924Y-109762676D01*
X117715040Y-109754722D01*
X117656102Y-109721300D01*
X117613890Y-109677511D01*
X117586156Y-109619538D01*
X117570651Y-109543565D01*
X117567143Y-109503771D01*
X117567590Y-109453766D01*
X117702376Y-109453766D01*
X117706917Y-109526732D01*
X117719986Y-109582334D01*
X117740756Y-109617861D01*
X117755552Y-109628020D01*
X117793464Y-109635104D01*
X117838527Y-109633007D01*
X117877487Y-109622812D01*
X117887704Y-109617204D01*
X117914659Y-109584538D01*
X117932451Y-109534545D01*
X117940024Y-109473705D01*
X117936325Y-109408497D01*
X117928057Y-109369253D01*
X117904320Y-109323805D01*
X117866849Y-109295396D01*
X117821720Y-109285573D01*
X117775011Y-109295887D01*
X117739132Y-109321112D01*
X117720277Y-109341925D01*
X117709272Y-109362439D01*
X117704026Y-109390203D01*
X117702449Y-109432762D01*
X117702376Y-109453766D01*
X117567590Y-109453766D01*
X117568094Y-109397580D01*
X117585388Y-109310501D01*
X117619029Y-109242530D01*
X117669018Y-109193664D01*
X117735356Y-109163899D01*
X117749601Y-109160448D01*
X117835210Y-109152345D01*
X117910762Y-109166055D01*
G36*
X118293367Y-109354342D02*
X118294555Y-109446563D01*
X118298897Y-109516610D01*
X118307558Y-109567381D01*
X118321704Y-109601772D01*
X118342500Y-109622679D01*
X118371110Y-109633000D01*
X118406535Y-109635636D01*
X118443636Y-109632682D01*
X118471818Y-109621889D01*
X118492243Y-109600360D01*
X118506079Y-109565199D01*
X118514491Y-109513510D01*
X118518643Y-109442394D01*
X118519703Y-109354342D01*
X118519703Y-109158614D01*
X118658020Y-109158614D01*
X118658020Y-109762179D01*
X118588862Y-109762179D01*
X118547170Y-109760489D01*
X118525701Y-109754556D01*
X118519703Y-109743293D01*
X118516091Y-109733261D01*
X118501714Y-109735383D01*
X118472736Y-109749580D01*
X118406319Y-109771480D01*
X118335875Y-109769928D01*
X118268377Y-109746147D01*
X118236233Y-109727362D01*
X118211715Y-109707022D01*
X118193804Y-109681573D01*
X118181479Y-109647458D01*
X118173723Y-109601121D01*
X118169516Y-109539007D01*
X118167840Y-109457561D01*
X118167624Y-109394578D01*
X118167624Y-109158614D01*
X118293367Y-109158614D01*
X118293367Y-109354342D01*
X118293367Y-109354342D01*
G37*
X118293367Y-109354342D02*
X118294555Y-109446563D01*
X118298897Y-109516610D01*
X118307558Y-109567381D01*
X118321704Y-109601772D01*
X118342500Y-109622679D01*
X118371110Y-109633000D01*
X118406535Y-109635636D01*
X118443636Y-109632682D01*
X118471818Y-109621889D01*
X118492243Y-109600360D01*
X118506079Y-109565199D01*
X118514491Y-109513510D01*
X118518643Y-109442394D01*
X118519703Y-109354342D01*
X118519703Y-109158614D01*
X118658020Y-109158614D01*
X118658020Y-109762179D01*
X118588862Y-109762179D01*
X118547170Y-109760489D01*
X118525701Y-109754556D01*
X118519703Y-109743293D01*
X118516091Y-109733261D01*
X118501714Y-109735383D01*
X118472736Y-109749580D01*
X118406319Y-109771480D01*
X118335875Y-109769928D01*
X118268377Y-109746147D01*
X118236233Y-109727362D01*
X118211715Y-109707022D01*
X118193804Y-109681573D01*
X118181479Y-109647458D01*
X118173723Y-109601121D01*
X118169516Y-109539007D01*
X118167840Y-109457561D01*
X118167624Y-109394578D01*
X118167624Y-109158614D01*
X118293367Y-109158614D01*
X118293367Y-109354342D01*
G36*
X119517226Y-109163880D02*
X119590080Y-109194830D01*
X119613027Y-109209895D01*
X119642354Y-109233048D01*
X119660764Y-109251253D01*
X119663961Y-109257183D01*
X119654935Y-109270340D01*
X119631837Y-109292667D01*
X119613344Y-109308250D01*
X119562728Y-109348926D01*
X119522760Y-109315295D01*
X119491874Y-109293584D01*
X119461759Y-109286090D01*
X119427292Y-109287920D01*
X119372561Y-109301528D01*
X119334886Y-109329772D01*
X119311991Y-109375433D01*
X119301597Y-109441289D01*
X119301595Y-109441331D01*
X119302494Y-109514939D01*
X119316463Y-109568946D01*
X119344328Y-109605716D01*
X119363325Y-109618168D01*
X119413776Y-109633673D01*
X119467663Y-109633683D01*
X119514546Y-109618638D01*
X119525644Y-109611287D01*
X119553476Y-109592511D01*
X119575236Y-109589434D01*
X119598704Y-109603409D01*
X119624649Y-109628510D01*
X119665716Y-109670880D01*
X119620121Y-109708464D01*
X119549674Y-109750882D01*
X119470233Y-109771785D01*
X119387215Y-109770272D01*
X119332694Y-109756411D01*
X119268970Y-109722135D01*
X119218005Y-109668212D01*
X119194851Y-109630149D01*
X119176099Y-109575536D01*
X119166715Y-109506369D01*
X119166643Y-109431407D01*
X119175824Y-109359409D01*
X119194199Y-109299137D01*
X119197093Y-109292958D01*
X119239952Y-109232351D01*
X119297979Y-109188224D01*
X119366591Y-109161493D01*
X119441201Y-109153073D01*
X119517226Y-109163880D01*
X119517226Y-109163880D01*
G37*
X119517226Y-109163880D02*
X119590080Y-109194830D01*
X119613027Y-109209895D01*
X119642354Y-109233048D01*
X119660764Y-109251253D01*
X119663961Y-109257183D01*
X119654935Y-109270340D01*
X119631837Y-109292667D01*
X119613344Y-109308250D01*
X119562728Y-109348926D01*
X119522760Y-109315295D01*
X119491874Y-109293584D01*
X119461759Y-109286090D01*
X119427292Y-109287920D01*
X119372561Y-109301528D01*
X119334886Y-109329772D01*
X119311991Y-109375433D01*
X119301597Y-109441289D01*
X119301595Y-109441331D01*
X119302494Y-109514939D01*
X119316463Y-109568946D01*
X119344328Y-109605716D01*
X119363325Y-109618168D01*
X119413776Y-109633673D01*
X119467663Y-109633683D01*
X119514546Y-109618638D01*
X119525644Y-109611287D01*
X119553476Y-109592511D01*
X119575236Y-109589434D01*
X119598704Y-109603409D01*
X119624649Y-109628510D01*
X119665716Y-109670880D01*
X119620121Y-109708464D01*
X119549674Y-109750882D01*
X119470233Y-109771785D01*
X119387215Y-109770272D01*
X119332694Y-109756411D01*
X119268970Y-109722135D01*
X119218005Y-109668212D01*
X119194851Y-109630149D01*
X119176099Y-109575536D01*
X119166715Y-109506369D01*
X119166643Y-109431407D01*
X119175824Y-109359409D01*
X119194199Y-109299137D01*
X119197093Y-109292958D01*
X119239952Y-109232351D01*
X119297979Y-109188224D01*
X119366591Y-109161493D01*
X119441201Y-109153073D01*
X119517226Y-109163880D01*
G36*
X119977898Y-109156457D02*
X120010096Y-109164279D01*
X120071825Y-109192921D01*
X120124610Y-109236667D01*
X120161141Y-109289117D01*
X120166160Y-109300893D01*
X120173045Y-109331740D01*
X120177864Y-109377371D01*
X120179505Y-109423492D01*
X120179505Y-109510693D01*
X119997178Y-109510693D01*
X119921979Y-109510978D01*
X119869003Y-109512704D01*
X119835325Y-109517181D01*
X119818020Y-109525720D01*
X119814163Y-109539630D01*
X119820829Y-109560222D01*
X119832770Y-109584315D01*
X119866080Y-109624525D01*
X119912368Y-109644558D01*
X119968944Y-109643905D01*
X120033031Y-109622101D01*
X120088417Y-109595193D01*
X120134375Y-109631532D01*
X120180333Y-109667872D01*
X120137096Y-109707819D01*
X120079374Y-109745563D01*
X120008386Y-109768320D01*
X119932029Y-109774688D01*
X119858199Y-109763268D01*
X119846287Y-109759393D01*
X119781399Y-109725506D01*
X119733130Y-109674986D01*
X119700465Y-109606325D01*
X119682385Y-109518014D01*
X119682175Y-109516121D01*
X119680556Y-109419878D01*
X119687100Y-109385542D01*
X119814852Y-109385542D01*
X119826584Y-109390822D01*
X119858438Y-109394867D01*
X119905397Y-109397176D01*
X119935154Y-109397525D01*
X119990648Y-109397306D01*
X120025346Y-109395916D01*
X120043601Y-109392251D01*
X120049766Y-109385210D01*
X120048195Y-109373690D01*
X120046878Y-109369233D01*
X120024382Y-109327355D01*
X119989003Y-109293604D01*
X119957780Y-109278773D01*
X119916301Y-109279668D01*
X119874269Y-109298164D01*
X119839012Y-109328786D01*
X119817854Y-109366062D01*
X119814852Y-109385542D01*
X119687100Y-109385542D01*
X119696690Y-109335229D01*
X119728698Y-109264191D01*
X119774701Y-109208779D01*
X119832821Y-109171009D01*
X119901180Y-109152896D01*
X119977898Y-109156457D01*
X119977898Y-109156457D01*
G37*
X119977898Y-109156457D02*
X120010096Y-109164279D01*
X120071825Y-109192921D01*
X120124610Y-109236667D01*
X120161141Y-109289117D01*
X120166160Y-109300893D01*
X120173045Y-109331740D01*
X120177864Y-109377371D01*
X120179505Y-109423492D01*
X120179505Y-109510693D01*
X119997178Y-109510693D01*
X119921979Y-109510978D01*
X119869003Y-109512704D01*
X119835325Y-109517181D01*
X119818020Y-109525720D01*
X119814163Y-109539630D01*
X119820829Y-109560222D01*
X119832770Y-109584315D01*
X119866080Y-109624525D01*
X119912368Y-109644558D01*
X119968944Y-109643905D01*
X120033031Y-109622101D01*
X120088417Y-109595193D01*
X120134375Y-109631532D01*
X120180333Y-109667872D01*
X120137096Y-109707819D01*
X120079374Y-109745563D01*
X120008386Y-109768320D01*
X119932029Y-109774688D01*
X119858199Y-109763268D01*
X119846287Y-109759393D01*
X119781399Y-109725506D01*
X119733130Y-109674986D01*
X119700465Y-109606325D01*
X119682385Y-109518014D01*
X119682175Y-109516121D01*
X119680556Y-109419878D01*
X119687100Y-109385542D01*
X119814852Y-109385542D01*
X119826584Y-109390822D01*
X119858438Y-109394867D01*
X119905397Y-109397176D01*
X119935154Y-109397525D01*
X119990648Y-109397306D01*
X120025346Y-109395916D01*
X120043601Y-109392251D01*
X120049766Y-109385210D01*
X120048195Y-109373690D01*
X120046878Y-109369233D01*
X120024382Y-109327355D01*
X119989003Y-109293604D01*
X119957780Y-109278773D01*
X119916301Y-109279668D01*
X119874269Y-109298164D01*
X119839012Y-109328786D01*
X119817854Y-109366062D01*
X119814852Y-109385542D01*
X119687100Y-109385542D01*
X119696690Y-109335229D01*
X119728698Y-109264191D01*
X119774701Y-109208779D01*
X119832821Y-109171009D01*
X119901180Y-109152896D01*
X119977898Y-109156457D01*
G36*
X116545988Y-109169002D02*
X116577283Y-109183950D01*
X116607591Y-109205541D01*
X116630682Y-109230391D01*
X116647500Y-109262087D01*
X116658994Y-109304214D01*
X116666109Y-109360358D01*
X116669793Y-109434106D01*
X116670992Y-109529044D01*
X116671011Y-109538985D01*
X116671287Y-109762179D01*
X116532970Y-109762179D01*
X116532970Y-109556418D01*
X116532872Y-109480189D01*
X116532191Y-109424939D01*
X116530349Y-109386501D01*
X116526767Y-109360706D01*
X116520868Y-109343384D01*
X116512073Y-109330368D01*
X116499820Y-109317507D01*
X116456953Y-109289873D01*
X116410157Y-109284745D01*
X116365576Y-109302217D01*
X116350072Y-109315221D01*
X116338690Y-109327447D01*
X116330519Y-109340540D01*
X116325026Y-109358615D01*
X116321680Y-109385787D01*
X116319949Y-109426170D01*
X116319303Y-109483879D01*
X116319208Y-109554132D01*
X116319208Y-109762179D01*
X116180891Y-109762179D01*
X116180891Y-109158614D01*
X116250050Y-109158614D01*
X116291572Y-109160256D01*
X116312994Y-109166087D01*
X116319205Y-109177461D01*
X116319208Y-109177798D01*
X116322090Y-109188938D01*
X116334801Y-109187674D01*
X116360074Y-109175434D01*
X116417395Y-109157424D01*
X116482963Y-109155421D01*
X116545988Y-109169002D01*
X116545988Y-109169002D01*
G37*
X116545988Y-109169002D02*
X116577283Y-109183950D01*
X116607591Y-109205541D01*
X116630682Y-109230391D01*
X116647500Y-109262087D01*
X116658994Y-109304214D01*
X116666109Y-109360358D01*
X116669793Y-109434106D01*
X116670992Y-109529044D01*
X116671011Y-109538985D01*
X116671287Y-109762179D01*
X116532970Y-109762179D01*
X116532970Y-109556418D01*
X116532872Y-109480189D01*
X116532191Y-109424939D01*
X116530349Y-109386501D01*
X116526767Y-109360706D01*
X116520868Y-109343384D01*
X116512073Y-109330368D01*
X116499820Y-109317507D01*
X116456953Y-109289873D01*
X116410157Y-109284745D01*
X116365576Y-109302217D01*
X116350072Y-109315221D01*
X116338690Y-109327447D01*
X116330519Y-109340540D01*
X116325026Y-109358615D01*
X116321680Y-109385787D01*
X116319949Y-109426170D01*
X116319303Y-109483879D01*
X116319208Y-109554132D01*
X116319208Y-109762179D01*
X116180891Y-109762179D01*
X116180891Y-109158614D01*
X116250050Y-109158614D01*
X116291572Y-109160256D01*
X116312994Y-109166087D01*
X116319205Y-109177461D01*
X116319208Y-109177798D01*
X116322090Y-109188938D01*
X116334801Y-109187674D01*
X116360074Y-109175434D01*
X116417395Y-109157424D01*
X116482963Y-109155421D01*
X116545988Y-109169002D01*
G36*
X119099460Y-109158030D02*
X119142711Y-109171245D01*
X119170558Y-109187941D01*
X119179629Y-109201145D01*
X119177132Y-109216797D01*
X119160931Y-109241385D01*
X119147232Y-109258800D01*
X119118992Y-109290283D01*
X119097775Y-109303529D01*
X119079688Y-109302664D01*
X119026035Y-109289010D01*
X118986630Y-109289630D01*
X118954632Y-109305104D01*
X118943890Y-109314161D01*
X118909505Y-109346027D01*
X118909505Y-109762179D01*
X118771188Y-109762179D01*
X118771188Y-109158614D01*
X118840347Y-109158614D01*
X118881869Y-109160256D01*
X118903291Y-109166087D01*
X118909502Y-109177461D01*
X118909505Y-109177798D01*
X118912439Y-109189713D01*
X118925704Y-109188159D01*
X118944084Y-109179563D01*
X118982046Y-109163568D01*
X119012872Y-109153945D01*
X119052536Y-109151478D01*
X119099460Y-109158030D01*
X119099460Y-109158030D01*
G37*
X119099460Y-109158030D02*
X119142711Y-109171245D01*
X119170558Y-109187941D01*
X119179629Y-109201145D01*
X119177132Y-109216797D01*
X119160931Y-109241385D01*
X119147232Y-109258800D01*
X119118992Y-109290283D01*
X119097775Y-109303529D01*
X119079688Y-109302664D01*
X119026035Y-109289010D01*
X118986630Y-109289630D01*
X118954632Y-109305104D01*
X118943890Y-109314161D01*
X118909505Y-109346027D01*
X118909505Y-109762179D01*
X118771188Y-109762179D01*
X118771188Y-109158614D01*
X118840347Y-109158614D01*
X118881869Y-109160256D01*
X118903291Y-109166087D01*
X118909502Y-109177461D01*
X118909505Y-109177798D01*
X118912439Y-109189713D01*
X118925704Y-109188159D01*
X118944084Y-109179563D01*
X118982046Y-109163568D01*
X119012872Y-109153945D01*
X119052536Y-109151478D01*
X119099460Y-109158030D01*
G36*
X117676964Y-104990018D02*
X117733812Y-105291570D01*
X118153338Y-105464512D01*
X118404984Y-105293395D01*
X118475458Y-105245750D01*
X118539163Y-105203210D01*
X118593126Y-105167715D01*
X118634373Y-105141210D01*
X118659934Y-105125636D01*
X118666895Y-105122278D01*
X118679435Y-105130914D01*
X118706231Y-105154792D01*
X118744280Y-105190859D01*
X118790579Y-105236067D01*
X118842123Y-105287364D01*
X118895909Y-105341701D01*
X118948935Y-105396028D01*
X118998195Y-105447295D01*
X119040687Y-105492451D01*
X119073407Y-105528446D01*
X119093351Y-105552230D01*
X119098119Y-105560190D01*
X119091257Y-105574865D01*
X119072020Y-105607014D01*
X119042430Y-105653492D01*
X119004510Y-105711156D01*
X118960282Y-105776860D01*
X118934654Y-105814336D01*
X118887941Y-105882768D01*
X118846432Y-105944520D01*
X118812140Y-105996519D01*
X118787080Y-106035692D01*
X118773264Y-106058965D01*
X118771188Y-106063855D01*
X118775895Y-106077755D01*
X118788723Y-106110150D01*
X118807738Y-106156485D01*
X118831003Y-106212206D01*
X118856584Y-106272758D01*
X118882545Y-106333586D01*
X118906950Y-106390136D01*
X118927863Y-106437852D01*
X118943349Y-106472181D01*
X118951472Y-106488568D01*
X118951952Y-106489212D01*
X118964707Y-106492341D01*
X118998677Y-106499321D01*
X119050340Y-106509467D01*
X119116176Y-106522092D01*
X119192664Y-106536509D01*
X119237290Y-106544823D01*
X119319021Y-106560384D01*
X119392843Y-106575192D01*
X119455021Y-106588436D01*
X119501822Y-106599305D01*
X119529509Y-106606989D01*
X119535074Y-106609427D01*
X119540526Y-106625930D01*
X119544924Y-106663200D01*
X119548272Y-106716880D01*
X119550574Y-106782612D01*
X119551832Y-106856037D01*
X119552048Y-106932796D01*
X119551227Y-107008532D01*
X119549371Y-107078886D01*
X119546482Y-107139500D01*
X119542565Y-107186016D01*
X119537622Y-107214075D01*
X119534657Y-107219916D01*
X119516934Y-107226917D01*
X119479381Y-107236927D01*
X119426964Y-107248769D01*
X119364652Y-107261267D01*
X119342900Y-107265310D01*
X119238024Y-107284520D01*
X119155180Y-107299991D01*
X119091630Y-107312337D01*
X119044637Y-107322173D01*
X119011463Y-107330114D01*
X118989371Y-107336776D01*
X118975624Y-107342773D01*
X118967484Y-107348719D01*
X118966345Y-107349894D01*
X118954977Y-107368826D01*
X118937635Y-107405669D01*
X118916050Y-107455913D01*
X118891954Y-107515046D01*
X118867079Y-107578556D01*
X118843157Y-107641932D01*
X118821919Y-107700662D01*
X118805097Y-107750235D01*
X118794422Y-107786139D01*
X118791627Y-107803862D01*
X118791860Y-107804483D01*
X118801331Y-107818970D01*
X118822818Y-107850844D01*
X118854063Y-107896789D01*
X118892807Y-107953485D01*
X118936793Y-108017617D01*
X118949319Y-108035842D01*
X118993984Y-108101914D01*
X119033288Y-108162200D01*
X119065088Y-108213235D01*
X119087245Y-108251560D01*
X119097617Y-108273711D01*
X119098119Y-108276432D01*
X119089405Y-108290736D01*
X119065325Y-108319072D01*
X119028976Y-108358396D01*
X118983453Y-108405661D01*
X118931852Y-108457823D01*
X118877267Y-108511835D01*
X118822794Y-108564653D01*
X118771529Y-108613231D01*
X118726567Y-108654523D01*
X118691004Y-108685485D01*
X118667935Y-108703070D01*
X118661554Y-108705941D01*
X118646699Y-108699178D01*
X118616286Y-108680939D01*
X118575268Y-108654297D01*
X118543709Y-108632852D01*
X118486525Y-108593503D01*
X118418806Y-108547171D01*
X118350880Y-108500913D01*
X118314361Y-108476155D01*
X118190752Y-108392547D01*
X118086991Y-108448650D01*
X118039720Y-108473228D01*
X117999523Y-108492331D01*
X117972326Y-108503227D01*
X117965402Y-108504743D01*
X117957077Y-108493549D01*
X117940654Y-108461917D01*
X117917357Y-108412765D01*
X117888414Y-108349010D01*
X117855050Y-108273571D01*
X117818491Y-108189364D01*
X117779964Y-108099308D01*
X117740694Y-108006321D01*
X117701908Y-107913320D01*
X117664830Y-107823223D01*
X117630689Y-107738948D01*
X117600708Y-107663413D01*
X117576116Y-107599534D01*
X117558136Y-107550231D01*
X117547997Y-107518421D01*
X117546366Y-107507496D01*
X117559291Y-107493561D01*
X117587589Y-107470940D01*
X117625346Y-107444333D01*
X117628515Y-107442228D01*
X117726100Y-107364114D01*
X117804786Y-107272982D01*
X117863891Y-107171745D01*
X117902732Y-107063318D01*
X117920628Y-106950614D01*
X117916897Y-106836548D01*
X117890857Y-106724034D01*
X117841825Y-106615985D01*
X117827400Y-106592345D01*
X117752369Y-106496887D01*
X117663730Y-106420232D01*
X117564549Y-106362780D01*
X117457895Y-106324929D01*
X117346836Y-106307078D01*
X117234439Y-106309625D01*
X117123773Y-106332970D01*
X117017906Y-106377510D01*
X116919905Y-106443645D01*
X116889590Y-106470487D01*
X116812438Y-106554512D01*
X116756218Y-106642966D01*
X116717653Y-106742115D01*
X116696174Y-106840303D01*
X116690872Y-106950697D01*
X116708552Y-107061640D01*
X116747419Y-107169381D01*
X116805677Y-107270169D01*
X116881531Y-107360256D01*
X116973183Y-107435892D01*
X116985228Y-107443864D01*
X117023389Y-107469974D01*
X117052399Y-107492595D01*
X117066268Y-107507039D01*
X117066469Y-107507496D01*
X117063492Y-107523121D01*
X117051689Y-107558582D01*
X117032286Y-107610962D01*
X117006512Y-107677345D01*
X116975591Y-107754814D01*
X116940751Y-107840450D01*
X116903217Y-107931337D01*
X116864217Y-108024559D01*
X116824977Y-108117197D01*
X116786724Y-108206335D01*
X116750683Y-108289055D01*
X116718083Y-108362441D01*
X116690148Y-108423575D01*
X116668105Y-108469541D01*
X116653182Y-108497421D01*
X116647172Y-108504743D01*
X116628809Y-108499041D01*
X116594448Y-108483749D01*
X116550016Y-108461599D01*
X116525583Y-108448650D01*
X116421822Y-108392547D01*
X116298213Y-108476155D01*
X116235114Y-108518987D01*
X116166030Y-108566122D01*
X116101293Y-108610503D01*
X116068866Y-108632852D01*
X116023259Y-108663477D01*
X115984640Y-108687747D01*
X115958048Y-108702587D01*
X115949410Y-108705724D01*
X115936839Y-108697261D01*
X115909016Y-108673636D01*
X115868639Y-108637302D01*
X115818405Y-108590711D01*
X115761012Y-108536317D01*
X115724714Y-108501392D01*
X115661210Y-108438996D01*
X115606327Y-108383188D01*
X115562286Y-108336354D01*
X115531305Y-108300882D01*
X115515602Y-108279161D01*
X115514095Y-108274752D01*
X115521086Y-108257985D01*
X115540406Y-108224082D01*
X115569909Y-108176476D01*
X115607455Y-108118599D01*
X115650900Y-108053884D01*
X115663255Y-108035842D01*
X115708273Y-107970267D01*
X115748660Y-107911228D01*
X115782160Y-107862042D01*
X115806514Y-107826028D01*
X115819464Y-107806502D01*
X115820715Y-107804483D01*
X115818844Y-107788922D01*
X115808913Y-107754709D01*
X115792653Y-107706355D01*
X115771795Y-107648371D01*
X115748073Y-107585270D01*
X115723216Y-107521563D01*
X115698958Y-107461761D01*
X115677029Y-107410376D01*
X115659162Y-107371919D01*
X115647087Y-107350902D01*
X115646229Y-107349894D01*
X115638846Y-107343888D01*
X115626375Y-107337948D01*
X115606080Y-107331460D01*
X115575222Y-107323809D01*
X115531066Y-107314380D01*
X115470874Y-107302559D01*
X115391907Y-107287729D01*
X115291430Y-107269277D01*
X115269675Y-107265310D01*
X115205198Y-107252853D01*
X115148989Y-107240666D01*
X115106013Y-107229926D01*
X115081240Y-107221809D01*
X115077918Y-107219916D01*
X115072444Y-107203138D01*
X115067994Y-107165645D01*
X115064572Y-107111794D01*
X115062181Y-107045944D01*
X115060823Y-106972453D01*
X115060501Y-106895680D01*
X115061219Y-106819983D01*
X115062979Y-106749720D01*
X115065784Y-106689250D01*
X115069638Y-106642930D01*
X115074543Y-106615119D01*
X115077500Y-106609427D01*
X115093963Y-106603686D01*
X115131449Y-106594345D01*
X115186225Y-106582215D01*
X115254555Y-106568107D01*
X115332706Y-106552830D01*
X115375284Y-106544823D01*
X115456071Y-106529721D01*
X115528113Y-106516040D01*
X115587889Y-106504467D01*
X115631879Y-106495687D01*
X115656561Y-106490387D01*
X115660623Y-106489212D01*
X115667489Y-106475965D01*
X115682002Y-106444057D01*
X115702229Y-106398047D01*
X115726234Y-106342492D01*
X115752082Y-106281953D01*
X115777840Y-106220986D01*
X115801573Y-106164151D01*
X115821346Y-106116006D01*
X115835224Y-106081110D01*
X115841274Y-106064021D01*
X115841386Y-106063274D01*
X115834528Y-106049793D01*
X115815302Y-106018770D01*
X115785728Y-105973289D01*
X115747827Y-105916432D01*
X115703620Y-105851283D01*
X115677921Y-105813862D01*
X115631093Y-105745247D01*
X115589501Y-105682952D01*
X115555175Y-105630129D01*
X115530143Y-105589927D01*
X115516435Y-105565500D01*
X115514456Y-105560024D01*
X115522966Y-105547278D01*
X115546493Y-105520063D01*
X115582032Y-105481428D01*
X115626577Y-105434423D01*
X115677123Y-105382095D01*
X115730664Y-105327495D01*
X115784195Y-105273670D01*
X115834711Y-105223670D01*
X115879206Y-105180543D01*
X115914675Y-105147339D01*
X115938113Y-105127106D01*
X115945954Y-105122278D01*
X115958720Y-105129067D01*
X115989256Y-105148142D01*
X116034590Y-105177561D01*
X116091756Y-105215381D01*
X116157784Y-105259661D01*
X116207590Y-105293395D01*
X116459236Y-105464512D01*
X116668999Y-105378041D01*
X116878763Y-105291570D01*
X116935611Y-104990018D01*
X116992460Y-104688466D01*
X117620115Y-104688466D01*
X117676964Y-104990018D01*
X117676964Y-104990018D01*
G37*
X117676964Y-104990018D02*
X117733812Y-105291570D01*
X118153338Y-105464512D01*
X118404984Y-105293395D01*
X118475458Y-105245750D01*
X118539163Y-105203210D01*
X118593126Y-105167715D01*
X118634373Y-105141210D01*
X118659934Y-105125636D01*
X118666895Y-105122278D01*
X118679435Y-105130914D01*
X118706231Y-105154792D01*
X118744280Y-105190859D01*
X118790579Y-105236067D01*
X118842123Y-105287364D01*
X118895909Y-105341701D01*
X118948935Y-105396028D01*
X118998195Y-105447295D01*
X119040687Y-105492451D01*
X119073407Y-105528446D01*
X119093351Y-105552230D01*
X119098119Y-105560190D01*
X119091257Y-105574865D01*
X119072020Y-105607014D01*
X119042430Y-105653492D01*
X119004510Y-105711156D01*
X118960282Y-105776860D01*
X118934654Y-105814336D01*
X118887941Y-105882768D01*
X118846432Y-105944520D01*
X118812140Y-105996519D01*
X118787080Y-106035692D01*
X118773264Y-106058965D01*
X118771188Y-106063855D01*
X118775895Y-106077755D01*
X118788723Y-106110150D01*
X118807738Y-106156485D01*
X118831003Y-106212206D01*
X118856584Y-106272758D01*
X118882545Y-106333586D01*
X118906950Y-106390136D01*
X118927863Y-106437852D01*
X118943349Y-106472181D01*
X118951472Y-106488568D01*
X118951952Y-106489212D01*
X118964707Y-106492341D01*
X118998677Y-106499321D01*
X119050340Y-106509467D01*
X119116176Y-106522092D01*
X119192664Y-106536509D01*
X119237290Y-106544823D01*
X119319021Y-106560384D01*
X119392843Y-106575192D01*
X119455021Y-106588436D01*
X119501822Y-106599305D01*
X119529509Y-106606989D01*
X119535074Y-106609427D01*
X119540526Y-106625930D01*
X119544924Y-106663200D01*
X119548272Y-106716880D01*
X119550574Y-106782612D01*
X119551832Y-106856037D01*
X119552048Y-106932796D01*
X119551227Y-107008532D01*
X119549371Y-107078886D01*
X119546482Y-107139500D01*
X119542565Y-107186016D01*
X119537622Y-107214075D01*
X119534657Y-107219916D01*
X119516934Y-107226917D01*
X119479381Y-107236927D01*
X119426964Y-107248769D01*
X119364652Y-107261267D01*
X119342900Y-107265310D01*
X119238024Y-107284520D01*
X119155180Y-107299991D01*
X119091630Y-107312337D01*
X119044637Y-107322173D01*
X119011463Y-107330114D01*
X118989371Y-107336776D01*
X118975624Y-107342773D01*
X118967484Y-107348719D01*
X118966345Y-107349894D01*
X118954977Y-107368826D01*
X118937635Y-107405669D01*
X118916050Y-107455913D01*
X118891954Y-107515046D01*
X118867079Y-107578556D01*
X118843157Y-107641932D01*
X118821919Y-107700662D01*
X118805097Y-107750235D01*
X118794422Y-107786139D01*
X118791627Y-107803862D01*
X118791860Y-107804483D01*
X118801331Y-107818970D01*
X118822818Y-107850844D01*
X118854063Y-107896789D01*
X118892807Y-107953485D01*
X118936793Y-108017617D01*
X118949319Y-108035842D01*
X118993984Y-108101914D01*
X119033288Y-108162200D01*
X119065088Y-108213235D01*
X119087245Y-108251560D01*
X119097617Y-108273711D01*
X119098119Y-108276432D01*
X119089405Y-108290736D01*
X119065325Y-108319072D01*
X119028976Y-108358396D01*
X118983453Y-108405661D01*
X118931852Y-108457823D01*
X118877267Y-108511835D01*
X118822794Y-108564653D01*
X118771529Y-108613231D01*
X118726567Y-108654523D01*
X118691004Y-108685485D01*
X118667935Y-108703070D01*
X118661554Y-108705941D01*
X118646699Y-108699178D01*
X118616286Y-108680939D01*
X118575268Y-108654297D01*
X118543709Y-108632852D01*
X118486525Y-108593503D01*
X118418806Y-108547171D01*
X118350880Y-108500913D01*
X118314361Y-108476155D01*
X118190752Y-108392547D01*
X118086991Y-108448650D01*
X118039720Y-108473228D01*
X117999523Y-108492331D01*
X117972326Y-108503227D01*
X117965402Y-108504743D01*
X117957077Y-108493549D01*
X117940654Y-108461917D01*
X117917357Y-108412765D01*
X117888414Y-108349010D01*
X117855050Y-108273571D01*
X117818491Y-108189364D01*
X117779964Y-108099308D01*
X117740694Y-108006321D01*
X117701908Y-107913320D01*
X117664830Y-107823223D01*
X117630689Y-107738948D01*
X117600708Y-107663413D01*
X117576116Y-107599534D01*
X117558136Y-107550231D01*
X117547997Y-107518421D01*
X117546366Y-107507496D01*
X117559291Y-107493561D01*
X117587589Y-107470940D01*
X117625346Y-107444333D01*
X117628515Y-107442228D01*
X117726100Y-107364114D01*
X117804786Y-107272982D01*
X117863891Y-107171745D01*
X117902732Y-107063318D01*
X117920628Y-106950614D01*
X117916897Y-106836548D01*
X117890857Y-106724034D01*
X117841825Y-106615985D01*
X117827400Y-106592345D01*
X117752369Y-106496887D01*
X117663730Y-106420232D01*
X117564549Y-106362780D01*
X117457895Y-106324929D01*
X117346836Y-106307078D01*
X117234439Y-106309625D01*
X117123773Y-106332970D01*
X117017906Y-106377510D01*
X116919905Y-106443645D01*
X116889590Y-106470487D01*
X116812438Y-106554512D01*
X116756218Y-106642966D01*
X116717653Y-106742115D01*
X116696174Y-106840303D01*
X116690872Y-106950697D01*
X116708552Y-107061640D01*
X116747419Y-107169381D01*
X116805677Y-107270169D01*
X116881531Y-107360256D01*
X116973183Y-107435892D01*
X116985228Y-107443864D01*
X117023389Y-107469974D01*
X117052399Y-107492595D01*
X117066268Y-107507039D01*
X117066469Y-107507496D01*
X117063492Y-107523121D01*
X117051689Y-107558582D01*
X117032286Y-107610962D01*
X117006512Y-107677345D01*
X116975591Y-107754814D01*
X116940751Y-107840450D01*
X116903217Y-107931337D01*
X116864217Y-108024559D01*
X116824977Y-108117197D01*
X116786724Y-108206335D01*
X116750683Y-108289055D01*
X116718083Y-108362441D01*
X116690148Y-108423575D01*
X116668105Y-108469541D01*
X116653182Y-108497421D01*
X116647172Y-108504743D01*
X116628809Y-108499041D01*
X116594448Y-108483749D01*
X116550016Y-108461599D01*
X116525583Y-108448650D01*
X116421822Y-108392547D01*
X116298213Y-108476155D01*
X116235114Y-108518987D01*
X116166030Y-108566122D01*
X116101293Y-108610503D01*
X116068866Y-108632852D01*
X116023259Y-108663477D01*
X115984640Y-108687747D01*
X115958048Y-108702587D01*
X115949410Y-108705724D01*
X115936839Y-108697261D01*
X115909016Y-108673636D01*
X115868639Y-108637302D01*
X115818405Y-108590711D01*
X115761012Y-108536317D01*
X115724714Y-108501392D01*
X115661210Y-108438996D01*
X115606327Y-108383188D01*
X115562286Y-108336354D01*
X115531305Y-108300882D01*
X115515602Y-108279161D01*
X115514095Y-108274752D01*
X115521086Y-108257985D01*
X115540406Y-108224082D01*
X115569909Y-108176476D01*
X115607455Y-108118599D01*
X115650900Y-108053884D01*
X115663255Y-108035842D01*
X115708273Y-107970267D01*
X115748660Y-107911228D01*
X115782160Y-107862042D01*
X115806514Y-107826028D01*
X115819464Y-107806502D01*
X115820715Y-107804483D01*
X115818844Y-107788922D01*
X115808913Y-107754709D01*
X115792653Y-107706355D01*
X115771795Y-107648371D01*
X115748073Y-107585270D01*
X115723216Y-107521563D01*
X115698958Y-107461761D01*
X115677029Y-107410376D01*
X115659162Y-107371919D01*
X115647087Y-107350902D01*
X115646229Y-107349894D01*
X115638846Y-107343888D01*
X115626375Y-107337948D01*
X115606080Y-107331460D01*
X115575222Y-107323809D01*
X115531066Y-107314380D01*
X115470874Y-107302559D01*
X115391907Y-107287729D01*
X115291430Y-107269277D01*
X115269675Y-107265310D01*
X115205198Y-107252853D01*
X115148989Y-107240666D01*
X115106013Y-107229926D01*
X115081240Y-107221809D01*
X115077918Y-107219916D01*
X115072444Y-107203138D01*
X115067994Y-107165645D01*
X115064572Y-107111794D01*
X115062181Y-107045944D01*
X115060823Y-106972453D01*
X115060501Y-106895680D01*
X115061219Y-106819983D01*
X115062979Y-106749720D01*
X115065784Y-106689250D01*
X115069638Y-106642930D01*
X115074543Y-106615119D01*
X115077500Y-106609427D01*
X115093963Y-106603686D01*
X115131449Y-106594345D01*
X115186225Y-106582215D01*
X115254555Y-106568107D01*
X115332706Y-106552830D01*
X115375284Y-106544823D01*
X115456071Y-106529721D01*
X115528113Y-106516040D01*
X115587889Y-106504467D01*
X115631879Y-106495687D01*
X115656561Y-106490387D01*
X115660623Y-106489212D01*
X115667489Y-106475965D01*
X115682002Y-106444057D01*
X115702229Y-106398047D01*
X115726234Y-106342492D01*
X115752082Y-106281953D01*
X115777840Y-106220986D01*
X115801573Y-106164151D01*
X115821346Y-106116006D01*
X115835224Y-106081110D01*
X115841274Y-106064021D01*
X115841386Y-106063274D01*
X115834528Y-106049793D01*
X115815302Y-106018770D01*
X115785728Y-105973289D01*
X115747827Y-105916432D01*
X115703620Y-105851283D01*
X115677921Y-105813862D01*
X115631093Y-105745247D01*
X115589501Y-105682952D01*
X115555175Y-105630129D01*
X115530143Y-105589927D01*
X115516435Y-105565500D01*
X115514456Y-105560024D01*
X115522966Y-105547278D01*
X115546493Y-105520063D01*
X115582032Y-105481428D01*
X115626577Y-105434423D01*
X115677123Y-105382095D01*
X115730664Y-105327495D01*
X115784195Y-105273670D01*
X115834711Y-105223670D01*
X115879206Y-105180543D01*
X115914675Y-105147339D01*
X115938113Y-105127106D01*
X115945954Y-105122278D01*
X115958720Y-105129067D01*
X115989256Y-105148142D01*
X116034590Y-105177561D01*
X116091756Y-105215381D01*
X116157784Y-105259661D01*
X116207590Y-105293395D01*
X116459236Y-105464512D01*
X116668999Y-105378041D01*
X116878763Y-105291570D01*
X116935611Y-104990018D01*
X116992460Y-104688466D01*
X117620115Y-104688466D01*
X117676964Y-104990018D01*
D11*
X97702380Y-73561904D02*
X98511904Y-73561904D01*
X98607142Y-73514285D01*
X98654761Y-73466666D01*
X98702380Y-73371428D01*
X98702380Y-73180952D01*
X98654761Y-73085714D01*
X98607142Y-73038095D01*
X98511904Y-72990476D01*
X97702380Y-72990476D01*
X98702380Y-71990476D02*
X98702380Y-72561904D01*
X98702380Y-72276190D02*
X97702380Y-72276190D01*
X97845238Y-72371428D01*
X97940476Y-72466666D01*
X97988095Y-72561904D01*
X102261904Y-89752380D02*
X102261904Y-88752380D01*
X102642857Y-88752380D01*
X102738095Y-88800000D01*
X102785714Y-88847619D01*
X102833333Y-88942857D01*
X102833333Y-89085714D01*
X102785714Y-89180952D01*
X102738095Y-89228571D01*
X102642857Y-89276190D01*
X102261904Y-89276190D01*
X103690476Y-88752380D02*
X103500000Y-88752380D01*
X103404761Y-88800000D01*
X103357142Y-88847619D01*
X103261904Y-88990476D01*
X103214285Y-89180952D01*
X103214285Y-89561904D01*
X103261904Y-89657142D01*
X103309523Y-89704761D01*
X103404761Y-89752380D01*
X103595238Y-89752380D01*
X103690476Y-89704761D01*
X103738095Y-89657142D01*
X103785714Y-89561904D01*
X103785714Y-89323809D01*
X103738095Y-89228571D01*
X103690476Y-89180952D01*
X103595238Y-89133333D01*
X103404761Y-89133333D01*
X103309523Y-89180952D01*
X103261904Y-89228571D01*
X103214285Y-89323809D01*
X149833333Y-62357142D02*
X149785714Y-62404761D01*
X149642857Y-62452380D01*
X149547619Y-62452380D01*
X149404761Y-62404761D01*
X149309523Y-62309523D01*
X149261904Y-62214285D01*
X149214285Y-62023809D01*
X149214285Y-61880952D01*
X149261904Y-61690476D01*
X149309523Y-61595238D01*
X149404761Y-61500000D01*
X149547619Y-61452380D01*
X149642857Y-61452380D01*
X149785714Y-61500000D01*
X149833333Y-61547619D01*
X150690476Y-61452380D02*
X150500000Y-61452380D01*
X150404761Y-61500000D01*
X150357142Y-61547619D01*
X150261904Y-61690476D01*
X150214285Y-61880952D01*
X150214285Y-62261904D01*
X150261904Y-62357142D01*
X150309523Y-62404761D01*
X150404761Y-62452380D01*
X150595238Y-62452380D01*
X150690476Y-62404761D01*
X150738095Y-62357142D01*
X150785714Y-62261904D01*
X150785714Y-62023809D01*
X150738095Y-61928571D01*
X150690476Y-61880952D01*
X150595238Y-61833333D01*
X150404761Y-61833333D01*
X150309523Y-61880952D01*
X150261904Y-61928571D01*
X150214285Y-62023809D01*
X101433333Y-80057142D02*
X101385714Y-80104761D01*
X101242857Y-80152380D01*
X101147619Y-80152380D01*
X101004761Y-80104761D01*
X100909523Y-80009523D01*
X100861904Y-79914285D01*
X100814285Y-79723809D01*
X100814285Y-79580952D01*
X100861904Y-79390476D01*
X100909523Y-79295238D01*
X101004761Y-79200000D01*
X101147619Y-79152380D01*
X101242857Y-79152380D01*
X101385714Y-79200000D01*
X101433333Y-79247619D01*
X101814285Y-79247619D02*
X101861904Y-79200000D01*
X101957142Y-79152380D01*
X102195238Y-79152380D01*
X102290476Y-79200000D01*
X102338095Y-79247619D01*
X102385714Y-79342857D01*
X102385714Y-79438095D01*
X102338095Y-79580952D01*
X101766666Y-80152380D01*
X102385714Y-80152380D01*
X152857142Y-72666666D02*
X152904761Y-72714285D01*
X152952380Y-72857142D01*
X152952380Y-72952380D01*
X152904761Y-73095238D01*
X152809523Y-73190476D01*
X152714285Y-73238095D01*
X152523809Y-73285714D01*
X152380952Y-73285714D01*
X152190476Y-73238095D01*
X152095238Y-73190476D01*
X152000000Y-73095238D01*
X151952380Y-72952380D01*
X151952380Y-72857142D01*
X152000000Y-72714285D01*
X152047619Y-72666666D01*
X152285714Y-71809523D02*
X152952380Y-71809523D01*
X151904761Y-72047619D02*
X152619047Y-72285714D01*
X152619047Y-71666666D01*
X105333333Y-67857142D02*
X105285714Y-67904761D01*
X105142857Y-67952380D01*
X105047619Y-67952380D01*
X104904761Y-67904761D01*
X104809523Y-67809523D01*
X104761904Y-67714285D01*
X104714285Y-67523809D01*
X104714285Y-67380952D01*
X104761904Y-67190476D01*
X104809523Y-67095238D01*
X104904761Y-67000000D01*
X105047619Y-66952380D01*
X105142857Y-66952380D01*
X105285714Y-67000000D01*
X105333333Y-67047619D01*
X106238095Y-66952380D02*
X105761904Y-66952380D01*
X105714285Y-67428571D01*
X105761904Y-67380952D01*
X105857142Y-67333333D01*
X106095238Y-67333333D01*
X106190476Y-67380952D01*
X106238095Y-67428571D01*
X106285714Y-67523809D01*
X106285714Y-67761904D01*
X106238095Y-67857142D01*
X106190476Y-67904761D01*
X106095238Y-67952380D01*
X105857142Y-67952380D01*
X105761904Y-67904761D01*
X105714285Y-67857142D01*
X158833333Y-62357142D02*
X158785714Y-62404761D01*
X158642857Y-62452380D01*
X158547619Y-62452380D01*
X158404761Y-62404761D01*
X158309523Y-62309523D01*
X158261904Y-62214285D01*
X158214285Y-62023809D01*
X158214285Y-61880952D01*
X158261904Y-61690476D01*
X158309523Y-61595238D01*
X158404761Y-61500000D01*
X158547619Y-61452380D01*
X158642857Y-61452380D01*
X158785714Y-61500000D01*
X158833333Y-61547619D01*
X159166666Y-61452380D02*
X159833333Y-61452380D01*
X159404761Y-62452380D01*
X101433333Y-78357142D02*
X101385714Y-78404761D01*
X101242857Y-78452380D01*
X101147619Y-78452380D01*
X101004761Y-78404761D01*
X100909523Y-78309523D01*
X100861904Y-78214285D01*
X100814285Y-78023809D01*
X100814285Y-77880952D01*
X100861904Y-77690476D01*
X100909523Y-77595238D01*
X101004761Y-77500000D01*
X101147619Y-77452380D01*
X101242857Y-77452380D01*
X101385714Y-77500000D01*
X101433333Y-77547619D01*
X102385714Y-78452380D02*
X101814285Y-78452380D01*
X102100000Y-78452380D02*
X102100000Y-77452380D01*
X102004761Y-77595238D01*
X101909523Y-77690476D01*
X101814285Y-77738095D01*
X152857142Y-76166666D02*
X152904761Y-76214285D01*
X152952380Y-76357142D01*
X152952380Y-76452380D01*
X152904761Y-76595238D01*
X152809523Y-76690476D01*
X152714285Y-76738095D01*
X152523809Y-76785714D01*
X152380952Y-76785714D01*
X152190476Y-76738095D01*
X152095238Y-76690476D01*
X152000000Y-76595238D01*
X151952380Y-76452380D01*
X151952380Y-76357142D01*
X152000000Y-76214285D01*
X152047619Y-76166666D01*
X151952380Y-75833333D02*
X151952380Y-75214285D01*
X152333333Y-75547619D01*
X152333333Y-75404761D01*
X152380952Y-75309523D01*
X152428571Y-75261904D01*
X152523809Y-75214285D01*
X152761904Y-75214285D01*
X152857142Y-75261904D01*
X152904761Y-75309523D01*
X152952380Y-75404761D01*
X152952380Y-75690476D01*
X152904761Y-75785714D01*
X152857142Y-75833333D01*
X156861904Y-108852380D02*
X156861904Y-107852380D01*
X157100000Y-107852380D01*
X157242857Y-107900000D01*
X157338095Y-107995238D01*
X157385714Y-108090476D01*
X157433333Y-108280952D01*
X157433333Y-108423809D01*
X157385714Y-108614285D01*
X157338095Y-108709523D01*
X157242857Y-108804761D01*
X157100000Y-108852380D01*
X156861904Y-108852380D01*
X158385714Y-108852380D02*
X157814285Y-108852380D01*
X158100000Y-108852380D02*
X158100000Y-107852380D01*
X158004761Y-107995238D01*
X157909523Y-108090476D01*
X157814285Y-108138095D01*
X157761904Y-72052380D02*
X157761904Y-71052380D01*
X158000000Y-71052380D01*
X158142857Y-71100000D01*
X158238095Y-71195238D01*
X158285714Y-71290476D01*
X158333333Y-71480952D01*
X158333333Y-71623809D01*
X158285714Y-71814285D01*
X158238095Y-71909523D01*
X158142857Y-72004761D01*
X158000000Y-72052380D01*
X157761904Y-72052380D01*
X158714285Y-71147619D02*
X158761904Y-71100000D01*
X158857142Y-71052380D01*
X159095238Y-71052380D01*
X159190476Y-71100000D01*
X159238095Y-71147619D01*
X159285714Y-71242857D01*
X159285714Y-71338095D01*
X159238095Y-71480952D01*
X158666666Y-72052380D01*
X159285714Y-72052380D01*
X105357142Y-66452380D02*
X105023809Y-65976190D01*
X104785714Y-66452380D02*
X104785714Y-65452380D01*
X105166666Y-65452380D01*
X105261904Y-65500000D01*
X105309523Y-65547619D01*
X105357142Y-65642857D01*
X105357142Y-65785714D01*
X105309523Y-65880952D01*
X105261904Y-65928571D01*
X105166666Y-65976190D01*
X104785714Y-65976190D01*
X106309523Y-66452380D02*
X105738095Y-66452380D01*
X106023809Y-66452380D02*
X106023809Y-65452380D01*
X105928571Y-65595238D01*
X105833333Y-65690476D01*
X105738095Y-65738095D01*
X106642857Y-65452380D02*
X107261904Y-65452380D01*
X106928571Y-65833333D01*
X107071428Y-65833333D01*
X107166666Y-65880952D01*
X107214285Y-65928571D01*
X107261904Y-66023809D01*
X107261904Y-66261904D01*
X107214285Y-66357142D01*
X107166666Y-66404761D01*
X107071428Y-66452380D01*
X106785714Y-66452380D01*
X106690476Y-66404761D01*
X106642857Y-66357142D01*
X116452380Y-96952380D02*
X116119047Y-96476190D01*
X115880952Y-96952380D02*
X115880952Y-95952380D01*
X116261904Y-95952380D01*
X116357142Y-96000000D01*
X116404761Y-96047619D01*
X116452380Y-96142857D01*
X116452380Y-96285714D01*
X116404761Y-96380952D01*
X116357142Y-96428571D01*
X116261904Y-96476190D01*
X115880952Y-96476190D01*
X116738095Y-95952380D02*
X117309523Y-95952380D01*
X117023809Y-96952380D02*
X117023809Y-95952380D01*
X118166666Y-96952380D02*
X117595238Y-96952380D01*
X117880952Y-96952380D02*
X117880952Y-95952380D01*
X117785714Y-96095238D01*
X117690476Y-96190476D01*
X117595238Y-96238095D01*
X102552380Y-83242857D02*
X102076190Y-83576190D01*
X102552380Y-83814285D02*
X101552380Y-83814285D01*
X101552380Y-83433333D01*
X101600000Y-83338095D01*
X101647619Y-83290476D01*
X101742857Y-83242857D01*
X101885714Y-83242857D01*
X101980952Y-83290476D01*
X102028571Y-83338095D01*
X102076190Y-83433333D01*
X102076190Y-83814285D01*
X102552380Y-82290476D02*
X102552380Y-82861904D01*
X102552380Y-82576190D02*
X101552380Y-82576190D01*
X101695238Y-82671428D01*
X101790476Y-82766666D01*
X101838095Y-82861904D01*
X101552380Y-81385714D02*
X101552380Y-81861904D01*
X102028571Y-81909523D01*
X101980952Y-81861904D01*
X101933333Y-81766666D01*
X101933333Y-81528571D01*
X101980952Y-81433333D01*
X102028571Y-81385714D01*
X102123809Y-81338095D01*
X102361904Y-81338095D01*
X102457142Y-81385714D01*
X102504761Y-81433333D01*
X102552380Y-81528571D01*
X102552380Y-81766666D01*
X102504761Y-81861904D01*
X102457142Y-81909523D01*
X104052380Y-83242857D02*
X103576190Y-83576190D01*
X104052380Y-83814285D02*
X103052380Y-83814285D01*
X103052380Y-83433333D01*
X103100000Y-83338095D01*
X103147619Y-83290476D01*
X103242857Y-83242857D01*
X103385714Y-83242857D01*
X103480952Y-83290476D01*
X103528571Y-83338095D01*
X103576190Y-83433333D01*
X103576190Y-83814285D01*
X104052380Y-82290476D02*
X104052380Y-82861904D01*
X104052380Y-82576190D02*
X103052380Y-82576190D01*
X103195238Y-82671428D01*
X103290476Y-82766666D01*
X103338095Y-82861904D01*
X103052380Y-81433333D02*
X103052380Y-81623809D01*
X103100000Y-81719047D01*
X103147619Y-81766666D01*
X103290476Y-81861904D01*
X103480952Y-81909523D01*
X103861904Y-81909523D01*
X103957142Y-81861904D01*
X104004761Y-81814285D01*
X104052380Y-81719047D01*
X104052380Y-81528571D01*
X104004761Y-81433333D01*
X103957142Y-81385714D01*
X103861904Y-81338095D01*
X103623809Y-81338095D01*
X103528571Y-81385714D01*
X103480952Y-81433333D01*
X103433333Y-81528571D01*
X103433333Y-81719047D01*
X103480952Y-81814285D01*
X103528571Y-81861904D01*
X103623809Y-81909523D01*
X101152380Y-83242857D02*
X100676190Y-83576190D01*
X101152380Y-83814285D02*
X100152380Y-83814285D01*
X100152380Y-83433333D01*
X100200000Y-83338095D01*
X100247619Y-83290476D01*
X100342857Y-83242857D01*
X100485714Y-83242857D01*
X100580952Y-83290476D01*
X100628571Y-83338095D01*
X100676190Y-83433333D01*
X100676190Y-83814285D01*
X101152380Y-82290476D02*
X101152380Y-82861904D01*
X101152380Y-82576190D02*
X100152380Y-82576190D01*
X100295238Y-82671428D01*
X100390476Y-82766666D01*
X100438095Y-82861904D01*
X100485714Y-81433333D02*
X101152380Y-81433333D01*
X100104761Y-81671428D02*
X100819047Y-81909523D01*
X100819047Y-81290476D01*
X140452380Y-74642857D02*
X139976190Y-74976190D01*
X140452380Y-75214285D02*
X139452380Y-75214285D01*
X139452380Y-74833333D01*
X139500000Y-74738095D01*
X139547619Y-74690476D01*
X139642857Y-74642857D01*
X139785714Y-74642857D01*
X139880952Y-74690476D01*
X139928571Y-74738095D01*
X139976190Y-74833333D01*
X139976190Y-75214285D01*
X140452380Y-73690476D02*
X140452380Y-74261904D01*
X140452380Y-73976190D02*
X139452380Y-73976190D01*
X139595238Y-74071428D01*
X139690476Y-74166666D01*
X139738095Y-74261904D01*
X140452380Y-72738095D02*
X140452380Y-73309523D01*
X140452380Y-73023809D02*
X139452380Y-73023809D01*
X139595238Y-73119047D01*
X139690476Y-73214285D01*
X139738095Y-73309523D01*
X140452380Y-103642857D02*
X139976190Y-103976190D01*
X140452380Y-104214285D02*
X139452380Y-104214285D01*
X139452380Y-103833333D01*
X139500000Y-103738095D01*
X139547619Y-103690476D01*
X139642857Y-103642857D01*
X139785714Y-103642857D01*
X139880952Y-103690476D01*
X139928571Y-103738095D01*
X139976190Y-103833333D01*
X139976190Y-104214285D01*
X140452380Y-102690476D02*
X140452380Y-103261904D01*
X140452380Y-102976190D02*
X139452380Y-102976190D01*
X139595238Y-103071428D01*
X139690476Y-103166666D01*
X139738095Y-103261904D01*
X139452380Y-102071428D02*
X139452380Y-101976190D01*
X139500000Y-101880952D01*
X139547619Y-101833333D01*
X139642857Y-101785714D01*
X139833333Y-101738095D01*
X140071428Y-101738095D01*
X140261904Y-101785714D01*
X140357142Y-101833333D01*
X140404761Y-101880952D01*
X140452380Y-101976190D01*
X140452380Y-102071428D01*
X140404761Y-102166666D01*
X140357142Y-102214285D01*
X140261904Y-102261904D01*
X140071428Y-102309523D01*
X139833333Y-102309523D01*
X139642857Y-102261904D01*
X139547619Y-102214285D01*
X139500000Y-102166666D01*
X139452380Y-102071428D01*
X115333333Y-101952380D02*
X115000000Y-101476190D01*
X114761904Y-101952380D02*
X114761904Y-100952380D01*
X115142857Y-100952380D01*
X115238095Y-101000000D01*
X115285714Y-101047619D01*
X115333333Y-101142857D01*
X115333333Y-101285714D01*
X115285714Y-101380952D01*
X115238095Y-101428571D01*
X115142857Y-101476190D01*
X114761904Y-101476190D01*
X115809523Y-101952380D02*
X116000000Y-101952380D01*
X116095238Y-101904761D01*
X116142857Y-101857142D01*
X116238095Y-101714285D01*
X116285714Y-101523809D01*
X116285714Y-101142857D01*
X116238095Y-101047619D01*
X116190476Y-101000000D01*
X116095238Y-100952380D01*
X115904761Y-100952380D01*
X115809523Y-101000000D01*
X115761904Y-101047619D01*
X115714285Y-101142857D01*
X115714285Y-101380952D01*
X115761904Y-101476190D01*
X115809523Y-101523809D01*
X115904761Y-101571428D01*
X116095238Y-101571428D01*
X116190476Y-101523809D01*
X116238095Y-101476190D01*
X116285714Y-101380952D01*
X98952380Y-85066666D02*
X98476190Y-85400000D01*
X98952380Y-85638095D02*
X97952380Y-85638095D01*
X97952380Y-85257142D01*
X98000000Y-85161904D01*
X98047619Y-85114285D01*
X98142857Y-85066666D01*
X98285714Y-85066666D01*
X98380952Y-85114285D01*
X98428571Y-85161904D01*
X98476190Y-85257142D01*
X98476190Y-85638095D01*
X98380952Y-84495238D02*
X98333333Y-84590476D01*
X98285714Y-84638095D01*
X98190476Y-84685714D01*
X98142857Y-84685714D01*
X98047619Y-84638095D01*
X98000000Y-84590476D01*
X97952380Y-84495238D01*
X97952380Y-84304761D01*
X98000000Y-84209523D01*
X98047619Y-84161904D01*
X98142857Y-84114285D01*
X98190476Y-84114285D01*
X98285714Y-84161904D01*
X98333333Y-84209523D01*
X98380952Y-84304761D01*
X98380952Y-84495238D01*
X98428571Y-84590476D01*
X98476190Y-84638095D01*
X98571428Y-84685714D01*
X98761904Y-84685714D01*
X98857142Y-84638095D01*
X98904761Y-84590476D01*
X98952380Y-84495238D01*
X98952380Y-84304761D01*
X98904761Y-84209523D01*
X98857142Y-84161904D01*
X98761904Y-84114285D01*
X98571428Y-84114285D01*
X98476190Y-84161904D01*
X98428571Y-84209523D01*
X98380952Y-84304761D01*
X116157142Y-78952380D02*
X115823809Y-78476190D01*
X115585714Y-78952380D02*
X115585714Y-77952380D01*
X115966666Y-77952380D01*
X116061904Y-78000000D01*
X116109523Y-78047619D01*
X116157142Y-78142857D01*
X116157142Y-78285714D01*
X116109523Y-78380952D01*
X116061904Y-78428571D01*
X115966666Y-78476190D01*
X115585714Y-78476190D01*
X117109523Y-78952380D02*
X116538095Y-78952380D01*
X116823809Y-78952380D02*
X116823809Y-77952380D01*
X116728571Y-78095238D01*
X116633333Y-78190476D01*
X116538095Y-78238095D01*
X117490476Y-78047619D02*
X117538095Y-78000000D01*
X117633333Y-77952380D01*
X117871428Y-77952380D01*
X117966666Y-78000000D01*
X118014285Y-78047619D01*
X118061904Y-78142857D01*
X118061904Y-78238095D01*
X118014285Y-78380952D01*
X117442857Y-78952380D01*
X118061904Y-78952380D01*
X113452380Y-91166666D02*
X112976190Y-91500000D01*
X113452380Y-91738095D02*
X112452380Y-91738095D01*
X112452380Y-91357142D01*
X112500000Y-91261904D01*
X112547619Y-91214285D01*
X112642857Y-91166666D01*
X112785714Y-91166666D01*
X112880952Y-91214285D01*
X112928571Y-91261904D01*
X112976190Y-91357142D01*
X112976190Y-91738095D01*
X112452380Y-90261904D02*
X112452380Y-90738095D01*
X112928571Y-90785714D01*
X112880952Y-90738095D01*
X112833333Y-90642857D01*
X112833333Y-90404761D01*
X112880952Y-90309523D01*
X112928571Y-90261904D01*
X113023809Y-90214285D01*
X113261904Y-90214285D01*
X113357142Y-90261904D01*
X113404761Y-90309523D01*
X113452380Y-90404761D01*
X113452380Y-90642857D01*
X113404761Y-90738095D01*
X113357142Y-90785714D01*
X113452380Y-83166666D02*
X112976190Y-83500000D01*
X113452380Y-83738095D02*
X112452380Y-83738095D01*
X112452380Y-83357142D01*
X112500000Y-83261904D01*
X112547619Y-83214285D01*
X112642857Y-83166666D01*
X112785714Y-83166666D01*
X112880952Y-83214285D01*
X112928571Y-83261904D01*
X112976190Y-83357142D01*
X112976190Y-83738095D01*
X112452380Y-82833333D02*
X112452380Y-82166666D01*
X113452380Y-82595238D01*
X113452380Y-87166666D02*
X112976190Y-87500000D01*
X113452380Y-87738095D02*
X112452380Y-87738095D01*
X112452380Y-87357142D01*
X112500000Y-87261904D01*
X112547619Y-87214285D01*
X112642857Y-87166666D01*
X112785714Y-87166666D01*
X112880952Y-87214285D01*
X112928571Y-87261904D01*
X112976190Y-87357142D01*
X112976190Y-87738095D01*
X112452380Y-86309523D02*
X112452380Y-86500000D01*
X112500000Y-86595238D01*
X112547619Y-86642857D01*
X112690476Y-86738095D01*
X112880952Y-86785714D01*
X113261904Y-86785714D01*
X113357142Y-86738095D01*
X113404761Y-86690476D01*
X113452380Y-86595238D01*
X113452380Y-86404761D01*
X113404761Y-86309523D01*
X113357142Y-86261904D01*
X113261904Y-86214285D01*
X113023809Y-86214285D01*
X112928571Y-86261904D01*
X112880952Y-86309523D01*
X112833333Y-86404761D01*
X112833333Y-86595238D01*
X112880952Y-86690476D01*
X112928571Y-86738095D01*
X113023809Y-86785714D01*
X105504761Y-77697619D02*
X105409523Y-77650000D01*
X105314285Y-77554761D01*
X105171428Y-77411904D01*
X105076190Y-77364285D01*
X104980952Y-77364285D01*
X105028571Y-77602380D02*
X104933333Y-77554761D01*
X104838095Y-77459523D01*
X104790476Y-77269047D01*
X104790476Y-76935714D01*
X104838095Y-76745238D01*
X104933333Y-76650000D01*
X105028571Y-76602380D01*
X105219047Y-76602380D01*
X105314285Y-76650000D01*
X105409523Y-76745238D01*
X105457142Y-76935714D01*
X105457142Y-77269047D01*
X105409523Y-77459523D01*
X105314285Y-77554761D01*
X105219047Y-77602380D01*
X105028571Y-77602380D01*
X106361904Y-76602380D02*
X105885714Y-76602380D01*
X105838095Y-77078571D01*
X105885714Y-77030952D01*
X105980952Y-76983333D01*
X106219047Y-76983333D01*
X106314285Y-77030952D01*
X106361904Y-77078571D01*
X106409523Y-77173809D01*
X106409523Y-77411904D01*
X106361904Y-77507142D01*
X106314285Y-77554761D01*
X106219047Y-77602380D01*
X105980952Y-77602380D01*
X105885714Y-77554761D01*
X105838095Y-77507142D01*
X169261904Y-116452380D02*
X169261904Y-115452380D01*
X169642857Y-115452380D01*
X169738095Y-115500000D01*
X169785714Y-115547619D01*
X169833333Y-115642857D01*
X169833333Y-115785714D01*
X169785714Y-115880952D01*
X169738095Y-115928571D01*
X169642857Y-115976190D01*
X169261904Y-115976190D01*
X170690476Y-115785714D02*
X170690476Y-116452380D01*
X170452380Y-115404761D02*
X170214285Y-116119047D01*
X170833333Y-116119047D01*
X170261904Y-62452380D02*
X170261904Y-61452380D01*
X170642857Y-61452380D01*
X170738095Y-61500000D01*
X170785714Y-61547619D01*
X170833333Y-61642857D01*
X170833333Y-61785714D01*
X170785714Y-61880952D01*
X170738095Y-61928571D01*
X170642857Y-61976190D01*
X170261904Y-61976190D01*
X171738095Y-61452380D02*
X171261904Y-61452380D01*
X171214285Y-61928571D01*
X171261904Y-61880952D01*
X171357142Y-61833333D01*
X171595238Y-61833333D01*
X171690476Y-61880952D01*
X171738095Y-61928571D01*
X171785714Y-62023809D01*
X171785714Y-62261904D01*
X171738095Y-62357142D01*
X171690476Y-62404761D01*
X171595238Y-62452380D01*
X171357142Y-62452380D01*
X171261904Y-62404761D01*
X171214285Y-62357142D01*
X124261904Y-88452380D02*
X124261904Y-87452380D01*
X124642857Y-87452380D01*
X124738095Y-87500000D01*
X124785714Y-87547619D01*
X124833333Y-87642857D01*
X124833333Y-87785714D01*
X124785714Y-87880952D01*
X124738095Y-87928571D01*
X124642857Y-87976190D01*
X124261904Y-87976190D01*
X125785714Y-88452380D02*
X125214285Y-88452380D01*
X125500000Y-88452380D02*
X125500000Y-87452380D01*
X125404761Y-87595238D01*
X125309523Y-87690476D01*
X125214285Y-87738095D01*
X131761904Y-115952380D02*
X131761904Y-114952380D01*
X132142857Y-114952380D01*
X132238095Y-115000000D01*
X132285714Y-115047619D01*
X132333333Y-115142857D01*
X132333333Y-115285714D01*
X132285714Y-115380952D01*
X132238095Y-115428571D01*
X132142857Y-115476190D01*
X131761904Y-115476190D01*
X132714285Y-115047619D02*
X132761904Y-115000000D01*
X132857142Y-114952380D01*
X133095238Y-114952380D01*
X133190476Y-115000000D01*
X133238095Y-115047619D01*
X133285714Y-115142857D01*
X133285714Y-115238095D01*
X133238095Y-115380952D01*
X132666666Y-115952380D01*
X133285714Y-115952380D01*
X131761904Y-62452380D02*
X131761904Y-61452380D01*
X132142857Y-61452380D01*
X132238095Y-61500000D01*
X132285714Y-61547619D01*
X132333333Y-61642857D01*
X132333333Y-61785714D01*
X132285714Y-61880952D01*
X132238095Y-61928571D01*
X132142857Y-61976190D01*
X131761904Y-61976190D01*
X132666666Y-61452380D02*
X133285714Y-61452380D01*
X132952380Y-61833333D01*
X133095238Y-61833333D01*
X133190476Y-61880952D01*
X133238095Y-61928571D01*
X133285714Y-62023809D01*
X133285714Y-62261904D01*
X133238095Y-62357142D01*
X133190476Y-62404761D01*
X133095238Y-62452380D01*
X132809523Y-62452380D01*
X132714285Y-62404761D01*
X132666666Y-62357142D01*
X121904761Y-74547619D02*
X121809523Y-74500000D01*
X121714285Y-74404761D01*
X121571428Y-74261904D01*
X121476190Y-74214285D01*
X121380952Y-74214285D01*
X121428571Y-74452380D02*
X121333333Y-74404761D01*
X121238095Y-74309523D01*
X121190476Y-74119047D01*
X121190476Y-73785714D01*
X121238095Y-73595238D01*
X121333333Y-73500000D01*
X121428571Y-73452380D01*
X121619047Y-73452380D01*
X121714285Y-73500000D01*
X121809523Y-73595238D01*
X121857142Y-73785714D01*
X121857142Y-74119047D01*
X121809523Y-74309523D01*
X121714285Y-74404761D01*
X121619047Y-74452380D01*
X121428571Y-74452380D01*
X122714285Y-73785714D02*
X122714285Y-74452380D01*
X122476190Y-73404761D02*
X122238095Y-74119047D01*
X122857142Y-74119047D01*
X121904761Y-103547619D02*
X121809523Y-103500000D01*
X121714285Y-103404761D01*
X121571428Y-103261904D01*
X121476190Y-103214285D01*
X121380952Y-103214285D01*
X121428571Y-103452380D02*
X121333333Y-103404761D01*
X121238095Y-103309523D01*
X121190476Y-103119047D01*
X121190476Y-102785714D01*
X121238095Y-102595238D01*
X121333333Y-102500000D01*
X121428571Y-102452380D01*
X121619047Y-102452380D01*
X121714285Y-102500000D01*
X121809523Y-102595238D01*
X121857142Y-102785714D01*
X121857142Y-103119047D01*
X121809523Y-103309523D01*
X121714285Y-103404761D01*
X121619047Y-103452380D01*
X121428571Y-103452380D01*
X122809523Y-103452380D02*
X122238095Y-103452380D01*
X122523809Y-103452380D02*
X122523809Y-102452380D01*
X122428571Y-102595238D01*
X122333333Y-102690476D01*
X122238095Y-102738095D01*
X143904761Y-74547619D02*
X143809523Y-74500000D01*
X143714285Y-74404761D01*
X143571428Y-74261904D01*
X143476190Y-74214285D01*
X143380952Y-74214285D01*
X143428571Y-74452380D02*
X143333333Y-74404761D01*
X143238095Y-74309523D01*
X143190476Y-74119047D01*
X143190476Y-73785714D01*
X143238095Y-73595238D01*
X143333333Y-73500000D01*
X143428571Y-73452380D01*
X143619047Y-73452380D01*
X143714285Y-73500000D01*
X143809523Y-73595238D01*
X143857142Y-73785714D01*
X143857142Y-74119047D01*
X143809523Y-74309523D01*
X143714285Y-74404761D01*
X143619047Y-74452380D01*
X143428571Y-74452380D01*
X144238095Y-73547619D02*
X144285714Y-73500000D01*
X144380952Y-73452380D01*
X144619047Y-73452380D01*
X144714285Y-73500000D01*
X144761904Y-73547619D01*
X144809523Y-73642857D01*
X144809523Y-73738095D01*
X144761904Y-73880952D01*
X144190476Y-74452380D01*
X144809523Y-74452380D01*
X143904761Y-103547619D02*
X143809523Y-103500000D01*
X143714285Y-103404761D01*
X143571428Y-103261904D01*
X143476190Y-103214285D01*
X143380952Y-103214285D01*
X143428571Y-103452380D02*
X143333333Y-103404761D01*
X143238095Y-103309523D01*
X143190476Y-103119047D01*
X143190476Y-102785714D01*
X143238095Y-102595238D01*
X143333333Y-102500000D01*
X143428571Y-102452380D01*
X143619047Y-102452380D01*
X143714285Y-102500000D01*
X143809523Y-102595238D01*
X143857142Y-102785714D01*
X143857142Y-103119047D01*
X143809523Y-103309523D01*
X143714285Y-103404761D01*
X143619047Y-103452380D01*
X143428571Y-103452380D01*
X144190476Y-102452380D02*
X144809523Y-102452380D01*
X144476190Y-102833333D01*
X144619047Y-102833333D01*
X144714285Y-102880952D01*
X144761904Y-102928571D01*
X144809523Y-103023809D01*
X144809523Y-103261904D01*
X144761904Y-103357142D01*
X144714285Y-103404761D01*
X144619047Y-103452380D01*
X144333333Y-103452380D01*
X144238095Y-103404761D01*
X144190476Y-103357142D01*
X168833333Y-84202380D02*
X168500000Y-83726190D01*
X168261904Y-84202380D02*
X168261904Y-83202380D01*
X168642857Y-83202380D01*
X168738095Y-83250000D01*
X168785714Y-83297619D01*
X168833333Y-83392857D01*
X168833333Y-83535714D01*
X168785714Y-83630952D01*
X168738095Y-83678571D01*
X168642857Y-83726190D01*
X168261904Y-83726190D01*
X169214285Y-83297619D02*
X169261904Y-83250000D01*
X169357142Y-83202380D01*
X169595238Y-83202380D01*
X169690476Y-83250000D01*
X169738095Y-83297619D01*
X169785714Y-83392857D01*
X169785714Y-83488095D01*
X169738095Y-83630952D01*
X169166666Y-84202380D01*
X169785714Y-84202380D01*
X162833333Y-84202380D02*
X162500000Y-83726190D01*
X162261904Y-84202380D02*
X162261904Y-83202380D01*
X162642857Y-83202380D01*
X162738095Y-83250000D01*
X162785714Y-83297619D01*
X162833333Y-83392857D01*
X162833333Y-83535714D01*
X162785714Y-83630952D01*
X162738095Y-83678571D01*
X162642857Y-83726190D01*
X162261904Y-83726190D01*
X163785714Y-84202380D02*
X163214285Y-84202380D01*
X163500000Y-84202380D02*
X163500000Y-83202380D01*
X163404761Y-83345238D01*
X163309523Y-83440476D01*
X163214285Y-83488095D01*
X174833333Y-84202380D02*
X174500000Y-83726190D01*
X174261904Y-84202380D02*
X174261904Y-83202380D01*
X174642857Y-83202380D01*
X174738095Y-83250000D01*
X174785714Y-83297619D01*
X174833333Y-83392857D01*
X174833333Y-83535714D01*
X174785714Y-83630952D01*
X174738095Y-83678571D01*
X174642857Y-83726190D01*
X174261904Y-83726190D01*
X175166666Y-83202380D02*
X175785714Y-83202380D01*
X175452380Y-83583333D01*
X175595238Y-83583333D01*
X175690476Y-83630952D01*
X175738095Y-83678571D01*
X175785714Y-83773809D01*
X175785714Y-84011904D01*
X175738095Y-84107142D01*
X175690476Y-84154761D01*
X175595238Y-84202380D01*
X175309523Y-84202380D01*
X175214285Y-84154761D01*
X175166666Y-84107142D01*
X180833333Y-84202380D02*
X180500000Y-83726190D01*
X180261904Y-84202380D02*
X180261904Y-83202380D01*
X180642857Y-83202380D01*
X180738095Y-83250000D01*
X180785714Y-83297619D01*
X180833333Y-83392857D01*
X180833333Y-83535714D01*
X180785714Y-83630952D01*
X180738095Y-83678571D01*
X180642857Y-83726190D01*
X180261904Y-83726190D01*
X181690476Y-83535714D02*
X181690476Y-84202380D01*
X181452380Y-83154761D02*
X181214285Y-83869047D01*
X181833333Y-83869047D01*
X114747619Y-69752380D02*
X114271428Y-69752380D01*
X114271428Y-68752380D01*
X115080952Y-69752380D02*
X115080952Y-69085714D01*
X115080952Y-68752380D02*
X115033333Y-68800000D01*
X115080952Y-68847619D01*
X115128571Y-68800000D01*
X115080952Y-68752380D01*
X115080952Y-68847619D01*
X115557142Y-69752380D02*
X115557142Y-68752380D01*
X115557142Y-69133333D02*
X115652380Y-69085714D01*
X115842857Y-69085714D01*
X115938095Y-69133333D01*
X115985714Y-69180952D01*
X116033333Y-69276190D01*
X116033333Y-69561904D01*
X115985714Y-69657142D01*
X115938095Y-69704761D01*
X115842857Y-69752380D01*
X115652380Y-69752380D01*
X115557142Y-69704761D01*
X116461904Y-69752380D02*
X116461904Y-69085714D01*
X116461904Y-69276190D02*
X116509523Y-69180952D01*
X116557142Y-69133333D01*
X116652380Y-69085714D01*
X116747619Y-69085714D01*
X117461904Y-69704761D02*
X117366666Y-69752380D01*
X117176190Y-69752380D01*
X117080952Y-69704761D01*
X117033333Y-69609523D01*
X117033333Y-69228571D01*
X117080952Y-69133333D01*
X117176190Y-69085714D01*
X117366666Y-69085714D01*
X117461904Y-69133333D01*
X117509523Y-69228571D01*
X117509523Y-69323809D01*
X117033333Y-69419047D01*
X118652380Y-69704761D02*
X118795238Y-69752380D01*
X119033333Y-69752380D01*
X119128571Y-69704761D01*
X119176190Y-69657142D01*
X119223809Y-69561904D01*
X119223809Y-69466666D01*
X119176190Y-69371428D01*
X119128571Y-69323809D01*
X119033333Y-69276190D01*
X118842857Y-69228571D01*
X118747619Y-69180952D01*
X118700000Y-69133333D01*
X118652380Y-69038095D01*
X118652380Y-68942857D01*
X118700000Y-68847619D01*
X118747619Y-68800000D01*
X118842857Y-68752380D01*
X119080952Y-68752380D01*
X119223809Y-68800000D01*
X119795238Y-69752380D02*
X119700000Y-69704761D01*
X119652380Y-69657142D01*
X119604761Y-69561904D01*
X119604761Y-69276190D01*
X119652380Y-69180952D01*
X119700000Y-69133333D01*
X119795238Y-69085714D01*
X119938095Y-69085714D01*
X120033333Y-69133333D01*
X120080952Y-69180952D01*
X120128571Y-69276190D01*
X120128571Y-69561904D01*
X120080952Y-69657142D01*
X120033333Y-69704761D01*
X119938095Y-69752380D01*
X119795238Y-69752380D01*
X120700000Y-69752380D02*
X120604761Y-69704761D01*
X120557142Y-69609523D01*
X120557142Y-68752380D01*
X121509523Y-69752380D02*
X121509523Y-69228571D01*
X121461904Y-69133333D01*
X121366666Y-69085714D01*
X121176190Y-69085714D01*
X121080952Y-69133333D01*
X121509523Y-69704761D02*
X121414285Y-69752380D01*
X121176190Y-69752380D01*
X121080952Y-69704761D01*
X121033333Y-69609523D01*
X121033333Y-69514285D01*
X121080952Y-69419047D01*
X121176190Y-69371428D01*
X121414285Y-69371428D01*
X121509523Y-69323809D01*
X121985714Y-69752380D02*
X121985714Y-69085714D01*
X121985714Y-69276190D02*
X122033333Y-69180952D01*
X122080952Y-69133333D01*
X122176190Y-69085714D01*
X122271428Y-69085714D01*
M02*
