M48
;DRILL file {KiCad (2017-05-10 revision 747583606)-makepkg} date 05/29/17 23:10:51
;FORMAT={-:-/ absolute / metric / decimal}
FMAT,2
METRIC,TZ
T1C0.300
T2C0.400
T3C0.500
T4C1.850
T5C2.500
%
G90
G05
M71
T1
X104.5Y-73.5
X107.3Y-99.4
T2
X99.1Y-79.
X101.Y-102.
X102.5Y-97.
X102.5Y-98.
X102.975Y-74.225
X104.5Y-68.5
X104.7Y-91.7
X105.7Y-102.7
X106.9Y-77.6
X172.Y-88.
X172.Y-89.5
T3
X109.Y-80.
X111.Y-80.
X111.Y-95.
X111.Y-97.
X113.Y-80.
X113.Y-95.
X113.Y-97.
X115.Y-80.
X115.Y-82.
X115.Y-84.
X115.Y-86.
X115.Y-91.
X115.Y-93.
X115.Y-95.
X117.Y-80.
X117.Y-82.
X117.Y-84.
X117.Y-86.
X117.Y-91.
X117.Y-93.
X117.Y-95.
X119.Y-84.
X119.Y-86.
X119.Y-91.
X119.Y-93.
X121.Y-84.
X121.Y-86.
X121.Y-91.
X121.Y-93.
X123.Y-84.
X123.Y-86.
X123.Y-91.
X123.Y-93.
X125.Y-84.
X125.Y-86.
X125.Y-91.
X125.Y-93.
X126.Y-80.
X126.Y-82.
X126.Y-95.
X126.Y-97.
X128.Y-80.
X128.Y-97.
X130.Y-80.
X130.Y-97.
X132.Y-80.
X132.Y-97.
X134.Y-80.
X134.Y-97.
X136.Y-80.
X136.Y-97.
X138.Y-80.
X138.Y-97.
X140.Y-80.
X140.Y-82.
X140.Y-95.
X140.Y-97.
X141.Y-84.
X141.Y-86.
X141.Y-91.
X141.Y-93.
X143.Y-84.
X143.Y-86.
X143.Y-91.
X143.Y-93.
X145.Y-84.
X145.Y-86.
X145.Y-91.
X145.Y-93.
X147.Y-84.
X147.Y-86.
X147.Y-91.
X147.Y-93.
X148.Y-80.
X148.Y-82.
X148.Y-95.
X148.Y-97.
X158.Y-82.
X158.Y-84.
X158.Y-92.
X158.Y-94.
X160.Y-82.
X160.Y-84.
X160.Y-92.
X160.Y-94.
X162.Y-82.
X162.Y-94.
X164.Y-82.
X164.Y-94.
X166.Y-82.
X166.Y-94.
X168.Y-82.
X168.Y-94.
X170.Y-82.
X170.Y-94.
X172.Y-82.
X172.Y-94.
X174.Y-82.
X174.Y-94.
X176.Y-82.
X176.Y-94.
X178.Y-82.
X178.Y-94.
X180.Y-82.
X180.Y-94.
X182.Y-82.
X182.Y-94.
X184.Y-82.
X184.Y-84.
X184.Y-86.
X184.Y-92.
X184.Y-94.
X186.Y-82.
X186.Y-84.
X186.Y-86.
X186.Y-92.
X186.Y-94.
T4
X128.065Y-84.315
X128.065Y-88.75
X128.065Y-93.185
X132.5Y-84.315
X132.5Y-88.75
X132.5Y-93.185
X136.935Y-84.315
X136.935Y-88.75
X136.935Y-93.185
X128.065Y-103.065
X128.065Y-107.5
X128.065Y-111.935
X132.5Y-103.065
X132.5Y-107.5
X132.5Y-111.935
X136.935Y-103.065
X136.935Y-107.5
X136.935Y-111.935
X128.065Y-65.565
X128.065Y-70.
X128.065Y-74.435
X132.5Y-65.565
X132.5Y-70.
X132.5Y-74.435
X136.935Y-65.565
X136.935Y-70.
X136.935Y-74.435
X165.565Y-103.565
X165.565Y-108.
X165.565Y-112.435
X170.Y-103.565
X170.Y-108.
X170.Y-112.435
X174.435Y-103.565
X174.435Y-108.
X174.435Y-112.435
X166.565Y-65.565
X166.565Y-70.
X166.565Y-74.435
X171.Y-65.565
X171.Y-70.
X171.Y-74.435
X175.435Y-65.565
X175.435Y-70.
X175.435Y-74.435
T5
X107.75Y-70.5
X107.75Y-107.
X185.25Y-70.5
X185.25Y-107.
T0
M30
