G04 #@! TF.GenerationSoftware,KiCad,Pcbnew,(2017-05-10 revision 747583606)-makepkg*
G04 #@! TF.CreationDate,2017-05-29T23:11:27+02:00*
G04 #@! TF.ProjectId,Switch-N-Sense,5377697463682D4E2D53656E73652E6B,rev?*
G04 #@! TF.FileFunction,Soldermask,Bot*
G04 #@! TF.FilePolarity,Negative*
%FSLAX46Y46*%
G04 Gerber Fmt 4.6, Leading zero omitted, Abs format (unit mm)*
G04 Created by KiCad (PCBNEW (2017-05-10 revision 747583606)-makepkg) date 05/29/17 23:11:27*
%MOMM*%
%LPD*%
G01*
G04 APERTURE LIST*
%ADD10C,0.100000*%
%ADD11C,3.200000*%
%ADD12C,5.000000*%
G04 APERTURE END LIST*
D10*
D11*
X165565000Y-103565000D03*
X170000000Y-103565000D03*
X174435000Y-103565000D03*
X174435000Y-108000000D03*
X170000000Y-108000000D03*
X165565000Y-108000000D03*
X165565000Y-112435000D03*
X170000000Y-112435000D03*
X174435000Y-112435000D03*
X175435000Y-74435000D03*
X171000000Y-74435000D03*
X166565000Y-74435000D03*
X166565000Y-70000000D03*
X171000000Y-70000000D03*
X175435000Y-70000000D03*
X175435000Y-65565000D03*
X171000000Y-65565000D03*
X166565000Y-65565000D03*
X128065000Y-84315000D03*
X132500000Y-84315000D03*
X136935000Y-84315000D03*
X136935000Y-88750000D03*
X132500000Y-88750000D03*
X128065000Y-88750000D03*
X128065000Y-93185000D03*
X132500000Y-93185000D03*
X136935000Y-93185000D03*
X136935000Y-111935000D03*
X132500000Y-111935000D03*
X128065000Y-111935000D03*
X128065000Y-107500000D03*
X132500000Y-107500000D03*
X136935000Y-107500000D03*
X136935000Y-103065000D03*
X132500000Y-103065000D03*
X128065000Y-103065000D03*
X128065000Y-65565000D03*
X132500000Y-65565000D03*
X136935000Y-65565000D03*
X136935000Y-70000000D03*
X132500000Y-70000000D03*
X128065000Y-70000000D03*
X128065000Y-74435000D03*
X132500000Y-74435000D03*
X136935000Y-74435000D03*
D12*
X185250000Y-70500000D03*
X185250000Y-107000000D03*
X107750000Y-107000000D03*
X107750000Y-70500000D03*
M02*
